G04 #@! TF.GenerationSoftware,KiCad,Pcbnew,no-vcs-found-67ccf76~61~ubuntu16.04.1*
G04 #@! TF.CreationDate,2018-03-20T01:29:14+05:30*
G04 #@! TF.ProjectId,wyostat,77796F737461742E6B696361645F7063,rev?*
G04 #@! TF.SameCoordinates,Original*
G04 #@! TF.FileFunction,Soldermask,Top*
G04 #@! TF.FilePolarity,Negative*
%FSLAX46Y46*%
G04 Gerber Fmt 4.6, Leading zero omitted, Abs format (unit mm)*
G04 Created by KiCad (PCBNEW no-vcs-found-67ccf76~61~ubuntu16.04.1) date Tue Mar 20 01:29:14 2018*
%MOMM*%
%LPD*%
G01*
G04 APERTURE LIST*
%ADD10R,2.900000X1.400000*%
%ADD11R,3.448000X2.051000*%
%ADD12R,6.496000X6.496000*%
%ADD13R,1.400000X3.400000*%
%ADD14C,2.940000*%
%ADD15C,2.178000*%
%ADD16R,1.950000X1.250000*%
%ADD17R,0.999440X2.398980*%
%ADD18R,1.200000X2.480000*%
%ADD19R,1.100000X0.700000*%
%ADD20C,18.796000*%
%ADD21R,5.480000X3.194000*%
%ADD22C,0.508000*%
%ADD23R,1.400000X1.650000*%
%ADD24R,1.650000X1.400000*%
%ADD25R,1.100000X1.700000*%
%ADD26R,1.700000X1.100000*%
%ADD27R,2.300000X1.600000*%
%ADD28O,2.300000X1.600000*%
%ADD29R,2.300000X1.900000*%
%ADD30C,1.850000*%
%ADD31R,1.750000X0.800000*%
%ADD32R,1.920000X2.180000*%
%ADD33O,2.127200X2.432000*%
%ADD34R,2.127200X2.432000*%
%ADD35O,2.398980X2.398980*%
%ADD36R,2.398980X2.398980*%
%ADD37C,1.500000*%
%ADD38R,1.200000X1.200000*%
%ADD39R,6.000000X2.700000*%
%ADD40R,1.100000X1.000000*%
%ADD41C,2.050000*%
%ADD42R,1.000000X1.100000*%
%ADD43C,1.200000*%
%ADD44C,6.800000*%
%ADD45R,2.900000X4.400000*%
%ADD46R,1.400000X1.400000*%
G04 APERTURE END LIST*
D10*
X77470000Y-113435000D03*
X77470000Y-116435000D03*
X77470000Y-103275000D03*
X77470000Y-106275000D03*
X77470000Y-93115000D03*
X77470000Y-96115000D03*
X99695000Y-93115000D03*
X99695000Y-96115000D03*
X99695000Y-103275000D03*
X99695000Y-106275000D03*
X99695000Y-113435000D03*
X99695000Y-116435000D03*
D11*
X91440000Y-96901000D03*
D12*
X85090000Y-94615000D03*
D11*
X91440000Y-92329000D03*
X91440000Y-107061000D03*
D12*
X85090000Y-104775000D03*
D11*
X91440000Y-102489000D03*
X91440000Y-117221000D03*
D12*
X85090000Y-114935000D03*
D11*
X91440000Y-112649000D03*
D13*
X122460000Y-56975000D03*
X126460000Y-56975000D03*
X126460000Y-50975000D03*
X122460000Y-50975000D03*
X114840000Y-41735000D03*
X118840000Y-41735000D03*
X118840000Y-35735000D03*
X114840000Y-35735000D03*
X114840000Y-56975000D03*
X118840000Y-56975000D03*
X118840000Y-50975000D03*
X114840000Y-50975000D03*
X107220000Y-56975000D03*
X111220000Y-56975000D03*
X111220000Y-50975000D03*
X107220000Y-50975000D03*
D14*
X43815000Y-35560000D03*
X102235000Y-35560000D03*
X102235000Y-58420000D03*
X43815000Y-58420000D03*
D15*
X46355000Y-59690000D03*
X48895000Y-59690000D03*
X51435000Y-59690000D03*
X53975000Y-59690000D03*
X56515000Y-59690000D03*
X59055000Y-59690000D03*
X61595000Y-59690000D03*
X64135000Y-59690000D03*
X66675000Y-59690000D03*
X69215000Y-59690000D03*
X84455000Y-34290000D03*
X81915000Y-34290000D03*
X79375000Y-34290000D03*
X76835000Y-34290000D03*
X74295000Y-34290000D03*
X71755000Y-34290000D03*
X69215000Y-34290000D03*
X66675000Y-34290000D03*
X64135000Y-34290000D03*
X61595000Y-34290000D03*
X59055000Y-34290000D03*
X56515000Y-34290000D03*
X53975000Y-34290000D03*
X51435000Y-34290000D03*
X48895000Y-34290000D03*
X46355000Y-34290000D03*
D16*
X94390000Y-79280000D03*
X94390000Y-83280000D03*
X88490000Y-83280000D03*
X88490000Y-79280000D03*
D17*
X57785000Y-63929260D03*
X59055000Y-63929260D03*
X60325000Y-63929260D03*
X61595000Y-63929260D03*
X62865000Y-63929260D03*
X64135000Y-63929260D03*
X65405000Y-63929260D03*
X66675000Y-63929260D03*
X66675000Y-73230740D03*
X65405000Y-73230740D03*
X64135000Y-73230740D03*
X62865000Y-73230740D03*
X61595000Y-73230740D03*
X60325000Y-73230740D03*
X59055000Y-73230740D03*
X57785000Y-73230740D03*
D18*
X67056000Y-79502000D03*
D19*
X66066000Y-80502000D03*
X66066000Y-80002000D03*
X66066000Y-79502000D03*
X66066000Y-79002000D03*
X66066000Y-78502000D03*
X68046000Y-78502000D03*
X68046000Y-79002000D03*
X68046000Y-79502000D03*
X68046000Y-80002000D03*
X68046000Y-80502000D03*
D20*
X42545000Y-81280000D03*
D21*
X42545000Y-70358000D03*
X42545000Y-92202000D03*
D22*
G36*
X76797870Y-67493622D02*
X76850727Y-67501462D01*
X76902560Y-67514446D01*
X76952871Y-67532448D01*
X77001176Y-67555294D01*
X77047008Y-67582765D01*
X77089927Y-67614596D01*
X77129520Y-67650480D01*
X77165404Y-67690073D01*
X77197235Y-67732992D01*
X77224706Y-67778824D01*
X77247552Y-67827129D01*
X77265554Y-67877440D01*
X77278538Y-67929273D01*
X77286378Y-67982130D01*
X77289000Y-68035500D01*
X77289000Y-69124500D01*
X77286378Y-69177870D01*
X77278538Y-69230727D01*
X77265554Y-69282560D01*
X77247552Y-69332871D01*
X77224706Y-69381176D01*
X77197235Y-69427008D01*
X77165404Y-69469927D01*
X77129520Y-69509520D01*
X77089927Y-69545404D01*
X77047008Y-69577235D01*
X77001176Y-69604706D01*
X76952871Y-69627552D01*
X76902560Y-69645554D01*
X76850727Y-69658538D01*
X76797870Y-69666378D01*
X76744500Y-69669000D01*
X75655500Y-69669000D01*
X75602130Y-69666378D01*
X75549273Y-69658538D01*
X75497440Y-69645554D01*
X75447129Y-69627552D01*
X75398824Y-69604706D01*
X75352992Y-69577235D01*
X75310073Y-69545404D01*
X75270480Y-69509520D01*
X75234596Y-69469927D01*
X75202765Y-69427008D01*
X75175294Y-69381176D01*
X75152448Y-69332871D01*
X75134446Y-69282560D01*
X75121462Y-69230727D01*
X75113622Y-69177870D01*
X75111000Y-69124500D01*
X75111000Y-68035500D01*
X75113622Y-67982130D01*
X75121462Y-67929273D01*
X75134446Y-67877440D01*
X75152448Y-67827129D01*
X75175294Y-67778824D01*
X75202765Y-67732992D01*
X75234596Y-67690073D01*
X75270480Y-67650480D01*
X75310073Y-67614596D01*
X75352992Y-67582765D01*
X75398824Y-67555294D01*
X75447129Y-67532448D01*
X75497440Y-67514446D01*
X75549273Y-67501462D01*
X75602130Y-67493622D01*
X75655500Y-67491000D01*
X76744500Y-67491000D01*
X76797870Y-67493622D01*
X76797870Y-67493622D01*
G37*
D15*
X76200000Y-68580000D03*
D22*
G36*
X74257870Y-67493622D02*
X74310727Y-67501462D01*
X74362560Y-67514446D01*
X74412871Y-67532448D01*
X74461176Y-67555294D01*
X74507008Y-67582765D01*
X74549927Y-67614596D01*
X74589520Y-67650480D01*
X74625404Y-67690073D01*
X74657235Y-67732992D01*
X74684706Y-67778824D01*
X74707552Y-67827129D01*
X74725554Y-67877440D01*
X74738538Y-67929273D01*
X74746378Y-67982130D01*
X74749000Y-68035500D01*
X74749000Y-69124500D01*
X74746378Y-69177870D01*
X74738538Y-69230727D01*
X74725554Y-69282560D01*
X74707552Y-69332871D01*
X74684706Y-69381176D01*
X74657235Y-69427008D01*
X74625404Y-69469927D01*
X74589520Y-69509520D01*
X74549927Y-69545404D01*
X74507008Y-69577235D01*
X74461176Y-69604706D01*
X74412871Y-69627552D01*
X74362560Y-69645554D01*
X74310727Y-69658538D01*
X74257870Y-69666378D01*
X74204500Y-69669000D01*
X73115500Y-69669000D01*
X73062130Y-69666378D01*
X73009273Y-69658538D01*
X72957440Y-69645554D01*
X72907129Y-69627552D01*
X72858824Y-69604706D01*
X72812992Y-69577235D01*
X72770073Y-69545404D01*
X72730480Y-69509520D01*
X72694596Y-69469927D01*
X72662765Y-69427008D01*
X72635294Y-69381176D01*
X72612448Y-69332871D01*
X72594446Y-69282560D01*
X72581462Y-69230727D01*
X72573622Y-69177870D01*
X72571000Y-69124500D01*
X72571000Y-68035500D01*
X72573622Y-67982130D01*
X72581462Y-67929273D01*
X72594446Y-67877440D01*
X72612448Y-67827129D01*
X72635294Y-67778824D01*
X72662765Y-67732992D01*
X72694596Y-67690073D01*
X72730480Y-67650480D01*
X72770073Y-67614596D01*
X72812992Y-67582765D01*
X72858824Y-67555294D01*
X72907129Y-67532448D01*
X72957440Y-67514446D01*
X73009273Y-67501462D01*
X73062130Y-67493622D01*
X73115500Y-67491000D01*
X74204500Y-67491000D01*
X74257870Y-67493622D01*
X74257870Y-67493622D01*
G37*
D15*
X73660000Y-68580000D03*
D22*
G36*
X71717870Y-67493622D02*
X71770727Y-67501462D01*
X71822560Y-67514446D01*
X71872871Y-67532448D01*
X71921176Y-67555294D01*
X71967008Y-67582765D01*
X72009927Y-67614596D01*
X72049520Y-67650480D01*
X72085404Y-67690073D01*
X72117235Y-67732992D01*
X72144706Y-67778824D01*
X72167552Y-67827129D01*
X72185554Y-67877440D01*
X72198538Y-67929273D01*
X72206378Y-67982130D01*
X72209000Y-68035500D01*
X72209000Y-69124500D01*
X72206378Y-69177870D01*
X72198538Y-69230727D01*
X72185554Y-69282560D01*
X72167552Y-69332871D01*
X72144706Y-69381176D01*
X72117235Y-69427008D01*
X72085404Y-69469927D01*
X72049520Y-69509520D01*
X72009927Y-69545404D01*
X71967008Y-69577235D01*
X71921176Y-69604706D01*
X71872871Y-69627552D01*
X71822560Y-69645554D01*
X71770727Y-69658538D01*
X71717870Y-69666378D01*
X71664500Y-69669000D01*
X70575500Y-69669000D01*
X70522130Y-69666378D01*
X70469273Y-69658538D01*
X70417440Y-69645554D01*
X70367129Y-69627552D01*
X70318824Y-69604706D01*
X70272992Y-69577235D01*
X70230073Y-69545404D01*
X70190480Y-69509520D01*
X70154596Y-69469927D01*
X70122765Y-69427008D01*
X70095294Y-69381176D01*
X70072448Y-69332871D01*
X70054446Y-69282560D01*
X70041462Y-69230727D01*
X70033622Y-69177870D01*
X70031000Y-69124500D01*
X70031000Y-68035500D01*
X70033622Y-67982130D01*
X70041462Y-67929273D01*
X70054446Y-67877440D01*
X70072448Y-67827129D01*
X70095294Y-67778824D01*
X70122765Y-67732992D01*
X70154596Y-67690073D01*
X70190480Y-67650480D01*
X70230073Y-67614596D01*
X70272992Y-67582765D01*
X70318824Y-67555294D01*
X70367129Y-67532448D01*
X70417440Y-67514446D01*
X70469273Y-67501462D01*
X70522130Y-67493622D01*
X70575500Y-67491000D01*
X71664500Y-67491000D01*
X71717870Y-67493622D01*
X71717870Y-67493622D01*
G37*
D15*
X71120000Y-68580000D03*
D23*
X53610000Y-68580000D03*
X55610000Y-68580000D03*
D24*
X85725000Y-80280000D03*
X85725000Y-82280000D03*
D23*
X71993000Y-82931000D03*
X69993000Y-82931000D03*
X69866000Y-78486000D03*
X71866000Y-78486000D03*
X64500000Y-76581000D03*
X62500000Y-76581000D03*
X66310000Y-82931000D03*
X68310000Y-82931000D03*
X38719000Y-61341000D03*
X36719000Y-61341000D03*
D24*
X95885000Y-72380600D03*
X95885000Y-74380600D03*
D25*
X70170000Y-94615000D03*
X72070000Y-94615000D03*
X70170000Y-97790000D03*
X72070000Y-97790000D03*
D26*
X50800000Y-93030000D03*
X50800000Y-94930000D03*
X53340000Y-95570000D03*
X53340000Y-97470000D03*
D25*
X70170000Y-91440000D03*
X72070000Y-91440000D03*
D26*
X95250000Y-91760000D03*
X95250000Y-93660000D03*
D25*
X70170000Y-104775000D03*
X72070000Y-104775000D03*
X70170000Y-107950000D03*
X72070000Y-107950000D03*
D26*
X50800000Y-101285000D03*
X50800000Y-103185000D03*
X53340000Y-105730000D03*
X53340000Y-107630000D03*
X95250000Y-101920000D03*
X95250000Y-103820000D03*
D25*
X70170000Y-101600000D03*
X72070000Y-101600000D03*
X70170000Y-114935000D03*
X72070000Y-114935000D03*
X70170000Y-118110000D03*
X72070000Y-118110000D03*
D26*
X50800000Y-111445000D03*
X50800000Y-113345000D03*
X53340000Y-115890000D03*
X53340000Y-117790000D03*
D25*
X70170000Y-111760000D03*
X72070000Y-111760000D03*
D26*
X95250000Y-112080000D03*
X95250000Y-113980000D03*
X66675000Y-39177000D03*
X66675000Y-37277000D03*
X69215000Y-39177000D03*
X69215000Y-37277000D03*
X64135000Y-39177000D03*
X64135000Y-37277000D03*
X61595000Y-39177000D03*
X61595000Y-37277000D03*
D25*
X98745000Y-72390000D03*
X100645000Y-72390000D03*
X100645000Y-64770000D03*
X98745000Y-64770000D03*
X100645000Y-70485000D03*
X98745000Y-70485000D03*
X100645000Y-68580000D03*
X98745000Y-68580000D03*
X100645000Y-66675000D03*
X98745000Y-66675000D03*
X55560000Y-76200000D03*
X53660000Y-76200000D03*
X55560000Y-73025000D03*
X53660000Y-73025000D03*
X55560000Y-64135000D03*
X53660000Y-64135000D03*
X55560000Y-66040000D03*
X53660000Y-66040000D03*
D27*
X115920000Y-71480000D03*
X115920000Y-65680000D03*
D28*
X115920000Y-65080000D03*
X115920000Y-72080000D03*
D29*
X115920000Y-69580000D03*
D30*
X113220000Y-66080000D03*
D31*
X113220000Y-68580000D03*
X113220000Y-67930000D03*
X113220000Y-67280000D03*
X113220000Y-69880000D03*
X113220000Y-69230000D03*
D30*
X113220000Y-71080000D03*
D29*
X115920000Y-67580000D03*
D32*
X57090000Y-92075000D03*
X57090000Y-94615000D03*
X57090000Y-97155000D03*
X66100000Y-97155000D03*
X66100000Y-94615000D03*
X66100000Y-92075000D03*
X57090000Y-102235000D03*
X57090000Y-104775000D03*
X57090000Y-107315000D03*
X66100000Y-107315000D03*
X66100000Y-104775000D03*
X66100000Y-102235000D03*
X57090000Y-112395000D03*
X57090000Y-114935000D03*
X57090000Y-117475000D03*
X66100000Y-117475000D03*
X66100000Y-114935000D03*
X66100000Y-112395000D03*
D33*
X36449000Y-64262000D03*
X38989000Y-64262000D03*
X41529000Y-64262000D03*
D34*
X44069000Y-64262000D03*
D35*
X113030000Y-93325000D03*
D36*
X113030000Y-95865000D03*
D37*
X115570000Y-95865000D03*
X115570000Y-93325000D03*
D35*
X113030000Y-83165000D03*
D36*
X113030000Y-85705000D03*
D37*
X115570000Y-85705000D03*
X115570000Y-83165000D03*
D35*
X113030000Y-103485000D03*
D36*
X113030000Y-106025000D03*
D37*
X115570000Y-106025000D03*
X115570000Y-103485000D03*
D35*
X113030000Y-113645000D03*
D36*
X113030000Y-116185000D03*
D37*
X115570000Y-116185000D03*
X115570000Y-113645000D03*
D38*
X53340000Y-92875000D03*
X53340000Y-91275000D03*
X53340000Y-103035000D03*
X53340000Y-101435000D03*
X53340000Y-113195000D03*
X53340000Y-111595000D03*
D39*
X99568000Y-77580000D03*
X99568000Y-84980000D03*
D34*
X92075000Y-72390000D03*
D33*
X89535000Y-72390000D03*
X86995000Y-72390000D03*
X84455000Y-72390000D03*
D40*
X50800000Y-96605000D03*
X50800000Y-97705000D03*
X50800000Y-106130000D03*
X50800000Y-107230000D03*
X50800000Y-116290000D03*
X50800000Y-117390000D03*
D22*
G36*
X57362122Y-83754701D02*
X57411872Y-83762081D01*
X57460659Y-83774301D01*
X57508013Y-83791245D01*
X57553479Y-83812748D01*
X57596618Y-83838605D01*
X57637015Y-83868565D01*
X57674280Y-83902341D01*
X59353659Y-85581720D01*
X59387435Y-85618985D01*
X59417395Y-85659382D01*
X59443252Y-85702521D01*
X59464755Y-85747987D01*
X59481699Y-85795341D01*
X59493919Y-85844128D01*
X59501299Y-85893878D01*
X59503767Y-85944112D01*
X59501299Y-85994346D01*
X59493919Y-86044096D01*
X59481699Y-86092883D01*
X59464755Y-86140237D01*
X59443252Y-86185703D01*
X59417395Y-86228842D01*
X59387435Y-86269239D01*
X59353659Y-86306504D01*
X58628874Y-87031289D01*
X58591609Y-87065065D01*
X58551212Y-87095025D01*
X58508073Y-87120882D01*
X58462607Y-87142385D01*
X58415253Y-87159329D01*
X58366466Y-87171549D01*
X58316716Y-87178929D01*
X58266482Y-87181397D01*
X58216248Y-87178929D01*
X58166498Y-87171549D01*
X58117711Y-87159329D01*
X58070357Y-87142385D01*
X58024891Y-87120882D01*
X57981752Y-87095025D01*
X57941355Y-87065065D01*
X57904090Y-87031289D01*
X56224711Y-85351910D01*
X56190935Y-85314645D01*
X56160975Y-85274248D01*
X56135118Y-85231109D01*
X56113615Y-85185643D01*
X56096671Y-85138289D01*
X56084451Y-85089502D01*
X56077071Y-85039752D01*
X56074603Y-84989518D01*
X56077071Y-84939284D01*
X56084451Y-84889534D01*
X56096671Y-84840747D01*
X56113615Y-84793393D01*
X56135118Y-84747927D01*
X56160975Y-84704788D01*
X56190935Y-84664391D01*
X56224711Y-84627126D01*
X56949496Y-83902341D01*
X56986761Y-83868565D01*
X57027158Y-83838605D01*
X57070297Y-83812748D01*
X57115763Y-83791245D01*
X57163117Y-83774301D01*
X57211904Y-83762081D01*
X57261654Y-83754701D01*
X57311888Y-83752233D01*
X57362122Y-83754701D01*
X57362122Y-83754701D01*
G37*
D41*
X57789185Y-85466815D03*
D22*
G36*
X63195752Y-77921071D02*
X63245502Y-77928451D01*
X63294289Y-77940671D01*
X63341643Y-77957615D01*
X63387109Y-77979118D01*
X63430248Y-78004975D01*
X63470645Y-78034935D01*
X63507910Y-78068711D01*
X65187289Y-79748090D01*
X65221065Y-79785355D01*
X65251025Y-79825752D01*
X65276882Y-79868891D01*
X65298385Y-79914357D01*
X65315329Y-79961711D01*
X65327549Y-80010498D01*
X65334929Y-80060248D01*
X65337397Y-80110482D01*
X65334929Y-80160716D01*
X65327549Y-80210466D01*
X65315329Y-80259253D01*
X65298385Y-80306607D01*
X65276882Y-80352073D01*
X65251025Y-80395212D01*
X65221065Y-80435609D01*
X65187289Y-80472874D01*
X64462504Y-81197659D01*
X64425239Y-81231435D01*
X64384842Y-81261395D01*
X64341703Y-81287252D01*
X64296237Y-81308755D01*
X64248883Y-81325699D01*
X64200096Y-81337919D01*
X64150346Y-81345299D01*
X64100112Y-81347767D01*
X64049878Y-81345299D01*
X64000128Y-81337919D01*
X63951341Y-81325699D01*
X63903987Y-81308755D01*
X63858521Y-81287252D01*
X63815382Y-81261395D01*
X63774985Y-81231435D01*
X63737720Y-81197659D01*
X62058341Y-79518280D01*
X62024565Y-79481015D01*
X61994605Y-79440618D01*
X61968748Y-79397479D01*
X61947245Y-79352013D01*
X61930301Y-79304659D01*
X61918081Y-79255872D01*
X61910701Y-79206122D01*
X61908233Y-79155888D01*
X61910701Y-79105654D01*
X61918081Y-79055904D01*
X61930301Y-79007117D01*
X61947245Y-78959763D01*
X61968748Y-78914297D01*
X61994605Y-78871158D01*
X62024565Y-78830761D01*
X62058341Y-78793496D01*
X62783126Y-78068711D01*
X62820391Y-78034935D01*
X62860788Y-78004975D01*
X62903927Y-77979118D01*
X62949393Y-77957615D01*
X62996747Y-77940671D01*
X63045534Y-77928451D01*
X63095284Y-77921071D01*
X63145518Y-77918603D01*
X63195752Y-77921071D01*
X63195752Y-77921071D01*
G37*
D41*
X63622815Y-79633185D03*
D42*
X72686000Y-76200000D03*
X71586000Y-76200000D03*
D43*
X38527056Y-35132944D03*
X36830000Y-34430000D03*
X35132944Y-35132944D03*
X34430000Y-36830000D03*
X35132944Y-38527056D03*
X36830000Y-39230000D03*
X38527056Y-38527056D03*
X39230000Y-36830000D03*
D44*
X36830000Y-36830000D03*
D43*
X127427056Y-35132944D03*
X125730000Y-34430000D03*
X124032944Y-35132944D03*
X123330000Y-36830000D03*
X124032944Y-38527056D03*
X125730000Y-39230000D03*
X127427056Y-38527056D03*
X128130000Y-36830000D03*
D44*
X125730000Y-36830000D03*
X36830000Y-125730000D03*
D43*
X39230000Y-125730000D03*
X38527056Y-127427056D03*
X36830000Y-128130000D03*
X35132944Y-127427056D03*
X34430000Y-125730000D03*
X35132944Y-124032944D03*
X36830000Y-123330000D03*
X38527056Y-124032944D03*
D44*
X125730000Y-125730000D03*
D43*
X128130000Y-125730000D03*
X127427056Y-127427056D03*
X125730000Y-128130000D03*
X124032944Y-127427056D03*
X123330000Y-125730000D03*
X124032944Y-124032944D03*
X125730000Y-123330000D03*
X127427056Y-124032944D03*
D45*
X78740000Y-85280000D03*
X78740000Y-77280000D03*
D46*
X98445000Y-74295000D03*
X100945000Y-74295000D03*
M02*
