M48
INCH,TZ
T1C0.0160
T2C0.0197
T3C0.0236
T4C0.0335
T5C0.0400
T6C0.0433
T7C0.1260
T8C0.0433
T9C0.1000
%
G90
G05
T1
X014000Y-028800
X014000Y-029200
X014000Y-029600
X014000Y-034500
X014000Y-034900
X014000Y-035300
X014500Y-027450
X017150Y-024700
X018250Y-027750
X018250Y-036250
X019500Y-028800
X019500Y-029200
X019500Y-029600
X019500Y-031600
X019500Y-032000
X019500Y-032400
X019500Y-034500
X019500Y-034900
X019500Y-035300
X019500Y-036250
X019500Y-040250
X019500Y-044250
X021000Y-039500
X021000Y-043500
X021000Y-047500
X024250Y-016000
X024300Y-024300
X025250Y-016000
X026250Y-016000
X026750Y-029750
X026900Y-030600
X027000Y-025000
X027000Y-025500
X027150Y-032000
X027250Y-016000
X027500Y-025000
X027500Y-025500
X027500Y-029750
X027600Y-032000
X027900Y-030000
X028750Y-029500
X028750Y-030750
X029000Y-030000
X029250Y-032500
X029250Y-036250
X029250Y-040250
X029250Y-044250
X029500Y-032250
X029750Y-032000
X030250Y-033000
X030250Y-033500
X031250Y-015500
X031250Y-016000
X031750Y-015500
X031750Y-016000
X031750Y-033000
X031750Y-033500
X032250Y-016000
X032250Y-033000
X032250Y-033500
X032250Y-015500
X034500Y-036250
X034500Y-037250
X034500Y-038250
X034500Y-040250
X034500Y-041250
X034500Y-042250
X034500Y-044250
X034500Y-045250
X034500Y-046250
X034750Y-032250
X034750Y-033250
X035500Y-032750
X035500Y-036250
X035500Y-037250
X035500Y-038250
X035500Y-040250
X035500Y-041250
X035500Y-042250
X035500Y-044250
X035500Y-045250
X035500Y-046250
X036500Y-036250
X036500Y-037250
X036500Y-038250
X036500Y-040250
X036500Y-041250
X036500Y-042250
X036500Y-044250
X036500Y-045250
X036500Y-046250
X037000Y-036250
X037000Y-037250
X037000Y-038250
X037000Y-040250
X037000Y-041250
X037000Y-042250
X037000Y-044250
X037000Y-045250
X037000Y-046250
X037500Y-034500
X038300Y-029250
X040000Y-024250
X040400Y-024250
X040800Y-024250
X041200Y-024250
X041600Y-024250
T2
X048905Y-014150
X049182Y-013482
X049182Y-014818
X049850Y-013205
X049850Y-015095
X050518Y-013482
X050518Y-014818
X050795Y-014150
X013205Y-049850
X013482Y-049182
X013482Y-050518
X014150Y-048905
X014150Y-050795
X014818Y-049182
X014818Y-050518
X015095Y-049850
X048905Y-049850
X049182Y-049182
X049182Y-050518
X049850Y-048905
X049850Y-050795
X050518Y-049182
X050518Y-050518
X050795Y-049850
X013205Y-014150
X013482Y-013482
X013482Y-014818
X014150Y-013205
X014150Y-015095
X014818Y-013482
X014818Y-014818
X015095Y-014150
T4
X044575Y-026016
X044575Y-027984
T5
X018250Y-013500
X018250Y-023500
X019250Y-013500
X019250Y-023500
X020250Y-013500
X020250Y-023500
X021250Y-013500
X021250Y-023500
X022250Y-013500
X022250Y-023500
X023250Y-013500
X023250Y-023500
X024250Y-013500
X024250Y-023500
X025250Y-013500
X025250Y-023500
X026250Y-013500
X026250Y-023500
X027250Y-013500
X027250Y-023500
X028250Y-013500
X029250Y-013500
X030250Y-013500
X031250Y-013500
X032250Y-013500
X033250Y-013500
X033250Y-028500
X034250Y-028500
X035250Y-028500
X036250Y-028500
X013100Y-025500
X014100Y-025500
X015100Y-025500
X016100Y-025500
X017100Y-025500
X018100Y-025500
X028500Y-027250
X029500Y-027250
X030500Y-027250
T6
X044500Y-044750
X044500Y-045750
X044500Y-048250
X044500Y-049250
X044500Y-050250
X044500Y-040750
X044500Y-041750
X044500Y-032750
X044500Y-033750
X044500Y-036750
X044500Y-037750
T7
X049850Y-014150
X014150Y-049850
X049850Y-049850
X014150Y-014150
T8
X045500Y-032750
X045500Y-033750
X045500Y-044750
X045500Y-045750
X045500Y-036750
X045500Y-037750
X045500Y-048250
X045500Y-049250
X045500Y-050250
X045500Y-040750
X045500Y-041750
T9
X017250Y-014000
X017250Y-023000
X040250Y-014000
X040250Y-023000
T3
X045500Y-025622G85X045776Y-025622
G05
X045776Y-028378G85X045500Y-028378
G05
T0
M30
