G04 #@! TF.GenerationSoftware,KiCad,Pcbnew,5.0.0-rc2-dev-unknown-1cd6477~63~ubuntu16.04.1*
G04 #@! TF.CreationDate,2018-03-26T19:24:23+05:30*
G04 #@! TF.ProjectId,wyostat,77796F737461742E6B696361645F7063,rev?*
G04 #@! TF.SameCoordinates,Original*
G04 #@! TF.FileFunction,Paste,Top*
G04 #@! TF.FilePolarity,Positive*
%FSLAX46Y46*%
G04 Gerber Fmt 4.6, Leading zero omitted, Abs format (unit mm)*
G04 Created by KiCad (PCBNEW 5.0.0-rc2-dev-unknown-1cd6477~63~ubuntu16.04.1) date Mon Mar 26 19:24:23 2018*
%MOMM*%
%LPD*%
G01*
G04 APERTURE LIST*
%ADD10R,5.080000X2.794000*%
%ADD11R,1.000000X3.000000*%
%ADD12R,2.500000X1.000000*%
%ADD13R,3.048000X1.651000*%
%ADD14R,6.096000X6.096000*%
%ADD15R,1.550000X0.850000*%
%ADD16R,0.599440X1.998980*%
%ADD17R,0.800000X2.080000*%
%ADD18R,0.700000X0.300000*%
%ADD19R,1.000000X1.250000*%
%ADD20R,1.250000X1.000000*%
%ADD21R,0.700000X1.300000*%
%ADD22R,1.300000X0.700000*%
%ADD23R,1.900000X1.500000*%
%ADD24R,1.350000X0.400000*%
%ADD25R,1.520000X1.780000*%
%ADD26R,0.800000X0.800000*%
%ADD27R,5.600000X2.300000*%
%ADD28R,0.700000X0.600000*%
%ADD29C,0.508000*%
%ADD30C,1.650000*%
%ADD31R,0.600000X0.700000*%
%ADD32R,2.500000X4.000000*%
%ADD33R,1.000000X1.000000*%
G04 APERTURE END LIST*
D10*
X42545000Y-92202000D03*
X42545000Y-70358000D03*
D11*
X122460000Y-50975000D03*
X126460000Y-50975000D03*
X126460000Y-56975000D03*
X122460000Y-56975000D03*
X114840000Y-35735000D03*
X118840000Y-35735000D03*
X118840000Y-41735000D03*
X114840000Y-41735000D03*
X114840000Y-50975000D03*
X118840000Y-50975000D03*
X118840000Y-56975000D03*
X114840000Y-56975000D03*
X107220000Y-50975000D03*
X111220000Y-50975000D03*
X111220000Y-56975000D03*
X107220000Y-56975000D03*
D12*
X77470000Y-113435000D03*
X77470000Y-116435000D03*
X77470000Y-103275000D03*
X77470000Y-106275000D03*
X77470000Y-93115000D03*
X77470000Y-96115000D03*
X99695000Y-93115000D03*
X99695000Y-96115000D03*
X99695000Y-103275000D03*
X99695000Y-106275000D03*
X99695000Y-113435000D03*
X99695000Y-116435000D03*
D13*
X91440000Y-96901000D03*
D14*
X85090000Y-94615000D03*
D13*
X91440000Y-92329000D03*
X91440000Y-107061000D03*
D14*
X85090000Y-104775000D03*
D13*
X91440000Y-102489000D03*
X91440000Y-117221000D03*
D14*
X85090000Y-114935000D03*
D13*
X91440000Y-112649000D03*
D15*
X94390000Y-79280000D03*
X94390000Y-83280000D03*
X88490000Y-83280000D03*
X88490000Y-79280000D03*
D16*
X57785000Y-63929260D03*
X59055000Y-63929260D03*
X60325000Y-63929260D03*
X61595000Y-63929260D03*
X62865000Y-63929260D03*
X64135000Y-63929260D03*
X65405000Y-63929260D03*
X66675000Y-63929260D03*
X66675000Y-73230740D03*
X65405000Y-73230740D03*
X64135000Y-73230740D03*
X62865000Y-73230740D03*
X61595000Y-73230740D03*
X60325000Y-73230740D03*
X59055000Y-73230740D03*
X57785000Y-73230740D03*
D17*
X67056000Y-79502000D03*
D18*
X66066000Y-80502000D03*
X66066000Y-80002000D03*
X66066000Y-79502000D03*
X66066000Y-79002000D03*
X66066000Y-78502000D03*
X68046000Y-78502000D03*
X68046000Y-79002000D03*
X68046000Y-79502000D03*
X68046000Y-80002000D03*
X68046000Y-80502000D03*
D19*
X53610000Y-68580000D03*
X55610000Y-68580000D03*
D20*
X85725000Y-80280000D03*
X85725000Y-82280000D03*
D19*
X71993000Y-82931000D03*
X69993000Y-82931000D03*
X69866000Y-78486000D03*
X71866000Y-78486000D03*
X64500000Y-76581000D03*
X62500000Y-76581000D03*
X66310000Y-82931000D03*
X68310000Y-82931000D03*
X38719000Y-61341000D03*
X36719000Y-61341000D03*
D20*
X95885000Y-72380600D03*
X95885000Y-74380600D03*
D21*
X70170000Y-94615000D03*
X72070000Y-94615000D03*
X70170000Y-97790000D03*
X72070000Y-97790000D03*
D22*
X50800000Y-93030000D03*
X50800000Y-94930000D03*
X53340000Y-95570000D03*
X53340000Y-97470000D03*
D21*
X70170000Y-91440000D03*
X72070000Y-91440000D03*
D22*
X95250000Y-91760000D03*
X95250000Y-93660000D03*
D21*
X70170000Y-104775000D03*
X72070000Y-104775000D03*
X70170000Y-107950000D03*
X72070000Y-107950000D03*
D22*
X50800000Y-101285000D03*
X50800000Y-103185000D03*
X53340000Y-105730000D03*
X53340000Y-107630000D03*
X95250000Y-101920000D03*
X95250000Y-103820000D03*
D21*
X70170000Y-101600000D03*
X72070000Y-101600000D03*
X70170000Y-114935000D03*
X72070000Y-114935000D03*
X70170000Y-118110000D03*
X72070000Y-118110000D03*
D22*
X50800000Y-111445000D03*
X50800000Y-113345000D03*
X53340000Y-115890000D03*
X53340000Y-117790000D03*
D21*
X70170000Y-111760000D03*
X72070000Y-111760000D03*
D22*
X95250000Y-112080000D03*
X95250000Y-113980000D03*
X66675000Y-39177000D03*
X66675000Y-37277000D03*
X69215000Y-39177000D03*
X69215000Y-37277000D03*
X64135000Y-39177000D03*
X64135000Y-37277000D03*
X61595000Y-39177000D03*
X61595000Y-37277000D03*
D21*
X98745000Y-72390000D03*
X100645000Y-72390000D03*
X100645000Y-64770000D03*
X98745000Y-64770000D03*
X100645000Y-70485000D03*
X98745000Y-70485000D03*
X100645000Y-68580000D03*
X98745000Y-68580000D03*
X100645000Y-66675000D03*
X98745000Y-66675000D03*
X55560000Y-76200000D03*
X53660000Y-76200000D03*
X55560000Y-73025000D03*
X53660000Y-73025000D03*
X55560000Y-64135000D03*
X53660000Y-64135000D03*
X55560000Y-66040000D03*
X53660000Y-66040000D03*
D23*
X115920000Y-69580000D03*
D24*
X113220000Y-68580000D03*
X113220000Y-67930000D03*
X113220000Y-67280000D03*
X113220000Y-69880000D03*
X113220000Y-69230000D03*
D23*
X115920000Y-67580000D03*
D25*
X57090000Y-92075000D03*
X57090000Y-94615000D03*
X57090000Y-97155000D03*
X66100000Y-97155000D03*
X66100000Y-94615000D03*
X66100000Y-92075000D03*
X57090000Y-102235000D03*
X57090000Y-104775000D03*
X57090000Y-107315000D03*
X66100000Y-107315000D03*
X66100000Y-104775000D03*
X66100000Y-102235000D03*
X57090000Y-112395000D03*
X57090000Y-114935000D03*
X57090000Y-117475000D03*
X66100000Y-117475000D03*
X66100000Y-114935000D03*
X66100000Y-112395000D03*
D26*
X53340000Y-92875000D03*
X53340000Y-91275000D03*
X53340000Y-103035000D03*
X53340000Y-101435000D03*
X53340000Y-113195000D03*
X53340000Y-111595000D03*
D27*
X99568000Y-77580000D03*
X99568000Y-84980000D03*
D28*
X50800000Y-96605000D03*
X50800000Y-97705000D03*
X50800000Y-106130000D03*
X50800000Y-107230000D03*
X50800000Y-116290000D03*
X50800000Y-117390000D03*
D29*
G36*
X57352320Y-83995641D02*
X57392363Y-84001581D01*
X57431630Y-84011417D01*
X57469745Y-84025055D01*
X57506339Y-84042362D01*
X57541061Y-84063174D01*
X57573575Y-84087288D01*
X57603570Y-84114473D01*
X59141527Y-85652430D01*
X59168712Y-85682425D01*
X59192826Y-85714939D01*
X59213638Y-85749661D01*
X59230945Y-85786255D01*
X59244583Y-85824370D01*
X59254419Y-85863637D01*
X59260359Y-85903680D01*
X59262345Y-85944112D01*
X59260359Y-85984544D01*
X59254419Y-86024587D01*
X59244583Y-86063854D01*
X59230945Y-86101969D01*
X59213638Y-86138563D01*
X59192826Y-86173285D01*
X59168712Y-86205799D01*
X59141527Y-86235794D01*
X58558164Y-86819157D01*
X58528169Y-86846342D01*
X58495655Y-86870456D01*
X58460933Y-86891268D01*
X58424339Y-86908575D01*
X58386224Y-86922213D01*
X58346957Y-86932049D01*
X58306914Y-86937989D01*
X58266482Y-86939975D01*
X58226050Y-86937989D01*
X58186007Y-86932049D01*
X58146740Y-86922213D01*
X58108625Y-86908575D01*
X58072031Y-86891268D01*
X58037309Y-86870456D01*
X58004795Y-86846342D01*
X57974800Y-86819157D01*
X56436843Y-85281200D01*
X56409658Y-85251205D01*
X56385544Y-85218691D01*
X56364732Y-85183969D01*
X56347425Y-85147375D01*
X56333787Y-85109260D01*
X56323951Y-85069993D01*
X56318011Y-85029950D01*
X56316025Y-84989518D01*
X56318011Y-84949086D01*
X56323951Y-84909043D01*
X56333787Y-84869776D01*
X56347425Y-84831661D01*
X56364732Y-84795067D01*
X56385544Y-84760345D01*
X56409658Y-84727831D01*
X56436843Y-84697836D01*
X57020206Y-84114473D01*
X57050201Y-84087288D01*
X57082715Y-84063174D01*
X57117437Y-84042362D01*
X57154031Y-84025055D01*
X57192146Y-84011417D01*
X57231413Y-84001581D01*
X57271456Y-83995641D01*
X57311888Y-83993655D01*
X57352320Y-83995641D01*
X57352320Y-83995641D01*
G37*
D30*
X57789185Y-85466815D03*
D29*
G36*
X63185950Y-78162011D02*
X63225993Y-78167951D01*
X63265260Y-78177787D01*
X63303375Y-78191425D01*
X63339969Y-78208732D01*
X63374691Y-78229544D01*
X63407205Y-78253658D01*
X63437200Y-78280843D01*
X64975157Y-79818800D01*
X65002342Y-79848795D01*
X65026456Y-79881309D01*
X65047268Y-79916031D01*
X65064575Y-79952625D01*
X65078213Y-79990740D01*
X65088049Y-80030007D01*
X65093989Y-80070050D01*
X65095975Y-80110482D01*
X65093989Y-80150914D01*
X65088049Y-80190957D01*
X65078213Y-80230224D01*
X65064575Y-80268339D01*
X65047268Y-80304933D01*
X65026456Y-80339655D01*
X65002342Y-80372169D01*
X64975157Y-80402164D01*
X64391794Y-80985527D01*
X64361799Y-81012712D01*
X64329285Y-81036826D01*
X64294563Y-81057638D01*
X64257969Y-81074945D01*
X64219854Y-81088583D01*
X64180587Y-81098419D01*
X64140544Y-81104359D01*
X64100112Y-81106345D01*
X64059680Y-81104359D01*
X64019637Y-81098419D01*
X63980370Y-81088583D01*
X63942255Y-81074945D01*
X63905661Y-81057638D01*
X63870939Y-81036826D01*
X63838425Y-81012712D01*
X63808430Y-80985527D01*
X62270473Y-79447570D01*
X62243288Y-79417575D01*
X62219174Y-79385061D01*
X62198362Y-79350339D01*
X62181055Y-79313745D01*
X62167417Y-79275630D01*
X62157581Y-79236363D01*
X62151641Y-79196320D01*
X62149655Y-79155888D01*
X62151641Y-79115456D01*
X62157581Y-79075413D01*
X62167417Y-79036146D01*
X62181055Y-78998031D01*
X62198362Y-78961437D01*
X62219174Y-78926715D01*
X62243288Y-78894201D01*
X62270473Y-78864206D01*
X62853836Y-78280843D01*
X62883831Y-78253658D01*
X62916345Y-78229544D01*
X62951067Y-78208732D01*
X62987661Y-78191425D01*
X63025776Y-78177787D01*
X63065043Y-78167951D01*
X63105086Y-78162011D01*
X63145518Y-78160025D01*
X63185950Y-78162011D01*
X63185950Y-78162011D01*
G37*
D30*
X63622815Y-79633185D03*
D31*
X72686000Y-76200000D03*
X71586000Y-76200000D03*
D32*
X78740000Y-85280000D03*
X78740000Y-77280000D03*
D33*
X98445000Y-74295000D03*
X100945000Y-74295000D03*
M02*
