G04 #@! TF.GenerationSoftware,KiCad,Pcbnew,5.0.0-rc2-dev-unknown-7098827~63~ubuntu16.04.1*
G04 #@! TF.CreationDate,2018-04-05T23:02:55+05:30*
G04 #@! TF.ProjectId,wyostat,77796F737461742E6B696361645F7063,rev?*
G04 #@! TF.SameCoordinates,Original*
G04 #@! TF.FileFunction,Soldermask,Bot*
G04 #@! TF.FilePolarity,Negative*
%FSLAX46Y46*%
G04 Gerber Fmt 4.6, Leading zero omitted, Abs format (unit mm)*
G04 Created by KiCad (PCBNEW 5.0.0-rc2-dev-unknown-7098827~63~ubuntu16.04.1) date Thu Apr  5 23:02:55 2018*
%MOMM*%
%LPD*%
G01*
G04 APERTURE LIST*
%ADD10O,2.127200X2.432000*%
%ADD11R,2.127200X2.432000*%
%ADD12C,1.500000*%
%ADD13O,2.600000X2.200000*%
%ADD14R,2.600000X2.200000*%
%ADD15C,0.508000*%
%ADD16C,5.480000*%
%ADD17C,2.940000*%
%ADD18C,2.178000*%
%ADD19O,2.300000X1.600000*%
%ADD20C,1.850000*%
%ADD21C,1.200000*%
%ADD22C,6.800000*%
G04 APERTURE END LIST*
D10*
X33274000Y-64770000D03*
X35814000Y-64770000D03*
X38354000Y-64770000D03*
X40894000Y-64770000D03*
X43434000Y-64770000D03*
D11*
X45974000Y-64770000D03*
D12*
X115570000Y-122555000D03*
X115570000Y-127635000D03*
X115570000Y-125095000D03*
D13*
X113030000Y-125095000D03*
D14*
X113030000Y-127635000D03*
D13*
X113030000Y-122555000D03*
X113030000Y-93345000D03*
D14*
X113030000Y-95885000D03*
D12*
X115570000Y-95885000D03*
X115570000Y-93345000D03*
D13*
X113030000Y-83185000D03*
D14*
X113030000Y-85725000D03*
D12*
X115570000Y-85725000D03*
X115570000Y-83185000D03*
D13*
X113030000Y-103505000D03*
D14*
X113030000Y-106045000D03*
D12*
X115570000Y-106045000D03*
X115570000Y-103505000D03*
D13*
X113030000Y-113665000D03*
D14*
X113030000Y-116205000D03*
D12*
X115570000Y-116205000D03*
X115570000Y-113665000D03*
D15*
G36*
X61441427Y-89975278D02*
X61547819Y-89991059D01*
X61652152Y-90017193D01*
X61753421Y-90053428D01*
X61850651Y-90099414D01*
X61942905Y-90154709D01*
X62029295Y-90218781D01*
X62108989Y-90291011D01*
X62181219Y-90370705D01*
X62245291Y-90457095D01*
X62300586Y-90549349D01*
X62346572Y-90646579D01*
X62382807Y-90747848D01*
X62408941Y-90852181D01*
X62424722Y-90958573D01*
X62430000Y-91066000D01*
X62430000Y-94354000D01*
X62424722Y-94461427D01*
X62408941Y-94567819D01*
X62382807Y-94672152D01*
X62346572Y-94773421D01*
X62300586Y-94870651D01*
X62245291Y-94962905D01*
X62181219Y-95049295D01*
X62108989Y-95128989D01*
X62029295Y-95201219D01*
X61942905Y-95265291D01*
X61850651Y-95320586D01*
X61753421Y-95366572D01*
X61652152Y-95402807D01*
X61547819Y-95428941D01*
X61441427Y-95444722D01*
X61334000Y-95450000D01*
X55506000Y-95450000D01*
X55398573Y-95444722D01*
X55292181Y-95428941D01*
X55187848Y-95402807D01*
X55086579Y-95366572D01*
X54989349Y-95320586D01*
X54897095Y-95265291D01*
X54810705Y-95201219D01*
X54731011Y-95128989D01*
X54658781Y-95049295D01*
X54594709Y-94962905D01*
X54539414Y-94870651D01*
X54493428Y-94773421D01*
X54457193Y-94672152D01*
X54431059Y-94567819D01*
X54415278Y-94461427D01*
X54410000Y-94354000D01*
X54410000Y-91066000D01*
X54415278Y-90958573D01*
X54431059Y-90852181D01*
X54457193Y-90747848D01*
X54493428Y-90646579D01*
X54539414Y-90549349D01*
X54594709Y-90457095D01*
X54658781Y-90370705D01*
X54731011Y-90291011D01*
X54810705Y-90218781D01*
X54897095Y-90154709D01*
X54989349Y-90099414D01*
X55086579Y-90053428D01*
X55187848Y-90017193D01*
X55292181Y-89991059D01*
X55398573Y-89975278D01*
X55506000Y-89970000D01*
X61334000Y-89970000D01*
X61441427Y-89975278D01*
X61441427Y-89975278D01*
G37*
D16*
X58420000Y-92710000D03*
D15*
G36*
X61441427Y-82355278D02*
X61547819Y-82371059D01*
X61652152Y-82397193D01*
X61753421Y-82433428D01*
X61850651Y-82479414D01*
X61942905Y-82534709D01*
X62029295Y-82598781D01*
X62108989Y-82671011D01*
X62181219Y-82750705D01*
X62245291Y-82837095D01*
X62300586Y-82929349D01*
X62346572Y-83026579D01*
X62382807Y-83127848D01*
X62408941Y-83232181D01*
X62424722Y-83338573D01*
X62430000Y-83446000D01*
X62430000Y-86734000D01*
X62424722Y-86841427D01*
X62408941Y-86947819D01*
X62382807Y-87052152D01*
X62346572Y-87153421D01*
X62300586Y-87250651D01*
X62245291Y-87342905D01*
X62181219Y-87429295D01*
X62108989Y-87508989D01*
X62029295Y-87581219D01*
X61942905Y-87645291D01*
X61850651Y-87700586D01*
X61753421Y-87746572D01*
X61652152Y-87782807D01*
X61547819Y-87808941D01*
X61441427Y-87824722D01*
X61334000Y-87830000D01*
X55506000Y-87830000D01*
X55398573Y-87824722D01*
X55292181Y-87808941D01*
X55187848Y-87782807D01*
X55086579Y-87746572D01*
X54989349Y-87700586D01*
X54897095Y-87645291D01*
X54810705Y-87581219D01*
X54731011Y-87508989D01*
X54658781Y-87429295D01*
X54594709Y-87342905D01*
X54539414Y-87250651D01*
X54493428Y-87153421D01*
X54457193Y-87052152D01*
X54431059Y-86947819D01*
X54415278Y-86841427D01*
X54410000Y-86734000D01*
X54410000Y-83446000D01*
X54415278Y-83338573D01*
X54431059Y-83232181D01*
X54457193Y-83127848D01*
X54493428Y-83026579D01*
X54539414Y-82929349D01*
X54594709Y-82837095D01*
X54658781Y-82750705D01*
X54731011Y-82671011D01*
X54810705Y-82598781D01*
X54897095Y-82534709D01*
X54989349Y-82479414D01*
X55086579Y-82433428D01*
X55187848Y-82397193D01*
X55292181Y-82371059D01*
X55398573Y-82355278D01*
X55506000Y-82350000D01*
X61334000Y-82350000D01*
X61441427Y-82355278D01*
X61441427Y-82355278D01*
G37*
D16*
X58420000Y-85090000D03*
D15*
G36*
X107161427Y-89975278D02*
X107267819Y-89991059D01*
X107372152Y-90017193D01*
X107473421Y-90053428D01*
X107570651Y-90099414D01*
X107662905Y-90154709D01*
X107749295Y-90218781D01*
X107828989Y-90291011D01*
X107901219Y-90370705D01*
X107965291Y-90457095D01*
X108020586Y-90549349D01*
X108066572Y-90646579D01*
X108102807Y-90747848D01*
X108128941Y-90852181D01*
X108144722Y-90958573D01*
X108150000Y-91066000D01*
X108150000Y-94354000D01*
X108144722Y-94461427D01*
X108128941Y-94567819D01*
X108102807Y-94672152D01*
X108066572Y-94773421D01*
X108020586Y-94870651D01*
X107965291Y-94962905D01*
X107901219Y-95049295D01*
X107828989Y-95128989D01*
X107749295Y-95201219D01*
X107662905Y-95265291D01*
X107570651Y-95320586D01*
X107473421Y-95366572D01*
X107372152Y-95402807D01*
X107267819Y-95428941D01*
X107161427Y-95444722D01*
X107054000Y-95450000D01*
X101226000Y-95450000D01*
X101118573Y-95444722D01*
X101012181Y-95428941D01*
X100907848Y-95402807D01*
X100806579Y-95366572D01*
X100709349Y-95320586D01*
X100617095Y-95265291D01*
X100530705Y-95201219D01*
X100451011Y-95128989D01*
X100378781Y-95049295D01*
X100314709Y-94962905D01*
X100259414Y-94870651D01*
X100213428Y-94773421D01*
X100177193Y-94672152D01*
X100151059Y-94567819D01*
X100135278Y-94461427D01*
X100130000Y-94354000D01*
X100130000Y-91066000D01*
X100135278Y-90958573D01*
X100151059Y-90852181D01*
X100177193Y-90747848D01*
X100213428Y-90646579D01*
X100259414Y-90549349D01*
X100314709Y-90457095D01*
X100378781Y-90370705D01*
X100451011Y-90291011D01*
X100530705Y-90218781D01*
X100617095Y-90154709D01*
X100709349Y-90099414D01*
X100806579Y-90053428D01*
X100907848Y-90017193D01*
X101012181Y-89991059D01*
X101118573Y-89975278D01*
X101226000Y-89970000D01*
X107054000Y-89970000D01*
X107161427Y-89975278D01*
X107161427Y-89975278D01*
G37*
D16*
X104140000Y-92710000D03*
D15*
G36*
X107161427Y-67115278D02*
X107267819Y-67131059D01*
X107372152Y-67157193D01*
X107473421Y-67193428D01*
X107570651Y-67239414D01*
X107662905Y-67294709D01*
X107749295Y-67358781D01*
X107828989Y-67431011D01*
X107901219Y-67510705D01*
X107965291Y-67597095D01*
X108020586Y-67689349D01*
X108066572Y-67786579D01*
X108102807Y-67887848D01*
X108128941Y-67992181D01*
X108144722Y-68098573D01*
X108150000Y-68206000D01*
X108150000Y-71494000D01*
X108144722Y-71601427D01*
X108128941Y-71707819D01*
X108102807Y-71812152D01*
X108066572Y-71913421D01*
X108020586Y-72010651D01*
X107965291Y-72102905D01*
X107901219Y-72189295D01*
X107828989Y-72268989D01*
X107749295Y-72341219D01*
X107662905Y-72405291D01*
X107570651Y-72460586D01*
X107473421Y-72506572D01*
X107372152Y-72542807D01*
X107267819Y-72568941D01*
X107161427Y-72584722D01*
X107054000Y-72590000D01*
X101226000Y-72590000D01*
X101118573Y-72584722D01*
X101012181Y-72568941D01*
X100907848Y-72542807D01*
X100806579Y-72506572D01*
X100709349Y-72460586D01*
X100617095Y-72405291D01*
X100530705Y-72341219D01*
X100451011Y-72268989D01*
X100378781Y-72189295D01*
X100314709Y-72102905D01*
X100259414Y-72010651D01*
X100213428Y-71913421D01*
X100177193Y-71812152D01*
X100151059Y-71707819D01*
X100135278Y-71601427D01*
X100130000Y-71494000D01*
X100130000Y-68206000D01*
X100135278Y-68098573D01*
X100151059Y-67992181D01*
X100177193Y-67887848D01*
X100213428Y-67786579D01*
X100259414Y-67689349D01*
X100314709Y-67597095D01*
X100378781Y-67510705D01*
X100451011Y-67431011D01*
X100530705Y-67358781D01*
X100617095Y-67294709D01*
X100709349Y-67239414D01*
X100806579Y-67193428D01*
X100907848Y-67157193D01*
X101012181Y-67131059D01*
X101118573Y-67115278D01*
X101226000Y-67110000D01*
X107054000Y-67110000D01*
X107161427Y-67115278D01*
X107161427Y-67115278D01*
G37*
D16*
X104140000Y-69850000D03*
D15*
G36*
X107161427Y-82355278D02*
X107267819Y-82371059D01*
X107372152Y-82397193D01*
X107473421Y-82433428D01*
X107570651Y-82479414D01*
X107662905Y-82534709D01*
X107749295Y-82598781D01*
X107828989Y-82671011D01*
X107901219Y-82750705D01*
X107965291Y-82837095D01*
X108020586Y-82929349D01*
X108066572Y-83026579D01*
X108102807Y-83127848D01*
X108128941Y-83232181D01*
X108144722Y-83338573D01*
X108150000Y-83446000D01*
X108150000Y-86734000D01*
X108144722Y-86841427D01*
X108128941Y-86947819D01*
X108102807Y-87052152D01*
X108066572Y-87153421D01*
X108020586Y-87250651D01*
X107965291Y-87342905D01*
X107901219Y-87429295D01*
X107828989Y-87508989D01*
X107749295Y-87581219D01*
X107662905Y-87645291D01*
X107570651Y-87700586D01*
X107473421Y-87746572D01*
X107372152Y-87782807D01*
X107267819Y-87808941D01*
X107161427Y-87824722D01*
X107054000Y-87830000D01*
X101226000Y-87830000D01*
X101118573Y-87824722D01*
X101012181Y-87808941D01*
X100907848Y-87782807D01*
X100806579Y-87746572D01*
X100709349Y-87700586D01*
X100617095Y-87645291D01*
X100530705Y-87581219D01*
X100451011Y-87508989D01*
X100378781Y-87429295D01*
X100314709Y-87342905D01*
X100259414Y-87250651D01*
X100213428Y-87153421D01*
X100177193Y-87052152D01*
X100151059Y-86947819D01*
X100135278Y-86841427D01*
X100130000Y-86734000D01*
X100130000Y-83446000D01*
X100135278Y-83338573D01*
X100151059Y-83232181D01*
X100177193Y-83127848D01*
X100213428Y-83026579D01*
X100259414Y-82929349D01*
X100314709Y-82837095D01*
X100378781Y-82750705D01*
X100451011Y-82671011D01*
X100530705Y-82598781D01*
X100617095Y-82534709D01*
X100709349Y-82479414D01*
X100806579Y-82433428D01*
X100907848Y-82397193D01*
X101012181Y-82371059D01*
X101118573Y-82355278D01*
X101226000Y-82350000D01*
X107054000Y-82350000D01*
X107161427Y-82355278D01*
X107161427Y-82355278D01*
G37*
D16*
X104140000Y-85090000D03*
D15*
G36*
X107161427Y-74735278D02*
X107267819Y-74751059D01*
X107372152Y-74777193D01*
X107473421Y-74813428D01*
X107570651Y-74859414D01*
X107662905Y-74914709D01*
X107749295Y-74978781D01*
X107828989Y-75051011D01*
X107901219Y-75130705D01*
X107965291Y-75217095D01*
X108020586Y-75309349D01*
X108066572Y-75406579D01*
X108102807Y-75507848D01*
X108128941Y-75612181D01*
X108144722Y-75718573D01*
X108150000Y-75826000D01*
X108150000Y-79114000D01*
X108144722Y-79221427D01*
X108128941Y-79327819D01*
X108102807Y-79432152D01*
X108066572Y-79533421D01*
X108020586Y-79630651D01*
X107965291Y-79722905D01*
X107901219Y-79809295D01*
X107828989Y-79888989D01*
X107749295Y-79961219D01*
X107662905Y-80025291D01*
X107570651Y-80080586D01*
X107473421Y-80126572D01*
X107372152Y-80162807D01*
X107267819Y-80188941D01*
X107161427Y-80204722D01*
X107054000Y-80210000D01*
X101226000Y-80210000D01*
X101118573Y-80204722D01*
X101012181Y-80188941D01*
X100907848Y-80162807D01*
X100806579Y-80126572D01*
X100709349Y-80080586D01*
X100617095Y-80025291D01*
X100530705Y-79961219D01*
X100451011Y-79888989D01*
X100378781Y-79809295D01*
X100314709Y-79722905D01*
X100259414Y-79630651D01*
X100213428Y-79533421D01*
X100177193Y-79432152D01*
X100151059Y-79327819D01*
X100135278Y-79221427D01*
X100130000Y-79114000D01*
X100130000Y-75826000D01*
X100135278Y-75718573D01*
X100151059Y-75612181D01*
X100177193Y-75507848D01*
X100213428Y-75406579D01*
X100259414Y-75309349D01*
X100314709Y-75217095D01*
X100378781Y-75130705D01*
X100451011Y-75051011D01*
X100530705Y-74978781D01*
X100617095Y-74914709D01*
X100709349Y-74859414D01*
X100806579Y-74813428D01*
X100907848Y-74777193D01*
X101012181Y-74751059D01*
X101118573Y-74735278D01*
X101226000Y-74730000D01*
X107054000Y-74730000D01*
X107161427Y-74735278D01*
X107161427Y-74735278D01*
G37*
D16*
X104140000Y-77470000D03*
D15*
G36*
X61441427Y-74735278D02*
X61547819Y-74751059D01*
X61652152Y-74777193D01*
X61753421Y-74813428D01*
X61850651Y-74859414D01*
X61942905Y-74914709D01*
X62029295Y-74978781D01*
X62108989Y-75051011D01*
X62181219Y-75130705D01*
X62245291Y-75217095D01*
X62300586Y-75309349D01*
X62346572Y-75406579D01*
X62382807Y-75507848D01*
X62408941Y-75612181D01*
X62424722Y-75718573D01*
X62430000Y-75826000D01*
X62430000Y-79114000D01*
X62424722Y-79221427D01*
X62408941Y-79327819D01*
X62382807Y-79432152D01*
X62346572Y-79533421D01*
X62300586Y-79630651D01*
X62245291Y-79722905D01*
X62181219Y-79809295D01*
X62108989Y-79888989D01*
X62029295Y-79961219D01*
X61942905Y-80025291D01*
X61850651Y-80080586D01*
X61753421Y-80126572D01*
X61652152Y-80162807D01*
X61547819Y-80188941D01*
X61441427Y-80204722D01*
X61334000Y-80210000D01*
X55506000Y-80210000D01*
X55398573Y-80204722D01*
X55292181Y-80188941D01*
X55187848Y-80162807D01*
X55086579Y-80126572D01*
X54989349Y-80080586D01*
X54897095Y-80025291D01*
X54810705Y-79961219D01*
X54731011Y-79888989D01*
X54658781Y-79809295D01*
X54594709Y-79722905D01*
X54539414Y-79630651D01*
X54493428Y-79533421D01*
X54457193Y-79432152D01*
X54431059Y-79327819D01*
X54415278Y-79221427D01*
X54410000Y-79114000D01*
X54410000Y-75826000D01*
X54415278Y-75718573D01*
X54431059Y-75612181D01*
X54457193Y-75507848D01*
X54493428Y-75406579D01*
X54539414Y-75309349D01*
X54594709Y-75217095D01*
X54658781Y-75130705D01*
X54731011Y-75051011D01*
X54810705Y-74978781D01*
X54897095Y-74914709D01*
X54989349Y-74859414D01*
X55086579Y-74813428D01*
X55187848Y-74777193D01*
X55292181Y-74751059D01*
X55398573Y-74735278D01*
X55506000Y-74730000D01*
X61334000Y-74730000D01*
X61441427Y-74735278D01*
X61441427Y-74735278D01*
G37*
D16*
X58420000Y-77470000D03*
D15*
G36*
X61441427Y-67115278D02*
X61547819Y-67131059D01*
X61652152Y-67157193D01*
X61753421Y-67193428D01*
X61850651Y-67239414D01*
X61942905Y-67294709D01*
X62029295Y-67358781D01*
X62108989Y-67431011D01*
X62181219Y-67510705D01*
X62245291Y-67597095D01*
X62300586Y-67689349D01*
X62346572Y-67786579D01*
X62382807Y-67887848D01*
X62408941Y-67992181D01*
X62424722Y-68098573D01*
X62430000Y-68206000D01*
X62430000Y-71494000D01*
X62424722Y-71601427D01*
X62408941Y-71707819D01*
X62382807Y-71812152D01*
X62346572Y-71913421D01*
X62300586Y-72010651D01*
X62245291Y-72102905D01*
X62181219Y-72189295D01*
X62108989Y-72268989D01*
X62029295Y-72341219D01*
X61942905Y-72405291D01*
X61850651Y-72460586D01*
X61753421Y-72506572D01*
X61652152Y-72542807D01*
X61547819Y-72568941D01*
X61441427Y-72584722D01*
X61334000Y-72590000D01*
X55506000Y-72590000D01*
X55398573Y-72584722D01*
X55292181Y-72568941D01*
X55187848Y-72542807D01*
X55086579Y-72506572D01*
X54989349Y-72460586D01*
X54897095Y-72405291D01*
X54810705Y-72341219D01*
X54731011Y-72268989D01*
X54658781Y-72189295D01*
X54594709Y-72102905D01*
X54539414Y-72010651D01*
X54493428Y-71913421D01*
X54457193Y-71812152D01*
X54431059Y-71707819D01*
X54415278Y-71601427D01*
X54410000Y-71494000D01*
X54410000Y-68206000D01*
X54415278Y-68098573D01*
X54431059Y-67992181D01*
X54457193Y-67887848D01*
X54493428Y-67786579D01*
X54539414Y-67689349D01*
X54594709Y-67597095D01*
X54658781Y-67510705D01*
X54731011Y-67431011D01*
X54810705Y-67358781D01*
X54897095Y-67294709D01*
X54989349Y-67239414D01*
X55086579Y-67193428D01*
X55187848Y-67157193D01*
X55292181Y-67131059D01*
X55398573Y-67115278D01*
X55506000Y-67110000D01*
X61334000Y-67110000D01*
X61441427Y-67115278D01*
X61441427Y-67115278D01*
G37*
D16*
X58420000Y-69850000D03*
D17*
X43815000Y-35560000D03*
X102235000Y-35560000D03*
X102235000Y-58420000D03*
X43815000Y-58420000D03*
D18*
X46355000Y-59690000D03*
X48895000Y-59690000D03*
X51435000Y-59690000D03*
X53975000Y-59690000D03*
X56515000Y-59690000D03*
X59055000Y-59690000D03*
X61595000Y-59690000D03*
X64135000Y-59690000D03*
X66675000Y-59690000D03*
X69215000Y-59690000D03*
X84455000Y-34290000D03*
X81915000Y-34290000D03*
X79375000Y-34290000D03*
X76835000Y-34290000D03*
X74295000Y-34290000D03*
X71755000Y-34290000D03*
X69215000Y-34290000D03*
X66675000Y-34290000D03*
X64135000Y-34290000D03*
X61595000Y-34290000D03*
X59055000Y-34290000D03*
X56515000Y-34290000D03*
X53975000Y-34290000D03*
X51435000Y-34290000D03*
X48895000Y-34290000D03*
X46355000Y-34290000D03*
D15*
G36*
X78067870Y-68128622D02*
X78120727Y-68136462D01*
X78172560Y-68149446D01*
X78222871Y-68167448D01*
X78271176Y-68190294D01*
X78317008Y-68217765D01*
X78359927Y-68249596D01*
X78399520Y-68285480D01*
X78435404Y-68325073D01*
X78467235Y-68367992D01*
X78494706Y-68413824D01*
X78517552Y-68462129D01*
X78535554Y-68512440D01*
X78548538Y-68564273D01*
X78556378Y-68617130D01*
X78559000Y-68670500D01*
X78559000Y-69759500D01*
X78556378Y-69812870D01*
X78548538Y-69865727D01*
X78535554Y-69917560D01*
X78517552Y-69967871D01*
X78494706Y-70016176D01*
X78467235Y-70062008D01*
X78435404Y-70104927D01*
X78399520Y-70144520D01*
X78359927Y-70180404D01*
X78317008Y-70212235D01*
X78271176Y-70239706D01*
X78222871Y-70262552D01*
X78172560Y-70280554D01*
X78120727Y-70293538D01*
X78067870Y-70301378D01*
X78014500Y-70304000D01*
X76925500Y-70304000D01*
X76872130Y-70301378D01*
X76819273Y-70293538D01*
X76767440Y-70280554D01*
X76717129Y-70262552D01*
X76668824Y-70239706D01*
X76622992Y-70212235D01*
X76580073Y-70180404D01*
X76540480Y-70144520D01*
X76504596Y-70104927D01*
X76472765Y-70062008D01*
X76445294Y-70016176D01*
X76422448Y-69967871D01*
X76404446Y-69917560D01*
X76391462Y-69865727D01*
X76383622Y-69812870D01*
X76381000Y-69759500D01*
X76381000Y-68670500D01*
X76383622Y-68617130D01*
X76391462Y-68564273D01*
X76404446Y-68512440D01*
X76422448Y-68462129D01*
X76445294Y-68413824D01*
X76472765Y-68367992D01*
X76504596Y-68325073D01*
X76540480Y-68285480D01*
X76580073Y-68249596D01*
X76622992Y-68217765D01*
X76668824Y-68190294D01*
X76717129Y-68167448D01*
X76767440Y-68149446D01*
X76819273Y-68136462D01*
X76872130Y-68128622D01*
X76925500Y-68126000D01*
X78014500Y-68126000D01*
X78067870Y-68128622D01*
X78067870Y-68128622D01*
G37*
D18*
X77470000Y-69215000D03*
D15*
G36*
X75527870Y-68128622D02*
X75580727Y-68136462D01*
X75632560Y-68149446D01*
X75682871Y-68167448D01*
X75731176Y-68190294D01*
X75777008Y-68217765D01*
X75819927Y-68249596D01*
X75859520Y-68285480D01*
X75895404Y-68325073D01*
X75927235Y-68367992D01*
X75954706Y-68413824D01*
X75977552Y-68462129D01*
X75995554Y-68512440D01*
X76008538Y-68564273D01*
X76016378Y-68617130D01*
X76019000Y-68670500D01*
X76019000Y-69759500D01*
X76016378Y-69812870D01*
X76008538Y-69865727D01*
X75995554Y-69917560D01*
X75977552Y-69967871D01*
X75954706Y-70016176D01*
X75927235Y-70062008D01*
X75895404Y-70104927D01*
X75859520Y-70144520D01*
X75819927Y-70180404D01*
X75777008Y-70212235D01*
X75731176Y-70239706D01*
X75682871Y-70262552D01*
X75632560Y-70280554D01*
X75580727Y-70293538D01*
X75527870Y-70301378D01*
X75474500Y-70304000D01*
X74385500Y-70304000D01*
X74332130Y-70301378D01*
X74279273Y-70293538D01*
X74227440Y-70280554D01*
X74177129Y-70262552D01*
X74128824Y-70239706D01*
X74082992Y-70212235D01*
X74040073Y-70180404D01*
X74000480Y-70144520D01*
X73964596Y-70104927D01*
X73932765Y-70062008D01*
X73905294Y-70016176D01*
X73882448Y-69967871D01*
X73864446Y-69917560D01*
X73851462Y-69865727D01*
X73843622Y-69812870D01*
X73841000Y-69759500D01*
X73841000Y-68670500D01*
X73843622Y-68617130D01*
X73851462Y-68564273D01*
X73864446Y-68512440D01*
X73882448Y-68462129D01*
X73905294Y-68413824D01*
X73932765Y-68367992D01*
X73964596Y-68325073D01*
X74000480Y-68285480D01*
X74040073Y-68249596D01*
X74082992Y-68217765D01*
X74128824Y-68190294D01*
X74177129Y-68167448D01*
X74227440Y-68149446D01*
X74279273Y-68136462D01*
X74332130Y-68128622D01*
X74385500Y-68126000D01*
X75474500Y-68126000D01*
X75527870Y-68128622D01*
X75527870Y-68128622D01*
G37*
D18*
X74930000Y-69215000D03*
D15*
G36*
X72987870Y-68128622D02*
X73040727Y-68136462D01*
X73092560Y-68149446D01*
X73142871Y-68167448D01*
X73191176Y-68190294D01*
X73237008Y-68217765D01*
X73279927Y-68249596D01*
X73319520Y-68285480D01*
X73355404Y-68325073D01*
X73387235Y-68367992D01*
X73414706Y-68413824D01*
X73437552Y-68462129D01*
X73455554Y-68512440D01*
X73468538Y-68564273D01*
X73476378Y-68617130D01*
X73479000Y-68670500D01*
X73479000Y-69759500D01*
X73476378Y-69812870D01*
X73468538Y-69865727D01*
X73455554Y-69917560D01*
X73437552Y-69967871D01*
X73414706Y-70016176D01*
X73387235Y-70062008D01*
X73355404Y-70104927D01*
X73319520Y-70144520D01*
X73279927Y-70180404D01*
X73237008Y-70212235D01*
X73191176Y-70239706D01*
X73142871Y-70262552D01*
X73092560Y-70280554D01*
X73040727Y-70293538D01*
X72987870Y-70301378D01*
X72934500Y-70304000D01*
X71845500Y-70304000D01*
X71792130Y-70301378D01*
X71739273Y-70293538D01*
X71687440Y-70280554D01*
X71637129Y-70262552D01*
X71588824Y-70239706D01*
X71542992Y-70212235D01*
X71500073Y-70180404D01*
X71460480Y-70144520D01*
X71424596Y-70104927D01*
X71392765Y-70062008D01*
X71365294Y-70016176D01*
X71342448Y-69967871D01*
X71324446Y-69917560D01*
X71311462Y-69865727D01*
X71303622Y-69812870D01*
X71301000Y-69759500D01*
X71301000Y-68670500D01*
X71303622Y-68617130D01*
X71311462Y-68564273D01*
X71324446Y-68512440D01*
X71342448Y-68462129D01*
X71365294Y-68413824D01*
X71392765Y-68367992D01*
X71424596Y-68325073D01*
X71460480Y-68285480D01*
X71500073Y-68249596D01*
X71542992Y-68217765D01*
X71588824Y-68190294D01*
X71637129Y-68167448D01*
X71687440Y-68149446D01*
X71739273Y-68136462D01*
X71792130Y-68128622D01*
X71845500Y-68126000D01*
X72934500Y-68126000D01*
X72987870Y-68128622D01*
X72987870Y-68128622D01*
G37*
D18*
X72390000Y-69215000D03*
D19*
X115920000Y-65080000D03*
X115920000Y-72080000D03*
D20*
X113220000Y-66080000D03*
X113220000Y-71080000D03*
D11*
X92075000Y-72390000D03*
D10*
X89535000Y-72390000D03*
X86995000Y-72390000D03*
X84455000Y-72390000D03*
D21*
X37638056Y-34243944D03*
X35941000Y-33541000D03*
X34243944Y-34243944D03*
X33541000Y-35941000D03*
X34243944Y-37638056D03*
X35941000Y-38341000D03*
X37638056Y-37638056D03*
X38341000Y-35941000D03*
D22*
X35941000Y-35941000D03*
D21*
X128316056Y-34243944D03*
X126619000Y-33541000D03*
X124921944Y-34243944D03*
X124219000Y-35941000D03*
X124921944Y-37638056D03*
X126619000Y-38341000D03*
X128316056Y-37638056D03*
X129019000Y-35941000D03*
D22*
X126619000Y-35941000D03*
X35941000Y-126619000D03*
D21*
X38341000Y-126619000D03*
X37638056Y-128316056D03*
X35941000Y-129019000D03*
X34243944Y-128316056D03*
X33541000Y-126619000D03*
X34243944Y-124921944D03*
X35941000Y-124219000D03*
X37638056Y-124921944D03*
D22*
X126619000Y-126619000D03*
D21*
X129019000Y-126619000D03*
X128316056Y-128316056D03*
X126619000Y-129019000D03*
X124921944Y-128316056D03*
X124219000Y-126619000D03*
X124921944Y-124921944D03*
X126619000Y-124219000D03*
X128316056Y-124921944D03*
M02*
