G04 #@! TF.GenerationSoftware,KiCad,Pcbnew,5.0.0-rc2-dev-unknown-7098827~63~ubuntu16.04.1*
G04 #@! TF.CreationDate,2018-04-05T23:02:55+05:30*
G04 #@! TF.ProjectId,wyostat,77796F737461742E6B696361645F7063,rev?*
G04 #@! TF.SameCoordinates,Original*
G04 #@! TF.FileFunction,Copper,L2,Bot,Signal*
G04 #@! TF.FilePolarity,Positive*
%FSLAX46Y46*%
G04 Gerber Fmt 4.6, Leading zero omitted, Abs format (unit mm)*
G04 Created by KiCad (PCBNEW 5.0.0-rc2-dev-unknown-7098827~63~ubuntu16.04.1) date Thu Apr  5 23:02:55 2018*
%MOMM*%
%LPD*%
G01*
G04 APERTURE LIST*
%ADD10O,1.727200X2.032000*%
%ADD11R,1.727200X2.032000*%
%ADD12O,2.200000X1.800000*%
%ADD13R,2.200000X1.800000*%
%ADD14C,0.508000*%
%ADD15C,5.080000*%
%ADD16C,1.778000*%
%ADD17O,1.900000X1.200000*%
%ADD18C,1.450000*%
%ADD19C,0.800000*%
%ADD20C,6.400000*%
%ADD21C,0.812800*%
%ADD22C,1.016000*%
%ADD23C,0.381000*%
%ADD24C,0.762000*%
%ADD25C,0.254000*%
G04 APERTURE END LIST*
D10*
X33274000Y-64770000D03*
X35814000Y-64770000D03*
X38354000Y-64770000D03*
X40894000Y-64770000D03*
X43434000Y-64770000D03*
D11*
X45974000Y-64770000D03*
D12*
X113030000Y-125095000D03*
D13*
X113030000Y-127635000D03*
D12*
X113030000Y-122555000D03*
X113030000Y-93345000D03*
D13*
X113030000Y-95885000D03*
D12*
X113030000Y-83185000D03*
D13*
X113030000Y-85725000D03*
D12*
X113030000Y-103505000D03*
D13*
X113030000Y-106045000D03*
D12*
X113030000Y-113665000D03*
D13*
X113030000Y-116205000D03*
D14*
G36*
X61313585Y-90174892D02*
X61412212Y-90189522D01*
X61508929Y-90213749D01*
X61602806Y-90247338D01*
X61692939Y-90289968D01*
X61778459Y-90341227D01*
X61858544Y-90400621D01*
X61932420Y-90467580D01*
X61999379Y-90541456D01*
X62058773Y-90621541D01*
X62110032Y-90707061D01*
X62152662Y-90797194D01*
X62186251Y-90891071D01*
X62210478Y-90987788D01*
X62225108Y-91086415D01*
X62230000Y-91186000D01*
X62230000Y-94234000D01*
X62225108Y-94333585D01*
X62210478Y-94432212D01*
X62186251Y-94528929D01*
X62152662Y-94622806D01*
X62110032Y-94712939D01*
X62058773Y-94798459D01*
X61999379Y-94878544D01*
X61932420Y-94952420D01*
X61858544Y-95019379D01*
X61778459Y-95078773D01*
X61692939Y-95130032D01*
X61602806Y-95172662D01*
X61508929Y-95206251D01*
X61412212Y-95230478D01*
X61313585Y-95245108D01*
X61214000Y-95250000D01*
X55626000Y-95250000D01*
X55526415Y-95245108D01*
X55427788Y-95230478D01*
X55331071Y-95206251D01*
X55237194Y-95172662D01*
X55147061Y-95130032D01*
X55061541Y-95078773D01*
X54981456Y-95019379D01*
X54907580Y-94952420D01*
X54840621Y-94878544D01*
X54781227Y-94798459D01*
X54729968Y-94712939D01*
X54687338Y-94622806D01*
X54653749Y-94528929D01*
X54629522Y-94432212D01*
X54614892Y-94333585D01*
X54610000Y-94234000D01*
X54610000Y-91186000D01*
X54614892Y-91086415D01*
X54629522Y-90987788D01*
X54653749Y-90891071D01*
X54687338Y-90797194D01*
X54729968Y-90707061D01*
X54781227Y-90621541D01*
X54840621Y-90541456D01*
X54907580Y-90467580D01*
X54981456Y-90400621D01*
X55061541Y-90341227D01*
X55147061Y-90289968D01*
X55237194Y-90247338D01*
X55331071Y-90213749D01*
X55427788Y-90189522D01*
X55526415Y-90174892D01*
X55626000Y-90170000D01*
X61214000Y-90170000D01*
X61313585Y-90174892D01*
X61313585Y-90174892D01*
G37*
D15*
X58420000Y-92710000D03*
D14*
G36*
X61313585Y-82554892D02*
X61412212Y-82569522D01*
X61508929Y-82593749D01*
X61602806Y-82627338D01*
X61692939Y-82669968D01*
X61778459Y-82721227D01*
X61858544Y-82780621D01*
X61932420Y-82847580D01*
X61999379Y-82921456D01*
X62058773Y-83001541D01*
X62110032Y-83087061D01*
X62152662Y-83177194D01*
X62186251Y-83271071D01*
X62210478Y-83367788D01*
X62225108Y-83466415D01*
X62230000Y-83566000D01*
X62230000Y-86614000D01*
X62225108Y-86713585D01*
X62210478Y-86812212D01*
X62186251Y-86908929D01*
X62152662Y-87002806D01*
X62110032Y-87092939D01*
X62058773Y-87178459D01*
X61999379Y-87258544D01*
X61932420Y-87332420D01*
X61858544Y-87399379D01*
X61778459Y-87458773D01*
X61692939Y-87510032D01*
X61602806Y-87552662D01*
X61508929Y-87586251D01*
X61412212Y-87610478D01*
X61313585Y-87625108D01*
X61214000Y-87630000D01*
X55626000Y-87630000D01*
X55526415Y-87625108D01*
X55427788Y-87610478D01*
X55331071Y-87586251D01*
X55237194Y-87552662D01*
X55147061Y-87510032D01*
X55061541Y-87458773D01*
X54981456Y-87399379D01*
X54907580Y-87332420D01*
X54840621Y-87258544D01*
X54781227Y-87178459D01*
X54729968Y-87092939D01*
X54687338Y-87002806D01*
X54653749Y-86908929D01*
X54629522Y-86812212D01*
X54614892Y-86713585D01*
X54610000Y-86614000D01*
X54610000Y-83566000D01*
X54614892Y-83466415D01*
X54629522Y-83367788D01*
X54653749Y-83271071D01*
X54687338Y-83177194D01*
X54729968Y-83087061D01*
X54781227Y-83001541D01*
X54840621Y-82921456D01*
X54907580Y-82847580D01*
X54981456Y-82780621D01*
X55061541Y-82721227D01*
X55147061Y-82669968D01*
X55237194Y-82627338D01*
X55331071Y-82593749D01*
X55427788Y-82569522D01*
X55526415Y-82554892D01*
X55626000Y-82550000D01*
X61214000Y-82550000D01*
X61313585Y-82554892D01*
X61313585Y-82554892D01*
G37*
D15*
X58420000Y-85090000D03*
D14*
G36*
X107033585Y-90174892D02*
X107132212Y-90189522D01*
X107228929Y-90213749D01*
X107322806Y-90247338D01*
X107412939Y-90289968D01*
X107498459Y-90341227D01*
X107578544Y-90400621D01*
X107652420Y-90467580D01*
X107719379Y-90541456D01*
X107778773Y-90621541D01*
X107830032Y-90707061D01*
X107872662Y-90797194D01*
X107906251Y-90891071D01*
X107930478Y-90987788D01*
X107945108Y-91086415D01*
X107950000Y-91186000D01*
X107950000Y-94234000D01*
X107945108Y-94333585D01*
X107930478Y-94432212D01*
X107906251Y-94528929D01*
X107872662Y-94622806D01*
X107830032Y-94712939D01*
X107778773Y-94798459D01*
X107719379Y-94878544D01*
X107652420Y-94952420D01*
X107578544Y-95019379D01*
X107498459Y-95078773D01*
X107412939Y-95130032D01*
X107322806Y-95172662D01*
X107228929Y-95206251D01*
X107132212Y-95230478D01*
X107033585Y-95245108D01*
X106934000Y-95250000D01*
X101346000Y-95250000D01*
X101246415Y-95245108D01*
X101147788Y-95230478D01*
X101051071Y-95206251D01*
X100957194Y-95172662D01*
X100867061Y-95130032D01*
X100781541Y-95078773D01*
X100701456Y-95019379D01*
X100627580Y-94952420D01*
X100560621Y-94878544D01*
X100501227Y-94798459D01*
X100449968Y-94712939D01*
X100407338Y-94622806D01*
X100373749Y-94528929D01*
X100349522Y-94432212D01*
X100334892Y-94333585D01*
X100330000Y-94234000D01*
X100330000Y-91186000D01*
X100334892Y-91086415D01*
X100349522Y-90987788D01*
X100373749Y-90891071D01*
X100407338Y-90797194D01*
X100449968Y-90707061D01*
X100501227Y-90621541D01*
X100560621Y-90541456D01*
X100627580Y-90467580D01*
X100701456Y-90400621D01*
X100781541Y-90341227D01*
X100867061Y-90289968D01*
X100957194Y-90247338D01*
X101051071Y-90213749D01*
X101147788Y-90189522D01*
X101246415Y-90174892D01*
X101346000Y-90170000D01*
X106934000Y-90170000D01*
X107033585Y-90174892D01*
X107033585Y-90174892D01*
G37*
D15*
X104140000Y-92710000D03*
D14*
G36*
X107033585Y-67314892D02*
X107132212Y-67329522D01*
X107228929Y-67353749D01*
X107322806Y-67387338D01*
X107412939Y-67429968D01*
X107498459Y-67481227D01*
X107578544Y-67540621D01*
X107652420Y-67607580D01*
X107719379Y-67681456D01*
X107778773Y-67761541D01*
X107830032Y-67847061D01*
X107872662Y-67937194D01*
X107906251Y-68031071D01*
X107930478Y-68127788D01*
X107945108Y-68226415D01*
X107950000Y-68326000D01*
X107950000Y-71374000D01*
X107945108Y-71473585D01*
X107930478Y-71572212D01*
X107906251Y-71668929D01*
X107872662Y-71762806D01*
X107830032Y-71852939D01*
X107778773Y-71938459D01*
X107719379Y-72018544D01*
X107652420Y-72092420D01*
X107578544Y-72159379D01*
X107498459Y-72218773D01*
X107412939Y-72270032D01*
X107322806Y-72312662D01*
X107228929Y-72346251D01*
X107132212Y-72370478D01*
X107033585Y-72385108D01*
X106934000Y-72390000D01*
X101346000Y-72390000D01*
X101246415Y-72385108D01*
X101147788Y-72370478D01*
X101051071Y-72346251D01*
X100957194Y-72312662D01*
X100867061Y-72270032D01*
X100781541Y-72218773D01*
X100701456Y-72159379D01*
X100627580Y-72092420D01*
X100560621Y-72018544D01*
X100501227Y-71938459D01*
X100449968Y-71852939D01*
X100407338Y-71762806D01*
X100373749Y-71668929D01*
X100349522Y-71572212D01*
X100334892Y-71473585D01*
X100330000Y-71374000D01*
X100330000Y-68326000D01*
X100334892Y-68226415D01*
X100349522Y-68127788D01*
X100373749Y-68031071D01*
X100407338Y-67937194D01*
X100449968Y-67847061D01*
X100501227Y-67761541D01*
X100560621Y-67681456D01*
X100627580Y-67607580D01*
X100701456Y-67540621D01*
X100781541Y-67481227D01*
X100867061Y-67429968D01*
X100957194Y-67387338D01*
X101051071Y-67353749D01*
X101147788Y-67329522D01*
X101246415Y-67314892D01*
X101346000Y-67310000D01*
X106934000Y-67310000D01*
X107033585Y-67314892D01*
X107033585Y-67314892D01*
G37*
D15*
X104140000Y-69850000D03*
D14*
G36*
X107033585Y-82554892D02*
X107132212Y-82569522D01*
X107228929Y-82593749D01*
X107322806Y-82627338D01*
X107412939Y-82669968D01*
X107498459Y-82721227D01*
X107578544Y-82780621D01*
X107652420Y-82847580D01*
X107719379Y-82921456D01*
X107778773Y-83001541D01*
X107830032Y-83087061D01*
X107872662Y-83177194D01*
X107906251Y-83271071D01*
X107930478Y-83367788D01*
X107945108Y-83466415D01*
X107950000Y-83566000D01*
X107950000Y-86614000D01*
X107945108Y-86713585D01*
X107930478Y-86812212D01*
X107906251Y-86908929D01*
X107872662Y-87002806D01*
X107830032Y-87092939D01*
X107778773Y-87178459D01*
X107719379Y-87258544D01*
X107652420Y-87332420D01*
X107578544Y-87399379D01*
X107498459Y-87458773D01*
X107412939Y-87510032D01*
X107322806Y-87552662D01*
X107228929Y-87586251D01*
X107132212Y-87610478D01*
X107033585Y-87625108D01*
X106934000Y-87630000D01*
X101346000Y-87630000D01*
X101246415Y-87625108D01*
X101147788Y-87610478D01*
X101051071Y-87586251D01*
X100957194Y-87552662D01*
X100867061Y-87510032D01*
X100781541Y-87458773D01*
X100701456Y-87399379D01*
X100627580Y-87332420D01*
X100560621Y-87258544D01*
X100501227Y-87178459D01*
X100449968Y-87092939D01*
X100407338Y-87002806D01*
X100373749Y-86908929D01*
X100349522Y-86812212D01*
X100334892Y-86713585D01*
X100330000Y-86614000D01*
X100330000Y-83566000D01*
X100334892Y-83466415D01*
X100349522Y-83367788D01*
X100373749Y-83271071D01*
X100407338Y-83177194D01*
X100449968Y-83087061D01*
X100501227Y-83001541D01*
X100560621Y-82921456D01*
X100627580Y-82847580D01*
X100701456Y-82780621D01*
X100781541Y-82721227D01*
X100867061Y-82669968D01*
X100957194Y-82627338D01*
X101051071Y-82593749D01*
X101147788Y-82569522D01*
X101246415Y-82554892D01*
X101346000Y-82550000D01*
X106934000Y-82550000D01*
X107033585Y-82554892D01*
X107033585Y-82554892D01*
G37*
D15*
X104140000Y-85090000D03*
D14*
G36*
X107033585Y-74934892D02*
X107132212Y-74949522D01*
X107228929Y-74973749D01*
X107322806Y-75007338D01*
X107412939Y-75049968D01*
X107498459Y-75101227D01*
X107578544Y-75160621D01*
X107652420Y-75227580D01*
X107719379Y-75301456D01*
X107778773Y-75381541D01*
X107830032Y-75467061D01*
X107872662Y-75557194D01*
X107906251Y-75651071D01*
X107930478Y-75747788D01*
X107945108Y-75846415D01*
X107950000Y-75946000D01*
X107950000Y-78994000D01*
X107945108Y-79093585D01*
X107930478Y-79192212D01*
X107906251Y-79288929D01*
X107872662Y-79382806D01*
X107830032Y-79472939D01*
X107778773Y-79558459D01*
X107719379Y-79638544D01*
X107652420Y-79712420D01*
X107578544Y-79779379D01*
X107498459Y-79838773D01*
X107412939Y-79890032D01*
X107322806Y-79932662D01*
X107228929Y-79966251D01*
X107132212Y-79990478D01*
X107033585Y-80005108D01*
X106934000Y-80010000D01*
X101346000Y-80010000D01*
X101246415Y-80005108D01*
X101147788Y-79990478D01*
X101051071Y-79966251D01*
X100957194Y-79932662D01*
X100867061Y-79890032D01*
X100781541Y-79838773D01*
X100701456Y-79779379D01*
X100627580Y-79712420D01*
X100560621Y-79638544D01*
X100501227Y-79558459D01*
X100449968Y-79472939D01*
X100407338Y-79382806D01*
X100373749Y-79288929D01*
X100349522Y-79192212D01*
X100334892Y-79093585D01*
X100330000Y-78994000D01*
X100330000Y-75946000D01*
X100334892Y-75846415D01*
X100349522Y-75747788D01*
X100373749Y-75651071D01*
X100407338Y-75557194D01*
X100449968Y-75467061D01*
X100501227Y-75381541D01*
X100560621Y-75301456D01*
X100627580Y-75227580D01*
X100701456Y-75160621D01*
X100781541Y-75101227D01*
X100867061Y-75049968D01*
X100957194Y-75007338D01*
X101051071Y-74973749D01*
X101147788Y-74949522D01*
X101246415Y-74934892D01*
X101346000Y-74930000D01*
X106934000Y-74930000D01*
X107033585Y-74934892D01*
X107033585Y-74934892D01*
G37*
D15*
X104140000Y-77470000D03*
D14*
G36*
X61313585Y-74934892D02*
X61412212Y-74949522D01*
X61508929Y-74973749D01*
X61602806Y-75007338D01*
X61692939Y-75049968D01*
X61778459Y-75101227D01*
X61858544Y-75160621D01*
X61932420Y-75227580D01*
X61999379Y-75301456D01*
X62058773Y-75381541D01*
X62110032Y-75467061D01*
X62152662Y-75557194D01*
X62186251Y-75651071D01*
X62210478Y-75747788D01*
X62225108Y-75846415D01*
X62230000Y-75946000D01*
X62230000Y-78994000D01*
X62225108Y-79093585D01*
X62210478Y-79192212D01*
X62186251Y-79288929D01*
X62152662Y-79382806D01*
X62110032Y-79472939D01*
X62058773Y-79558459D01*
X61999379Y-79638544D01*
X61932420Y-79712420D01*
X61858544Y-79779379D01*
X61778459Y-79838773D01*
X61692939Y-79890032D01*
X61602806Y-79932662D01*
X61508929Y-79966251D01*
X61412212Y-79990478D01*
X61313585Y-80005108D01*
X61214000Y-80010000D01*
X55626000Y-80010000D01*
X55526415Y-80005108D01*
X55427788Y-79990478D01*
X55331071Y-79966251D01*
X55237194Y-79932662D01*
X55147061Y-79890032D01*
X55061541Y-79838773D01*
X54981456Y-79779379D01*
X54907580Y-79712420D01*
X54840621Y-79638544D01*
X54781227Y-79558459D01*
X54729968Y-79472939D01*
X54687338Y-79382806D01*
X54653749Y-79288929D01*
X54629522Y-79192212D01*
X54614892Y-79093585D01*
X54610000Y-78994000D01*
X54610000Y-75946000D01*
X54614892Y-75846415D01*
X54629522Y-75747788D01*
X54653749Y-75651071D01*
X54687338Y-75557194D01*
X54729968Y-75467061D01*
X54781227Y-75381541D01*
X54840621Y-75301456D01*
X54907580Y-75227580D01*
X54981456Y-75160621D01*
X55061541Y-75101227D01*
X55147061Y-75049968D01*
X55237194Y-75007338D01*
X55331071Y-74973749D01*
X55427788Y-74949522D01*
X55526415Y-74934892D01*
X55626000Y-74930000D01*
X61214000Y-74930000D01*
X61313585Y-74934892D01*
X61313585Y-74934892D01*
G37*
D15*
X58420000Y-77470000D03*
D14*
G36*
X61313585Y-67314892D02*
X61412212Y-67329522D01*
X61508929Y-67353749D01*
X61602806Y-67387338D01*
X61692939Y-67429968D01*
X61778459Y-67481227D01*
X61858544Y-67540621D01*
X61932420Y-67607580D01*
X61999379Y-67681456D01*
X62058773Y-67761541D01*
X62110032Y-67847061D01*
X62152662Y-67937194D01*
X62186251Y-68031071D01*
X62210478Y-68127788D01*
X62225108Y-68226415D01*
X62230000Y-68326000D01*
X62230000Y-71374000D01*
X62225108Y-71473585D01*
X62210478Y-71572212D01*
X62186251Y-71668929D01*
X62152662Y-71762806D01*
X62110032Y-71852939D01*
X62058773Y-71938459D01*
X61999379Y-72018544D01*
X61932420Y-72092420D01*
X61858544Y-72159379D01*
X61778459Y-72218773D01*
X61692939Y-72270032D01*
X61602806Y-72312662D01*
X61508929Y-72346251D01*
X61412212Y-72370478D01*
X61313585Y-72385108D01*
X61214000Y-72390000D01*
X55626000Y-72390000D01*
X55526415Y-72385108D01*
X55427788Y-72370478D01*
X55331071Y-72346251D01*
X55237194Y-72312662D01*
X55147061Y-72270032D01*
X55061541Y-72218773D01*
X54981456Y-72159379D01*
X54907580Y-72092420D01*
X54840621Y-72018544D01*
X54781227Y-71938459D01*
X54729968Y-71852939D01*
X54687338Y-71762806D01*
X54653749Y-71668929D01*
X54629522Y-71572212D01*
X54614892Y-71473585D01*
X54610000Y-71374000D01*
X54610000Y-68326000D01*
X54614892Y-68226415D01*
X54629522Y-68127788D01*
X54653749Y-68031071D01*
X54687338Y-67937194D01*
X54729968Y-67847061D01*
X54781227Y-67761541D01*
X54840621Y-67681456D01*
X54907580Y-67607580D01*
X54981456Y-67540621D01*
X55061541Y-67481227D01*
X55147061Y-67429968D01*
X55237194Y-67387338D01*
X55331071Y-67353749D01*
X55427788Y-67329522D01*
X55526415Y-67314892D01*
X55626000Y-67310000D01*
X61214000Y-67310000D01*
X61313585Y-67314892D01*
X61313585Y-67314892D01*
G37*
D15*
X58420000Y-69850000D03*
D16*
X46355000Y-59690000D03*
X48895000Y-59690000D03*
X51435000Y-59690000D03*
X53975000Y-59690000D03*
X56515000Y-59690000D03*
X59055000Y-59690000D03*
X61595000Y-59690000D03*
X64135000Y-59690000D03*
X66675000Y-59690000D03*
X69215000Y-59690000D03*
X84455000Y-34290000D03*
X81915000Y-34290000D03*
X79375000Y-34290000D03*
X76835000Y-34290000D03*
X74295000Y-34290000D03*
X71755000Y-34290000D03*
X69215000Y-34290000D03*
X66675000Y-34290000D03*
X64135000Y-34290000D03*
X61595000Y-34290000D03*
X59055000Y-34290000D03*
X56515000Y-34290000D03*
X53975000Y-34290000D03*
X51435000Y-34290000D03*
X48895000Y-34290000D03*
X46355000Y-34290000D03*
D14*
G36*
X77958069Y-68328140D02*
X78001218Y-68334541D01*
X78043532Y-68345140D01*
X78084603Y-68359836D01*
X78124036Y-68378486D01*
X78161451Y-68400912D01*
X78196488Y-68426897D01*
X78228809Y-68456191D01*
X78258103Y-68488512D01*
X78284088Y-68523549D01*
X78306514Y-68560964D01*
X78325164Y-68600397D01*
X78339860Y-68641468D01*
X78350459Y-68683782D01*
X78356860Y-68726931D01*
X78359000Y-68770500D01*
X78359000Y-69659500D01*
X78356860Y-69703069D01*
X78350459Y-69746218D01*
X78339860Y-69788532D01*
X78325164Y-69829603D01*
X78306514Y-69869036D01*
X78284088Y-69906451D01*
X78258103Y-69941488D01*
X78228809Y-69973809D01*
X78196488Y-70003103D01*
X78161451Y-70029088D01*
X78124036Y-70051514D01*
X78084603Y-70070164D01*
X78043532Y-70084860D01*
X78001218Y-70095459D01*
X77958069Y-70101860D01*
X77914500Y-70104000D01*
X77025500Y-70104000D01*
X76981931Y-70101860D01*
X76938782Y-70095459D01*
X76896468Y-70084860D01*
X76855397Y-70070164D01*
X76815964Y-70051514D01*
X76778549Y-70029088D01*
X76743512Y-70003103D01*
X76711191Y-69973809D01*
X76681897Y-69941488D01*
X76655912Y-69906451D01*
X76633486Y-69869036D01*
X76614836Y-69829603D01*
X76600140Y-69788532D01*
X76589541Y-69746218D01*
X76583140Y-69703069D01*
X76581000Y-69659500D01*
X76581000Y-68770500D01*
X76583140Y-68726931D01*
X76589541Y-68683782D01*
X76600140Y-68641468D01*
X76614836Y-68600397D01*
X76633486Y-68560964D01*
X76655912Y-68523549D01*
X76681897Y-68488512D01*
X76711191Y-68456191D01*
X76743512Y-68426897D01*
X76778549Y-68400912D01*
X76815964Y-68378486D01*
X76855397Y-68359836D01*
X76896468Y-68345140D01*
X76938782Y-68334541D01*
X76981931Y-68328140D01*
X77025500Y-68326000D01*
X77914500Y-68326000D01*
X77958069Y-68328140D01*
X77958069Y-68328140D01*
G37*
D16*
X77470000Y-69215000D03*
D14*
G36*
X75418069Y-68328140D02*
X75461218Y-68334541D01*
X75503532Y-68345140D01*
X75544603Y-68359836D01*
X75584036Y-68378486D01*
X75621451Y-68400912D01*
X75656488Y-68426897D01*
X75688809Y-68456191D01*
X75718103Y-68488512D01*
X75744088Y-68523549D01*
X75766514Y-68560964D01*
X75785164Y-68600397D01*
X75799860Y-68641468D01*
X75810459Y-68683782D01*
X75816860Y-68726931D01*
X75819000Y-68770500D01*
X75819000Y-69659500D01*
X75816860Y-69703069D01*
X75810459Y-69746218D01*
X75799860Y-69788532D01*
X75785164Y-69829603D01*
X75766514Y-69869036D01*
X75744088Y-69906451D01*
X75718103Y-69941488D01*
X75688809Y-69973809D01*
X75656488Y-70003103D01*
X75621451Y-70029088D01*
X75584036Y-70051514D01*
X75544603Y-70070164D01*
X75503532Y-70084860D01*
X75461218Y-70095459D01*
X75418069Y-70101860D01*
X75374500Y-70104000D01*
X74485500Y-70104000D01*
X74441931Y-70101860D01*
X74398782Y-70095459D01*
X74356468Y-70084860D01*
X74315397Y-70070164D01*
X74275964Y-70051514D01*
X74238549Y-70029088D01*
X74203512Y-70003103D01*
X74171191Y-69973809D01*
X74141897Y-69941488D01*
X74115912Y-69906451D01*
X74093486Y-69869036D01*
X74074836Y-69829603D01*
X74060140Y-69788532D01*
X74049541Y-69746218D01*
X74043140Y-69703069D01*
X74041000Y-69659500D01*
X74041000Y-68770500D01*
X74043140Y-68726931D01*
X74049541Y-68683782D01*
X74060140Y-68641468D01*
X74074836Y-68600397D01*
X74093486Y-68560964D01*
X74115912Y-68523549D01*
X74141897Y-68488512D01*
X74171191Y-68456191D01*
X74203512Y-68426897D01*
X74238549Y-68400912D01*
X74275964Y-68378486D01*
X74315397Y-68359836D01*
X74356468Y-68345140D01*
X74398782Y-68334541D01*
X74441931Y-68328140D01*
X74485500Y-68326000D01*
X75374500Y-68326000D01*
X75418069Y-68328140D01*
X75418069Y-68328140D01*
G37*
D16*
X74930000Y-69215000D03*
D14*
G36*
X72878069Y-68328140D02*
X72921218Y-68334541D01*
X72963532Y-68345140D01*
X73004603Y-68359836D01*
X73044036Y-68378486D01*
X73081451Y-68400912D01*
X73116488Y-68426897D01*
X73148809Y-68456191D01*
X73178103Y-68488512D01*
X73204088Y-68523549D01*
X73226514Y-68560964D01*
X73245164Y-68600397D01*
X73259860Y-68641468D01*
X73270459Y-68683782D01*
X73276860Y-68726931D01*
X73279000Y-68770500D01*
X73279000Y-69659500D01*
X73276860Y-69703069D01*
X73270459Y-69746218D01*
X73259860Y-69788532D01*
X73245164Y-69829603D01*
X73226514Y-69869036D01*
X73204088Y-69906451D01*
X73178103Y-69941488D01*
X73148809Y-69973809D01*
X73116488Y-70003103D01*
X73081451Y-70029088D01*
X73044036Y-70051514D01*
X73004603Y-70070164D01*
X72963532Y-70084860D01*
X72921218Y-70095459D01*
X72878069Y-70101860D01*
X72834500Y-70104000D01*
X71945500Y-70104000D01*
X71901931Y-70101860D01*
X71858782Y-70095459D01*
X71816468Y-70084860D01*
X71775397Y-70070164D01*
X71735964Y-70051514D01*
X71698549Y-70029088D01*
X71663512Y-70003103D01*
X71631191Y-69973809D01*
X71601897Y-69941488D01*
X71575912Y-69906451D01*
X71553486Y-69869036D01*
X71534836Y-69829603D01*
X71520140Y-69788532D01*
X71509541Y-69746218D01*
X71503140Y-69703069D01*
X71501000Y-69659500D01*
X71501000Y-68770500D01*
X71503140Y-68726931D01*
X71509541Y-68683782D01*
X71520140Y-68641468D01*
X71534836Y-68600397D01*
X71553486Y-68560964D01*
X71575912Y-68523549D01*
X71601897Y-68488512D01*
X71631191Y-68456191D01*
X71663512Y-68426897D01*
X71698549Y-68400912D01*
X71735964Y-68378486D01*
X71775397Y-68359836D01*
X71816468Y-68345140D01*
X71858782Y-68334541D01*
X71901931Y-68328140D01*
X71945500Y-68326000D01*
X72834500Y-68326000D01*
X72878069Y-68328140D01*
X72878069Y-68328140D01*
G37*
D16*
X72390000Y-69215000D03*
D17*
X115920000Y-65080000D03*
X115920000Y-72080000D03*
D18*
X113220000Y-66080000D03*
X113220000Y-71080000D03*
D11*
X92075000Y-72390000D03*
D10*
X89535000Y-72390000D03*
X86995000Y-72390000D03*
X84455000Y-72390000D03*
D19*
X37638056Y-34243944D03*
X35941000Y-33541000D03*
X34243944Y-34243944D03*
X33541000Y-35941000D03*
X34243944Y-37638056D03*
X35941000Y-38341000D03*
X37638056Y-37638056D03*
X38341000Y-35941000D03*
D20*
X35941000Y-35941000D03*
D19*
X128316056Y-34243944D03*
X126619000Y-33541000D03*
X124921944Y-34243944D03*
X124219000Y-35941000D03*
X124921944Y-37638056D03*
X126619000Y-38341000D03*
X128316056Y-37638056D03*
X129019000Y-35941000D03*
D20*
X126619000Y-35941000D03*
X35941000Y-126619000D03*
D19*
X38341000Y-126619000D03*
X37638056Y-128316056D03*
X35941000Y-129019000D03*
X34243944Y-128316056D03*
X33541000Y-126619000D03*
X34243944Y-124921944D03*
X35941000Y-124219000D03*
X37638056Y-124921944D03*
D20*
X126619000Y-126619000D03*
D19*
X129019000Y-126619000D03*
X128316056Y-128316056D03*
X126619000Y-129019000D03*
X124921944Y-128316056D03*
X124219000Y-126619000D03*
X124921944Y-124921944D03*
X126619000Y-124219000D03*
X128316056Y-124921944D03*
D21*
X81915016Y-39370000D03*
X80645000Y-39370000D03*
X79375000Y-39370000D03*
X53340000Y-120650000D03*
X53340000Y-110490000D03*
X53340000Y-100330000D03*
X69850000Y-64770000D03*
X69850000Y-63500000D03*
X68580000Y-63500000D03*
X35560000Y-75183994D03*
X35560000Y-88646000D03*
X49530000Y-80264000D03*
X49530000Y-82296000D03*
X49530000Y-81280000D03*
X35560000Y-87629998D03*
X35560000Y-89662000D03*
X49530000Y-89662000D03*
X49530000Y-87629998D03*
X49530000Y-88646000D03*
X49530000Y-74168000D03*
X35560000Y-74168000D03*
X35560000Y-73152000D03*
X49530000Y-75184002D03*
X49530000Y-73152000D03*
X67945000Y-75565014D03*
X105664000Y-61595000D03*
X104648000Y-61595000D03*
X103632000Y-61595000D03*
X102616000Y-61595000D03*
X101600000Y-61595000D03*
X81915000Y-40640000D03*
X80645000Y-40640000D03*
X79375000Y-40640000D03*
X36830000Y-69723004D03*
X68580000Y-64770000D03*
X97282000Y-74295000D03*
X73660000Y-76200000D03*
X73025000Y-74930000D03*
X90170000Y-83185000D03*
X88265000Y-81915000D03*
X88265000Y-84455000D03*
X81915000Y-83820000D03*
X80645000Y-85090000D03*
X80645000Y-83820000D03*
X81915000Y-85090000D03*
X76835000Y-85090000D03*
X76835000Y-83820000D03*
X73025000Y-78105000D03*
X69215000Y-40640000D03*
X66675000Y-40640000D03*
X64135000Y-40640000D03*
X61595000Y-40640000D03*
X70104008Y-81280000D03*
X69850000Y-75565000D03*
X68961000Y-81280000D03*
X70866000Y-76200000D03*
X49530000Y-92075000D03*
X49530000Y-102235002D03*
X49530000Y-112395000D03*
X43561000Y-62738000D03*
X46354994Y-70485000D03*
X46355000Y-92075000D03*
X61722000Y-61722000D03*
X90170000Y-114935000D03*
X90170000Y-104775000D03*
X90170000Y-94615000D03*
X93980000Y-114935000D03*
X93980000Y-104775000D03*
X93980000Y-94615000D03*
X93980000Y-117475000D03*
X93980000Y-112395000D03*
X93980000Y-107315000D03*
X93980000Y-102235000D03*
X93980000Y-97155000D03*
X93980000Y-92075000D03*
X87630000Y-117475000D03*
X90170000Y-117475000D03*
X92710000Y-117475000D03*
X92710000Y-114935000D03*
X92710000Y-112395000D03*
X90170000Y-112395000D03*
X87630000Y-112395000D03*
X87630000Y-114935000D03*
X87630000Y-107315000D03*
X90170000Y-107315000D03*
X92710000Y-107315000D03*
X92710000Y-104775000D03*
X92710000Y-102235000D03*
X90170000Y-102235000D03*
X87630000Y-102235000D03*
X87630000Y-104775000D03*
X87630000Y-97155000D03*
X90170000Y-97155000D03*
X92710000Y-97155000D03*
X92710000Y-94615000D03*
X92710000Y-92075000D03*
X90170000Y-92075000D03*
X87630000Y-92075000D03*
X87630000Y-94615000D03*
X74295000Y-92075000D03*
X74295000Y-102235000D03*
X74295000Y-112395000D03*
X95250000Y-87630000D03*
X75565000Y-81280000D03*
X74930000Y-81915000D03*
X74295000Y-82550000D03*
X68326000Y-77724000D03*
D22*
X105410000Y-85090000D02*
X104140000Y-85090000D01*
X110490000Y-94615000D02*
X110490000Y-90170000D01*
X111760000Y-95885000D02*
X110490000Y-94615000D01*
X113030000Y-95885000D02*
X111760000Y-95885000D01*
X110490000Y-90170000D02*
X105410000Y-85090000D01*
X113030000Y-107315000D02*
X113030000Y-106045000D01*
X113665000Y-107950000D02*
X113030000Y-107315000D01*
X116205000Y-107950000D02*
X113665000Y-107950000D01*
X104140000Y-77470000D02*
X105410000Y-77470000D01*
X105410000Y-77470000D02*
X108020710Y-80080710D01*
X108020710Y-80080710D02*
X115005710Y-80080710D01*
X117475000Y-106680000D02*
X116205000Y-107950000D01*
X117475000Y-82550000D02*
X117475000Y-106680000D01*
X115005710Y-80080710D02*
X117475000Y-82550000D01*
X108585000Y-118110000D02*
X110490000Y-116205000D01*
X110490000Y-116205000D02*
X113030000Y-116205000D01*
X108585000Y-123825000D02*
X108585000Y-118110000D01*
X105410000Y-127000000D02*
X108585000Y-123825000D01*
X68580000Y-127000000D02*
X105410000Y-127000000D01*
X58420000Y-85090000D02*
X59690000Y-85090000D01*
X59690000Y-85090000D02*
X65405000Y-90805000D01*
X65405000Y-123825000D02*
X68580000Y-127000000D01*
X65405000Y-90805000D02*
X65405000Y-123825000D01*
X97282000Y-74295000D02*
X97282000Y-71247000D01*
X97282000Y-71247000D02*
X95885000Y-69850000D01*
X69850000Y-80010000D02*
X68961000Y-80899000D01*
X68961000Y-80899000D02*
X68961000Y-81280000D01*
X69850000Y-75565000D02*
X69850000Y-80010000D01*
X68580000Y-63500000D02*
X68580000Y-64770000D01*
X66675000Y-47625000D02*
X67945000Y-46355000D01*
X66675000Y-59690000D02*
X66675000Y-47625000D01*
X67945000Y-46355000D02*
X78359000Y-46355000D01*
X79375000Y-45339000D02*
X79375000Y-34290000D01*
X78359000Y-46355000D02*
X79375000Y-45339000D01*
X36830000Y-89535000D02*
X36830000Y-107950000D01*
X49530000Y-120650000D02*
X36830000Y-107950000D01*
X53340000Y-120650000D02*
X49530000Y-120650000D01*
X53340000Y-120075264D02*
X53340000Y-120650000D01*
X53340000Y-110490000D02*
X53340000Y-120650000D01*
X53340000Y-104140000D02*
X53340000Y-110490000D01*
X84455000Y-84455000D02*
X88265000Y-84455000D01*
X83820000Y-83820000D02*
X84455000Y-84455000D01*
X81915000Y-83820000D02*
X83820000Y-83820000D01*
X76835000Y-83820000D02*
X76835000Y-85090000D01*
X81915000Y-83820000D02*
X81915000Y-85090000D01*
X80645000Y-83820000D02*
X80645000Y-85090000D01*
X76835000Y-85090000D02*
X80645000Y-85090000D01*
X53340000Y-104140000D02*
X53340000Y-100330000D01*
X101600000Y-61595000D02*
X69850000Y-61595000D01*
X69850000Y-61595000D02*
X68580000Y-61595000D01*
X69850000Y-63500000D02*
X69850000Y-61595000D01*
X69850000Y-64770000D02*
X69850000Y-63500000D01*
X68580000Y-61595000D02*
X67310000Y-61595000D01*
X68580000Y-63500000D02*
X68580000Y-61595000D01*
X67310000Y-61595000D02*
X66675000Y-60960000D01*
X66675000Y-60960000D02*
X66675000Y-59690000D01*
X35560000Y-75183994D02*
X36703006Y-75183994D01*
X36703006Y-75183994D02*
X36830000Y-75057000D01*
X35560000Y-74168000D02*
X36703000Y-74168000D01*
X36703000Y-74168000D02*
X36830000Y-74041000D01*
X35560000Y-73152000D02*
X36703000Y-73152000D01*
X36703000Y-73152000D02*
X36830000Y-73025000D01*
X35560000Y-89662000D02*
X36703000Y-89662000D01*
X36703000Y-89662000D02*
X36830000Y-89535000D01*
X36830000Y-87630000D02*
X36830000Y-88646000D01*
X36134736Y-87629998D02*
X36134738Y-87630000D01*
X36830000Y-75057000D02*
X36830000Y-87630000D01*
X35560000Y-87629998D02*
X36134736Y-87629998D01*
X36134738Y-87630000D02*
X36830000Y-87630000D01*
X36830000Y-88646000D02*
X36830000Y-89535000D01*
X35560000Y-88646000D02*
X36830000Y-88646000D01*
X36830000Y-74041000D02*
X36830000Y-75057000D01*
X36830000Y-73025000D02*
X36830000Y-74041000D01*
X36830000Y-70485000D02*
X36830000Y-71882000D01*
X36830000Y-70485000D02*
X36830000Y-73025000D01*
X36830000Y-73025000D02*
X36830000Y-73913994D01*
X36830000Y-69723004D02*
X36830000Y-70485000D01*
X69850014Y-73660000D02*
X67945000Y-75565014D01*
X70485000Y-73660000D02*
X69850014Y-73660000D01*
X72390000Y-73660000D02*
X70485000Y-73660000D01*
X88265000Y-78105000D02*
X88265000Y-81915000D01*
X92075000Y-74295000D02*
X88265000Y-78105000D01*
X97282000Y-74295000D02*
X92075000Y-74295000D01*
X73025000Y-74295000D02*
X72390000Y-73660000D01*
X73025000Y-75565000D02*
X73025000Y-74295000D01*
X73025000Y-78105000D02*
X73025000Y-76835000D01*
X73025000Y-76835000D02*
X73660000Y-76200000D01*
X73025000Y-75565000D02*
X73660000Y-76200000D01*
X80645000Y-83820000D02*
X76835000Y-83820000D01*
X90170000Y-83185000D02*
X89535000Y-83185000D01*
X89535000Y-83185000D02*
X88265000Y-84455000D01*
X88265000Y-81915000D02*
X88900000Y-81915000D01*
X88900000Y-81915000D02*
X90170000Y-83185000D01*
X69215000Y-40640000D02*
X61595000Y-40640000D01*
X70866000Y-76200000D02*
X70866000Y-80518008D01*
X70866000Y-80518008D02*
X70104008Y-81280000D01*
X44450000Y-104140000D02*
X53340000Y-104140000D01*
X41275000Y-100965000D02*
X44450000Y-104140000D01*
X41275000Y-68580000D02*
X41275000Y-100965000D01*
X42545000Y-67310000D02*
X41275000Y-68580000D01*
X45466000Y-67310000D02*
X42545000Y-67310000D01*
X45974000Y-66802000D02*
X45466000Y-67310000D01*
X45974000Y-64770000D02*
X45974000Y-66802000D01*
X76835000Y-42545000D02*
X75565000Y-43815000D01*
X76835000Y-34290000D02*
X76835000Y-42545000D01*
X75565000Y-43815000D02*
X65405000Y-43815000D01*
X65405000Y-43815000D02*
X64135000Y-45085000D01*
X64135000Y-45085000D02*
X64135000Y-59690000D01*
D23*
X47812264Y-93792736D02*
X49123601Y-92481399D01*
X51435000Y-59690000D02*
X49072789Y-62052211D01*
X46167736Y-93792736D02*
X47812264Y-93792736D01*
X44450000Y-70739000D02*
X44450000Y-92075000D01*
X49123601Y-92481399D02*
X49530000Y-92075000D01*
X46544802Y-69469000D02*
X45720000Y-69469000D01*
X49072789Y-62052211D02*
X49072789Y-66941013D01*
X49072789Y-66941013D02*
X46544802Y-69469000D01*
X44450000Y-92075000D02*
X46167736Y-93792736D01*
X45720000Y-69469000D02*
X44450000Y-70739000D01*
X48895000Y-59690000D02*
X48006001Y-60578999D01*
X49123601Y-101828603D02*
X49530000Y-102235002D01*
X48006001Y-60578999D02*
X48006001Y-67181603D01*
X43180000Y-95885002D02*
X49123601Y-101828603D01*
X46353604Y-68834000D02*
X44958000Y-68834000D01*
X48006001Y-67181603D02*
X46353604Y-68834000D01*
X43180000Y-70612000D02*
X43180000Y-95885002D01*
X44958000Y-68834000D02*
X43180000Y-70612000D01*
X38735000Y-101600000D02*
X49530000Y-112395000D01*
X38735000Y-69215000D02*
X38735000Y-101600000D01*
X48895000Y-34290000D02*
X48895000Y-53975000D01*
X48895000Y-53975000D02*
X47625000Y-55245000D01*
X37465000Y-67945000D02*
X38735000Y-69215000D01*
X35560000Y-67945000D02*
X35433000Y-67945000D01*
X35560000Y-67945000D02*
X37465000Y-67945000D01*
X34556690Y-67068690D02*
X34556690Y-56502310D01*
X35433000Y-67945000D02*
X34556690Y-67068690D01*
X47625000Y-55245000D02*
X35814000Y-55245000D01*
X34556690Y-56502310D02*
X35814000Y-55245000D01*
X38862000Y-62738000D02*
X38354000Y-63246000D01*
X38354000Y-63246000D02*
X38354000Y-64770000D01*
X43561000Y-62738000D02*
X38862000Y-62738000D01*
D22*
X69215000Y-50165000D02*
X70485000Y-48895000D01*
X69215000Y-59690000D02*
X69215000Y-50165000D01*
X70485000Y-48895000D02*
X83185000Y-48895000D01*
X83185000Y-48895000D02*
X84455000Y-47625000D01*
X84455000Y-47625000D02*
X84455000Y-34290000D01*
D23*
X46355000Y-70485006D02*
X46354994Y-70485000D01*
X46355000Y-92075000D02*
X46355000Y-70485006D01*
X46355000Y-70485000D02*
X46354994Y-70485000D01*
X51308000Y-61722000D02*
X49657000Y-63373000D01*
X49657000Y-67183000D02*
X46355000Y-70485000D01*
X49657000Y-63373000D02*
X49657000Y-67183000D01*
X61722000Y-61722000D02*
X51308000Y-61722000D01*
D22*
X90170000Y-114935000D02*
X90170000Y-117475000D01*
X90170000Y-117475000D02*
X92710000Y-117475000D01*
X87630000Y-117475000D02*
X90170000Y-117475000D01*
X90170000Y-114935000D02*
X92710000Y-114935000D01*
X90170000Y-112395000D02*
X92710000Y-112395000D01*
X87630000Y-112395000D02*
X90170000Y-112395000D01*
X90170000Y-107315000D02*
X92710000Y-107315000D01*
X87630000Y-107315000D02*
X90170000Y-107315000D01*
X90170000Y-104775000D02*
X92710000Y-104775000D01*
X90170000Y-102235000D02*
X92710000Y-102235000D01*
X87630000Y-102235000D02*
X90170000Y-102235000D01*
X90170000Y-97155000D02*
X92710000Y-97155000D01*
X87630000Y-97155000D02*
X90170000Y-97155000D01*
X90170000Y-94615000D02*
X92710000Y-94615000D01*
X90170000Y-92075000D02*
X92710000Y-92075000D01*
X87630000Y-92075000D02*
X90170000Y-92075000D01*
X90170000Y-87630000D02*
X95250000Y-87630000D01*
X90170000Y-94615000D02*
X76835000Y-94615000D01*
X76835000Y-94615000D02*
X74295000Y-92075000D01*
X90170000Y-104775000D02*
X76835000Y-104775000D01*
X76835000Y-104775000D02*
X74295000Y-102235000D01*
X90170000Y-114935000D02*
X76835000Y-114935000D01*
X76835000Y-114935000D02*
X74295000Y-112395000D01*
X90170000Y-104775000D02*
X90170000Y-114935000D01*
X90170000Y-94615000D02*
X90170000Y-104775000D01*
X90170000Y-87630000D02*
X90170000Y-94615000D01*
X59690000Y-69850000D02*
X58420000Y-69850000D01*
X90170000Y-87630000D02*
X69850000Y-87630000D01*
X69850000Y-87630000D02*
X65786000Y-83566000D01*
X65786000Y-83566000D02*
X65786000Y-75946000D01*
X65786000Y-75946000D02*
X59690000Y-69850000D01*
X59690000Y-77470000D02*
X58420000Y-77470000D01*
X106680000Y-122555000D02*
X104140000Y-125095000D01*
X104140000Y-125095000D02*
X69850000Y-125095000D01*
X67310000Y-122555000D02*
X67310000Y-88900000D01*
X109855000Y-113665000D02*
X106680000Y-116840000D01*
X113030000Y-113665000D02*
X109855000Y-113665000D01*
X106680000Y-116840000D02*
X106680000Y-122555000D01*
X69850000Y-125095000D02*
X67310000Y-122555000D01*
X67310000Y-88900000D02*
X63754000Y-85344000D01*
X63754000Y-85344000D02*
X63754000Y-81534000D01*
X63754000Y-81534000D02*
X59690000Y-77470000D01*
D24*
X113220000Y-66080000D02*
X113220000Y-71080000D01*
X115920000Y-65080000D02*
X114220000Y-65080000D01*
X114220000Y-65080000D02*
X113220000Y-66080000D01*
X115920000Y-72080000D02*
X114220000Y-72080000D01*
X114220000Y-72080000D02*
X113220000Y-71080000D01*
X115920000Y-65080000D02*
X115920000Y-72080000D01*
D22*
X68199000Y-82550000D02*
X67691000Y-82042000D01*
X74295000Y-82550000D02*
X68199000Y-82550000D01*
X67691000Y-82042000D02*
X67691000Y-78359000D01*
X67691000Y-78359000D02*
X68326000Y-77724000D01*
X74295000Y-82550000D02*
X75565000Y-81280000D01*
X75565000Y-73914000D02*
X77089000Y-72390000D01*
X75565000Y-81280000D02*
X75565000Y-73914000D01*
X77089000Y-72390000D02*
X84455000Y-72390000D01*
X114300000Y-123825000D02*
X113030000Y-125095000D01*
X120650000Y-121285000D02*
X118110000Y-123825000D01*
X111760000Y-76200000D02*
X115570000Y-76200000D01*
X115570000Y-76200000D02*
X120650000Y-81280000D01*
X118110000Y-123825000D02*
X114300000Y-123825000D01*
X120650000Y-81280000D02*
X120650000Y-121285000D01*
X104140000Y-69850000D02*
X105410000Y-69850000D01*
X105410000Y-69850000D02*
X111760000Y-76200000D01*
X117726000Y-120015000D02*
X118745000Y-118996000D01*
X105410000Y-92710000D02*
X104140000Y-92710000D01*
X113030000Y-122555000D02*
X113030000Y-121285000D01*
X118745000Y-111760000D02*
X117475000Y-110490000D01*
X118745000Y-118996000D02*
X118745000Y-111760000D01*
X109855000Y-109220000D02*
X109855000Y-97155000D01*
X117475000Y-110490000D02*
X111125000Y-110490000D01*
X114300000Y-120015000D02*
X117726000Y-120015000D01*
X113030000Y-121285000D02*
X114300000Y-120015000D01*
X111125000Y-110490000D02*
X109855000Y-109220000D01*
X109855000Y-97155000D02*
X105410000Y-92710000D01*
X107950000Y-127635000D02*
X113030000Y-127635000D01*
X106680000Y-128905000D02*
X107950000Y-127635000D01*
X58420000Y-92710000D02*
X63500000Y-97790000D01*
X63500000Y-97790000D02*
X63500000Y-125095000D01*
X67310000Y-128905000D02*
X106680000Y-128905000D01*
X63500000Y-125095000D02*
X67310000Y-128905000D01*
D25*
G36*
X116863169Y-63760682D02*
X116820451Y-63975443D01*
X116397000Y-63845000D01*
X116047000Y-63845000D01*
X116047000Y-64953000D01*
X116067000Y-64953000D01*
X116067000Y-65207000D01*
X116047000Y-65207000D01*
X116047000Y-66315000D01*
X116397000Y-66315000D01*
X116801901Y-66190271D01*
X116801900Y-68513709D01*
X116801900Y-68513710D01*
X116801901Y-70969729D01*
X116397000Y-70845000D01*
X116047000Y-70845000D01*
X116047000Y-71953000D01*
X116067000Y-71953000D01*
X116067000Y-72207000D01*
X116047000Y-72207000D01*
X116047000Y-73315000D01*
X116397000Y-73315000D01*
X116820451Y-73184557D01*
X116863169Y-73399318D01*
X116916754Y-73528684D01*
X116918542Y-73533000D01*
X111812606Y-73533000D01*
X110617000Y-72337394D01*
X110617000Y-72033398D01*
X112446207Y-72033398D01*
X112511122Y-72271753D01*
X113021146Y-72452312D01*
X113561444Y-72423949D01*
X113625034Y-72397609D01*
X114376538Y-72397609D01*
X114380408Y-72435281D01*
X114606920Y-72863474D01*
X114980053Y-73172390D01*
X115443000Y-73315000D01*
X115793000Y-73315000D01*
X115793000Y-72207000D01*
X114501269Y-72207000D01*
X114376538Y-72397609D01*
X113625034Y-72397609D01*
X113928878Y-72271753D01*
X113993793Y-72033398D01*
X113220000Y-71259605D01*
X112446207Y-72033398D01*
X110617000Y-72033398D01*
X110617000Y-70881146D01*
X111847688Y-70881146D01*
X111876051Y-71421444D01*
X112028247Y-71788878D01*
X112266602Y-71853793D01*
X113040395Y-71080000D01*
X113399605Y-71080000D01*
X114173398Y-71853793D01*
X114396576Y-71793012D01*
X114501269Y-71953000D01*
X115793000Y-71953000D01*
X115793000Y-70845000D01*
X115443000Y-70845000D01*
X114980053Y-70987610D01*
X114606920Y-71296526D01*
X114543842Y-71415768D01*
X114592312Y-71278854D01*
X114563949Y-70738556D01*
X114411753Y-70371122D01*
X114173398Y-70306207D01*
X113399605Y-71080000D01*
X113040395Y-71080000D01*
X112266602Y-70306207D01*
X112028247Y-70371122D01*
X111847688Y-70881146D01*
X110617000Y-70881146D01*
X110617000Y-70126602D01*
X112446207Y-70126602D01*
X113220000Y-70900395D01*
X113993793Y-70126602D01*
X113928878Y-69888247D01*
X113418854Y-69707688D01*
X112878556Y-69736051D01*
X112511122Y-69888247D01*
X112446207Y-70126602D01*
X110617000Y-70126602D01*
X110617000Y-67033398D01*
X112446207Y-67033398D01*
X112511122Y-67271753D01*
X113021146Y-67452312D01*
X113561444Y-67423949D01*
X113928878Y-67271753D01*
X113993793Y-67033398D01*
X113220000Y-66259605D01*
X112446207Y-67033398D01*
X110617000Y-67033398D01*
X110617000Y-65881146D01*
X111847688Y-65881146D01*
X111876051Y-66421444D01*
X112028247Y-66788878D01*
X112266602Y-66853793D01*
X113040395Y-66080000D01*
X113399605Y-66080000D01*
X114173398Y-66853793D01*
X114411753Y-66788878D01*
X114592312Y-66278854D01*
X114566495Y-65787055D01*
X114606920Y-65863474D01*
X114980053Y-66172390D01*
X115443000Y-66315000D01*
X115793000Y-66315000D01*
X115793000Y-65207000D01*
X114501269Y-65207000D01*
X114396576Y-65366988D01*
X114173398Y-65306207D01*
X113399605Y-66080000D01*
X113040395Y-66080000D01*
X112266602Y-65306207D01*
X112028247Y-65371122D01*
X111847688Y-65881146D01*
X110617000Y-65881146D01*
X110617000Y-65126602D01*
X112446207Y-65126602D01*
X113220000Y-65900395D01*
X113993793Y-65126602D01*
X113928878Y-64888247D01*
X113573374Y-64762391D01*
X114376538Y-64762391D01*
X114501269Y-64953000D01*
X115793000Y-64953000D01*
X115793000Y-63845000D01*
X115443000Y-63845000D01*
X114980053Y-63987610D01*
X114606920Y-64296526D01*
X114380408Y-64724719D01*
X114376538Y-64762391D01*
X113573374Y-64762391D01*
X113418854Y-64707688D01*
X112878556Y-64736051D01*
X112511122Y-64888247D01*
X112446207Y-65126602D01*
X110617000Y-65126602D01*
X110617000Y-64822606D01*
X111812606Y-63627000D01*
X116918542Y-63627000D01*
X116863169Y-63760682D01*
X116863169Y-63760682D01*
G37*
X116863169Y-63760682D02*
X116820451Y-63975443D01*
X116397000Y-63845000D01*
X116047000Y-63845000D01*
X116047000Y-64953000D01*
X116067000Y-64953000D01*
X116067000Y-65207000D01*
X116047000Y-65207000D01*
X116047000Y-66315000D01*
X116397000Y-66315000D01*
X116801901Y-66190271D01*
X116801900Y-68513709D01*
X116801900Y-68513710D01*
X116801901Y-70969729D01*
X116397000Y-70845000D01*
X116047000Y-70845000D01*
X116047000Y-71953000D01*
X116067000Y-71953000D01*
X116067000Y-72207000D01*
X116047000Y-72207000D01*
X116047000Y-73315000D01*
X116397000Y-73315000D01*
X116820451Y-73184557D01*
X116863169Y-73399318D01*
X116916754Y-73528684D01*
X116918542Y-73533000D01*
X111812606Y-73533000D01*
X110617000Y-72337394D01*
X110617000Y-72033398D01*
X112446207Y-72033398D01*
X112511122Y-72271753D01*
X113021146Y-72452312D01*
X113561444Y-72423949D01*
X113625034Y-72397609D01*
X114376538Y-72397609D01*
X114380408Y-72435281D01*
X114606920Y-72863474D01*
X114980053Y-73172390D01*
X115443000Y-73315000D01*
X115793000Y-73315000D01*
X115793000Y-72207000D01*
X114501269Y-72207000D01*
X114376538Y-72397609D01*
X113625034Y-72397609D01*
X113928878Y-72271753D01*
X113993793Y-72033398D01*
X113220000Y-71259605D01*
X112446207Y-72033398D01*
X110617000Y-72033398D01*
X110617000Y-70881146D01*
X111847688Y-70881146D01*
X111876051Y-71421444D01*
X112028247Y-71788878D01*
X112266602Y-71853793D01*
X113040395Y-71080000D01*
X113399605Y-71080000D01*
X114173398Y-71853793D01*
X114396576Y-71793012D01*
X114501269Y-71953000D01*
X115793000Y-71953000D01*
X115793000Y-70845000D01*
X115443000Y-70845000D01*
X114980053Y-70987610D01*
X114606920Y-71296526D01*
X114543842Y-71415768D01*
X114592312Y-71278854D01*
X114563949Y-70738556D01*
X114411753Y-70371122D01*
X114173398Y-70306207D01*
X113399605Y-71080000D01*
X113040395Y-71080000D01*
X112266602Y-70306207D01*
X112028247Y-70371122D01*
X111847688Y-70881146D01*
X110617000Y-70881146D01*
X110617000Y-70126602D01*
X112446207Y-70126602D01*
X113220000Y-70900395D01*
X113993793Y-70126602D01*
X113928878Y-69888247D01*
X113418854Y-69707688D01*
X112878556Y-69736051D01*
X112511122Y-69888247D01*
X112446207Y-70126602D01*
X110617000Y-70126602D01*
X110617000Y-67033398D01*
X112446207Y-67033398D01*
X112511122Y-67271753D01*
X113021146Y-67452312D01*
X113561444Y-67423949D01*
X113928878Y-67271753D01*
X113993793Y-67033398D01*
X113220000Y-66259605D01*
X112446207Y-67033398D01*
X110617000Y-67033398D01*
X110617000Y-65881146D01*
X111847688Y-65881146D01*
X111876051Y-66421444D01*
X112028247Y-66788878D01*
X112266602Y-66853793D01*
X113040395Y-66080000D01*
X113399605Y-66080000D01*
X114173398Y-66853793D01*
X114411753Y-66788878D01*
X114592312Y-66278854D01*
X114566495Y-65787055D01*
X114606920Y-65863474D01*
X114980053Y-66172390D01*
X115443000Y-66315000D01*
X115793000Y-66315000D01*
X115793000Y-65207000D01*
X114501269Y-65207000D01*
X114396576Y-65366988D01*
X114173398Y-65306207D01*
X113399605Y-66080000D01*
X113040395Y-66080000D01*
X112266602Y-65306207D01*
X112028247Y-65371122D01*
X111847688Y-65881146D01*
X110617000Y-65881146D01*
X110617000Y-65126602D01*
X112446207Y-65126602D01*
X113220000Y-65900395D01*
X113993793Y-65126602D01*
X113928878Y-64888247D01*
X113573374Y-64762391D01*
X114376538Y-64762391D01*
X114501269Y-64953000D01*
X115793000Y-64953000D01*
X115793000Y-63845000D01*
X115443000Y-63845000D01*
X114980053Y-63987610D01*
X114606920Y-64296526D01*
X114380408Y-64724719D01*
X114376538Y-64762391D01*
X113573374Y-64762391D01*
X113418854Y-64707688D01*
X112878556Y-64736051D01*
X112511122Y-64888247D01*
X112446207Y-65126602D01*
X110617000Y-65126602D01*
X110617000Y-64822606D01*
X111812606Y-63627000D01*
X116918542Y-63627000D01*
X116863169Y-63760682D01*
G36*
X124802446Y-32542467D02*
X124174330Y-32962161D01*
X123640161Y-33496330D01*
X123220467Y-34124446D01*
X122931377Y-34822372D01*
X122784000Y-35563285D01*
X122784000Y-36318715D01*
X122931377Y-37059628D01*
X123220467Y-37757554D01*
X123640161Y-38385670D01*
X124174330Y-38919839D01*
X124802446Y-39339533D01*
X125500372Y-39628623D01*
X126241285Y-39776000D01*
X126996715Y-39776000D01*
X127737628Y-39628623D01*
X128435554Y-39339533D01*
X129063670Y-38919839D01*
X129597839Y-38385670D01*
X130017533Y-37757554D01*
X130136901Y-37469374D01*
X130136900Y-61468000D01*
X116840000Y-61468000D01*
X116815224Y-61470440D01*
X116791399Y-61477667D01*
X116769443Y-61489403D01*
X116750197Y-61505197D01*
X115517394Y-62738000D01*
X99060000Y-62738000D01*
X99035224Y-62740440D01*
X99011399Y-62747667D01*
X98989443Y-62759403D01*
X98970197Y-62775197D01*
X98335197Y-63410197D01*
X98319403Y-63429443D01*
X98307667Y-63451399D01*
X98300440Y-63475224D01*
X98298000Y-63500000D01*
X98298000Y-74877394D01*
X97737394Y-75438000D01*
X92075000Y-75438000D01*
X92050224Y-75440440D01*
X92026399Y-75447667D01*
X92004443Y-75459403D01*
X91985197Y-75475197D01*
X91350197Y-76110197D01*
X91334403Y-76129443D01*
X91322667Y-76151399D01*
X91315440Y-76175224D01*
X91313000Y-76200000D01*
X91313000Y-85037394D01*
X90752394Y-85598000D01*
X76252606Y-85598000D01*
X75692000Y-85037394D01*
X75692000Y-82769445D01*
X76333524Y-82127922D01*
X76377133Y-82092133D01*
X76438327Y-82017569D01*
X76498940Y-81943711D01*
X76519968Y-81918089D01*
X76626103Y-81719523D01*
X76691461Y-81504067D01*
X76708000Y-81336146D01*
X76708000Y-81336140D01*
X76713529Y-81280001D01*
X76708000Y-81223862D01*
X76708000Y-74387445D01*
X77562446Y-73533000D01*
X83329311Y-73533000D01*
X83390203Y-73607197D01*
X83618394Y-73794469D01*
X83878736Y-73933625D01*
X84161223Y-74019316D01*
X84455000Y-74048251D01*
X84748776Y-74019316D01*
X85031263Y-73933625D01*
X85291605Y-73794469D01*
X85519797Y-73607197D01*
X85707069Y-73379006D01*
X85725000Y-73345459D01*
X85742931Y-73379005D01*
X85930203Y-73607197D01*
X86158394Y-73794469D01*
X86418736Y-73933625D01*
X86701223Y-74019316D01*
X86995000Y-74048251D01*
X87288776Y-74019316D01*
X87571263Y-73933625D01*
X87831605Y-73794469D01*
X88059797Y-73607197D01*
X88247069Y-73379006D01*
X88265000Y-73345459D01*
X88282931Y-73379005D01*
X88470203Y-73607197D01*
X88698394Y-73794469D01*
X88958736Y-73933625D01*
X89241223Y-74019316D01*
X89535000Y-74048251D01*
X89828776Y-74019316D01*
X90111263Y-73933625D01*
X90371605Y-73794469D01*
X90599797Y-73607197D01*
X90606414Y-73599135D01*
X90621898Y-73650180D01*
X90680863Y-73760494D01*
X90760215Y-73857185D01*
X90856906Y-73936537D01*
X90967220Y-73995502D01*
X91086918Y-74031812D01*
X91211400Y-74044072D01*
X92938600Y-74044072D01*
X93063082Y-74031812D01*
X93182780Y-73995502D01*
X93293094Y-73936537D01*
X93389785Y-73857185D01*
X93469137Y-73760494D01*
X93528102Y-73650180D01*
X93564412Y-73530482D01*
X93576672Y-73406000D01*
X93576672Y-71374000D01*
X93564412Y-71249518D01*
X93528102Y-71129820D01*
X93469137Y-71019506D01*
X93389785Y-70922815D01*
X93293094Y-70843463D01*
X93182780Y-70784498D01*
X93063082Y-70748188D01*
X92938600Y-70735928D01*
X91211400Y-70735928D01*
X91086918Y-70748188D01*
X90967220Y-70784498D01*
X90856906Y-70843463D01*
X90760215Y-70922815D01*
X90680863Y-71019506D01*
X90621898Y-71129820D01*
X90606414Y-71180865D01*
X90599797Y-71172803D01*
X90371606Y-70985531D01*
X90111264Y-70846375D01*
X89828777Y-70760684D01*
X89535000Y-70731749D01*
X89241224Y-70760684D01*
X88958737Y-70846375D01*
X88698395Y-70985531D01*
X88470203Y-71172803D01*
X88282931Y-71400994D01*
X88265000Y-71434541D01*
X88247069Y-71400994D01*
X88059797Y-71172803D01*
X87831606Y-70985531D01*
X87571264Y-70846375D01*
X87288777Y-70760684D01*
X86995000Y-70731749D01*
X86701224Y-70760684D01*
X86418737Y-70846375D01*
X86158395Y-70985531D01*
X85930203Y-71172803D01*
X85742931Y-71400994D01*
X85725000Y-71434541D01*
X85707069Y-71400994D01*
X85519797Y-71172803D01*
X85291606Y-70985531D01*
X85031264Y-70846375D01*
X84748777Y-70760684D01*
X84455000Y-70731749D01*
X84161224Y-70760684D01*
X83878737Y-70846375D01*
X83618395Y-70985531D01*
X83390203Y-71172803D01*
X83329311Y-71247000D01*
X77145138Y-71247000D01*
X77088999Y-71241471D01*
X77032860Y-71247000D01*
X77032854Y-71247000D01*
X76887600Y-71261306D01*
X76864932Y-71263539D01*
X76813401Y-71279171D01*
X76649477Y-71328897D01*
X76450911Y-71435032D01*
X76276867Y-71577867D01*
X76241077Y-71621477D01*
X74796478Y-73066077D01*
X74752868Y-73101867D01*
X74717078Y-73145477D01*
X74717076Y-73145479D01*
X74687888Y-73181045D01*
X74610033Y-73275911D01*
X74539521Y-73407831D01*
X74503898Y-73474477D01*
X74438539Y-73689933D01*
X74416471Y-73914000D01*
X74422001Y-73970149D01*
X74422000Y-80806554D01*
X73821555Y-81407000D01*
X71882000Y-81407000D01*
X71882000Y-74930000D01*
X71872333Y-74881399D01*
X71844803Y-74840197D01*
X71803601Y-74812667D01*
X71755000Y-74803000D01*
X69215000Y-74803000D01*
X69166399Y-74812667D01*
X69125197Y-74840197D01*
X69097667Y-74881399D01*
X69088000Y-74930000D01*
X69088000Y-76870724D01*
X68964089Y-76769033D01*
X68765523Y-76662897D01*
X68550067Y-76597539D01*
X68326000Y-76575471D01*
X68101932Y-76597539D01*
X67886476Y-76662897D01*
X67687912Y-76769033D01*
X67557479Y-76876076D01*
X67437000Y-76996555D01*
X67437000Y-68770500D01*
X70862928Y-68770500D01*
X70862928Y-69659500D01*
X70883729Y-69870699D01*
X70945334Y-70073782D01*
X71045374Y-70260945D01*
X71180006Y-70424994D01*
X71344055Y-70559626D01*
X71531218Y-70659666D01*
X71734301Y-70721271D01*
X71945500Y-70742072D01*
X72834500Y-70742072D01*
X73045699Y-70721271D01*
X73248782Y-70659666D01*
X73435945Y-70559626D01*
X73599994Y-70424994D01*
X73660000Y-70351877D01*
X73720006Y-70424994D01*
X73884055Y-70559626D01*
X74071218Y-70659666D01*
X74274301Y-70721271D01*
X74485500Y-70742072D01*
X75374500Y-70742072D01*
X75585699Y-70721271D01*
X75788782Y-70659666D01*
X75975945Y-70559626D01*
X76139994Y-70424994D01*
X76200000Y-70351877D01*
X76260006Y-70424994D01*
X76424055Y-70559626D01*
X76611218Y-70659666D01*
X76814301Y-70721271D01*
X77025500Y-70742072D01*
X77914500Y-70742072D01*
X78125699Y-70721271D01*
X78328782Y-70659666D01*
X78515945Y-70559626D01*
X78679994Y-70424994D01*
X78814626Y-70260945D01*
X78914666Y-70073782D01*
X78976271Y-69870699D01*
X78997072Y-69659500D01*
X78997072Y-68770500D01*
X78976271Y-68559301D01*
X78914666Y-68356218D01*
X78814626Y-68169055D01*
X78679994Y-68005006D01*
X78515945Y-67870374D01*
X78328782Y-67770334D01*
X78125699Y-67708729D01*
X77914500Y-67687928D01*
X77025500Y-67687928D01*
X76814301Y-67708729D01*
X76611218Y-67770334D01*
X76424055Y-67870374D01*
X76260006Y-68005006D01*
X76200000Y-68078123D01*
X76139994Y-68005006D01*
X75975945Y-67870374D01*
X75788782Y-67770334D01*
X75585699Y-67708729D01*
X75374500Y-67687928D01*
X74485500Y-67687928D01*
X74274301Y-67708729D01*
X74071218Y-67770334D01*
X73884055Y-67870374D01*
X73720006Y-68005006D01*
X73660000Y-68078123D01*
X73599994Y-68005006D01*
X73435945Y-67870374D01*
X73248782Y-67770334D01*
X73045699Y-67708729D01*
X72834500Y-67687928D01*
X71945500Y-67687928D01*
X71734301Y-67708729D01*
X71531218Y-67770334D01*
X71344055Y-67870374D01*
X71180006Y-68005006D01*
X71045374Y-68169055D01*
X70945334Y-68356218D01*
X70883729Y-68559301D01*
X70862928Y-68770500D01*
X67437000Y-68770500D01*
X67437000Y-66040000D01*
X67434560Y-66015224D01*
X67427333Y-65991399D01*
X67415597Y-65969443D01*
X67399803Y-65950197D01*
X66129803Y-64680197D01*
X66110557Y-64664403D01*
X66088601Y-64652667D01*
X66064776Y-64645440D01*
X66040000Y-64643000D01*
X52705000Y-64643000D01*
X52680224Y-64645440D01*
X52656399Y-64652667D01*
X52634443Y-64664403D01*
X52615197Y-64680197D01*
X51345197Y-65950197D01*
X51329403Y-65969443D01*
X51317667Y-65991399D01*
X51310440Y-66015224D01*
X51308000Y-66040000D01*
X51308000Y-97155000D01*
X51310440Y-97179776D01*
X51317667Y-97203601D01*
X51329403Y-97225557D01*
X51345197Y-97244803D01*
X52615197Y-98514803D01*
X52634443Y-98530597D01*
X52656399Y-98542333D01*
X52680224Y-98549560D01*
X52705000Y-98552000D01*
X58367394Y-98552000D01*
X59563000Y-99747606D01*
X59563000Y-130136900D01*
X37469376Y-130136900D01*
X37757554Y-130017533D01*
X38385670Y-129597839D01*
X38919839Y-129063670D01*
X39339533Y-128435554D01*
X39628623Y-127737628D01*
X39776000Y-126996715D01*
X39776000Y-126241285D01*
X39628623Y-125500372D01*
X39339533Y-124802446D01*
X38919839Y-124174330D01*
X38385670Y-123640161D01*
X37757554Y-123220467D01*
X37059628Y-122931377D01*
X36318715Y-122784000D01*
X35563285Y-122784000D01*
X34822372Y-122931377D01*
X34124446Y-123220467D01*
X33496330Y-123640161D01*
X32962161Y-124174330D01*
X32542467Y-124802446D01*
X32423100Y-125090624D01*
X32423100Y-91478100D01*
X33053059Y-91478100D01*
X33081617Y-91475287D01*
X33085442Y-91475314D01*
X33094795Y-91474397D01*
X33218046Y-91461442D01*
X33277819Y-91449172D01*
X33337727Y-91437744D01*
X33346724Y-91435028D01*
X33346729Y-91435027D01*
X33346734Y-91435025D01*
X33465112Y-91398381D01*
X33521352Y-91374740D01*
X33577916Y-91351887D01*
X33586214Y-91347475D01*
X33695229Y-91288531D01*
X33745806Y-91254416D01*
X33796853Y-91221012D01*
X33804136Y-91215072D01*
X33899626Y-91136076D01*
X33942622Y-91092779D01*
X33986200Y-91050105D01*
X33992191Y-91042864D01*
X34070518Y-90946825D01*
X34104291Y-90895994D01*
X34138746Y-90845673D01*
X34143217Y-90837406D01*
X34201398Y-90727983D01*
X34224643Y-90671588D01*
X34248679Y-90615506D01*
X34251458Y-90606528D01*
X34287278Y-90487888D01*
X34299131Y-90428025D01*
X34311812Y-90368366D01*
X34312795Y-90359019D01*
X34324888Y-90235681D01*
X34324888Y-90235671D01*
X34328100Y-90203059D01*
X34328100Y-72356941D01*
X34325287Y-72328383D01*
X34325314Y-72324558D01*
X34324397Y-72315205D01*
X34311442Y-72191954D01*
X34299172Y-72132181D01*
X34287744Y-72072273D01*
X34285028Y-72063276D01*
X34285027Y-72063271D01*
X34285025Y-72063266D01*
X34248381Y-71944888D01*
X34224735Y-71888637D01*
X34201887Y-71832084D01*
X34197475Y-71823786D01*
X34138531Y-71714771D01*
X34104398Y-71664168D01*
X34071011Y-71613147D01*
X34065072Y-71605863D01*
X33986076Y-71510374D01*
X33942760Y-71467358D01*
X33900104Y-71423800D01*
X33892869Y-71417814D01*
X33892863Y-71417808D01*
X33892856Y-71417804D01*
X33796825Y-71339481D01*
X33745968Y-71305691D01*
X33695673Y-71271254D01*
X33687406Y-71266783D01*
X33577982Y-71208601D01*
X33521556Y-71185344D01*
X33465506Y-71161321D01*
X33456528Y-71158541D01*
X33337887Y-71122722D01*
X33278006Y-71110865D01*
X33218366Y-71098188D01*
X33209028Y-71097206D01*
X33209023Y-71097205D01*
X33209019Y-71097205D01*
X33085680Y-71085112D01*
X33085671Y-71085112D01*
X33053059Y-71081900D01*
X32423100Y-71081900D01*
X32423100Y-66162738D01*
X32437394Y-66174469D01*
X32697736Y-66313625D01*
X32980223Y-66399316D01*
X33274000Y-66428251D01*
X33567776Y-66399316D01*
X33731190Y-66349745D01*
X33731190Y-67028140D01*
X33727196Y-67068690D01*
X33731190Y-67109240D01*
X33731190Y-67109242D01*
X33743134Y-67230515D01*
X33774104Y-67332609D01*
X33790337Y-67386123D01*
X33866991Y-67529532D01*
X33900904Y-67570855D01*
X33970149Y-67655231D01*
X34001656Y-67681088D01*
X34820606Y-68500039D01*
X34846459Y-68531541D01*
X34880285Y-68559301D01*
X34972156Y-68634698D01*
X34972158Y-68634699D01*
X35115566Y-68711353D01*
X35271174Y-68758556D01*
X35392447Y-68770500D01*
X35392459Y-68770500D01*
X35432999Y-68774493D01*
X35473539Y-68770500D01*
X37123068Y-68770500D01*
X37909500Y-69556933D01*
X37909501Y-101559439D01*
X37905506Y-101600000D01*
X37921445Y-101761826D01*
X37968647Y-101917433D01*
X38045301Y-102060842D01*
X38104053Y-102132431D01*
X38148460Y-102186541D01*
X38179961Y-102212393D01*
X48494426Y-112526859D01*
X48528620Y-112698765D01*
X48607123Y-112888288D01*
X48721092Y-113058854D01*
X48866146Y-113203908D01*
X49036712Y-113317877D01*
X49226235Y-113396380D01*
X49427431Y-113436400D01*
X49632569Y-113436400D01*
X49833765Y-113396380D01*
X50023288Y-113317877D01*
X50193854Y-113203908D01*
X50338908Y-113058854D01*
X50452877Y-112888288D01*
X50531380Y-112698765D01*
X50571400Y-112497569D01*
X50571400Y-112292431D01*
X50531380Y-112091235D01*
X50452877Y-111901712D01*
X50338908Y-111731146D01*
X50193854Y-111586092D01*
X50023288Y-111472123D01*
X49833765Y-111393620D01*
X49661859Y-111359426D01*
X39560500Y-101258068D01*
X39560500Y-69255550D01*
X39564494Y-69214999D01*
X39560500Y-69174447D01*
X39548556Y-69053174D01*
X39501353Y-68897566D01*
X39443268Y-68788897D01*
X39424699Y-68754157D01*
X39347391Y-68659958D01*
X39321541Y-68628459D01*
X39290040Y-68602608D01*
X38077398Y-67389966D01*
X38051541Y-67358459D01*
X37925842Y-67255301D01*
X37782434Y-67178647D01*
X37626826Y-67131444D01*
X37505553Y-67119500D01*
X37505550Y-67119500D01*
X37465000Y-67115506D01*
X37424450Y-67119500D01*
X35774933Y-67119500D01*
X35382190Y-66726758D01*
X35382190Y-66357444D01*
X35520223Y-66399316D01*
X35814000Y-66428251D01*
X36107776Y-66399316D01*
X36390263Y-66313625D01*
X36650605Y-66174469D01*
X36878797Y-65987197D01*
X37066069Y-65759006D01*
X37084000Y-65725459D01*
X37101931Y-65759005D01*
X37289203Y-65987197D01*
X37517394Y-66174469D01*
X37777736Y-66313625D01*
X38060223Y-66399316D01*
X38354000Y-66428251D01*
X38647776Y-66399316D01*
X38930263Y-66313625D01*
X39190605Y-66174469D01*
X39418797Y-65987197D01*
X39606069Y-65759006D01*
X39624000Y-65725459D01*
X39641931Y-65759005D01*
X39829203Y-65987197D01*
X40057394Y-66174469D01*
X40317736Y-66313625D01*
X40600223Y-66399316D01*
X40894000Y-66428251D01*
X41187776Y-66399316D01*
X41470263Y-66313625D01*
X41730605Y-66174469D01*
X41958797Y-65987197D01*
X42146069Y-65759006D01*
X42164000Y-65725459D01*
X42181931Y-65759005D01*
X42369203Y-65987197D01*
X42597394Y-66174469D01*
X42857736Y-66313625D01*
X43140223Y-66399316D01*
X43434000Y-66428251D01*
X43727776Y-66399316D01*
X44010263Y-66313625D01*
X44270605Y-66174469D01*
X44498797Y-65987197D01*
X44503863Y-65981024D01*
X44547670Y-66086785D01*
X44617163Y-66190789D01*
X44705611Y-66279237D01*
X44809615Y-66348730D01*
X44925177Y-66396597D01*
X45047858Y-66421000D01*
X45688250Y-66421000D01*
X45847000Y-66262250D01*
X45847000Y-64897000D01*
X45827000Y-64897000D01*
X45827000Y-64643000D01*
X45847000Y-64643000D01*
X45847000Y-63277750D01*
X45688250Y-63119000D01*
X45047858Y-63119000D01*
X44925177Y-63143403D01*
X44809615Y-63191270D01*
X44705611Y-63260763D01*
X44617163Y-63349211D01*
X44547670Y-63453215D01*
X44503863Y-63558976D01*
X44498797Y-63552803D01*
X44345097Y-63426665D01*
X44369908Y-63401854D01*
X44483877Y-63231288D01*
X44562380Y-63041765D01*
X44602400Y-62840569D01*
X44602400Y-62635431D01*
X44562380Y-62434235D01*
X44483877Y-62244712D01*
X44369908Y-62074146D01*
X44224854Y-61929092D01*
X44054288Y-61815123D01*
X43864765Y-61736620D01*
X43663569Y-61696600D01*
X43458431Y-61696600D01*
X43257235Y-61736620D01*
X43067712Y-61815123D01*
X42921978Y-61912500D01*
X38902539Y-61912500D01*
X38861999Y-61908507D01*
X38821459Y-61912500D01*
X38821447Y-61912500D01*
X38700174Y-61924444D01*
X38544566Y-61971647D01*
X38441991Y-62026475D01*
X38401156Y-62048302D01*
X38369666Y-62074146D01*
X38275459Y-62151459D01*
X38249602Y-62182966D01*
X37798966Y-62633602D01*
X37767459Y-62659459D01*
X37715001Y-62723380D01*
X37664301Y-62785158D01*
X37599378Y-62906620D01*
X37587647Y-62928567D01*
X37540444Y-63084175D01*
X37528500Y-63205447D01*
X37524506Y-63246000D01*
X37528500Y-63286551D01*
X37528500Y-63359595D01*
X37517395Y-63365531D01*
X37289203Y-63552803D01*
X37101931Y-63780994D01*
X37084000Y-63814541D01*
X37066069Y-63780994D01*
X36878797Y-63552803D01*
X36650606Y-63365531D01*
X36390264Y-63226375D01*
X36107777Y-63140684D01*
X35814000Y-63111749D01*
X35520224Y-63140684D01*
X35382190Y-63182556D01*
X35382190Y-56844242D01*
X36155934Y-56070500D01*
X47584450Y-56070500D01*
X47625000Y-56074494D01*
X47665550Y-56070500D01*
X47665553Y-56070500D01*
X47786826Y-56058556D01*
X47942434Y-56011353D01*
X48085842Y-55934699D01*
X48211541Y-55831541D01*
X48237398Y-55800034D01*
X49450039Y-54587394D01*
X49481541Y-54561541D01*
X49549570Y-54478647D01*
X49584699Y-54435843D01*
X49611399Y-54385889D01*
X49661353Y-54292434D01*
X49708556Y-54136826D01*
X49720500Y-54015553D01*
X49720500Y-54015551D01*
X49724494Y-53975001D01*
X49720500Y-53934450D01*
X49720500Y-35571318D01*
X49866493Y-35473768D01*
X50078768Y-35261493D01*
X50165000Y-35132438D01*
X50251232Y-35261493D01*
X50463507Y-35473768D01*
X50713115Y-35640551D01*
X50990466Y-35755434D01*
X51284899Y-35814000D01*
X51585101Y-35814000D01*
X51879534Y-35755434D01*
X52156885Y-35640551D01*
X52406493Y-35473768D01*
X52618768Y-35261493D01*
X52705000Y-35132438D01*
X52791232Y-35261493D01*
X53003507Y-35473768D01*
X53253115Y-35640551D01*
X53530466Y-35755434D01*
X53824899Y-35814000D01*
X54125101Y-35814000D01*
X54419534Y-35755434D01*
X54696885Y-35640551D01*
X54946493Y-35473768D01*
X55158768Y-35261493D01*
X55245000Y-35132438D01*
X55331232Y-35261493D01*
X55543507Y-35473768D01*
X55793115Y-35640551D01*
X56070466Y-35755434D01*
X56364899Y-35814000D01*
X56665101Y-35814000D01*
X56959534Y-35755434D01*
X57236885Y-35640551D01*
X57486493Y-35473768D01*
X57698768Y-35261493D01*
X57785000Y-35132438D01*
X57871232Y-35261493D01*
X58083507Y-35473768D01*
X58333115Y-35640551D01*
X58610466Y-35755434D01*
X58904899Y-35814000D01*
X59205101Y-35814000D01*
X59499534Y-35755434D01*
X59776885Y-35640551D01*
X60026493Y-35473768D01*
X60238768Y-35261493D01*
X60325000Y-35132438D01*
X60411232Y-35261493D01*
X60623507Y-35473768D01*
X60873115Y-35640551D01*
X61150466Y-35755434D01*
X61444899Y-35814000D01*
X61745101Y-35814000D01*
X62039534Y-35755434D01*
X62316885Y-35640551D01*
X62566493Y-35473768D01*
X62778768Y-35261493D01*
X62865000Y-35132438D01*
X62951232Y-35261493D01*
X63163507Y-35473768D01*
X63413115Y-35640551D01*
X63690466Y-35755434D01*
X63984899Y-35814000D01*
X64285101Y-35814000D01*
X64579534Y-35755434D01*
X64856885Y-35640551D01*
X65106493Y-35473768D01*
X65318768Y-35261493D01*
X65405000Y-35132438D01*
X65491232Y-35261493D01*
X65703507Y-35473768D01*
X65953115Y-35640551D01*
X66230466Y-35755434D01*
X66524899Y-35814000D01*
X66825101Y-35814000D01*
X67119534Y-35755434D01*
X67396885Y-35640551D01*
X67646493Y-35473768D01*
X67858768Y-35261493D01*
X67945000Y-35132438D01*
X68031232Y-35261493D01*
X68243507Y-35473768D01*
X68493115Y-35640551D01*
X68770466Y-35755434D01*
X69064899Y-35814000D01*
X69365101Y-35814000D01*
X69659534Y-35755434D01*
X69936885Y-35640551D01*
X70186493Y-35473768D01*
X70398768Y-35261493D01*
X70485000Y-35132438D01*
X70571232Y-35261493D01*
X70783507Y-35473768D01*
X71033115Y-35640551D01*
X71310466Y-35755434D01*
X71604899Y-35814000D01*
X71905101Y-35814000D01*
X72199534Y-35755434D01*
X72476885Y-35640551D01*
X72726493Y-35473768D01*
X72938768Y-35261493D01*
X73025000Y-35132438D01*
X73111232Y-35261493D01*
X73323507Y-35473768D01*
X73573115Y-35640551D01*
X73850466Y-35755434D01*
X74144899Y-35814000D01*
X74445101Y-35814000D01*
X74739534Y-35755434D01*
X75016885Y-35640551D01*
X75266493Y-35473768D01*
X75478768Y-35261493D01*
X75565000Y-35132438D01*
X75651232Y-35261493D01*
X75692000Y-35302261D01*
X75692001Y-42071553D01*
X75091555Y-42672000D01*
X65461138Y-42672000D01*
X65404999Y-42666471D01*
X65348860Y-42672000D01*
X65348854Y-42672000D01*
X65203600Y-42686306D01*
X65180932Y-42688539D01*
X65115574Y-42708365D01*
X64965477Y-42753897D01*
X64766911Y-42860032D01*
X64592867Y-43002867D01*
X64557077Y-43046477D01*
X63366482Y-44237073D01*
X63322867Y-44272867D01*
X63180032Y-44446912D01*
X63073897Y-44645478D01*
X63008539Y-44860934D01*
X62992000Y-45028855D01*
X62992000Y-45028861D01*
X62986471Y-45085000D01*
X62992000Y-45141139D01*
X62992001Y-58677738D01*
X62951232Y-58718507D01*
X62865000Y-58847562D01*
X62778768Y-58718507D01*
X62566493Y-58506232D01*
X62316885Y-58339449D01*
X62039534Y-58224566D01*
X61745101Y-58166000D01*
X61444899Y-58166000D01*
X61150466Y-58224566D01*
X60873115Y-58339449D01*
X60623507Y-58506232D01*
X60411232Y-58718507D01*
X60325000Y-58847562D01*
X60238768Y-58718507D01*
X60026493Y-58506232D01*
X59776885Y-58339449D01*
X59499534Y-58224566D01*
X59205101Y-58166000D01*
X58904899Y-58166000D01*
X58610466Y-58224566D01*
X58333115Y-58339449D01*
X58083507Y-58506232D01*
X57871232Y-58718507D01*
X57785000Y-58847562D01*
X57698768Y-58718507D01*
X57486493Y-58506232D01*
X57236885Y-58339449D01*
X56959534Y-58224566D01*
X56665101Y-58166000D01*
X56364899Y-58166000D01*
X56070466Y-58224566D01*
X55793115Y-58339449D01*
X55543507Y-58506232D01*
X55331232Y-58718507D01*
X55245000Y-58847562D01*
X55158768Y-58718507D01*
X54946493Y-58506232D01*
X54696885Y-58339449D01*
X54419534Y-58224566D01*
X54125101Y-58166000D01*
X53824899Y-58166000D01*
X53530466Y-58224566D01*
X53253115Y-58339449D01*
X53003507Y-58506232D01*
X52791232Y-58718507D01*
X52705000Y-58847562D01*
X52618768Y-58718507D01*
X52406493Y-58506232D01*
X52156885Y-58339449D01*
X51879534Y-58224566D01*
X51585101Y-58166000D01*
X51284899Y-58166000D01*
X50990466Y-58224566D01*
X50713115Y-58339449D01*
X50463507Y-58506232D01*
X50251232Y-58718507D01*
X50165000Y-58847562D01*
X50078768Y-58718507D01*
X49866493Y-58506232D01*
X49616885Y-58339449D01*
X49339534Y-58224566D01*
X49045101Y-58166000D01*
X48744899Y-58166000D01*
X48450466Y-58224566D01*
X48173115Y-58339449D01*
X47923507Y-58506232D01*
X47711232Y-58718507D01*
X47625000Y-58847562D01*
X47538768Y-58718507D01*
X47326493Y-58506232D01*
X47076885Y-58339449D01*
X46799534Y-58224566D01*
X46505101Y-58166000D01*
X46204899Y-58166000D01*
X45910466Y-58224566D01*
X45720000Y-58303460D01*
X45720000Y-58232374D01*
X45646791Y-57864332D01*
X45503189Y-57517644D01*
X45294710Y-57205634D01*
X45029366Y-56940290D01*
X44717356Y-56731811D01*
X44370668Y-56588209D01*
X44002626Y-56515000D01*
X43627374Y-56515000D01*
X43259332Y-56588209D01*
X42912644Y-56731811D01*
X42600634Y-56940290D01*
X42335290Y-57205634D01*
X42126811Y-57517644D01*
X41983209Y-57864332D01*
X41910000Y-58232374D01*
X41910000Y-58607626D01*
X41983209Y-58975668D01*
X42126811Y-59322356D01*
X42335290Y-59634366D01*
X42600634Y-59899710D01*
X42912644Y-60108189D01*
X43259332Y-60251791D01*
X43627374Y-60325000D01*
X44002626Y-60325000D01*
X44370668Y-60251791D01*
X44717356Y-60108189D01*
X44864737Y-60009712D01*
X44889566Y-60134534D01*
X45004449Y-60411885D01*
X45171232Y-60661493D01*
X45383507Y-60873768D01*
X45633115Y-61040551D01*
X45910466Y-61155434D01*
X46204899Y-61214000D01*
X46505101Y-61214000D01*
X46799534Y-61155434D01*
X47076885Y-61040551D01*
X47180501Y-60971317D01*
X47180501Y-63219411D01*
X47138385Y-63191270D01*
X47022823Y-63143403D01*
X46900142Y-63119000D01*
X46259750Y-63119000D01*
X46101000Y-63277750D01*
X46101000Y-64643000D01*
X46121000Y-64643000D01*
X46121000Y-64897000D01*
X46101000Y-64897000D01*
X46101000Y-66262250D01*
X46259750Y-66421000D01*
X46900142Y-66421000D01*
X47022823Y-66396597D01*
X47138385Y-66348730D01*
X47180502Y-66320589D01*
X47180502Y-66839669D01*
X46011672Y-68008500D01*
X44998550Y-68008500D01*
X44958000Y-68004506D01*
X44917449Y-68008500D01*
X44917447Y-68008500D01*
X44796174Y-68020444D01*
X44640566Y-68067647D01*
X44497157Y-68144301D01*
X44402958Y-68221608D01*
X44402955Y-68221611D01*
X44371459Y-68247459D01*
X44345611Y-68278955D01*
X42624966Y-69999602D01*
X42593459Y-70025459D01*
X42524214Y-70109835D01*
X42490301Y-70151158D01*
X42422418Y-70278158D01*
X42413647Y-70294567D01*
X42366444Y-70450175D01*
X42355558Y-70560705D01*
X42350506Y-70612000D01*
X42354500Y-70652550D01*
X42354501Y-95844441D01*
X42350506Y-95885002D01*
X42366445Y-96046828D01*
X42413647Y-96202435D01*
X42490301Y-96345844D01*
X42523648Y-96386477D01*
X42593460Y-96471543D01*
X42624961Y-96497395D01*
X48494426Y-102366861D01*
X48528620Y-102538767D01*
X48607123Y-102728290D01*
X48721092Y-102898856D01*
X48866146Y-103043910D01*
X49036712Y-103157879D01*
X49226235Y-103236382D01*
X49427431Y-103276402D01*
X49632569Y-103276402D01*
X49833765Y-103236382D01*
X50023288Y-103157879D01*
X50193854Y-103043910D01*
X50338908Y-102898856D01*
X50452877Y-102728290D01*
X50531380Y-102538767D01*
X50571400Y-102337571D01*
X50571400Y-102132433D01*
X50531380Y-101931237D01*
X50452877Y-101741714D01*
X50338908Y-101571148D01*
X50193854Y-101426094D01*
X50023288Y-101312125D01*
X49833765Y-101233622D01*
X49661859Y-101199428D01*
X44005500Y-95543070D01*
X44005500Y-92797932D01*
X45555347Y-94347781D01*
X45581195Y-94379277D01*
X45612691Y-94405125D01*
X45612694Y-94405128D01*
X45706893Y-94482435D01*
X45795881Y-94530000D01*
X45850302Y-94559089D01*
X46005910Y-94606292D01*
X46127183Y-94618236D01*
X46127185Y-94618236D01*
X46167736Y-94622230D01*
X46208286Y-94618236D01*
X47771714Y-94618236D01*
X47812264Y-94622230D01*
X47852814Y-94618236D01*
X47852817Y-94618236D01*
X47974090Y-94606292D01*
X48129698Y-94559089D01*
X48273106Y-94482435D01*
X48398805Y-94379277D01*
X48424662Y-94347770D01*
X49661860Y-93110574D01*
X49833765Y-93076380D01*
X50023288Y-92997877D01*
X50193854Y-92883908D01*
X50338908Y-92738854D01*
X50452877Y-92568288D01*
X50531380Y-92378765D01*
X50571400Y-92177569D01*
X50571400Y-91972431D01*
X50531380Y-91771235D01*
X50452877Y-91581712D01*
X50338908Y-91411146D01*
X50193854Y-91266092D01*
X50023288Y-91152123D01*
X49833765Y-91073620D01*
X49632569Y-91033600D01*
X49427431Y-91033600D01*
X49226235Y-91073620D01*
X49036712Y-91152123D01*
X48866146Y-91266092D01*
X48721092Y-91411146D01*
X48607123Y-91581712D01*
X48528620Y-91771235D01*
X48494426Y-91943140D01*
X47470332Y-92967236D01*
X46894145Y-92967236D01*
X47018854Y-92883908D01*
X47163908Y-92738854D01*
X47277877Y-92568288D01*
X47356380Y-92378765D01*
X47396400Y-92177569D01*
X47396400Y-91972431D01*
X47356380Y-91771235D01*
X47277877Y-91581712D01*
X47180500Y-91435978D01*
X47180500Y-71124013D01*
X47277871Y-70978288D01*
X47356374Y-70788765D01*
X47390567Y-70616866D01*
X50212039Y-67795394D01*
X50243541Y-67769541D01*
X50310519Y-67687928D01*
X50346699Y-67643843D01*
X50423353Y-67500434D01*
X50441685Y-67440000D01*
X50470556Y-67344826D01*
X50482500Y-67223553D01*
X50482500Y-67223551D01*
X50486494Y-67183001D01*
X50482500Y-67142450D01*
X50482500Y-63714932D01*
X51649934Y-62547500D01*
X61082978Y-62547500D01*
X61228712Y-62644877D01*
X61418235Y-62723380D01*
X61619431Y-62763400D01*
X61824569Y-62763400D01*
X62025765Y-62723380D01*
X62215288Y-62644877D01*
X62385854Y-62530908D01*
X62530908Y-62385854D01*
X62644877Y-62215288D01*
X62723380Y-62025765D01*
X62763400Y-61824569D01*
X62763400Y-61619431D01*
X62723380Y-61418235D01*
X62644877Y-61228712D01*
X62530908Y-61058146D01*
X62434635Y-60961873D01*
X62566493Y-60873768D01*
X62778768Y-60661493D01*
X62865000Y-60532438D01*
X62951232Y-60661493D01*
X63163507Y-60873768D01*
X63413115Y-61040551D01*
X63690466Y-61155434D01*
X63984899Y-61214000D01*
X64285101Y-61214000D01*
X64579534Y-61155434D01*
X64856885Y-61040551D01*
X65106493Y-60873768D01*
X65234030Y-60746231D01*
X65798374Y-60746231D01*
X65880727Y-60999289D01*
X66151418Y-61129086D01*
X66442230Y-61203580D01*
X66741988Y-61219908D01*
X67039171Y-61177443D01*
X67322359Y-61077816D01*
X67469273Y-60999289D01*
X67551626Y-60746231D01*
X66675000Y-59869605D01*
X65798374Y-60746231D01*
X65234030Y-60746231D01*
X65318768Y-60661493D01*
X65424417Y-60503378D01*
X65618769Y-60566626D01*
X66495395Y-59690000D01*
X66854605Y-59690000D01*
X67731231Y-60566626D01*
X67925583Y-60503378D01*
X68031232Y-60661493D01*
X68243507Y-60873768D01*
X68493115Y-61040551D01*
X68770466Y-61155434D01*
X69064899Y-61214000D01*
X69365101Y-61214000D01*
X69659534Y-61155434D01*
X69936885Y-61040551D01*
X70186493Y-60873768D01*
X70398768Y-60661493D01*
X70565551Y-60411885D01*
X70680434Y-60134534D01*
X70739000Y-59840101D01*
X70739000Y-59539899D01*
X70680434Y-59245466D01*
X70565551Y-58968115D01*
X70398768Y-58718507D01*
X70358000Y-58677739D01*
X70358000Y-58232374D01*
X100330000Y-58232374D01*
X100330000Y-58607626D01*
X100403209Y-58975668D01*
X100546811Y-59322356D01*
X100755290Y-59634366D01*
X101020634Y-59899710D01*
X101332644Y-60108189D01*
X101679332Y-60251791D01*
X102047374Y-60325000D01*
X102422626Y-60325000D01*
X102790668Y-60251791D01*
X103137356Y-60108189D01*
X103449366Y-59899710D01*
X103714710Y-59634366D01*
X103923189Y-59322356D01*
X104066791Y-58975668D01*
X104140000Y-58607626D01*
X104140000Y-58232374D01*
X104066791Y-57864332D01*
X103923189Y-57517644D01*
X103714710Y-57205634D01*
X103449366Y-56940290D01*
X103137356Y-56731811D01*
X102790668Y-56588209D01*
X102422626Y-56515000D01*
X102047374Y-56515000D01*
X101679332Y-56588209D01*
X101332644Y-56731811D01*
X101020634Y-56940290D01*
X100755290Y-57205634D01*
X100546811Y-57517644D01*
X100403209Y-57864332D01*
X100330000Y-58232374D01*
X70358000Y-58232374D01*
X70358000Y-50638445D01*
X70958446Y-50038000D01*
X83128861Y-50038000D01*
X83185000Y-50043529D01*
X83241139Y-50038000D01*
X83241146Y-50038000D01*
X83409067Y-50021461D01*
X83624523Y-49956103D01*
X83823089Y-49849968D01*
X83997133Y-49707133D01*
X84032927Y-49663518D01*
X85223524Y-48472922D01*
X85267133Y-48437133D01*
X85409968Y-48263089D01*
X85516103Y-48064523D01*
X85581461Y-47849067D01*
X85598000Y-47681146D01*
X85598000Y-47681140D01*
X85603529Y-47625001D01*
X85598000Y-47568862D01*
X85598000Y-35372374D01*
X100330000Y-35372374D01*
X100330000Y-35747626D01*
X100403209Y-36115668D01*
X100546811Y-36462356D01*
X100755290Y-36774366D01*
X101020634Y-37039710D01*
X101332644Y-37248189D01*
X101679332Y-37391791D01*
X102047374Y-37465000D01*
X102422626Y-37465000D01*
X102790668Y-37391791D01*
X103137356Y-37248189D01*
X103449366Y-37039710D01*
X103714710Y-36774366D01*
X103923189Y-36462356D01*
X104066791Y-36115668D01*
X104140000Y-35747626D01*
X104140000Y-35372374D01*
X104066791Y-35004332D01*
X103923189Y-34657644D01*
X103714710Y-34345634D01*
X103449366Y-34080290D01*
X103137356Y-33871811D01*
X102790668Y-33728209D01*
X102422626Y-33655000D01*
X102047374Y-33655000D01*
X101679332Y-33728209D01*
X101332644Y-33871811D01*
X101020634Y-34080290D01*
X100755290Y-34345634D01*
X100546811Y-34657644D01*
X100403209Y-35004332D01*
X100330000Y-35372374D01*
X85598000Y-35372374D01*
X85598000Y-35302261D01*
X85638768Y-35261493D01*
X85805551Y-35011885D01*
X85920434Y-34734534D01*
X85979000Y-34440101D01*
X85979000Y-34139899D01*
X85920434Y-33845466D01*
X85805551Y-33568115D01*
X85638768Y-33318507D01*
X85426493Y-33106232D01*
X85176885Y-32939449D01*
X84899534Y-32824566D01*
X84605101Y-32766000D01*
X84304899Y-32766000D01*
X84010466Y-32824566D01*
X83733115Y-32939449D01*
X83483507Y-33106232D01*
X83271232Y-33318507D01*
X83165583Y-33476622D01*
X82971231Y-33413374D01*
X82094605Y-34290000D01*
X82971231Y-35166626D01*
X83165583Y-35103378D01*
X83271232Y-35261493D01*
X83312001Y-35302262D01*
X83312000Y-47151554D01*
X82711555Y-47752000D01*
X70541138Y-47752000D01*
X70484999Y-47746471D01*
X70428860Y-47752000D01*
X70428854Y-47752000D01*
X70283600Y-47766306D01*
X70260932Y-47768539D01*
X70195574Y-47788365D01*
X70045477Y-47833897D01*
X69846911Y-47940032D01*
X69672867Y-48082867D01*
X69637077Y-48126477D01*
X68446478Y-49317077D01*
X68402868Y-49352867D01*
X68260033Y-49526911D01*
X68163703Y-49707133D01*
X68153898Y-49725477D01*
X68088539Y-49940933D01*
X68066471Y-50165000D01*
X68072001Y-50221149D01*
X68072000Y-58677739D01*
X68031232Y-58718507D01*
X67925583Y-58876622D01*
X67731231Y-58813374D01*
X66854605Y-59690000D01*
X66495395Y-59690000D01*
X65618769Y-58813374D01*
X65424417Y-58876622D01*
X65318768Y-58718507D01*
X65278000Y-58677739D01*
X65278000Y-58633769D01*
X65798374Y-58633769D01*
X66675000Y-59510395D01*
X67551626Y-58633769D01*
X67469273Y-58380711D01*
X67198582Y-58250914D01*
X66907770Y-58176420D01*
X66608012Y-58160092D01*
X66310829Y-58202557D01*
X66027641Y-58302184D01*
X65880727Y-58380711D01*
X65798374Y-58633769D01*
X65278000Y-58633769D01*
X65278000Y-45558445D01*
X65878446Y-44958000D01*
X75508861Y-44958000D01*
X75565000Y-44963529D01*
X75621139Y-44958000D01*
X75621146Y-44958000D01*
X75789067Y-44941461D01*
X76004523Y-44876103D01*
X76203089Y-44769968D01*
X76377133Y-44627133D01*
X76412927Y-44583518D01*
X77603523Y-43392923D01*
X77647133Y-43357133D01*
X77789968Y-43183089D01*
X77896103Y-42984523D01*
X77961461Y-42769067D01*
X77978000Y-42601146D01*
X77978000Y-42601140D01*
X77983529Y-42545001D01*
X77978000Y-42488862D01*
X77978000Y-35346231D01*
X78498374Y-35346231D01*
X78580727Y-35599289D01*
X78851418Y-35729086D01*
X79142230Y-35803580D01*
X79441988Y-35819908D01*
X79739171Y-35777443D01*
X80022359Y-35677816D01*
X80169273Y-35599289D01*
X80251626Y-35346231D01*
X81038374Y-35346231D01*
X81120727Y-35599289D01*
X81391418Y-35729086D01*
X81682230Y-35803580D01*
X81981988Y-35819908D01*
X82279171Y-35777443D01*
X82562359Y-35677816D01*
X82709273Y-35599289D01*
X82791626Y-35346231D01*
X81915000Y-34469605D01*
X81038374Y-35346231D01*
X80251626Y-35346231D01*
X79375000Y-34469605D01*
X78498374Y-35346231D01*
X77978000Y-35346231D01*
X77978000Y-35302261D01*
X78018768Y-35261493D01*
X78124417Y-35103378D01*
X78318769Y-35166626D01*
X79195395Y-34290000D01*
X79554605Y-34290000D01*
X80431231Y-35166626D01*
X80645000Y-35097059D01*
X80858769Y-35166626D01*
X81735395Y-34290000D01*
X80858769Y-33413374D01*
X80645000Y-33482941D01*
X80431231Y-33413374D01*
X79554605Y-34290000D01*
X79195395Y-34290000D01*
X78318769Y-33413374D01*
X78124417Y-33476622D01*
X78018768Y-33318507D01*
X77934030Y-33233769D01*
X78498374Y-33233769D01*
X79375000Y-34110395D01*
X80251626Y-33233769D01*
X81038374Y-33233769D01*
X81915000Y-34110395D01*
X82791626Y-33233769D01*
X82709273Y-32980711D01*
X82438582Y-32850914D01*
X82147770Y-32776420D01*
X81848012Y-32760092D01*
X81550829Y-32802557D01*
X81267641Y-32902184D01*
X81120727Y-32980711D01*
X81038374Y-33233769D01*
X80251626Y-33233769D01*
X80169273Y-32980711D01*
X79898582Y-32850914D01*
X79607770Y-32776420D01*
X79308012Y-32760092D01*
X79010829Y-32802557D01*
X78727641Y-32902184D01*
X78580727Y-32980711D01*
X78498374Y-33233769D01*
X77934030Y-33233769D01*
X77806493Y-33106232D01*
X77556885Y-32939449D01*
X77279534Y-32824566D01*
X76985101Y-32766000D01*
X76684899Y-32766000D01*
X76390466Y-32824566D01*
X76113115Y-32939449D01*
X75863507Y-33106232D01*
X75651232Y-33318507D01*
X75565000Y-33447562D01*
X75478768Y-33318507D01*
X75266493Y-33106232D01*
X75016885Y-32939449D01*
X74739534Y-32824566D01*
X74445101Y-32766000D01*
X74144899Y-32766000D01*
X73850466Y-32824566D01*
X73573115Y-32939449D01*
X73323507Y-33106232D01*
X73111232Y-33318507D01*
X73025000Y-33447562D01*
X72938768Y-33318507D01*
X72726493Y-33106232D01*
X72476885Y-32939449D01*
X72199534Y-32824566D01*
X71905101Y-32766000D01*
X71604899Y-32766000D01*
X71310466Y-32824566D01*
X71033115Y-32939449D01*
X70783507Y-33106232D01*
X70571232Y-33318507D01*
X70485000Y-33447562D01*
X70398768Y-33318507D01*
X70186493Y-33106232D01*
X69936885Y-32939449D01*
X69659534Y-32824566D01*
X69365101Y-32766000D01*
X69064899Y-32766000D01*
X68770466Y-32824566D01*
X68493115Y-32939449D01*
X68243507Y-33106232D01*
X68031232Y-33318507D01*
X67945000Y-33447562D01*
X67858768Y-33318507D01*
X67646493Y-33106232D01*
X67396885Y-32939449D01*
X67119534Y-32824566D01*
X66825101Y-32766000D01*
X66524899Y-32766000D01*
X66230466Y-32824566D01*
X65953115Y-32939449D01*
X65703507Y-33106232D01*
X65491232Y-33318507D01*
X65405000Y-33447562D01*
X65318768Y-33318507D01*
X65106493Y-33106232D01*
X64856885Y-32939449D01*
X64579534Y-32824566D01*
X64285101Y-32766000D01*
X63984899Y-32766000D01*
X63690466Y-32824566D01*
X63413115Y-32939449D01*
X63163507Y-33106232D01*
X62951232Y-33318507D01*
X62865000Y-33447562D01*
X62778768Y-33318507D01*
X62566493Y-33106232D01*
X62316885Y-32939449D01*
X62039534Y-32824566D01*
X61745101Y-32766000D01*
X61444899Y-32766000D01*
X61150466Y-32824566D01*
X60873115Y-32939449D01*
X60623507Y-33106232D01*
X60411232Y-33318507D01*
X60325000Y-33447562D01*
X60238768Y-33318507D01*
X60026493Y-33106232D01*
X59776885Y-32939449D01*
X59499534Y-32824566D01*
X59205101Y-32766000D01*
X58904899Y-32766000D01*
X58610466Y-32824566D01*
X58333115Y-32939449D01*
X58083507Y-33106232D01*
X57871232Y-33318507D01*
X57785000Y-33447562D01*
X57698768Y-33318507D01*
X57486493Y-33106232D01*
X57236885Y-32939449D01*
X56959534Y-32824566D01*
X56665101Y-32766000D01*
X56364899Y-32766000D01*
X56070466Y-32824566D01*
X55793115Y-32939449D01*
X55543507Y-33106232D01*
X55331232Y-33318507D01*
X55245000Y-33447562D01*
X55158768Y-33318507D01*
X54946493Y-33106232D01*
X54696885Y-32939449D01*
X54419534Y-32824566D01*
X54125101Y-32766000D01*
X53824899Y-32766000D01*
X53530466Y-32824566D01*
X53253115Y-32939449D01*
X53003507Y-33106232D01*
X52791232Y-33318507D01*
X52705000Y-33447562D01*
X52618768Y-33318507D01*
X52406493Y-33106232D01*
X52156885Y-32939449D01*
X51879534Y-32824566D01*
X51585101Y-32766000D01*
X51284899Y-32766000D01*
X50990466Y-32824566D01*
X50713115Y-32939449D01*
X50463507Y-33106232D01*
X50251232Y-33318507D01*
X50165000Y-33447562D01*
X50078768Y-33318507D01*
X49866493Y-33106232D01*
X49616885Y-32939449D01*
X49339534Y-32824566D01*
X49045101Y-32766000D01*
X48744899Y-32766000D01*
X48450466Y-32824566D01*
X48387000Y-32850855D01*
X48387000Y-32423100D01*
X125090624Y-32423100D01*
X124802446Y-32542467D01*
X124802446Y-32542467D01*
G37*
X124802446Y-32542467D02*
X124174330Y-32962161D01*
X123640161Y-33496330D01*
X123220467Y-34124446D01*
X122931377Y-34822372D01*
X122784000Y-35563285D01*
X122784000Y-36318715D01*
X122931377Y-37059628D01*
X123220467Y-37757554D01*
X123640161Y-38385670D01*
X124174330Y-38919839D01*
X124802446Y-39339533D01*
X125500372Y-39628623D01*
X126241285Y-39776000D01*
X126996715Y-39776000D01*
X127737628Y-39628623D01*
X128435554Y-39339533D01*
X129063670Y-38919839D01*
X129597839Y-38385670D01*
X130017533Y-37757554D01*
X130136901Y-37469374D01*
X130136900Y-61468000D01*
X116840000Y-61468000D01*
X116815224Y-61470440D01*
X116791399Y-61477667D01*
X116769443Y-61489403D01*
X116750197Y-61505197D01*
X115517394Y-62738000D01*
X99060000Y-62738000D01*
X99035224Y-62740440D01*
X99011399Y-62747667D01*
X98989443Y-62759403D01*
X98970197Y-62775197D01*
X98335197Y-63410197D01*
X98319403Y-63429443D01*
X98307667Y-63451399D01*
X98300440Y-63475224D01*
X98298000Y-63500000D01*
X98298000Y-74877394D01*
X97737394Y-75438000D01*
X92075000Y-75438000D01*
X92050224Y-75440440D01*
X92026399Y-75447667D01*
X92004443Y-75459403D01*
X91985197Y-75475197D01*
X91350197Y-76110197D01*
X91334403Y-76129443D01*
X91322667Y-76151399D01*
X91315440Y-76175224D01*
X91313000Y-76200000D01*
X91313000Y-85037394D01*
X90752394Y-85598000D01*
X76252606Y-85598000D01*
X75692000Y-85037394D01*
X75692000Y-82769445D01*
X76333524Y-82127922D01*
X76377133Y-82092133D01*
X76438327Y-82017569D01*
X76498940Y-81943711D01*
X76519968Y-81918089D01*
X76626103Y-81719523D01*
X76691461Y-81504067D01*
X76708000Y-81336146D01*
X76708000Y-81336140D01*
X76713529Y-81280001D01*
X76708000Y-81223862D01*
X76708000Y-74387445D01*
X77562446Y-73533000D01*
X83329311Y-73533000D01*
X83390203Y-73607197D01*
X83618394Y-73794469D01*
X83878736Y-73933625D01*
X84161223Y-74019316D01*
X84455000Y-74048251D01*
X84748776Y-74019316D01*
X85031263Y-73933625D01*
X85291605Y-73794469D01*
X85519797Y-73607197D01*
X85707069Y-73379006D01*
X85725000Y-73345459D01*
X85742931Y-73379005D01*
X85930203Y-73607197D01*
X86158394Y-73794469D01*
X86418736Y-73933625D01*
X86701223Y-74019316D01*
X86995000Y-74048251D01*
X87288776Y-74019316D01*
X87571263Y-73933625D01*
X87831605Y-73794469D01*
X88059797Y-73607197D01*
X88247069Y-73379006D01*
X88265000Y-73345459D01*
X88282931Y-73379005D01*
X88470203Y-73607197D01*
X88698394Y-73794469D01*
X88958736Y-73933625D01*
X89241223Y-74019316D01*
X89535000Y-74048251D01*
X89828776Y-74019316D01*
X90111263Y-73933625D01*
X90371605Y-73794469D01*
X90599797Y-73607197D01*
X90606414Y-73599135D01*
X90621898Y-73650180D01*
X90680863Y-73760494D01*
X90760215Y-73857185D01*
X90856906Y-73936537D01*
X90967220Y-73995502D01*
X91086918Y-74031812D01*
X91211400Y-74044072D01*
X92938600Y-74044072D01*
X93063082Y-74031812D01*
X93182780Y-73995502D01*
X93293094Y-73936537D01*
X93389785Y-73857185D01*
X93469137Y-73760494D01*
X93528102Y-73650180D01*
X93564412Y-73530482D01*
X93576672Y-73406000D01*
X93576672Y-71374000D01*
X93564412Y-71249518D01*
X93528102Y-71129820D01*
X93469137Y-71019506D01*
X93389785Y-70922815D01*
X93293094Y-70843463D01*
X93182780Y-70784498D01*
X93063082Y-70748188D01*
X92938600Y-70735928D01*
X91211400Y-70735928D01*
X91086918Y-70748188D01*
X90967220Y-70784498D01*
X90856906Y-70843463D01*
X90760215Y-70922815D01*
X90680863Y-71019506D01*
X90621898Y-71129820D01*
X90606414Y-71180865D01*
X90599797Y-71172803D01*
X90371606Y-70985531D01*
X90111264Y-70846375D01*
X89828777Y-70760684D01*
X89535000Y-70731749D01*
X89241224Y-70760684D01*
X88958737Y-70846375D01*
X88698395Y-70985531D01*
X88470203Y-71172803D01*
X88282931Y-71400994D01*
X88265000Y-71434541D01*
X88247069Y-71400994D01*
X88059797Y-71172803D01*
X87831606Y-70985531D01*
X87571264Y-70846375D01*
X87288777Y-70760684D01*
X86995000Y-70731749D01*
X86701224Y-70760684D01*
X86418737Y-70846375D01*
X86158395Y-70985531D01*
X85930203Y-71172803D01*
X85742931Y-71400994D01*
X85725000Y-71434541D01*
X85707069Y-71400994D01*
X85519797Y-71172803D01*
X85291606Y-70985531D01*
X85031264Y-70846375D01*
X84748777Y-70760684D01*
X84455000Y-70731749D01*
X84161224Y-70760684D01*
X83878737Y-70846375D01*
X83618395Y-70985531D01*
X83390203Y-71172803D01*
X83329311Y-71247000D01*
X77145138Y-71247000D01*
X77088999Y-71241471D01*
X77032860Y-71247000D01*
X77032854Y-71247000D01*
X76887600Y-71261306D01*
X76864932Y-71263539D01*
X76813401Y-71279171D01*
X76649477Y-71328897D01*
X76450911Y-71435032D01*
X76276867Y-71577867D01*
X76241077Y-71621477D01*
X74796478Y-73066077D01*
X74752868Y-73101867D01*
X74717078Y-73145477D01*
X74717076Y-73145479D01*
X74687888Y-73181045D01*
X74610033Y-73275911D01*
X74539521Y-73407831D01*
X74503898Y-73474477D01*
X74438539Y-73689933D01*
X74416471Y-73914000D01*
X74422001Y-73970149D01*
X74422000Y-80806554D01*
X73821555Y-81407000D01*
X71882000Y-81407000D01*
X71882000Y-74930000D01*
X71872333Y-74881399D01*
X71844803Y-74840197D01*
X71803601Y-74812667D01*
X71755000Y-74803000D01*
X69215000Y-74803000D01*
X69166399Y-74812667D01*
X69125197Y-74840197D01*
X69097667Y-74881399D01*
X69088000Y-74930000D01*
X69088000Y-76870724D01*
X68964089Y-76769033D01*
X68765523Y-76662897D01*
X68550067Y-76597539D01*
X68326000Y-76575471D01*
X68101932Y-76597539D01*
X67886476Y-76662897D01*
X67687912Y-76769033D01*
X67557479Y-76876076D01*
X67437000Y-76996555D01*
X67437000Y-68770500D01*
X70862928Y-68770500D01*
X70862928Y-69659500D01*
X70883729Y-69870699D01*
X70945334Y-70073782D01*
X71045374Y-70260945D01*
X71180006Y-70424994D01*
X71344055Y-70559626D01*
X71531218Y-70659666D01*
X71734301Y-70721271D01*
X71945500Y-70742072D01*
X72834500Y-70742072D01*
X73045699Y-70721271D01*
X73248782Y-70659666D01*
X73435945Y-70559626D01*
X73599994Y-70424994D01*
X73660000Y-70351877D01*
X73720006Y-70424994D01*
X73884055Y-70559626D01*
X74071218Y-70659666D01*
X74274301Y-70721271D01*
X74485500Y-70742072D01*
X75374500Y-70742072D01*
X75585699Y-70721271D01*
X75788782Y-70659666D01*
X75975945Y-70559626D01*
X76139994Y-70424994D01*
X76200000Y-70351877D01*
X76260006Y-70424994D01*
X76424055Y-70559626D01*
X76611218Y-70659666D01*
X76814301Y-70721271D01*
X77025500Y-70742072D01*
X77914500Y-70742072D01*
X78125699Y-70721271D01*
X78328782Y-70659666D01*
X78515945Y-70559626D01*
X78679994Y-70424994D01*
X78814626Y-70260945D01*
X78914666Y-70073782D01*
X78976271Y-69870699D01*
X78997072Y-69659500D01*
X78997072Y-68770500D01*
X78976271Y-68559301D01*
X78914666Y-68356218D01*
X78814626Y-68169055D01*
X78679994Y-68005006D01*
X78515945Y-67870374D01*
X78328782Y-67770334D01*
X78125699Y-67708729D01*
X77914500Y-67687928D01*
X77025500Y-67687928D01*
X76814301Y-67708729D01*
X76611218Y-67770334D01*
X76424055Y-67870374D01*
X76260006Y-68005006D01*
X76200000Y-68078123D01*
X76139994Y-68005006D01*
X75975945Y-67870374D01*
X75788782Y-67770334D01*
X75585699Y-67708729D01*
X75374500Y-67687928D01*
X74485500Y-67687928D01*
X74274301Y-67708729D01*
X74071218Y-67770334D01*
X73884055Y-67870374D01*
X73720006Y-68005006D01*
X73660000Y-68078123D01*
X73599994Y-68005006D01*
X73435945Y-67870374D01*
X73248782Y-67770334D01*
X73045699Y-67708729D01*
X72834500Y-67687928D01*
X71945500Y-67687928D01*
X71734301Y-67708729D01*
X71531218Y-67770334D01*
X71344055Y-67870374D01*
X71180006Y-68005006D01*
X71045374Y-68169055D01*
X70945334Y-68356218D01*
X70883729Y-68559301D01*
X70862928Y-68770500D01*
X67437000Y-68770500D01*
X67437000Y-66040000D01*
X67434560Y-66015224D01*
X67427333Y-65991399D01*
X67415597Y-65969443D01*
X67399803Y-65950197D01*
X66129803Y-64680197D01*
X66110557Y-64664403D01*
X66088601Y-64652667D01*
X66064776Y-64645440D01*
X66040000Y-64643000D01*
X52705000Y-64643000D01*
X52680224Y-64645440D01*
X52656399Y-64652667D01*
X52634443Y-64664403D01*
X52615197Y-64680197D01*
X51345197Y-65950197D01*
X51329403Y-65969443D01*
X51317667Y-65991399D01*
X51310440Y-66015224D01*
X51308000Y-66040000D01*
X51308000Y-97155000D01*
X51310440Y-97179776D01*
X51317667Y-97203601D01*
X51329403Y-97225557D01*
X51345197Y-97244803D01*
X52615197Y-98514803D01*
X52634443Y-98530597D01*
X52656399Y-98542333D01*
X52680224Y-98549560D01*
X52705000Y-98552000D01*
X58367394Y-98552000D01*
X59563000Y-99747606D01*
X59563000Y-130136900D01*
X37469376Y-130136900D01*
X37757554Y-130017533D01*
X38385670Y-129597839D01*
X38919839Y-129063670D01*
X39339533Y-128435554D01*
X39628623Y-127737628D01*
X39776000Y-126996715D01*
X39776000Y-126241285D01*
X39628623Y-125500372D01*
X39339533Y-124802446D01*
X38919839Y-124174330D01*
X38385670Y-123640161D01*
X37757554Y-123220467D01*
X37059628Y-122931377D01*
X36318715Y-122784000D01*
X35563285Y-122784000D01*
X34822372Y-122931377D01*
X34124446Y-123220467D01*
X33496330Y-123640161D01*
X32962161Y-124174330D01*
X32542467Y-124802446D01*
X32423100Y-125090624D01*
X32423100Y-91478100D01*
X33053059Y-91478100D01*
X33081617Y-91475287D01*
X33085442Y-91475314D01*
X33094795Y-91474397D01*
X33218046Y-91461442D01*
X33277819Y-91449172D01*
X33337727Y-91437744D01*
X33346724Y-91435028D01*
X33346729Y-91435027D01*
X33346734Y-91435025D01*
X33465112Y-91398381D01*
X33521352Y-91374740D01*
X33577916Y-91351887D01*
X33586214Y-91347475D01*
X33695229Y-91288531D01*
X33745806Y-91254416D01*
X33796853Y-91221012D01*
X33804136Y-91215072D01*
X33899626Y-91136076D01*
X33942622Y-91092779D01*
X33986200Y-91050105D01*
X33992191Y-91042864D01*
X34070518Y-90946825D01*
X34104291Y-90895994D01*
X34138746Y-90845673D01*
X34143217Y-90837406D01*
X34201398Y-90727983D01*
X34224643Y-90671588D01*
X34248679Y-90615506D01*
X34251458Y-90606528D01*
X34287278Y-90487888D01*
X34299131Y-90428025D01*
X34311812Y-90368366D01*
X34312795Y-90359019D01*
X34324888Y-90235681D01*
X34324888Y-90235671D01*
X34328100Y-90203059D01*
X34328100Y-72356941D01*
X34325287Y-72328383D01*
X34325314Y-72324558D01*
X34324397Y-72315205D01*
X34311442Y-72191954D01*
X34299172Y-72132181D01*
X34287744Y-72072273D01*
X34285028Y-72063276D01*
X34285027Y-72063271D01*
X34285025Y-72063266D01*
X34248381Y-71944888D01*
X34224735Y-71888637D01*
X34201887Y-71832084D01*
X34197475Y-71823786D01*
X34138531Y-71714771D01*
X34104398Y-71664168D01*
X34071011Y-71613147D01*
X34065072Y-71605863D01*
X33986076Y-71510374D01*
X33942760Y-71467358D01*
X33900104Y-71423800D01*
X33892869Y-71417814D01*
X33892863Y-71417808D01*
X33892856Y-71417804D01*
X33796825Y-71339481D01*
X33745968Y-71305691D01*
X33695673Y-71271254D01*
X33687406Y-71266783D01*
X33577982Y-71208601D01*
X33521556Y-71185344D01*
X33465506Y-71161321D01*
X33456528Y-71158541D01*
X33337887Y-71122722D01*
X33278006Y-71110865D01*
X33218366Y-71098188D01*
X33209028Y-71097206D01*
X33209023Y-71097205D01*
X33209019Y-71097205D01*
X33085680Y-71085112D01*
X33085671Y-71085112D01*
X33053059Y-71081900D01*
X32423100Y-71081900D01*
X32423100Y-66162738D01*
X32437394Y-66174469D01*
X32697736Y-66313625D01*
X32980223Y-66399316D01*
X33274000Y-66428251D01*
X33567776Y-66399316D01*
X33731190Y-66349745D01*
X33731190Y-67028140D01*
X33727196Y-67068690D01*
X33731190Y-67109240D01*
X33731190Y-67109242D01*
X33743134Y-67230515D01*
X33774104Y-67332609D01*
X33790337Y-67386123D01*
X33866991Y-67529532D01*
X33900904Y-67570855D01*
X33970149Y-67655231D01*
X34001656Y-67681088D01*
X34820606Y-68500039D01*
X34846459Y-68531541D01*
X34880285Y-68559301D01*
X34972156Y-68634698D01*
X34972158Y-68634699D01*
X35115566Y-68711353D01*
X35271174Y-68758556D01*
X35392447Y-68770500D01*
X35392459Y-68770500D01*
X35432999Y-68774493D01*
X35473539Y-68770500D01*
X37123068Y-68770500D01*
X37909500Y-69556933D01*
X37909501Y-101559439D01*
X37905506Y-101600000D01*
X37921445Y-101761826D01*
X37968647Y-101917433D01*
X38045301Y-102060842D01*
X38104053Y-102132431D01*
X38148460Y-102186541D01*
X38179961Y-102212393D01*
X48494426Y-112526859D01*
X48528620Y-112698765D01*
X48607123Y-112888288D01*
X48721092Y-113058854D01*
X48866146Y-113203908D01*
X49036712Y-113317877D01*
X49226235Y-113396380D01*
X49427431Y-113436400D01*
X49632569Y-113436400D01*
X49833765Y-113396380D01*
X50023288Y-113317877D01*
X50193854Y-113203908D01*
X50338908Y-113058854D01*
X50452877Y-112888288D01*
X50531380Y-112698765D01*
X50571400Y-112497569D01*
X50571400Y-112292431D01*
X50531380Y-112091235D01*
X50452877Y-111901712D01*
X50338908Y-111731146D01*
X50193854Y-111586092D01*
X50023288Y-111472123D01*
X49833765Y-111393620D01*
X49661859Y-111359426D01*
X39560500Y-101258068D01*
X39560500Y-69255550D01*
X39564494Y-69214999D01*
X39560500Y-69174447D01*
X39548556Y-69053174D01*
X39501353Y-68897566D01*
X39443268Y-68788897D01*
X39424699Y-68754157D01*
X39347391Y-68659958D01*
X39321541Y-68628459D01*
X39290040Y-68602608D01*
X38077398Y-67389966D01*
X38051541Y-67358459D01*
X37925842Y-67255301D01*
X37782434Y-67178647D01*
X37626826Y-67131444D01*
X37505553Y-67119500D01*
X37505550Y-67119500D01*
X37465000Y-67115506D01*
X37424450Y-67119500D01*
X35774933Y-67119500D01*
X35382190Y-66726758D01*
X35382190Y-66357444D01*
X35520223Y-66399316D01*
X35814000Y-66428251D01*
X36107776Y-66399316D01*
X36390263Y-66313625D01*
X36650605Y-66174469D01*
X36878797Y-65987197D01*
X37066069Y-65759006D01*
X37084000Y-65725459D01*
X37101931Y-65759005D01*
X37289203Y-65987197D01*
X37517394Y-66174469D01*
X37777736Y-66313625D01*
X38060223Y-66399316D01*
X38354000Y-66428251D01*
X38647776Y-66399316D01*
X38930263Y-66313625D01*
X39190605Y-66174469D01*
X39418797Y-65987197D01*
X39606069Y-65759006D01*
X39624000Y-65725459D01*
X39641931Y-65759005D01*
X39829203Y-65987197D01*
X40057394Y-66174469D01*
X40317736Y-66313625D01*
X40600223Y-66399316D01*
X40894000Y-66428251D01*
X41187776Y-66399316D01*
X41470263Y-66313625D01*
X41730605Y-66174469D01*
X41958797Y-65987197D01*
X42146069Y-65759006D01*
X42164000Y-65725459D01*
X42181931Y-65759005D01*
X42369203Y-65987197D01*
X42597394Y-66174469D01*
X42857736Y-66313625D01*
X43140223Y-66399316D01*
X43434000Y-66428251D01*
X43727776Y-66399316D01*
X44010263Y-66313625D01*
X44270605Y-66174469D01*
X44498797Y-65987197D01*
X44503863Y-65981024D01*
X44547670Y-66086785D01*
X44617163Y-66190789D01*
X44705611Y-66279237D01*
X44809615Y-66348730D01*
X44925177Y-66396597D01*
X45047858Y-66421000D01*
X45688250Y-66421000D01*
X45847000Y-66262250D01*
X45847000Y-64897000D01*
X45827000Y-64897000D01*
X45827000Y-64643000D01*
X45847000Y-64643000D01*
X45847000Y-63277750D01*
X45688250Y-63119000D01*
X45047858Y-63119000D01*
X44925177Y-63143403D01*
X44809615Y-63191270D01*
X44705611Y-63260763D01*
X44617163Y-63349211D01*
X44547670Y-63453215D01*
X44503863Y-63558976D01*
X44498797Y-63552803D01*
X44345097Y-63426665D01*
X44369908Y-63401854D01*
X44483877Y-63231288D01*
X44562380Y-63041765D01*
X44602400Y-62840569D01*
X44602400Y-62635431D01*
X44562380Y-62434235D01*
X44483877Y-62244712D01*
X44369908Y-62074146D01*
X44224854Y-61929092D01*
X44054288Y-61815123D01*
X43864765Y-61736620D01*
X43663569Y-61696600D01*
X43458431Y-61696600D01*
X43257235Y-61736620D01*
X43067712Y-61815123D01*
X42921978Y-61912500D01*
X38902539Y-61912500D01*
X38861999Y-61908507D01*
X38821459Y-61912500D01*
X38821447Y-61912500D01*
X38700174Y-61924444D01*
X38544566Y-61971647D01*
X38441991Y-62026475D01*
X38401156Y-62048302D01*
X38369666Y-62074146D01*
X38275459Y-62151459D01*
X38249602Y-62182966D01*
X37798966Y-62633602D01*
X37767459Y-62659459D01*
X37715001Y-62723380D01*
X37664301Y-62785158D01*
X37599378Y-62906620D01*
X37587647Y-62928567D01*
X37540444Y-63084175D01*
X37528500Y-63205447D01*
X37524506Y-63246000D01*
X37528500Y-63286551D01*
X37528500Y-63359595D01*
X37517395Y-63365531D01*
X37289203Y-63552803D01*
X37101931Y-63780994D01*
X37084000Y-63814541D01*
X37066069Y-63780994D01*
X36878797Y-63552803D01*
X36650606Y-63365531D01*
X36390264Y-63226375D01*
X36107777Y-63140684D01*
X35814000Y-63111749D01*
X35520224Y-63140684D01*
X35382190Y-63182556D01*
X35382190Y-56844242D01*
X36155934Y-56070500D01*
X47584450Y-56070500D01*
X47625000Y-56074494D01*
X47665550Y-56070500D01*
X47665553Y-56070500D01*
X47786826Y-56058556D01*
X47942434Y-56011353D01*
X48085842Y-55934699D01*
X48211541Y-55831541D01*
X48237398Y-55800034D01*
X49450039Y-54587394D01*
X49481541Y-54561541D01*
X49549570Y-54478647D01*
X49584699Y-54435843D01*
X49611399Y-54385889D01*
X49661353Y-54292434D01*
X49708556Y-54136826D01*
X49720500Y-54015553D01*
X49720500Y-54015551D01*
X49724494Y-53975001D01*
X49720500Y-53934450D01*
X49720500Y-35571318D01*
X49866493Y-35473768D01*
X50078768Y-35261493D01*
X50165000Y-35132438D01*
X50251232Y-35261493D01*
X50463507Y-35473768D01*
X50713115Y-35640551D01*
X50990466Y-35755434D01*
X51284899Y-35814000D01*
X51585101Y-35814000D01*
X51879534Y-35755434D01*
X52156885Y-35640551D01*
X52406493Y-35473768D01*
X52618768Y-35261493D01*
X52705000Y-35132438D01*
X52791232Y-35261493D01*
X53003507Y-35473768D01*
X53253115Y-35640551D01*
X53530466Y-35755434D01*
X53824899Y-35814000D01*
X54125101Y-35814000D01*
X54419534Y-35755434D01*
X54696885Y-35640551D01*
X54946493Y-35473768D01*
X55158768Y-35261493D01*
X55245000Y-35132438D01*
X55331232Y-35261493D01*
X55543507Y-35473768D01*
X55793115Y-35640551D01*
X56070466Y-35755434D01*
X56364899Y-35814000D01*
X56665101Y-35814000D01*
X56959534Y-35755434D01*
X57236885Y-35640551D01*
X57486493Y-35473768D01*
X57698768Y-35261493D01*
X57785000Y-35132438D01*
X57871232Y-35261493D01*
X58083507Y-35473768D01*
X58333115Y-35640551D01*
X58610466Y-35755434D01*
X58904899Y-35814000D01*
X59205101Y-35814000D01*
X59499534Y-35755434D01*
X59776885Y-35640551D01*
X60026493Y-35473768D01*
X60238768Y-35261493D01*
X60325000Y-35132438D01*
X60411232Y-35261493D01*
X60623507Y-35473768D01*
X60873115Y-35640551D01*
X61150466Y-35755434D01*
X61444899Y-35814000D01*
X61745101Y-35814000D01*
X62039534Y-35755434D01*
X62316885Y-35640551D01*
X62566493Y-35473768D01*
X62778768Y-35261493D01*
X62865000Y-35132438D01*
X62951232Y-35261493D01*
X63163507Y-35473768D01*
X63413115Y-35640551D01*
X63690466Y-35755434D01*
X63984899Y-35814000D01*
X64285101Y-35814000D01*
X64579534Y-35755434D01*
X64856885Y-35640551D01*
X65106493Y-35473768D01*
X65318768Y-35261493D01*
X65405000Y-35132438D01*
X65491232Y-35261493D01*
X65703507Y-35473768D01*
X65953115Y-35640551D01*
X66230466Y-35755434D01*
X66524899Y-35814000D01*
X66825101Y-35814000D01*
X67119534Y-35755434D01*
X67396885Y-35640551D01*
X67646493Y-35473768D01*
X67858768Y-35261493D01*
X67945000Y-35132438D01*
X68031232Y-35261493D01*
X68243507Y-35473768D01*
X68493115Y-35640551D01*
X68770466Y-35755434D01*
X69064899Y-35814000D01*
X69365101Y-35814000D01*
X69659534Y-35755434D01*
X69936885Y-35640551D01*
X70186493Y-35473768D01*
X70398768Y-35261493D01*
X70485000Y-35132438D01*
X70571232Y-35261493D01*
X70783507Y-35473768D01*
X71033115Y-35640551D01*
X71310466Y-35755434D01*
X71604899Y-35814000D01*
X71905101Y-35814000D01*
X72199534Y-35755434D01*
X72476885Y-35640551D01*
X72726493Y-35473768D01*
X72938768Y-35261493D01*
X73025000Y-35132438D01*
X73111232Y-35261493D01*
X73323507Y-35473768D01*
X73573115Y-35640551D01*
X73850466Y-35755434D01*
X74144899Y-35814000D01*
X74445101Y-35814000D01*
X74739534Y-35755434D01*
X75016885Y-35640551D01*
X75266493Y-35473768D01*
X75478768Y-35261493D01*
X75565000Y-35132438D01*
X75651232Y-35261493D01*
X75692000Y-35302261D01*
X75692001Y-42071553D01*
X75091555Y-42672000D01*
X65461138Y-42672000D01*
X65404999Y-42666471D01*
X65348860Y-42672000D01*
X65348854Y-42672000D01*
X65203600Y-42686306D01*
X65180932Y-42688539D01*
X65115574Y-42708365D01*
X64965477Y-42753897D01*
X64766911Y-42860032D01*
X64592867Y-43002867D01*
X64557077Y-43046477D01*
X63366482Y-44237073D01*
X63322867Y-44272867D01*
X63180032Y-44446912D01*
X63073897Y-44645478D01*
X63008539Y-44860934D01*
X62992000Y-45028855D01*
X62992000Y-45028861D01*
X62986471Y-45085000D01*
X62992000Y-45141139D01*
X62992001Y-58677738D01*
X62951232Y-58718507D01*
X62865000Y-58847562D01*
X62778768Y-58718507D01*
X62566493Y-58506232D01*
X62316885Y-58339449D01*
X62039534Y-58224566D01*
X61745101Y-58166000D01*
X61444899Y-58166000D01*
X61150466Y-58224566D01*
X60873115Y-58339449D01*
X60623507Y-58506232D01*
X60411232Y-58718507D01*
X60325000Y-58847562D01*
X60238768Y-58718507D01*
X60026493Y-58506232D01*
X59776885Y-58339449D01*
X59499534Y-58224566D01*
X59205101Y-58166000D01*
X58904899Y-58166000D01*
X58610466Y-58224566D01*
X58333115Y-58339449D01*
X58083507Y-58506232D01*
X57871232Y-58718507D01*
X57785000Y-58847562D01*
X57698768Y-58718507D01*
X57486493Y-58506232D01*
X57236885Y-58339449D01*
X56959534Y-58224566D01*
X56665101Y-58166000D01*
X56364899Y-58166000D01*
X56070466Y-58224566D01*
X55793115Y-58339449D01*
X55543507Y-58506232D01*
X55331232Y-58718507D01*
X55245000Y-58847562D01*
X55158768Y-58718507D01*
X54946493Y-58506232D01*
X54696885Y-58339449D01*
X54419534Y-58224566D01*
X54125101Y-58166000D01*
X53824899Y-58166000D01*
X53530466Y-58224566D01*
X53253115Y-58339449D01*
X53003507Y-58506232D01*
X52791232Y-58718507D01*
X52705000Y-58847562D01*
X52618768Y-58718507D01*
X52406493Y-58506232D01*
X52156885Y-58339449D01*
X51879534Y-58224566D01*
X51585101Y-58166000D01*
X51284899Y-58166000D01*
X50990466Y-58224566D01*
X50713115Y-58339449D01*
X50463507Y-58506232D01*
X50251232Y-58718507D01*
X50165000Y-58847562D01*
X50078768Y-58718507D01*
X49866493Y-58506232D01*
X49616885Y-58339449D01*
X49339534Y-58224566D01*
X49045101Y-58166000D01*
X48744899Y-58166000D01*
X48450466Y-58224566D01*
X48173115Y-58339449D01*
X47923507Y-58506232D01*
X47711232Y-58718507D01*
X47625000Y-58847562D01*
X47538768Y-58718507D01*
X47326493Y-58506232D01*
X47076885Y-58339449D01*
X46799534Y-58224566D01*
X46505101Y-58166000D01*
X46204899Y-58166000D01*
X45910466Y-58224566D01*
X45720000Y-58303460D01*
X45720000Y-58232374D01*
X45646791Y-57864332D01*
X45503189Y-57517644D01*
X45294710Y-57205634D01*
X45029366Y-56940290D01*
X44717356Y-56731811D01*
X44370668Y-56588209D01*
X44002626Y-56515000D01*
X43627374Y-56515000D01*
X43259332Y-56588209D01*
X42912644Y-56731811D01*
X42600634Y-56940290D01*
X42335290Y-57205634D01*
X42126811Y-57517644D01*
X41983209Y-57864332D01*
X41910000Y-58232374D01*
X41910000Y-58607626D01*
X41983209Y-58975668D01*
X42126811Y-59322356D01*
X42335290Y-59634366D01*
X42600634Y-59899710D01*
X42912644Y-60108189D01*
X43259332Y-60251791D01*
X43627374Y-60325000D01*
X44002626Y-60325000D01*
X44370668Y-60251791D01*
X44717356Y-60108189D01*
X44864737Y-60009712D01*
X44889566Y-60134534D01*
X45004449Y-60411885D01*
X45171232Y-60661493D01*
X45383507Y-60873768D01*
X45633115Y-61040551D01*
X45910466Y-61155434D01*
X46204899Y-61214000D01*
X46505101Y-61214000D01*
X46799534Y-61155434D01*
X47076885Y-61040551D01*
X47180501Y-60971317D01*
X47180501Y-63219411D01*
X47138385Y-63191270D01*
X47022823Y-63143403D01*
X46900142Y-63119000D01*
X46259750Y-63119000D01*
X46101000Y-63277750D01*
X46101000Y-64643000D01*
X46121000Y-64643000D01*
X46121000Y-64897000D01*
X46101000Y-64897000D01*
X46101000Y-66262250D01*
X46259750Y-66421000D01*
X46900142Y-66421000D01*
X47022823Y-66396597D01*
X47138385Y-66348730D01*
X47180502Y-66320589D01*
X47180502Y-66839669D01*
X46011672Y-68008500D01*
X44998550Y-68008500D01*
X44958000Y-68004506D01*
X44917449Y-68008500D01*
X44917447Y-68008500D01*
X44796174Y-68020444D01*
X44640566Y-68067647D01*
X44497157Y-68144301D01*
X44402958Y-68221608D01*
X44402955Y-68221611D01*
X44371459Y-68247459D01*
X44345611Y-68278955D01*
X42624966Y-69999602D01*
X42593459Y-70025459D01*
X42524214Y-70109835D01*
X42490301Y-70151158D01*
X42422418Y-70278158D01*
X42413647Y-70294567D01*
X42366444Y-70450175D01*
X42355558Y-70560705D01*
X42350506Y-70612000D01*
X42354500Y-70652550D01*
X42354501Y-95844441D01*
X42350506Y-95885002D01*
X42366445Y-96046828D01*
X42413647Y-96202435D01*
X42490301Y-96345844D01*
X42523648Y-96386477D01*
X42593460Y-96471543D01*
X42624961Y-96497395D01*
X48494426Y-102366861D01*
X48528620Y-102538767D01*
X48607123Y-102728290D01*
X48721092Y-102898856D01*
X48866146Y-103043910D01*
X49036712Y-103157879D01*
X49226235Y-103236382D01*
X49427431Y-103276402D01*
X49632569Y-103276402D01*
X49833765Y-103236382D01*
X50023288Y-103157879D01*
X50193854Y-103043910D01*
X50338908Y-102898856D01*
X50452877Y-102728290D01*
X50531380Y-102538767D01*
X50571400Y-102337571D01*
X50571400Y-102132433D01*
X50531380Y-101931237D01*
X50452877Y-101741714D01*
X50338908Y-101571148D01*
X50193854Y-101426094D01*
X50023288Y-101312125D01*
X49833765Y-101233622D01*
X49661859Y-101199428D01*
X44005500Y-95543070D01*
X44005500Y-92797932D01*
X45555347Y-94347781D01*
X45581195Y-94379277D01*
X45612691Y-94405125D01*
X45612694Y-94405128D01*
X45706893Y-94482435D01*
X45795881Y-94530000D01*
X45850302Y-94559089D01*
X46005910Y-94606292D01*
X46127183Y-94618236D01*
X46127185Y-94618236D01*
X46167736Y-94622230D01*
X46208286Y-94618236D01*
X47771714Y-94618236D01*
X47812264Y-94622230D01*
X47852814Y-94618236D01*
X47852817Y-94618236D01*
X47974090Y-94606292D01*
X48129698Y-94559089D01*
X48273106Y-94482435D01*
X48398805Y-94379277D01*
X48424662Y-94347770D01*
X49661860Y-93110574D01*
X49833765Y-93076380D01*
X50023288Y-92997877D01*
X50193854Y-92883908D01*
X50338908Y-92738854D01*
X50452877Y-92568288D01*
X50531380Y-92378765D01*
X50571400Y-92177569D01*
X50571400Y-91972431D01*
X50531380Y-91771235D01*
X50452877Y-91581712D01*
X50338908Y-91411146D01*
X50193854Y-91266092D01*
X50023288Y-91152123D01*
X49833765Y-91073620D01*
X49632569Y-91033600D01*
X49427431Y-91033600D01*
X49226235Y-91073620D01*
X49036712Y-91152123D01*
X48866146Y-91266092D01*
X48721092Y-91411146D01*
X48607123Y-91581712D01*
X48528620Y-91771235D01*
X48494426Y-91943140D01*
X47470332Y-92967236D01*
X46894145Y-92967236D01*
X47018854Y-92883908D01*
X47163908Y-92738854D01*
X47277877Y-92568288D01*
X47356380Y-92378765D01*
X47396400Y-92177569D01*
X47396400Y-91972431D01*
X47356380Y-91771235D01*
X47277877Y-91581712D01*
X47180500Y-91435978D01*
X47180500Y-71124013D01*
X47277871Y-70978288D01*
X47356374Y-70788765D01*
X47390567Y-70616866D01*
X50212039Y-67795394D01*
X50243541Y-67769541D01*
X50310519Y-67687928D01*
X50346699Y-67643843D01*
X50423353Y-67500434D01*
X50441685Y-67440000D01*
X50470556Y-67344826D01*
X50482500Y-67223553D01*
X50482500Y-67223551D01*
X50486494Y-67183001D01*
X50482500Y-67142450D01*
X50482500Y-63714932D01*
X51649934Y-62547500D01*
X61082978Y-62547500D01*
X61228712Y-62644877D01*
X61418235Y-62723380D01*
X61619431Y-62763400D01*
X61824569Y-62763400D01*
X62025765Y-62723380D01*
X62215288Y-62644877D01*
X62385854Y-62530908D01*
X62530908Y-62385854D01*
X62644877Y-62215288D01*
X62723380Y-62025765D01*
X62763400Y-61824569D01*
X62763400Y-61619431D01*
X62723380Y-61418235D01*
X62644877Y-61228712D01*
X62530908Y-61058146D01*
X62434635Y-60961873D01*
X62566493Y-60873768D01*
X62778768Y-60661493D01*
X62865000Y-60532438D01*
X62951232Y-60661493D01*
X63163507Y-60873768D01*
X63413115Y-61040551D01*
X63690466Y-61155434D01*
X63984899Y-61214000D01*
X64285101Y-61214000D01*
X64579534Y-61155434D01*
X64856885Y-61040551D01*
X65106493Y-60873768D01*
X65234030Y-60746231D01*
X65798374Y-60746231D01*
X65880727Y-60999289D01*
X66151418Y-61129086D01*
X66442230Y-61203580D01*
X66741988Y-61219908D01*
X67039171Y-61177443D01*
X67322359Y-61077816D01*
X67469273Y-60999289D01*
X67551626Y-60746231D01*
X66675000Y-59869605D01*
X65798374Y-60746231D01*
X65234030Y-60746231D01*
X65318768Y-60661493D01*
X65424417Y-60503378D01*
X65618769Y-60566626D01*
X66495395Y-59690000D01*
X66854605Y-59690000D01*
X67731231Y-60566626D01*
X67925583Y-60503378D01*
X68031232Y-60661493D01*
X68243507Y-60873768D01*
X68493115Y-61040551D01*
X68770466Y-61155434D01*
X69064899Y-61214000D01*
X69365101Y-61214000D01*
X69659534Y-61155434D01*
X69936885Y-61040551D01*
X70186493Y-60873768D01*
X70398768Y-60661493D01*
X70565551Y-60411885D01*
X70680434Y-60134534D01*
X70739000Y-59840101D01*
X70739000Y-59539899D01*
X70680434Y-59245466D01*
X70565551Y-58968115D01*
X70398768Y-58718507D01*
X70358000Y-58677739D01*
X70358000Y-58232374D01*
X100330000Y-58232374D01*
X100330000Y-58607626D01*
X100403209Y-58975668D01*
X100546811Y-59322356D01*
X100755290Y-59634366D01*
X101020634Y-59899710D01*
X101332644Y-60108189D01*
X101679332Y-60251791D01*
X102047374Y-60325000D01*
X102422626Y-60325000D01*
X102790668Y-60251791D01*
X103137356Y-60108189D01*
X103449366Y-59899710D01*
X103714710Y-59634366D01*
X103923189Y-59322356D01*
X104066791Y-58975668D01*
X104140000Y-58607626D01*
X104140000Y-58232374D01*
X104066791Y-57864332D01*
X103923189Y-57517644D01*
X103714710Y-57205634D01*
X103449366Y-56940290D01*
X103137356Y-56731811D01*
X102790668Y-56588209D01*
X102422626Y-56515000D01*
X102047374Y-56515000D01*
X101679332Y-56588209D01*
X101332644Y-56731811D01*
X101020634Y-56940290D01*
X100755290Y-57205634D01*
X100546811Y-57517644D01*
X100403209Y-57864332D01*
X100330000Y-58232374D01*
X70358000Y-58232374D01*
X70358000Y-50638445D01*
X70958446Y-50038000D01*
X83128861Y-50038000D01*
X83185000Y-50043529D01*
X83241139Y-50038000D01*
X83241146Y-50038000D01*
X83409067Y-50021461D01*
X83624523Y-49956103D01*
X83823089Y-49849968D01*
X83997133Y-49707133D01*
X84032927Y-49663518D01*
X85223524Y-48472922D01*
X85267133Y-48437133D01*
X85409968Y-48263089D01*
X85516103Y-48064523D01*
X85581461Y-47849067D01*
X85598000Y-47681146D01*
X85598000Y-47681140D01*
X85603529Y-47625001D01*
X85598000Y-47568862D01*
X85598000Y-35372374D01*
X100330000Y-35372374D01*
X100330000Y-35747626D01*
X100403209Y-36115668D01*
X100546811Y-36462356D01*
X100755290Y-36774366D01*
X101020634Y-37039710D01*
X101332644Y-37248189D01*
X101679332Y-37391791D01*
X102047374Y-37465000D01*
X102422626Y-37465000D01*
X102790668Y-37391791D01*
X103137356Y-37248189D01*
X103449366Y-37039710D01*
X103714710Y-36774366D01*
X103923189Y-36462356D01*
X104066791Y-36115668D01*
X104140000Y-35747626D01*
X104140000Y-35372374D01*
X104066791Y-35004332D01*
X103923189Y-34657644D01*
X103714710Y-34345634D01*
X103449366Y-34080290D01*
X103137356Y-33871811D01*
X102790668Y-33728209D01*
X102422626Y-33655000D01*
X102047374Y-33655000D01*
X101679332Y-33728209D01*
X101332644Y-33871811D01*
X101020634Y-34080290D01*
X100755290Y-34345634D01*
X100546811Y-34657644D01*
X100403209Y-35004332D01*
X100330000Y-35372374D01*
X85598000Y-35372374D01*
X85598000Y-35302261D01*
X85638768Y-35261493D01*
X85805551Y-35011885D01*
X85920434Y-34734534D01*
X85979000Y-34440101D01*
X85979000Y-34139899D01*
X85920434Y-33845466D01*
X85805551Y-33568115D01*
X85638768Y-33318507D01*
X85426493Y-33106232D01*
X85176885Y-32939449D01*
X84899534Y-32824566D01*
X84605101Y-32766000D01*
X84304899Y-32766000D01*
X84010466Y-32824566D01*
X83733115Y-32939449D01*
X83483507Y-33106232D01*
X83271232Y-33318507D01*
X83165583Y-33476622D01*
X82971231Y-33413374D01*
X82094605Y-34290000D01*
X82971231Y-35166626D01*
X83165583Y-35103378D01*
X83271232Y-35261493D01*
X83312001Y-35302262D01*
X83312000Y-47151554D01*
X82711555Y-47752000D01*
X70541138Y-47752000D01*
X70484999Y-47746471D01*
X70428860Y-47752000D01*
X70428854Y-47752000D01*
X70283600Y-47766306D01*
X70260932Y-47768539D01*
X70195574Y-47788365D01*
X70045477Y-47833897D01*
X69846911Y-47940032D01*
X69672867Y-48082867D01*
X69637077Y-48126477D01*
X68446478Y-49317077D01*
X68402868Y-49352867D01*
X68260033Y-49526911D01*
X68163703Y-49707133D01*
X68153898Y-49725477D01*
X68088539Y-49940933D01*
X68066471Y-50165000D01*
X68072001Y-50221149D01*
X68072000Y-58677739D01*
X68031232Y-58718507D01*
X67925583Y-58876622D01*
X67731231Y-58813374D01*
X66854605Y-59690000D01*
X66495395Y-59690000D01*
X65618769Y-58813374D01*
X65424417Y-58876622D01*
X65318768Y-58718507D01*
X65278000Y-58677739D01*
X65278000Y-58633769D01*
X65798374Y-58633769D01*
X66675000Y-59510395D01*
X67551626Y-58633769D01*
X67469273Y-58380711D01*
X67198582Y-58250914D01*
X66907770Y-58176420D01*
X66608012Y-58160092D01*
X66310829Y-58202557D01*
X66027641Y-58302184D01*
X65880727Y-58380711D01*
X65798374Y-58633769D01*
X65278000Y-58633769D01*
X65278000Y-45558445D01*
X65878446Y-44958000D01*
X75508861Y-44958000D01*
X75565000Y-44963529D01*
X75621139Y-44958000D01*
X75621146Y-44958000D01*
X75789067Y-44941461D01*
X76004523Y-44876103D01*
X76203089Y-44769968D01*
X76377133Y-44627133D01*
X76412927Y-44583518D01*
X77603523Y-43392923D01*
X77647133Y-43357133D01*
X77789968Y-43183089D01*
X77896103Y-42984523D01*
X77961461Y-42769067D01*
X77978000Y-42601146D01*
X77978000Y-42601140D01*
X77983529Y-42545001D01*
X77978000Y-42488862D01*
X77978000Y-35346231D01*
X78498374Y-35346231D01*
X78580727Y-35599289D01*
X78851418Y-35729086D01*
X79142230Y-35803580D01*
X79441988Y-35819908D01*
X79739171Y-35777443D01*
X80022359Y-35677816D01*
X80169273Y-35599289D01*
X80251626Y-35346231D01*
X81038374Y-35346231D01*
X81120727Y-35599289D01*
X81391418Y-35729086D01*
X81682230Y-35803580D01*
X81981988Y-35819908D01*
X82279171Y-35777443D01*
X82562359Y-35677816D01*
X82709273Y-35599289D01*
X82791626Y-35346231D01*
X81915000Y-34469605D01*
X81038374Y-35346231D01*
X80251626Y-35346231D01*
X79375000Y-34469605D01*
X78498374Y-35346231D01*
X77978000Y-35346231D01*
X77978000Y-35302261D01*
X78018768Y-35261493D01*
X78124417Y-35103378D01*
X78318769Y-35166626D01*
X79195395Y-34290000D01*
X79554605Y-34290000D01*
X80431231Y-35166626D01*
X80645000Y-35097059D01*
X80858769Y-35166626D01*
X81735395Y-34290000D01*
X80858769Y-33413374D01*
X80645000Y-33482941D01*
X80431231Y-33413374D01*
X79554605Y-34290000D01*
X79195395Y-34290000D01*
X78318769Y-33413374D01*
X78124417Y-33476622D01*
X78018768Y-33318507D01*
X77934030Y-33233769D01*
X78498374Y-33233769D01*
X79375000Y-34110395D01*
X80251626Y-33233769D01*
X81038374Y-33233769D01*
X81915000Y-34110395D01*
X82791626Y-33233769D01*
X82709273Y-32980711D01*
X82438582Y-32850914D01*
X82147770Y-32776420D01*
X81848012Y-32760092D01*
X81550829Y-32802557D01*
X81267641Y-32902184D01*
X81120727Y-32980711D01*
X81038374Y-33233769D01*
X80251626Y-33233769D01*
X80169273Y-32980711D01*
X79898582Y-32850914D01*
X79607770Y-32776420D01*
X79308012Y-32760092D01*
X79010829Y-32802557D01*
X78727641Y-32902184D01*
X78580727Y-32980711D01*
X78498374Y-33233769D01*
X77934030Y-33233769D01*
X77806493Y-33106232D01*
X77556885Y-32939449D01*
X77279534Y-32824566D01*
X76985101Y-32766000D01*
X76684899Y-32766000D01*
X76390466Y-32824566D01*
X76113115Y-32939449D01*
X75863507Y-33106232D01*
X75651232Y-33318507D01*
X75565000Y-33447562D01*
X75478768Y-33318507D01*
X75266493Y-33106232D01*
X75016885Y-32939449D01*
X74739534Y-32824566D01*
X74445101Y-32766000D01*
X74144899Y-32766000D01*
X73850466Y-32824566D01*
X73573115Y-32939449D01*
X73323507Y-33106232D01*
X73111232Y-33318507D01*
X73025000Y-33447562D01*
X72938768Y-33318507D01*
X72726493Y-33106232D01*
X72476885Y-32939449D01*
X72199534Y-32824566D01*
X71905101Y-32766000D01*
X71604899Y-32766000D01*
X71310466Y-32824566D01*
X71033115Y-32939449D01*
X70783507Y-33106232D01*
X70571232Y-33318507D01*
X70485000Y-33447562D01*
X70398768Y-33318507D01*
X70186493Y-33106232D01*
X69936885Y-32939449D01*
X69659534Y-32824566D01*
X69365101Y-32766000D01*
X69064899Y-32766000D01*
X68770466Y-32824566D01*
X68493115Y-32939449D01*
X68243507Y-33106232D01*
X68031232Y-33318507D01*
X67945000Y-33447562D01*
X67858768Y-33318507D01*
X67646493Y-33106232D01*
X67396885Y-32939449D01*
X67119534Y-32824566D01*
X66825101Y-32766000D01*
X66524899Y-32766000D01*
X66230466Y-32824566D01*
X65953115Y-32939449D01*
X65703507Y-33106232D01*
X65491232Y-33318507D01*
X65405000Y-33447562D01*
X65318768Y-33318507D01*
X65106493Y-33106232D01*
X64856885Y-32939449D01*
X64579534Y-32824566D01*
X64285101Y-32766000D01*
X63984899Y-32766000D01*
X63690466Y-32824566D01*
X63413115Y-32939449D01*
X63163507Y-33106232D01*
X62951232Y-33318507D01*
X62865000Y-33447562D01*
X62778768Y-33318507D01*
X62566493Y-33106232D01*
X62316885Y-32939449D01*
X62039534Y-32824566D01*
X61745101Y-32766000D01*
X61444899Y-32766000D01*
X61150466Y-32824566D01*
X60873115Y-32939449D01*
X60623507Y-33106232D01*
X60411232Y-33318507D01*
X60325000Y-33447562D01*
X60238768Y-33318507D01*
X60026493Y-33106232D01*
X59776885Y-32939449D01*
X59499534Y-32824566D01*
X59205101Y-32766000D01*
X58904899Y-32766000D01*
X58610466Y-32824566D01*
X58333115Y-32939449D01*
X58083507Y-33106232D01*
X57871232Y-33318507D01*
X57785000Y-33447562D01*
X57698768Y-33318507D01*
X57486493Y-33106232D01*
X57236885Y-32939449D01*
X56959534Y-32824566D01*
X56665101Y-32766000D01*
X56364899Y-32766000D01*
X56070466Y-32824566D01*
X55793115Y-32939449D01*
X55543507Y-33106232D01*
X55331232Y-33318507D01*
X55245000Y-33447562D01*
X55158768Y-33318507D01*
X54946493Y-33106232D01*
X54696885Y-32939449D01*
X54419534Y-32824566D01*
X54125101Y-32766000D01*
X53824899Y-32766000D01*
X53530466Y-32824566D01*
X53253115Y-32939449D01*
X53003507Y-33106232D01*
X52791232Y-33318507D01*
X52705000Y-33447562D01*
X52618768Y-33318507D01*
X52406493Y-33106232D01*
X52156885Y-32939449D01*
X51879534Y-32824566D01*
X51585101Y-32766000D01*
X51284899Y-32766000D01*
X50990466Y-32824566D01*
X50713115Y-32939449D01*
X50463507Y-33106232D01*
X50251232Y-33318507D01*
X50165000Y-33447562D01*
X50078768Y-33318507D01*
X49866493Y-33106232D01*
X49616885Y-32939449D01*
X49339534Y-32824566D01*
X49045101Y-32766000D01*
X48744899Y-32766000D01*
X48450466Y-32824566D01*
X48387000Y-32850855D01*
X48387000Y-32423100D01*
X125090624Y-32423100D01*
X124802446Y-32542467D01*
G36*
X97028000Y-88317606D02*
X97028000Y-97155000D01*
X97030440Y-97179776D01*
X97037667Y-97203601D01*
X97049403Y-97225557D01*
X97065197Y-97244803D01*
X98335197Y-98514803D01*
X98354443Y-98530597D01*
X98376399Y-98542333D01*
X98400224Y-98549560D01*
X98425000Y-98552000D01*
X103452394Y-98552000D01*
X104648000Y-99747606D01*
X104648000Y-121867394D01*
X103452394Y-123063000D01*
X70537606Y-123063000D01*
X69342000Y-121867394D01*
X69342000Y-87122000D01*
X95832394Y-87122000D01*
X97028000Y-88317606D01*
X97028000Y-88317606D01*
G37*
X97028000Y-88317606D02*
X97028000Y-97155000D01*
X97030440Y-97179776D01*
X97037667Y-97203601D01*
X97049403Y-97225557D01*
X97065197Y-97244803D01*
X98335197Y-98514803D01*
X98354443Y-98530597D01*
X98376399Y-98542333D01*
X98400224Y-98549560D01*
X98425000Y-98552000D01*
X103452394Y-98552000D01*
X104648000Y-99747606D01*
X104648000Y-121867394D01*
X103452394Y-123063000D01*
X70537606Y-123063000D01*
X69342000Y-121867394D01*
X69342000Y-87122000D01*
X95832394Y-87122000D01*
X97028000Y-88317606D01*
M02*
