G04 #@! TF.GenerationSoftware,KiCad,Pcbnew,no-vcs-found-67ccf76~61~ubuntu16.04.1*
G04 #@! TF.CreationDate,2018-03-20T21:24:49+05:30*
G04 #@! TF.ProjectId,wyostat,77796F737461742E6B696361645F7063,rev?*
G04 #@! TF.SameCoordinates,Original*
G04 #@! TF.FileFunction,Profile,NP*
%FSLAX46Y46*%
G04 Gerber Fmt 4.6, Leading zero omitted, Abs format (unit mm)*
G04 Created by KiCad (PCBNEW no-vcs-found-67ccf76~61~ubuntu16.04.1) date Tue Mar 20 21:24:49 2018*
%MOMM*%
%LPD*%
G01*
G04 APERTURE LIST*
%ADD10C,0.076200*%
G04 APERTURE END LIST*
D10*
X60325000Y-91440000D02*
G75*
G02X62865000Y-91440000I1270000J0D01*
G01*
X31750000Y-125730000D02*
X31750000Y-125730000D01*
X31750000Y-91440000D02*
X31750000Y-125730000D01*
X31750000Y-91440000D02*
G75*
G02X32385000Y-90805000I635000J0D01*
G01*
X33655000Y-90170000D02*
G75*
G02X33020000Y-90805000I-635000J0D01*
G01*
X33020000Y-71755000D02*
G75*
G02X33655000Y-72390000I0J-635000D01*
G01*
X32385000Y-71755000D02*
G75*
G02X31750000Y-71120000I0J635000D01*
G01*
X33020000Y-71755000D02*
X32385000Y-71755000D01*
X33020000Y-90805000D02*
X32385000Y-90805000D01*
X33655000Y-81280000D02*
X33655000Y-90170000D01*
X33655000Y-81280000D02*
X33655000Y-72390000D01*
X62865000Y-91440000D02*
X62865000Y-118110000D01*
X60325000Y-118110000D02*
X60325000Y-91440000D01*
X62865000Y-118110000D02*
G75*
G02X60325000Y-118110000I-1270000J0D01*
G01*
X125730000Y-118110000D02*
G75*
G02X124460000Y-119380000I-1270000J0D01*
G01*
X123190000Y-119380000D02*
G75*
G02X121920000Y-118110000I0J1270000D01*
G01*
X124460000Y-110490000D02*
G75*
G02X125730000Y-111760000I0J-1270000D01*
G01*
X121920000Y-111760000D02*
G75*
G02X123190000Y-110490000I1270000J0D01*
G01*
X125730000Y-107950000D02*
G75*
G02X124460000Y-109220000I-1270000J0D01*
G01*
X123190000Y-109220000D02*
G75*
G02X121920000Y-107950000I0J1270000D01*
G01*
X124460000Y-100330000D02*
G75*
G02X125730000Y-101600000I0J-1270000D01*
G01*
X121920000Y-101600000D02*
G75*
G02X123190000Y-100330000I1270000J0D01*
G01*
X125730000Y-97790000D02*
G75*
G02X124460000Y-99060000I-1270000J0D01*
G01*
X123190000Y-99060000D02*
G75*
G02X121920000Y-97790000I0J1270000D01*
G01*
X124460000Y-90170000D02*
G75*
G02X125730000Y-91440000I0J-1270000D01*
G01*
X121920000Y-91440000D02*
G75*
G02X123190000Y-90170000I1270000J0D01*
G01*
X125730000Y-87630000D02*
G75*
G02X124460000Y-88900000I-1270000J0D01*
G01*
X123190000Y-88900000D02*
G75*
G02X121920000Y-87630000I0J1270000D01*
G01*
X124460000Y-80010000D02*
G75*
G02X125730000Y-81280000I0J-1270000D01*
G01*
X121920000Y-81280000D02*
G75*
G02X123190000Y-80010000I1270000J0D01*
G01*
X124460000Y-80010000D02*
X124460000Y-80010000D01*
X123190000Y-80010000D02*
X124460000Y-80010000D01*
X124460000Y-88900000D02*
X124460000Y-88900000D01*
X123190000Y-88900000D02*
X124460000Y-88900000D01*
X124460000Y-90170000D02*
X124460000Y-90170000D01*
X123190000Y-90170000D02*
X124460000Y-90170000D01*
X124460000Y-99060000D02*
X124460000Y-99060000D01*
X123190000Y-99060000D02*
X124460000Y-99060000D01*
X124460000Y-100330000D02*
X124460000Y-100330000D01*
X123190000Y-100330000D02*
X124460000Y-100330000D01*
X123190000Y-119380000D02*
X124460000Y-119380000D01*
X123190000Y-110490000D02*
X123190000Y-110490000D01*
X124460000Y-110490000D02*
X123190000Y-110490000D01*
X124460000Y-109220000D02*
X124460000Y-109220000D01*
X123190000Y-109220000D02*
X124460000Y-109220000D01*
X125730000Y-117475000D02*
X125730000Y-117475000D01*
X125730000Y-111760000D02*
X125730000Y-118110000D01*
X125730000Y-107950000D02*
X125730000Y-107950000D01*
X125730000Y-101600000D02*
X125730000Y-107950000D01*
X125730000Y-97790000D02*
X125730000Y-97790000D01*
X125730000Y-91440000D02*
X125730000Y-97790000D01*
X121920000Y-117475000D02*
X121920000Y-117475000D01*
X121920000Y-111760000D02*
X121920000Y-118110000D01*
X121920000Y-107950000D02*
X121920000Y-107950000D01*
X121920000Y-101600000D02*
X121920000Y-107950000D01*
X121920000Y-97790000D02*
X121920000Y-97790000D01*
X121920000Y-91440000D02*
X121920000Y-97790000D01*
X125730000Y-81280000D02*
X125730000Y-81280000D01*
X125730000Y-87630000D02*
X125730000Y-81280000D01*
X121920000Y-87630000D02*
X121920000Y-87630000D01*
X121920000Y-81280000D02*
X121920000Y-87630000D01*
X130810000Y-36830000D02*
X130810000Y-36830000D01*
X130810000Y-62230000D02*
X130810000Y-36830000D01*
X129540000Y-73660000D02*
G75*
G02X130810000Y-74930000I0J-1270000D01*
G01*
X130810000Y-62230000D02*
G75*
G02X129540000Y-63500000I-1270000J0D01*
G01*
X117475000Y-64135000D02*
G75*
G02X118110000Y-63500000I635000J0D01*
G01*
X118110000Y-73660000D02*
G75*
G02X117475000Y-73025000I0J635000D01*
G01*
X118110000Y-73660000D02*
X129540000Y-73660000D01*
X117475000Y-68580000D02*
X117475000Y-73025000D01*
X118110000Y-63500000D02*
X129540000Y-63500000D01*
X117475000Y-68580000D02*
X117475000Y-64135000D01*
X36830000Y-130810000D02*
G75*
G02X31750000Y-125730000I0J5080000D01*
G01*
X130810000Y-125730000D02*
G75*
G02X125730000Y-130810000I-5080000J0D01*
G01*
X125730000Y-31750000D02*
G75*
G02X130810000Y-36830000I0J-5080000D01*
G01*
X31750000Y-36830000D02*
G75*
G02X36830000Y-31750000I5080000J0D01*
G01*
X130810000Y-74930000D02*
X130810000Y-125730000D01*
X36830000Y-130810000D02*
X125730000Y-130810000D01*
X31750000Y-36830000D02*
X31750000Y-71120000D01*
X36830000Y-31750000D02*
X125730000Y-31750000D01*
M02*
