G04 #@! TF.GenerationSoftware,KiCad,Pcbnew,5.0.0-rc2-dev-unknown-c867de5~63~ubuntu17.10.1*
G04 #@! TF.CreationDate,2018-04-05T16:10:29+05:30*
G04 #@! TF.ProjectId,wyostat,77796F737461742E6B696361645F7063,rev?*
G04 #@! TF.SameCoordinates,Original*
G04 #@! TF.FileFunction,Soldermask,Top*
G04 #@! TF.FilePolarity,Negative*
%FSLAX46Y46*%
G04 Gerber Fmt 4.6, Leading zero omitted, Abs format (unit mm)*
G04 Created by KiCad (PCBNEW 5.0.0-rc2-dev-unknown-c867de5~63~ubuntu17.10.1) date Thu Apr  5 16:10:29 2018*
%MOMM*%
%LPD*%
G01*
G04 APERTURE LIST*
%ADD10C,0.177800*%
%ADD11C,0.203200*%
%ADD12C,0.508000*%
%ADD13C,1.500000*%
%ADD14O,2.600000X2.200000*%
%ADD15R,2.600000X2.200000*%
%ADD16R,1.800000X2.500000*%
%ADD17R,1.100000X1.700000*%
%ADD18R,1.400000X1.400000*%
%ADD19R,1.920000X2.180000*%
%ADD20R,5.480000X3.194000*%
%ADD21C,18.796000*%
%ADD22R,2.900000X1.400000*%
%ADD23R,3.448000X2.051000*%
%ADD24R,6.496000X6.496000*%
%ADD25C,2.940000*%
%ADD26C,2.178000*%
%ADD27R,1.950000X1.250000*%
%ADD28R,0.999440X2.398980*%
%ADD29R,1.200000X2.480000*%
%ADD30R,1.100000X0.700000*%
%ADD31R,1.400000X1.650000*%
%ADD32R,1.650000X1.400000*%
%ADD33R,1.700000X1.100000*%
%ADD34R,2.300000X1.600000*%
%ADD35O,2.300000X1.600000*%
%ADD36R,2.300000X1.900000*%
%ADD37C,1.850000*%
%ADD38R,1.750000X0.800000*%
%ADD39O,2.127200X2.432000*%
%ADD40R,2.127200X2.432000*%
%ADD41R,1.200000X1.200000*%
%ADD42R,6.000000X2.700000*%
%ADD43C,2.050000*%
%ADD44R,1.000000X1.100000*%
%ADD45C,1.200000*%
%ADD46C,6.800000*%
%ADD47R,2.900000X4.400000*%
G04 APERTURE END LIST*
D10*
X83650666Y-69151500D02*
X83947000Y-69151500D01*
X84074000Y-69617166D02*
X83650666Y-69617166D01*
X83650666Y-68728166D01*
X84074000Y-68728166D01*
X84370333Y-68728166D02*
X84963000Y-69617166D01*
X84963000Y-68728166D02*
X84370333Y-69617166D01*
X85174666Y-68728166D02*
X85682666Y-68728166D01*
X85428666Y-69617166D02*
X85428666Y-68728166D01*
X86656333Y-69024500D02*
X85979000Y-69278500D01*
X86656333Y-69532500D01*
X87249000Y-68728166D02*
X87418333Y-68728166D01*
X87503000Y-68770500D01*
X87587666Y-68855166D01*
X87630000Y-69024500D01*
X87630000Y-69320833D01*
X87587666Y-69490166D01*
X87503000Y-69574833D01*
X87418333Y-69617166D01*
X87249000Y-69617166D01*
X87164333Y-69574833D01*
X87079666Y-69490166D01*
X87037333Y-69320833D01*
X87037333Y-69024500D01*
X87079666Y-68855166D01*
X87164333Y-68770500D01*
X87249000Y-68728166D01*
X88307333Y-69151500D02*
X88011000Y-69151500D01*
X88011000Y-69617166D02*
X88011000Y-68728166D01*
X88434333Y-68728166D01*
X89069333Y-69151500D02*
X88773000Y-69151500D01*
X88773000Y-69617166D02*
X88773000Y-68728166D01*
X89196333Y-68728166D01*
X89535000Y-69024500D02*
X90212333Y-69278500D01*
X89535000Y-69532500D01*
X90635666Y-68728166D02*
X90635666Y-69447833D01*
X90678000Y-69532500D01*
X90720333Y-69574833D01*
X90805000Y-69617166D01*
X90974333Y-69617166D01*
X91059000Y-69574833D01*
X91101333Y-69532500D01*
X91143666Y-69447833D01*
X91143666Y-68728166D01*
X91524666Y-69574833D02*
X91651666Y-69617166D01*
X91863333Y-69617166D01*
X91948000Y-69574833D01*
X91990333Y-69532500D01*
X92032666Y-69447833D01*
X92032666Y-69363166D01*
X91990333Y-69278500D01*
X91948000Y-69236166D01*
X91863333Y-69193833D01*
X91694000Y-69151500D01*
X91609333Y-69109166D01*
X91567000Y-69066833D01*
X91524666Y-68982166D01*
X91524666Y-68897500D01*
X91567000Y-68812833D01*
X91609333Y-68770500D01*
X91694000Y-68728166D01*
X91905666Y-68728166D01*
X92032666Y-68770500D01*
X92710000Y-69151500D02*
X92837000Y-69193833D01*
X92879333Y-69236166D01*
X92921666Y-69320833D01*
X92921666Y-69447833D01*
X92879333Y-69532500D01*
X92837000Y-69574833D01*
X92752333Y-69617166D01*
X92413666Y-69617166D01*
X92413666Y-68728166D01*
X92710000Y-68728166D01*
X92794666Y-68770500D01*
X92837000Y-68812833D01*
X92879333Y-68897500D01*
X92879333Y-68982166D01*
X92837000Y-69066833D01*
X92794666Y-69109166D01*
X92710000Y-69151500D01*
X92413666Y-69151500D01*
D11*
X115539761Y-46929523D02*
X115539761Y-45659523D01*
X116144523Y-46929523D02*
X116144523Y-45659523D01*
X116870238Y-46929523D01*
X116870238Y-45659523D01*
X118200714Y-46808571D02*
X118140238Y-46869047D01*
X117958809Y-46929523D01*
X117837857Y-46929523D01*
X117656428Y-46869047D01*
X117535476Y-46748095D01*
X117475000Y-46627142D01*
X117414523Y-46385238D01*
X117414523Y-46203809D01*
X117475000Y-45961904D01*
X117535476Y-45840952D01*
X117656428Y-45720000D01*
X117837857Y-45659523D01*
X117958809Y-45659523D01*
X118140238Y-45720000D01*
X118200714Y-45780476D01*
X123038809Y-61504285D02*
X123462142Y-61504285D01*
X123643571Y-62169523D02*
X123038809Y-62169523D01*
X123038809Y-60899523D01*
X123643571Y-60899523D01*
X124187857Y-62169523D02*
X124187857Y-60899523D01*
X124913571Y-62169523D01*
X124913571Y-60899523D01*
X125336904Y-60899523D02*
X126062619Y-60899523D01*
X125699761Y-62169523D02*
X125699761Y-60899523D01*
X115297857Y-62169523D02*
X115297857Y-60899523D01*
X115600238Y-60899523D01*
X115781666Y-60960000D01*
X115902619Y-61080952D01*
X115963095Y-61201904D01*
X116023571Y-61443809D01*
X116023571Y-61625238D01*
X115963095Y-61867142D01*
X115902619Y-61988095D01*
X115781666Y-62109047D01*
X115600238Y-62169523D01*
X115297857Y-62169523D01*
X116567857Y-61504285D02*
X116991190Y-61504285D01*
X117172619Y-62169523D02*
X116567857Y-62169523D01*
X116567857Y-60899523D01*
X117172619Y-60899523D01*
X118442619Y-62048571D02*
X118382142Y-62109047D01*
X118200714Y-62169523D01*
X118079761Y-62169523D01*
X117898333Y-62109047D01*
X117777380Y-61988095D01*
X117716904Y-61867142D01*
X117656428Y-61625238D01*
X117656428Y-61443809D01*
X117716904Y-61201904D01*
X117777380Y-61080952D01*
X117898333Y-60960000D01*
X118079761Y-60899523D01*
X118200714Y-60899523D01*
X118382142Y-60960000D01*
X118442619Y-61020476D01*
X106921904Y-62169523D02*
X106921904Y-60899523D01*
X107345238Y-61806666D01*
X107768571Y-60899523D01*
X107768571Y-62169523D01*
X108615238Y-60899523D02*
X108857142Y-60899523D01*
X108978095Y-60960000D01*
X109099047Y-61080952D01*
X109159523Y-61322857D01*
X109159523Y-61746190D01*
X109099047Y-61988095D01*
X108978095Y-62109047D01*
X108857142Y-62169523D01*
X108615238Y-62169523D01*
X108494285Y-62109047D01*
X108373333Y-61988095D01*
X108312857Y-61746190D01*
X108312857Y-61322857D01*
X108373333Y-61080952D01*
X108494285Y-60960000D01*
X108615238Y-60899523D01*
X109703809Y-62169523D02*
X109703809Y-60899523D01*
X110006190Y-60899523D01*
X110187619Y-60960000D01*
X110308571Y-61080952D01*
X110369047Y-61201904D01*
X110429523Y-61443809D01*
X110429523Y-61625238D01*
X110369047Y-61867142D01*
X110308571Y-61988095D01*
X110187619Y-62109047D01*
X110006190Y-62169523D01*
X109703809Y-62169523D01*
X110973809Y-61504285D02*
X111397142Y-61504285D01*
X111578571Y-62169523D02*
X110973809Y-62169523D01*
X110973809Y-60899523D01*
X111578571Y-60899523D01*
X117414523Y-116809761D02*
X117414523Y-116567857D01*
X117475000Y-116446904D01*
X117595952Y-116325952D01*
X117837857Y-116265476D01*
X118261190Y-116265476D01*
X118503095Y-116325952D01*
X118624047Y-116446904D01*
X118684523Y-116567857D01*
X118684523Y-116809761D01*
X118624047Y-116930714D01*
X118503095Y-117051666D01*
X118261190Y-117112142D01*
X117837857Y-117112142D01*
X117595952Y-117051666D01*
X117475000Y-116930714D01*
X117414523Y-116809761D01*
X117414523Y-115721190D02*
X118442619Y-115721190D01*
X118563571Y-115660714D01*
X118624047Y-115600238D01*
X118684523Y-115479285D01*
X118684523Y-115237380D01*
X118624047Y-115116428D01*
X118563571Y-115055952D01*
X118442619Y-114995476D01*
X117414523Y-114995476D01*
X117414523Y-114572142D02*
X117414523Y-113846428D01*
X118684523Y-114209285D02*
X117414523Y-114209285D01*
X117414523Y-113544047D02*
X117414523Y-112757857D01*
X117898333Y-113181190D01*
X117898333Y-112999761D01*
X117958809Y-112878809D01*
X118019285Y-112818333D01*
X118140238Y-112757857D01*
X118442619Y-112757857D01*
X118563571Y-112818333D01*
X118624047Y-112878809D01*
X118684523Y-112999761D01*
X118684523Y-113362619D01*
X118624047Y-113483571D01*
X118563571Y-113544047D01*
X117414523Y-106649761D02*
X117414523Y-106407857D01*
X117475000Y-106286904D01*
X117595952Y-106165952D01*
X117837857Y-106105476D01*
X118261190Y-106105476D01*
X118503095Y-106165952D01*
X118624047Y-106286904D01*
X118684523Y-106407857D01*
X118684523Y-106649761D01*
X118624047Y-106770714D01*
X118503095Y-106891666D01*
X118261190Y-106952142D01*
X117837857Y-106952142D01*
X117595952Y-106891666D01*
X117475000Y-106770714D01*
X117414523Y-106649761D01*
X117414523Y-105561190D02*
X118442619Y-105561190D01*
X118563571Y-105500714D01*
X118624047Y-105440238D01*
X118684523Y-105319285D01*
X118684523Y-105077380D01*
X118624047Y-104956428D01*
X118563571Y-104895952D01*
X118442619Y-104835476D01*
X117414523Y-104835476D01*
X117414523Y-104412142D02*
X117414523Y-103686428D01*
X118684523Y-104049285D02*
X117414523Y-104049285D01*
X117535476Y-103323571D02*
X117475000Y-103263095D01*
X117414523Y-103142142D01*
X117414523Y-102839761D01*
X117475000Y-102718809D01*
X117535476Y-102658333D01*
X117656428Y-102597857D01*
X117777380Y-102597857D01*
X117958809Y-102658333D01*
X118684523Y-103384047D01*
X118684523Y-102597857D01*
X117414523Y-96489761D02*
X117414523Y-96247857D01*
X117475000Y-96126904D01*
X117595952Y-96005952D01*
X117837857Y-95945476D01*
X118261190Y-95945476D01*
X118503095Y-96005952D01*
X118624047Y-96126904D01*
X118684523Y-96247857D01*
X118684523Y-96489761D01*
X118624047Y-96610714D01*
X118503095Y-96731666D01*
X118261190Y-96792142D01*
X117837857Y-96792142D01*
X117595952Y-96731666D01*
X117475000Y-96610714D01*
X117414523Y-96489761D01*
X117414523Y-95401190D02*
X118442619Y-95401190D01*
X118563571Y-95340714D01*
X118624047Y-95280238D01*
X118684523Y-95159285D01*
X118684523Y-94917380D01*
X118624047Y-94796428D01*
X118563571Y-94735952D01*
X118442619Y-94675476D01*
X117414523Y-94675476D01*
X117414523Y-94252142D02*
X117414523Y-93526428D01*
X118684523Y-93889285D02*
X117414523Y-93889285D01*
X118684523Y-92437857D02*
X118684523Y-93163571D01*
X118684523Y-92800714D02*
X117414523Y-92800714D01*
X117595952Y-92921666D01*
X117716904Y-93042619D01*
X117777380Y-93163571D01*
X117535476Y-87146190D02*
X117475000Y-87085714D01*
X117414523Y-86964761D01*
X117414523Y-86662380D01*
X117475000Y-86541428D01*
X117535476Y-86480952D01*
X117656428Y-86420476D01*
X117777380Y-86420476D01*
X117958809Y-86480952D01*
X118684523Y-87206666D01*
X118684523Y-86420476D01*
X117837857Y-85331904D02*
X118684523Y-85331904D01*
X117354047Y-85634285D02*
X118261190Y-85936666D01*
X118261190Y-85150476D01*
X117414523Y-84848095D02*
X118684523Y-84424761D01*
X117414523Y-84001428D01*
X118321666Y-83638571D02*
X118321666Y-83033809D01*
X118684523Y-83759523D02*
X117414523Y-83336190D01*
X118684523Y-82912857D01*
X118563571Y-81763809D02*
X118624047Y-81824285D01*
X118684523Y-82005714D01*
X118684523Y-82126666D01*
X118624047Y-82308095D01*
X118503095Y-82429047D01*
X118382142Y-82489523D01*
X118140238Y-82550000D01*
X117958809Y-82550000D01*
X117716904Y-82489523D01*
X117595952Y-82429047D01*
X117475000Y-82308095D01*
X117414523Y-82126666D01*
X117414523Y-82005714D01*
X117475000Y-81824285D01*
X117535476Y-81763809D01*
X126641376Y-110157380D02*
X126580900Y-110096904D01*
X126520423Y-109975952D01*
X126520423Y-109673571D01*
X126580900Y-109552619D01*
X126641376Y-109492142D01*
X126762328Y-109431666D01*
X126883280Y-109431666D01*
X127064709Y-109492142D01*
X127790423Y-110217857D01*
X127790423Y-109431666D01*
X126943757Y-108343095D02*
X127790423Y-108343095D01*
X126459947Y-108645476D02*
X127367090Y-108947857D01*
X127367090Y-108161666D01*
X126520423Y-107859285D02*
X127790423Y-107435952D01*
X126520423Y-107012619D01*
X127427566Y-106649761D02*
X127427566Y-106045000D01*
X127790423Y-106770714D02*
X126520423Y-106347380D01*
X127790423Y-105924047D01*
X127669471Y-104775000D02*
X127729947Y-104835476D01*
X127790423Y-105016904D01*
X127790423Y-105137857D01*
X127729947Y-105319285D01*
X127608995Y-105440238D01*
X127488042Y-105500714D01*
X127246138Y-105561190D01*
X127064709Y-105561190D01*
X126822804Y-105500714D01*
X126701852Y-105440238D01*
X126580900Y-105319285D01*
X126520423Y-105137857D01*
X126520423Y-105016904D01*
X126580900Y-104835476D01*
X126641376Y-104775000D01*
X127790423Y-103263095D02*
X126520423Y-103263095D01*
X127427566Y-102839761D01*
X126520423Y-102416428D01*
X127790423Y-102416428D01*
X127427566Y-101872142D02*
X127427566Y-101267380D01*
X127790423Y-101993095D02*
X126520423Y-101569761D01*
X127790423Y-101146428D01*
X126520423Y-100844047D02*
X127790423Y-99997380D01*
X126520423Y-99997380D02*
X127790423Y-100844047D01*
X127669471Y-99513571D02*
X127729947Y-99453095D01*
X127790423Y-99513571D01*
X127729947Y-99574047D01*
X127669471Y-99513571D01*
X127790423Y-99513571D01*
X127729947Y-98848333D02*
X127790423Y-98848333D01*
X127911376Y-98908809D01*
X127971852Y-98969285D01*
X127790423Y-97336428D02*
X126520423Y-97336428D01*
X127729947Y-96792142D02*
X127790423Y-96610714D01*
X127790423Y-96308333D01*
X127729947Y-96187380D01*
X127669471Y-96126904D01*
X127548519Y-96066428D01*
X127427566Y-96066428D01*
X127306614Y-96126904D01*
X127246138Y-96187380D01*
X127185661Y-96308333D01*
X127125185Y-96550238D01*
X127064709Y-96671190D01*
X127004233Y-96731666D01*
X126883280Y-96792142D01*
X126762328Y-96792142D01*
X126641376Y-96731666D01*
X126580900Y-96671190D01*
X126520423Y-96550238D01*
X126520423Y-96247857D01*
X126580900Y-96066428D01*
X126520423Y-95280238D02*
X126520423Y-95038333D01*
X126580900Y-94917380D01*
X126701852Y-94796428D01*
X126943757Y-94735952D01*
X127367090Y-94735952D01*
X127608995Y-94796428D01*
X127729947Y-94917380D01*
X127790423Y-95038333D01*
X127790423Y-95280238D01*
X127729947Y-95401190D01*
X127608995Y-95522142D01*
X127367090Y-95582619D01*
X126943757Y-95582619D01*
X126701852Y-95522142D01*
X126580900Y-95401190D01*
X126520423Y-95280238D01*
X127790423Y-93586904D02*
X127790423Y-94191666D01*
X126520423Y-94191666D01*
X127427566Y-93224047D02*
X127427566Y-92619285D01*
X127790423Y-93345000D02*
X126520423Y-92921666D01*
X127790423Y-92498333D01*
X126520423Y-92256428D02*
X126520423Y-91530714D01*
X127790423Y-91893571D02*
X126520423Y-91893571D01*
X127125185Y-91107380D02*
X127125185Y-90684047D01*
X127790423Y-90502619D02*
X127790423Y-91107380D01*
X126520423Y-91107380D01*
X126520423Y-90502619D01*
X127790423Y-89958333D02*
X126520423Y-89958333D01*
X126520423Y-89655952D01*
X126580900Y-89474523D01*
X126701852Y-89353571D01*
X126822804Y-89293095D01*
X127064709Y-89232619D01*
X127246138Y-89232619D01*
X127488042Y-89293095D01*
X127608995Y-89353571D01*
X127729947Y-89474523D01*
X127790423Y-89655952D01*
X127790423Y-89958333D01*
X129898623Y-111820476D02*
X128628623Y-111820476D01*
X128628623Y-111518095D01*
X128689100Y-111336666D01*
X128810052Y-111215714D01*
X128931004Y-111155238D01*
X129172909Y-111094761D01*
X129354338Y-111094761D01*
X129596242Y-111155238D01*
X129717195Y-111215714D01*
X129838147Y-111336666D01*
X129898623Y-111518095D01*
X129898623Y-111820476D01*
X128628623Y-110308571D02*
X128628623Y-110066666D01*
X128689100Y-109945714D01*
X128810052Y-109824761D01*
X129051957Y-109764285D01*
X129475290Y-109764285D01*
X129717195Y-109824761D01*
X129838147Y-109945714D01*
X129898623Y-110066666D01*
X129898623Y-110308571D01*
X129838147Y-110429523D01*
X129717195Y-110550476D01*
X129475290Y-110610952D01*
X129051957Y-110610952D01*
X128810052Y-110550476D01*
X128689100Y-110429523D01*
X128628623Y-110308571D01*
X129898623Y-108252380D02*
X128628623Y-108252380D01*
X129898623Y-107526666D01*
X128628623Y-107526666D01*
X128628623Y-106680000D02*
X128628623Y-106438095D01*
X128689100Y-106317142D01*
X128810052Y-106196190D01*
X129051957Y-106135714D01*
X129475290Y-106135714D01*
X129717195Y-106196190D01*
X129838147Y-106317142D01*
X129898623Y-106438095D01*
X129898623Y-106680000D01*
X129838147Y-106800952D01*
X129717195Y-106921904D01*
X129475290Y-106982380D01*
X129051957Y-106982380D01*
X128810052Y-106921904D01*
X128689100Y-106800952D01*
X128628623Y-106680000D01*
X128628623Y-105772857D02*
X128628623Y-105047142D01*
X129898623Y-105410000D02*
X128628623Y-105410000D01*
X129777671Y-102930476D02*
X129838147Y-102990952D01*
X129898623Y-103172380D01*
X129898623Y-103293333D01*
X129838147Y-103474761D01*
X129717195Y-103595714D01*
X129596242Y-103656190D01*
X129354338Y-103716666D01*
X129172909Y-103716666D01*
X128931004Y-103656190D01*
X128810052Y-103595714D01*
X128689100Y-103474761D01*
X128628623Y-103293333D01*
X128628623Y-103172380D01*
X128689100Y-102990952D01*
X128749576Y-102930476D01*
X128628623Y-102144285D02*
X128628623Y-101902380D01*
X128689100Y-101781428D01*
X128810052Y-101660476D01*
X129051957Y-101600000D01*
X129475290Y-101600000D01*
X129717195Y-101660476D01*
X129838147Y-101781428D01*
X129898623Y-101902380D01*
X129898623Y-102144285D01*
X129838147Y-102265238D01*
X129717195Y-102386190D01*
X129475290Y-102446666D01*
X129051957Y-102446666D01*
X128810052Y-102386190D01*
X128689100Y-102265238D01*
X128628623Y-102144285D01*
X129898623Y-101055714D02*
X128628623Y-101055714D01*
X129898623Y-100330000D01*
X128628623Y-100330000D01*
X129898623Y-99725238D02*
X128628623Y-99725238D01*
X129898623Y-98999523D01*
X128628623Y-98999523D01*
X129233385Y-98394761D02*
X129233385Y-97971428D01*
X129898623Y-97790000D02*
X129898623Y-98394761D01*
X128628623Y-98394761D01*
X128628623Y-97790000D01*
X129777671Y-96520000D02*
X129838147Y-96580476D01*
X129898623Y-96761904D01*
X129898623Y-96882857D01*
X129838147Y-97064285D01*
X129717195Y-97185238D01*
X129596242Y-97245714D01*
X129354338Y-97306190D01*
X129172909Y-97306190D01*
X128931004Y-97245714D01*
X128810052Y-97185238D01*
X128689100Y-97064285D01*
X128628623Y-96882857D01*
X128628623Y-96761904D01*
X128689100Y-96580476D01*
X128749576Y-96520000D01*
X128628623Y-96157142D02*
X128628623Y-95431428D01*
X129898623Y-95794285D02*
X128628623Y-95794285D01*
X129898623Y-93375238D02*
X129898623Y-94100952D01*
X129898623Y-93738095D02*
X128628623Y-93738095D01*
X128810052Y-93859047D01*
X128931004Y-93980000D01*
X128991480Y-94100952D01*
X129898623Y-92165714D02*
X129898623Y-92891428D01*
X129898623Y-92528571D02*
X128628623Y-92528571D01*
X128810052Y-92649523D01*
X128931004Y-92770476D01*
X128991480Y-92891428D01*
X128628623Y-91016666D02*
X128628623Y-91621428D01*
X129233385Y-91681904D01*
X129172909Y-91621428D01*
X129112433Y-91500476D01*
X129112433Y-91198095D01*
X129172909Y-91077142D01*
X129233385Y-91016666D01*
X129354338Y-90956190D01*
X129656719Y-90956190D01*
X129777671Y-91016666D01*
X129838147Y-91077142D01*
X129898623Y-91198095D01*
X129898623Y-91500476D01*
X129838147Y-91621428D01*
X129777671Y-91681904D01*
X128628623Y-90593333D02*
X129898623Y-90170000D01*
X128628623Y-89746666D01*
X129535766Y-89383809D02*
X129535766Y-88779047D01*
X129898623Y-89504761D02*
X128628623Y-89081428D01*
X129898623Y-88658095D01*
X129777671Y-87509047D02*
X129838147Y-87569523D01*
X129898623Y-87750952D01*
X129898623Y-87871904D01*
X129838147Y-88053333D01*
X129717195Y-88174285D01*
X129596242Y-88234761D01*
X129354338Y-88295238D01*
X129172909Y-88295238D01*
X128931004Y-88234761D01*
X128810052Y-88174285D01*
X128689100Y-88053333D01*
X128628623Y-87871904D01*
X128628623Y-87750952D01*
X128689100Y-87569523D01*
X128749576Y-87509047D01*
D12*
X71210714Y-124913571D02*
X71936428Y-127453571D01*
X72662142Y-125639285D01*
X73387857Y-127453571D01*
X74113571Y-124913571D01*
X75202142Y-124913571D02*
X76109285Y-127453571D01*
X77016428Y-124913571D02*
X76109285Y-127453571D01*
X75746428Y-128360714D01*
X75565000Y-128542142D01*
X75202142Y-128723571D01*
X79012142Y-127453571D02*
X78649285Y-127272142D01*
X78467857Y-127090714D01*
X78286428Y-126727857D01*
X78286428Y-125639285D01*
X78467857Y-125276428D01*
X78649285Y-125095000D01*
X79012142Y-124913571D01*
X79556428Y-124913571D01*
X79919285Y-125095000D01*
X80100714Y-125276428D01*
X80282142Y-125639285D01*
X80282142Y-126727857D01*
X80100714Y-127090714D01*
X79919285Y-127272142D01*
X79556428Y-127453571D01*
X79012142Y-127453571D01*
X81733571Y-127272142D02*
X82096428Y-127453571D01*
X82822142Y-127453571D01*
X83185000Y-127272142D01*
X83366428Y-126909285D01*
X83366428Y-126727857D01*
X83185000Y-126365000D01*
X82822142Y-126183571D01*
X82277857Y-126183571D01*
X81915000Y-126002142D01*
X81733571Y-125639285D01*
X81733571Y-125457857D01*
X81915000Y-125095000D01*
X82277857Y-124913571D01*
X82822142Y-124913571D01*
X83185000Y-125095000D01*
X84455000Y-124913571D02*
X85906428Y-124913571D01*
X84999285Y-123643571D02*
X84999285Y-126909285D01*
X85180714Y-127272142D01*
X85543571Y-127453571D01*
X85906428Y-127453571D01*
X88809285Y-127453571D02*
X88809285Y-125457857D01*
X88627857Y-125095000D01*
X88265000Y-124913571D01*
X87539285Y-124913571D01*
X87176428Y-125095000D01*
X88809285Y-127272142D02*
X88446428Y-127453571D01*
X87539285Y-127453571D01*
X87176428Y-127272142D01*
X86995000Y-126909285D01*
X86995000Y-126546428D01*
X87176428Y-126183571D01*
X87539285Y-126002142D01*
X88446428Y-126002142D01*
X88809285Y-125820714D01*
X90079285Y-124913571D02*
X91530714Y-124913571D01*
X90623571Y-123643571D02*
X90623571Y-126909285D01*
X90805000Y-127272142D01*
X91167857Y-127453571D01*
X91530714Y-127453571D01*
D11*
X121224523Y-117505238D02*
X119954523Y-117505238D01*
X120559285Y-117505238D02*
X120559285Y-116779523D01*
X121224523Y-116779523D02*
X119954523Y-116779523D01*
X121647857Y-114904761D02*
X119833571Y-114904761D01*
X121103571Y-112304285D02*
X121164047Y-112364761D01*
X121224523Y-112546190D01*
X121224523Y-112667142D01*
X121164047Y-112848571D01*
X121043095Y-112969523D01*
X120922142Y-113030000D01*
X120680238Y-113090476D01*
X120498809Y-113090476D01*
X120256904Y-113030000D01*
X120135952Y-112969523D01*
X120015000Y-112848571D01*
X119954523Y-112667142D01*
X119954523Y-112546190D01*
X120015000Y-112364761D01*
X120075476Y-112304285D01*
X121224523Y-107345238D02*
X119954523Y-107345238D01*
X120559285Y-107345238D02*
X120559285Y-106619523D01*
X121224523Y-106619523D02*
X119954523Y-106619523D01*
X121647857Y-104744761D02*
X119833571Y-104744761D01*
X121103571Y-102144285D02*
X121164047Y-102204761D01*
X121224523Y-102386190D01*
X121224523Y-102507142D01*
X121164047Y-102688571D01*
X121043095Y-102809523D01*
X120922142Y-102870000D01*
X120680238Y-102930476D01*
X120498809Y-102930476D01*
X120256904Y-102870000D01*
X120135952Y-102809523D01*
X120015000Y-102688571D01*
X119954523Y-102507142D01*
X119954523Y-102386190D01*
X120015000Y-102204761D01*
X120075476Y-102144285D01*
X121224523Y-97185238D02*
X119954523Y-97185238D01*
X120559285Y-97185238D02*
X120559285Y-96459523D01*
X121224523Y-96459523D02*
X119954523Y-96459523D01*
X121647857Y-94584761D02*
X119833571Y-94584761D01*
X121103571Y-91984285D02*
X121164047Y-92044761D01*
X121224523Y-92226190D01*
X121224523Y-92347142D01*
X121164047Y-92528571D01*
X121043095Y-92649523D01*
X120922142Y-92710000D01*
X120680238Y-92770476D01*
X120498809Y-92770476D01*
X120256904Y-92710000D01*
X120135952Y-92649523D01*
X120015000Y-92528571D01*
X119954523Y-92347142D01*
X119954523Y-92226190D01*
X120015000Y-92044761D01*
X120075476Y-91984285D01*
X121224523Y-87025238D02*
X119954523Y-87025238D01*
X120559285Y-87025238D02*
X120559285Y-86299523D01*
X121224523Y-86299523D02*
X119954523Y-86299523D01*
X121647857Y-84424761D02*
X119833571Y-84424761D01*
X121103571Y-81824285D02*
X121164047Y-81884761D01*
X121224523Y-82066190D01*
X121224523Y-82187142D01*
X121164047Y-82368571D01*
X121043095Y-82489523D01*
X120922142Y-82550000D01*
X120680238Y-82610476D01*
X120498809Y-82610476D01*
X120256904Y-82550000D01*
X120135952Y-82489523D01*
X120015000Y-82368571D01*
X119954523Y-82187142D01*
X119954523Y-82066190D01*
X120015000Y-81884761D01*
X120075476Y-81824285D01*
D13*
X115570000Y-122555000D03*
X115570000Y-127635000D03*
X115570000Y-125095000D03*
D14*
X113030000Y-125095000D03*
D15*
X113030000Y-127635000D03*
D14*
X113030000Y-122555000D03*
X113030000Y-93345000D03*
D15*
X113030000Y-95885000D03*
D13*
X115570000Y-95885000D03*
X115570000Y-93345000D03*
D14*
X113030000Y-83185000D03*
D15*
X113030000Y-85725000D03*
D13*
X115570000Y-85725000D03*
X115570000Y-83185000D03*
D14*
X113030000Y-103505000D03*
D15*
X113030000Y-106045000D03*
D13*
X115570000Y-106045000D03*
X115570000Y-103505000D03*
D14*
X113030000Y-113665000D03*
D15*
X113030000Y-116205000D03*
D13*
X115570000Y-116205000D03*
X115570000Y-113665000D03*
D16*
X122210000Y-58525000D03*
X126710000Y-58525000D03*
X126710000Y-49425000D03*
X122210000Y-49425000D03*
X114590000Y-58525000D03*
X119090000Y-58525000D03*
X119090000Y-49425000D03*
X114590000Y-49425000D03*
X111470000Y-49425000D03*
X106970000Y-49425000D03*
X106970000Y-58525000D03*
X111470000Y-58525000D03*
X114590000Y-43285000D03*
X119090000Y-43285000D03*
X119090000Y-34185000D03*
X114590000Y-34185000D03*
D17*
X50480000Y-94615000D03*
X48580000Y-94615000D03*
X48580000Y-97155000D03*
X50480000Y-97155000D03*
X48580000Y-107315000D03*
X50480000Y-107315000D03*
X48580000Y-117475000D03*
X50480000Y-117475000D03*
D18*
X100945000Y-74295000D03*
X98445000Y-74295000D03*
D19*
X57090000Y-92075000D03*
X57090000Y-94615000D03*
X57090000Y-97155000D03*
X66100000Y-97155000D03*
X66100000Y-94615000D03*
X66100000Y-92075000D03*
D17*
X70170000Y-104775000D03*
X72070000Y-104775000D03*
D20*
X42545000Y-92202000D03*
X42545000Y-70358000D03*
D21*
X42545000Y-81280000D03*
D22*
X102235000Y-93750000D03*
X102235000Y-96750000D03*
X102235000Y-103910000D03*
X102235000Y-106910000D03*
X102235000Y-114070000D03*
X102235000Y-117070000D03*
D23*
X83820000Y-92329000D03*
D24*
X90170000Y-94615000D03*
D23*
X83820000Y-96901000D03*
X83820000Y-102489000D03*
D24*
X90170000Y-104775000D03*
D23*
X83820000Y-107061000D03*
X83820000Y-112649000D03*
D24*
X90170000Y-114935000D03*
D23*
X83820000Y-117221000D03*
D25*
X43815000Y-35560000D03*
X102235000Y-35560000D03*
X102235000Y-58420000D03*
X43815000Y-58420000D03*
D26*
X46355000Y-59690000D03*
X48895000Y-59690000D03*
X51435000Y-59690000D03*
X53975000Y-59690000D03*
X56515000Y-59690000D03*
X59055000Y-59690000D03*
X61595000Y-59690000D03*
X64135000Y-59690000D03*
X66675000Y-59690000D03*
X69215000Y-59690000D03*
X84455000Y-34290000D03*
X81915000Y-34290000D03*
X79375000Y-34290000D03*
X76835000Y-34290000D03*
X74295000Y-34290000D03*
X71755000Y-34290000D03*
X69215000Y-34290000D03*
X66675000Y-34290000D03*
X64135000Y-34290000D03*
X61595000Y-34290000D03*
X59055000Y-34290000D03*
X56515000Y-34290000D03*
X53975000Y-34290000D03*
X51435000Y-34290000D03*
X48895000Y-34290000D03*
X46355000Y-34290000D03*
D27*
X94390000Y-79280000D03*
X94390000Y-83280000D03*
X88490000Y-83280000D03*
X88490000Y-79280000D03*
D28*
X57785000Y-63929260D03*
X59055000Y-63929260D03*
X60325000Y-63929260D03*
X61595000Y-63929260D03*
X62865000Y-63929260D03*
X64135000Y-63929260D03*
X65405000Y-63929260D03*
X66675000Y-63929260D03*
X66675000Y-73230740D03*
X65405000Y-73230740D03*
X64135000Y-73230740D03*
X62865000Y-73230740D03*
X61595000Y-73230740D03*
X60325000Y-73230740D03*
X59055000Y-73230740D03*
X57785000Y-73230740D03*
D29*
X67056000Y-79502000D03*
D30*
X66066000Y-80502000D03*
X66066000Y-80002000D03*
X66066000Y-79502000D03*
X66066000Y-79002000D03*
X66066000Y-78502000D03*
X68046000Y-78502000D03*
X68046000Y-79002000D03*
X68046000Y-79502000D03*
X68046000Y-80002000D03*
X68046000Y-80502000D03*
D12*
G36*
X76797870Y-67493622D02*
X76850727Y-67501462D01*
X76902560Y-67514446D01*
X76952871Y-67532448D01*
X77001176Y-67555294D01*
X77047008Y-67582765D01*
X77089927Y-67614596D01*
X77129520Y-67650480D01*
X77165404Y-67690073D01*
X77197235Y-67732992D01*
X77224706Y-67778824D01*
X77247552Y-67827129D01*
X77265554Y-67877440D01*
X77278538Y-67929273D01*
X77286378Y-67982130D01*
X77289000Y-68035500D01*
X77289000Y-69124500D01*
X77286378Y-69177870D01*
X77278538Y-69230727D01*
X77265554Y-69282560D01*
X77247552Y-69332871D01*
X77224706Y-69381176D01*
X77197235Y-69427008D01*
X77165404Y-69469927D01*
X77129520Y-69509520D01*
X77089927Y-69545404D01*
X77047008Y-69577235D01*
X77001176Y-69604706D01*
X76952871Y-69627552D01*
X76902560Y-69645554D01*
X76850727Y-69658538D01*
X76797870Y-69666378D01*
X76744500Y-69669000D01*
X75655500Y-69669000D01*
X75602130Y-69666378D01*
X75549273Y-69658538D01*
X75497440Y-69645554D01*
X75447129Y-69627552D01*
X75398824Y-69604706D01*
X75352992Y-69577235D01*
X75310073Y-69545404D01*
X75270480Y-69509520D01*
X75234596Y-69469927D01*
X75202765Y-69427008D01*
X75175294Y-69381176D01*
X75152448Y-69332871D01*
X75134446Y-69282560D01*
X75121462Y-69230727D01*
X75113622Y-69177870D01*
X75111000Y-69124500D01*
X75111000Y-68035500D01*
X75113622Y-67982130D01*
X75121462Y-67929273D01*
X75134446Y-67877440D01*
X75152448Y-67827129D01*
X75175294Y-67778824D01*
X75202765Y-67732992D01*
X75234596Y-67690073D01*
X75270480Y-67650480D01*
X75310073Y-67614596D01*
X75352992Y-67582765D01*
X75398824Y-67555294D01*
X75447129Y-67532448D01*
X75497440Y-67514446D01*
X75549273Y-67501462D01*
X75602130Y-67493622D01*
X75655500Y-67491000D01*
X76744500Y-67491000D01*
X76797870Y-67493622D01*
X76797870Y-67493622D01*
G37*
D26*
X76200000Y-68580000D03*
D12*
G36*
X74257870Y-67493622D02*
X74310727Y-67501462D01*
X74362560Y-67514446D01*
X74412871Y-67532448D01*
X74461176Y-67555294D01*
X74507008Y-67582765D01*
X74549927Y-67614596D01*
X74589520Y-67650480D01*
X74625404Y-67690073D01*
X74657235Y-67732992D01*
X74684706Y-67778824D01*
X74707552Y-67827129D01*
X74725554Y-67877440D01*
X74738538Y-67929273D01*
X74746378Y-67982130D01*
X74749000Y-68035500D01*
X74749000Y-69124500D01*
X74746378Y-69177870D01*
X74738538Y-69230727D01*
X74725554Y-69282560D01*
X74707552Y-69332871D01*
X74684706Y-69381176D01*
X74657235Y-69427008D01*
X74625404Y-69469927D01*
X74589520Y-69509520D01*
X74549927Y-69545404D01*
X74507008Y-69577235D01*
X74461176Y-69604706D01*
X74412871Y-69627552D01*
X74362560Y-69645554D01*
X74310727Y-69658538D01*
X74257870Y-69666378D01*
X74204500Y-69669000D01*
X73115500Y-69669000D01*
X73062130Y-69666378D01*
X73009273Y-69658538D01*
X72957440Y-69645554D01*
X72907129Y-69627552D01*
X72858824Y-69604706D01*
X72812992Y-69577235D01*
X72770073Y-69545404D01*
X72730480Y-69509520D01*
X72694596Y-69469927D01*
X72662765Y-69427008D01*
X72635294Y-69381176D01*
X72612448Y-69332871D01*
X72594446Y-69282560D01*
X72581462Y-69230727D01*
X72573622Y-69177870D01*
X72571000Y-69124500D01*
X72571000Y-68035500D01*
X72573622Y-67982130D01*
X72581462Y-67929273D01*
X72594446Y-67877440D01*
X72612448Y-67827129D01*
X72635294Y-67778824D01*
X72662765Y-67732992D01*
X72694596Y-67690073D01*
X72730480Y-67650480D01*
X72770073Y-67614596D01*
X72812992Y-67582765D01*
X72858824Y-67555294D01*
X72907129Y-67532448D01*
X72957440Y-67514446D01*
X73009273Y-67501462D01*
X73062130Y-67493622D01*
X73115500Y-67491000D01*
X74204500Y-67491000D01*
X74257870Y-67493622D01*
X74257870Y-67493622D01*
G37*
D26*
X73660000Y-68580000D03*
D12*
G36*
X71717870Y-67493622D02*
X71770727Y-67501462D01*
X71822560Y-67514446D01*
X71872871Y-67532448D01*
X71921176Y-67555294D01*
X71967008Y-67582765D01*
X72009927Y-67614596D01*
X72049520Y-67650480D01*
X72085404Y-67690073D01*
X72117235Y-67732992D01*
X72144706Y-67778824D01*
X72167552Y-67827129D01*
X72185554Y-67877440D01*
X72198538Y-67929273D01*
X72206378Y-67982130D01*
X72209000Y-68035500D01*
X72209000Y-69124500D01*
X72206378Y-69177870D01*
X72198538Y-69230727D01*
X72185554Y-69282560D01*
X72167552Y-69332871D01*
X72144706Y-69381176D01*
X72117235Y-69427008D01*
X72085404Y-69469927D01*
X72049520Y-69509520D01*
X72009927Y-69545404D01*
X71967008Y-69577235D01*
X71921176Y-69604706D01*
X71872871Y-69627552D01*
X71822560Y-69645554D01*
X71770727Y-69658538D01*
X71717870Y-69666378D01*
X71664500Y-69669000D01*
X70575500Y-69669000D01*
X70522130Y-69666378D01*
X70469273Y-69658538D01*
X70417440Y-69645554D01*
X70367129Y-69627552D01*
X70318824Y-69604706D01*
X70272992Y-69577235D01*
X70230073Y-69545404D01*
X70190480Y-69509520D01*
X70154596Y-69469927D01*
X70122765Y-69427008D01*
X70095294Y-69381176D01*
X70072448Y-69332871D01*
X70054446Y-69282560D01*
X70041462Y-69230727D01*
X70033622Y-69177870D01*
X70031000Y-69124500D01*
X70031000Y-68035500D01*
X70033622Y-67982130D01*
X70041462Y-67929273D01*
X70054446Y-67877440D01*
X70072448Y-67827129D01*
X70095294Y-67778824D01*
X70122765Y-67732992D01*
X70154596Y-67690073D01*
X70190480Y-67650480D01*
X70230073Y-67614596D01*
X70272992Y-67582765D01*
X70318824Y-67555294D01*
X70367129Y-67532448D01*
X70417440Y-67514446D01*
X70469273Y-67501462D01*
X70522130Y-67493622D01*
X70575500Y-67491000D01*
X71664500Y-67491000D01*
X71717870Y-67493622D01*
X71717870Y-67493622D01*
G37*
D26*
X71120000Y-68580000D03*
D31*
X53610000Y-68580000D03*
X55610000Y-68580000D03*
D32*
X85725000Y-80280000D03*
X85725000Y-82280000D03*
D31*
X71993000Y-82931000D03*
X69993000Y-82931000D03*
X69866000Y-78486000D03*
X71866000Y-78486000D03*
X64500000Y-76581000D03*
X62500000Y-76581000D03*
X66310000Y-82931000D03*
X68310000Y-82931000D03*
X38719000Y-61341000D03*
X36719000Y-61341000D03*
D32*
X95885000Y-72380600D03*
X95885000Y-74380600D03*
D17*
X70170000Y-92075000D03*
X72070000Y-92075000D03*
X54290000Y-97155000D03*
X52390000Y-97155000D03*
X70170000Y-94615000D03*
X72070000Y-94615000D03*
D33*
X98425000Y-93660000D03*
X98425000Y-91760000D03*
D17*
X70170000Y-102235000D03*
X72070000Y-102235000D03*
X50480000Y-104775000D03*
X48580000Y-104775000D03*
X54290000Y-107315000D03*
X52390000Y-107315000D03*
D33*
X98425000Y-103820000D03*
X98425000Y-101920000D03*
D17*
X70170000Y-112395000D03*
X72070000Y-112395000D03*
X50480000Y-114935000D03*
X48580000Y-114935000D03*
X54290000Y-117475000D03*
X52390000Y-117475000D03*
X70170000Y-114935000D03*
X72070000Y-114935000D03*
D33*
X98425000Y-113980000D03*
X98425000Y-112080000D03*
X66675000Y-39177000D03*
X66675000Y-37277000D03*
X69215000Y-39177000D03*
X69215000Y-37277000D03*
X64135000Y-39177000D03*
X64135000Y-37277000D03*
X61595000Y-39177000D03*
X61595000Y-37277000D03*
D17*
X98745000Y-72390000D03*
X100645000Y-72390000D03*
X100645000Y-64770000D03*
X98745000Y-64770000D03*
X100645000Y-70485000D03*
X98745000Y-70485000D03*
X100645000Y-68580000D03*
X98745000Y-68580000D03*
X100645000Y-66675000D03*
X98745000Y-66675000D03*
X55560000Y-76200000D03*
X53660000Y-76200000D03*
X55560000Y-73025000D03*
X53660000Y-73025000D03*
X55560000Y-64135000D03*
X53660000Y-64135000D03*
X55560000Y-66040000D03*
X53660000Y-66040000D03*
D34*
X115920000Y-71480000D03*
X115920000Y-65680000D03*
D35*
X115920000Y-65080000D03*
X115920000Y-72080000D03*
D36*
X115920000Y-69580000D03*
D37*
X113220000Y-66080000D03*
D38*
X113220000Y-68580000D03*
X113220000Y-67930000D03*
X113220000Y-67280000D03*
X113220000Y-69880000D03*
X113220000Y-69230000D03*
D37*
X113220000Y-71080000D03*
D36*
X115920000Y-67580000D03*
D19*
X57090000Y-102235000D03*
X57090000Y-104775000D03*
X57090000Y-107315000D03*
X66100000Y-107315000D03*
X66100000Y-104775000D03*
X66100000Y-102235000D03*
X57090000Y-112395000D03*
X57090000Y-114935000D03*
X57090000Y-117475000D03*
X66100000Y-117475000D03*
X66100000Y-114935000D03*
X66100000Y-112395000D03*
D39*
X36449000Y-64262000D03*
X38989000Y-64262000D03*
X41529000Y-64262000D03*
D40*
X44069000Y-64262000D03*
D41*
X52540000Y-94615000D03*
X54140000Y-94615000D03*
X52540000Y-104775000D03*
X54140000Y-104775000D03*
X52540000Y-114935000D03*
X54140000Y-114935000D03*
D42*
X99568000Y-77580000D03*
X99568000Y-84980000D03*
D40*
X92075000Y-72390000D03*
D39*
X89535000Y-72390000D03*
X86995000Y-72390000D03*
X84455000Y-72390000D03*
D12*
G36*
X57362122Y-83754701D02*
X57411872Y-83762081D01*
X57460659Y-83774301D01*
X57508013Y-83791245D01*
X57553479Y-83812748D01*
X57596618Y-83838605D01*
X57637015Y-83868565D01*
X57674280Y-83902341D01*
X59353659Y-85581720D01*
X59387435Y-85618985D01*
X59417395Y-85659382D01*
X59443252Y-85702521D01*
X59464755Y-85747987D01*
X59481699Y-85795341D01*
X59493919Y-85844128D01*
X59501299Y-85893878D01*
X59503767Y-85944112D01*
X59501299Y-85994346D01*
X59493919Y-86044096D01*
X59481699Y-86092883D01*
X59464755Y-86140237D01*
X59443252Y-86185703D01*
X59417395Y-86228842D01*
X59387435Y-86269239D01*
X59353659Y-86306504D01*
X58628874Y-87031289D01*
X58591609Y-87065065D01*
X58551212Y-87095025D01*
X58508073Y-87120882D01*
X58462607Y-87142385D01*
X58415253Y-87159329D01*
X58366466Y-87171549D01*
X58316716Y-87178929D01*
X58266482Y-87181397D01*
X58216248Y-87178929D01*
X58166498Y-87171549D01*
X58117711Y-87159329D01*
X58070357Y-87142385D01*
X58024891Y-87120882D01*
X57981752Y-87095025D01*
X57941355Y-87065065D01*
X57904090Y-87031289D01*
X56224711Y-85351910D01*
X56190935Y-85314645D01*
X56160975Y-85274248D01*
X56135118Y-85231109D01*
X56113615Y-85185643D01*
X56096671Y-85138289D01*
X56084451Y-85089502D01*
X56077071Y-85039752D01*
X56074603Y-84989518D01*
X56077071Y-84939284D01*
X56084451Y-84889534D01*
X56096671Y-84840747D01*
X56113615Y-84793393D01*
X56135118Y-84747927D01*
X56160975Y-84704788D01*
X56190935Y-84664391D01*
X56224711Y-84627126D01*
X56949496Y-83902341D01*
X56986761Y-83868565D01*
X57027158Y-83838605D01*
X57070297Y-83812748D01*
X57115763Y-83791245D01*
X57163117Y-83774301D01*
X57211904Y-83762081D01*
X57261654Y-83754701D01*
X57311888Y-83752233D01*
X57362122Y-83754701D01*
X57362122Y-83754701D01*
G37*
D43*
X57789185Y-85466815D03*
D12*
G36*
X63195752Y-77921071D02*
X63245502Y-77928451D01*
X63294289Y-77940671D01*
X63341643Y-77957615D01*
X63387109Y-77979118D01*
X63430248Y-78004975D01*
X63470645Y-78034935D01*
X63507910Y-78068711D01*
X65187289Y-79748090D01*
X65221065Y-79785355D01*
X65251025Y-79825752D01*
X65276882Y-79868891D01*
X65298385Y-79914357D01*
X65315329Y-79961711D01*
X65327549Y-80010498D01*
X65334929Y-80060248D01*
X65337397Y-80110482D01*
X65334929Y-80160716D01*
X65327549Y-80210466D01*
X65315329Y-80259253D01*
X65298385Y-80306607D01*
X65276882Y-80352073D01*
X65251025Y-80395212D01*
X65221065Y-80435609D01*
X65187289Y-80472874D01*
X64462504Y-81197659D01*
X64425239Y-81231435D01*
X64384842Y-81261395D01*
X64341703Y-81287252D01*
X64296237Y-81308755D01*
X64248883Y-81325699D01*
X64200096Y-81337919D01*
X64150346Y-81345299D01*
X64100112Y-81347767D01*
X64049878Y-81345299D01*
X64000128Y-81337919D01*
X63951341Y-81325699D01*
X63903987Y-81308755D01*
X63858521Y-81287252D01*
X63815382Y-81261395D01*
X63774985Y-81231435D01*
X63737720Y-81197659D01*
X62058341Y-79518280D01*
X62024565Y-79481015D01*
X61994605Y-79440618D01*
X61968748Y-79397479D01*
X61947245Y-79352013D01*
X61930301Y-79304659D01*
X61918081Y-79255872D01*
X61910701Y-79206122D01*
X61908233Y-79155888D01*
X61910701Y-79105654D01*
X61918081Y-79055904D01*
X61930301Y-79007117D01*
X61947245Y-78959763D01*
X61968748Y-78914297D01*
X61994605Y-78871158D01*
X62024565Y-78830761D01*
X62058341Y-78793496D01*
X62783126Y-78068711D01*
X62820391Y-78034935D01*
X62860788Y-78004975D01*
X62903927Y-77979118D01*
X62949393Y-77957615D01*
X62996747Y-77940671D01*
X63045534Y-77928451D01*
X63095284Y-77921071D01*
X63145518Y-77918603D01*
X63195752Y-77921071D01*
X63195752Y-77921071D01*
G37*
D43*
X63622815Y-79633185D03*
D44*
X72686000Y-76200000D03*
X71586000Y-76200000D03*
D45*
X37638056Y-34243944D03*
X35941000Y-33541000D03*
X34243944Y-34243944D03*
X33541000Y-35941000D03*
X34243944Y-37638056D03*
X35941000Y-38341000D03*
X37638056Y-37638056D03*
X38341000Y-35941000D03*
D46*
X35941000Y-35941000D03*
D45*
X128316056Y-34243944D03*
X126619000Y-33541000D03*
X124921944Y-34243944D03*
X124219000Y-35941000D03*
X124921944Y-37638056D03*
X126619000Y-38341000D03*
X128316056Y-37638056D03*
X129019000Y-35941000D03*
D46*
X126619000Y-35941000D03*
X35941000Y-126619000D03*
D45*
X38341000Y-126619000D03*
X37638056Y-128316056D03*
X35941000Y-129019000D03*
X34243944Y-128316056D03*
X33541000Y-126619000D03*
X34243944Y-124921944D03*
X35941000Y-124219000D03*
X37638056Y-124921944D03*
D46*
X126619000Y-126619000D03*
D45*
X129019000Y-126619000D03*
X128316056Y-128316056D03*
X126619000Y-129019000D03*
X124921944Y-128316056D03*
X124219000Y-126619000D03*
X124921944Y-124921944D03*
X126619000Y-124219000D03*
X128316056Y-124921944D03*
D47*
X78740000Y-85280000D03*
X78740000Y-77280000D03*
M02*
