M48
INCH,TZ
T1C0.0160
T2C0.0197
T3C0.0236
T4C0.0335
T5C0.0400
T6C0.0432
T7C0.1260
T8C0.0433
T9C0.1000
%
G90
G05
T1
X014000Y-028800
X014000Y-029200
X014000Y-029600
X014000Y-034500
X014000Y-034900
X014000Y-035300
X014500Y-027450
X017750Y-024250
X018250Y-027750
X018250Y-036250
X018750Y-039500
X019500Y-028800
X019500Y-029200
X019500Y-029600
X019500Y-031600
X019500Y-032000
X019500Y-032400
X019500Y-034500
X019500Y-034900
X019500Y-035300
X019500Y-036000
X020000Y-043300
X021000Y-039500
X021000Y-043000
X021000Y-047000
X024250Y-016000
X024300Y-024300
X025250Y-016000
X026250Y-016000
X026750Y-029750
X026900Y-030600
X027000Y-025000
X027000Y-025500
X027150Y-032000
X027250Y-016000
X027500Y-025000
X027500Y-025500
X027500Y-029750
X027600Y-032000
X027900Y-030000
X028750Y-029500
X028750Y-030750
X029000Y-030000
X029250Y-032500
X029500Y-032250
X029750Y-032000
X030250Y-033000
X030250Y-033500
X031250Y-016000
X031750Y-016000
X031750Y-033000
X031750Y-033500
X032250Y-016000
X032250Y-033000
X032250Y-033500
X032750Y-016000
X033500Y-045250
X034750Y-032250
X034750Y-033250
X035500Y-032750
X037500Y-034500
X037500Y-038250
X037500Y-042250
X037500Y-046250
X038300Y-029250
X038500Y-037250
X038500Y-041250
X040000Y-024250
X040400Y-024250
X040800Y-024250
X041200Y-024250
X041600Y-024250
T2
X048555Y-014500
X048832Y-013832
X048832Y-015168
X049500Y-013555
X049500Y-015445
X050168Y-013832
X050168Y-015168
X050445Y-014500
X013555Y-049500
X013832Y-048832
X013832Y-050168
X014500Y-048555
X014500Y-050445
X015168Y-048832
X015168Y-050168
X015445Y-049500
X013555Y-014500
X013832Y-013832
X013832Y-015168
X014500Y-013555
X014500Y-015445
X015168Y-013832
X015168Y-015168
X015445Y-014500
X048555Y-049500
X048832Y-048832
X048832Y-050168
X049500Y-048555
X049500Y-050445
X050168Y-048832
X050168Y-050168
X050445Y-049500
T4
X044575Y-026016
X044575Y-027984
T5
X014350Y-025300
X015350Y-025300
X016350Y-025300
X017350Y-025300
X028000Y-027000
X029000Y-027000
X018250Y-013500
X018250Y-023500
X019250Y-013500
X019250Y-023500
X020250Y-013500
X020250Y-023500
X021250Y-013500
X021250Y-023500
X022250Y-013500
X022250Y-023500
X023250Y-013500
X023250Y-023500
X024250Y-013500
X024250Y-023500
X025250Y-013500
X025250Y-023500
X026250Y-013500
X026250Y-023500
X027250Y-013500
X027250Y-023500
X028250Y-013500
X029250Y-013500
X030250Y-013500
X031250Y-013500
X032250Y-013500
X033250Y-013500
X030000Y-027000
X033250Y-028500
X034250Y-028500
X035250Y-028500
X036250Y-028500
T6
X044500Y-040742
X044500Y-041742
X044500Y-032742
X044500Y-033742
X044500Y-036742
X044500Y-037742
X044500Y-044742
X044500Y-045742
T7
X049500Y-014500
X014500Y-049500
X014500Y-014500
X049500Y-049500
T8
X045500Y-044742
X045500Y-045742
X045500Y-040742
X045500Y-041742
X045500Y-032742
X045500Y-033742
X045500Y-036742
X045500Y-037742
T9
X017250Y-014000
X017250Y-023000
X040250Y-014000
X040250Y-023000
T3
X045500Y-025622G85X045776Y-025622
G05
X045776Y-028378G85X045500Y-028378
G05
T0
M30
