G04 #@! TF.GenerationSoftware,KiCad,Pcbnew,5.0.0-rc2-dev-unknown-94c7809~62~ubuntu16.04.1*
G04 #@! TF.CreationDate,2018-03-24T16:52:24+05:30*
G04 #@! TF.ProjectId,wyostat,77796F737461742E6B696361645F7063,rev?*
G04 #@! TF.SameCoordinates,Original*
G04 #@! TF.FileFunction,Copper,L1,Top,Signal*
G04 #@! TF.FilePolarity,Positive*
%FSLAX46Y46*%
G04 Gerber Fmt 4.6, Leading zero omitted, Abs format (unit mm)*
G04 Created by KiCad (PCBNEW 5.0.0-rc2-dev-unknown-94c7809~62~ubuntu16.04.1) date Sat Mar 24 16:52:24 2018*
%MOMM*%
%LPD*%
G01*
G04 APERTURE LIST*
%ADD10R,2.500000X1.000000*%
%ADD11R,3.048000X1.651000*%
%ADD12R,6.096000X6.096000*%
%ADD13R,1.000000X3.000000*%
%ADD14C,1.778000*%
%ADD15R,1.550000X0.850000*%
%ADD16R,0.599440X1.998980*%
%ADD17R,0.800000X2.080000*%
%ADD18R,0.700000X0.300000*%
%ADD19C,17.780000*%
%ADD20R,5.080000X2.794000*%
%ADD21C,0.508000*%
%ADD22R,1.000000X1.250000*%
%ADD23R,1.250000X1.000000*%
%ADD24R,0.700000X1.300000*%
%ADD25R,1.300000X0.700000*%
%ADD26R,1.900000X1.200000*%
%ADD27O,1.900000X1.200000*%
%ADD28R,1.900000X1.500000*%
%ADD29C,1.450000*%
%ADD30R,1.350000X0.400000*%
%ADD31R,1.520000X1.780000*%
%ADD32O,1.727200X2.032000*%
%ADD33R,1.727200X2.032000*%
%ADD34O,1.998980X1.998980*%
%ADD35R,1.998980X1.998980*%
%ADD36R,0.800000X0.800000*%
%ADD37R,5.600000X2.300000*%
%ADD38R,0.700000X0.600000*%
%ADD39C,1.650000*%
%ADD40R,0.600000X0.700000*%
%ADD41C,0.800000*%
%ADD42C,6.400000*%
%ADD43R,2.500000X4.000000*%
%ADD44R,1.000000X1.000000*%
%ADD45C,0.812800*%
%ADD46C,0.762000*%
%ADD47C,0.254000*%
%ADD48C,0.381000*%
%ADD49C,0.250000*%
%ADD50C,0.127000*%
G04 APERTURE END LIST*
D10*
X77470000Y-113435000D03*
X77470000Y-116435000D03*
X77470000Y-103275000D03*
X77470000Y-106275000D03*
X77470000Y-93115000D03*
X77470000Y-96115000D03*
X99695000Y-93115000D03*
X99695000Y-96115000D03*
X99695000Y-103275000D03*
X99695000Y-106275000D03*
X99695000Y-113435000D03*
X99695000Y-116435000D03*
D11*
X91440000Y-96901000D03*
D12*
X85090000Y-94615000D03*
D11*
X91440000Y-92329000D03*
X91440000Y-107061000D03*
D12*
X85090000Y-104775000D03*
D11*
X91440000Y-102489000D03*
X91440000Y-117221000D03*
D12*
X85090000Y-114935000D03*
D11*
X91440000Y-112649000D03*
D13*
X122460000Y-56975000D03*
X126460000Y-56975000D03*
X126460000Y-50975000D03*
X122460000Y-50975000D03*
X114840000Y-41735000D03*
X118840000Y-41735000D03*
X118840000Y-35735000D03*
X114840000Y-35735000D03*
X114840000Y-56975000D03*
X118840000Y-56975000D03*
X118840000Y-50975000D03*
X114840000Y-50975000D03*
X107220000Y-56975000D03*
X111220000Y-56975000D03*
X111220000Y-50975000D03*
X107220000Y-50975000D03*
D14*
X46355000Y-59690000D03*
X48895000Y-59690000D03*
X51435000Y-59690000D03*
X53975000Y-59690000D03*
X56515000Y-59690000D03*
X59055000Y-59690000D03*
X61595000Y-59690000D03*
X64135000Y-59690000D03*
X66675000Y-59690000D03*
X69215000Y-59690000D03*
X84455000Y-34290000D03*
X81915000Y-34290000D03*
X79375000Y-34290000D03*
X76835000Y-34290000D03*
X74295000Y-34290000D03*
X71755000Y-34290000D03*
X69215000Y-34290000D03*
X66675000Y-34290000D03*
X64135000Y-34290000D03*
X61595000Y-34290000D03*
X59055000Y-34290000D03*
X56515000Y-34290000D03*
X53975000Y-34290000D03*
X51435000Y-34290000D03*
X48895000Y-34290000D03*
X46355000Y-34290000D03*
D15*
X94390000Y-79280000D03*
X94390000Y-83280000D03*
X88490000Y-83280000D03*
X88490000Y-79280000D03*
D16*
X57785000Y-63929260D03*
X59055000Y-63929260D03*
X60325000Y-63929260D03*
X61595000Y-63929260D03*
X62865000Y-63929260D03*
X64135000Y-63929260D03*
X65405000Y-63929260D03*
X66675000Y-63929260D03*
X66675000Y-73230740D03*
X65405000Y-73230740D03*
X64135000Y-73230740D03*
X62865000Y-73230740D03*
X61595000Y-73230740D03*
X60325000Y-73230740D03*
X59055000Y-73230740D03*
X57785000Y-73230740D03*
D17*
X67056000Y-79502000D03*
D18*
X66066000Y-80502000D03*
X66066000Y-80002000D03*
X66066000Y-79502000D03*
X66066000Y-79002000D03*
X66066000Y-78502000D03*
X68046000Y-78502000D03*
X68046000Y-79002000D03*
X68046000Y-79502000D03*
X68046000Y-80002000D03*
X68046000Y-80502000D03*
D19*
X42545000Y-81280000D03*
D20*
X42545000Y-70358000D03*
X42545000Y-92202000D03*
D21*
G36*
X76688069Y-67693140D02*
X76731218Y-67699541D01*
X76773532Y-67710140D01*
X76814603Y-67724836D01*
X76854036Y-67743486D01*
X76891451Y-67765912D01*
X76926488Y-67791897D01*
X76958809Y-67821191D01*
X76988103Y-67853512D01*
X77014088Y-67888549D01*
X77036514Y-67925964D01*
X77055164Y-67965397D01*
X77069860Y-68006468D01*
X77080459Y-68048782D01*
X77086860Y-68091931D01*
X77089000Y-68135500D01*
X77089000Y-69024500D01*
X77086860Y-69068069D01*
X77080459Y-69111218D01*
X77069860Y-69153532D01*
X77055164Y-69194603D01*
X77036514Y-69234036D01*
X77014088Y-69271451D01*
X76988103Y-69306488D01*
X76958809Y-69338809D01*
X76926488Y-69368103D01*
X76891451Y-69394088D01*
X76854036Y-69416514D01*
X76814603Y-69435164D01*
X76773532Y-69449860D01*
X76731218Y-69460459D01*
X76688069Y-69466860D01*
X76644500Y-69469000D01*
X75755500Y-69469000D01*
X75711931Y-69466860D01*
X75668782Y-69460459D01*
X75626468Y-69449860D01*
X75585397Y-69435164D01*
X75545964Y-69416514D01*
X75508549Y-69394088D01*
X75473512Y-69368103D01*
X75441191Y-69338809D01*
X75411897Y-69306488D01*
X75385912Y-69271451D01*
X75363486Y-69234036D01*
X75344836Y-69194603D01*
X75330140Y-69153532D01*
X75319541Y-69111218D01*
X75313140Y-69068069D01*
X75311000Y-69024500D01*
X75311000Y-68135500D01*
X75313140Y-68091931D01*
X75319541Y-68048782D01*
X75330140Y-68006468D01*
X75344836Y-67965397D01*
X75363486Y-67925964D01*
X75385912Y-67888549D01*
X75411897Y-67853512D01*
X75441191Y-67821191D01*
X75473512Y-67791897D01*
X75508549Y-67765912D01*
X75545964Y-67743486D01*
X75585397Y-67724836D01*
X75626468Y-67710140D01*
X75668782Y-67699541D01*
X75711931Y-67693140D01*
X75755500Y-67691000D01*
X76644500Y-67691000D01*
X76688069Y-67693140D01*
X76688069Y-67693140D01*
G37*
D14*
X76200000Y-68580000D03*
D21*
G36*
X74148069Y-67693140D02*
X74191218Y-67699541D01*
X74233532Y-67710140D01*
X74274603Y-67724836D01*
X74314036Y-67743486D01*
X74351451Y-67765912D01*
X74386488Y-67791897D01*
X74418809Y-67821191D01*
X74448103Y-67853512D01*
X74474088Y-67888549D01*
X74496514Y-67925964D01*
X74515164Y-67965397D01*
X74529860Y-68006468D01*
X74540459Y-68048782D01*
X74546860Y-68091931D01*
X74549000Y-68135500D01*
X74549000Y-69024500D01*
X74546860Y-69068069D01*
X74540459Y-69111218D01*
X74529860Y-69153532D01*
X74515164Y-69194603D01*
X74496514Y-69234036D01*
X74474088Y-69271451D01*
X74448103Y-69306488D01*
X74418809Y-69338809D01*
X74386488Y-69368103D01*
X74351451Y-69394088D01*
X74314036Y-69416514D01*
X74274603Y-69435164D01*
X74233532Y-69449860D01*
X74191218Y-69460459D01*
X74148069Y-69466860D01*
X74104500Y-69469000D01*
X73215500Y-69469000D01*
X73171931Y-69466860D01*
X73128782Y-69460459D01*
X73086468Y-69449860D01*
X73045397Y-69435164D01*
X73005964Y-69416514D01*
X72968549Y-69394088D01*
X72933512Y-69368103D01*
X72901191Y-69338809D01*
X72871897Y-69306488D01*
X72845912Y-69271451D01*
X72823486Y-69234036D01*
X72804836Y-69194603D01*
X72790140Y-69153532D01*
X72779541Y-69111218D01*
X72773140Y-69068069D01*
X72771000Y-69024500D01*
X72771000Y-68135500D01*
X72773140Y-68091931D01*
X72779541Y-68048782D01*
X72790140Y-68006468D01*
X72804836Y-67965397D01*
X72823486Y-67925964D01*
X72845912Y-67888549D01*
X72871897Y-67853512D01*
X72901191Y-67821191D01*
X72933512Y-67791897D01*
X72968549Y-67765912D01*
X73005964Y-67743486D01*
X73045397Y-67724836D01*
X73086468Y-67710140D01*
X73128782Y-67699541D01*
X73171931Y-67693140D01*
X73215500Y-67691000D01*
X74104500Y-67691000D01*
X74148069Y-67693140D01*
X74148069Y-67693140D01*
G37*
D14*
X73660000Y-68580000D03*
D21*
G36*
X71608069Y-67693140D02*
X71651218Y-67699541D01*
X71693532Y-67710140D01*
X71734603Y-67724836D01*
X71774036Y-67743486D01*
X71811451Y-67765912D01*
X71846488Y-67791897D01*
X71878809Y-67821191D01*
X71908103Y-67853512D01*
X71934088Y-67888549D01*
X71956514Y-67925964D01*
X71975164Y-67965397D01*
X71989860Y-68006468D01*
X72000459Y-68048782D01*
X72006860Y-68091931D01*
X72009000Y-68135500D01*
X72009000Y-69024500D01*
X72006860Y-69068069D01*
X72000459Y-69111218D01*
X71989860Y-69153532D01*
X71975164Y-69194603D01*
X71956514Y-69234036D01*
X71934088Y-69271451D01*
X71908103Y-69306488D01*
X71878809Y-69338809D01*
X71846488Y-69368103D01*
X71811451Y-69394088D01*
X71774036Y-69416514D01*
X71734603Y-69435164D01*
X71693532Y-69449860D01*
X71651218Y-69460459D01*
X71608069Y-69466860D01*
X71564500Y-69469000D01*
X70675500Y-69469000D01*
X70631931Y-69466860D01*
X70588782Y-69460459D01*
X70546468Y-69449860D01*
X70505397Y-69435164D01*
X70465964Y-69416514D01*
X70428549Y-69394088D01*
X70393512Y-69368103D01*
X70361191Y-69338809D01*
X70331897Y-69306488D01*
X70305912Y-69271451D01*
X70283486Y-69234036D01*
X70264836Y-69194603D01*
X70250140Y-69153532D01*
X70239541Y-69111218D01*
X70233140Y-69068069D01*
X70231000Y-69024500D01*
X70231000Y-68135500D01*
X70233140Y-68091931D01*
X70239541Y-68048782D01*
X70250140Y-68006468D01*
X70264836Y-67965397D01*
X70283486Y-67925964D01*
X70305912Y-67888549D01*
X70331897Y-67853512D01*
X70361191Y-67821191D01*
X70393512Y-67791897D01*
X70428549Y-67765912D01*
X70465964Y-67743486D01*
X70505397Y-67724836D01*
X70546468Y-67710140D01*
X70588782Y-67699541D01*
X70631931Y-67693140D01*
X70675500Y-67691000D01*
X71564500Y-67691000D01*
X71608069Y-67693140D01*
X71608069Y-67693140D01*
G37*
D14*
X71120000Y-68580000D03*
D22*
X53610000Y-68580000D03*
X55610000Y-68580000D03*
D23*
X85725000Y-80280000D03*
X85725000Y-82280000D03*
D22*
X71993000Y-82931000D03*
X69993000Y-82931000D03*
X69866000Y-78486000D03*
X71866000Y-78486000D03*
X64500000Y-76581000D03*
X62500000Y-76581000D03*
X66310000Y-82931000D03*
X68310000Y-82931000D03*
X38719000Y-61341000D03*
X36719000Y-61341000D03*
D23*
X95885000Y-72380600D03*
X95885000Y-74380600D03*
D24*
X70170000Y-94615000D03*
X72070000Y-94615000D03*
X70170000Y-97790000D03*
X72070000Y-97790000D03*
D25*
X50800000Y-93030000D03*
X50800000Y-94930000D03*
X53340000Y-95570000D03*
X53340000Y-97470000D03*
D24*
X70170000Y-91440000D03*
X72070000Y-91440000D03*
D25*
X95250000Y-91760000D03*
X95250000Y-93660000D03*
D24*
X70170000Y-104775000D03*
X72070000Y-104775000D03*
X70170000Y-107950000D03*
X72070000Y-107950000D03*
D25*
X50800000Y-101285000D03*
X50800000Y-103185000D03*
X53340000Y-105730000D03*
X53340000Y-107630000D03*
X95250000Y-101920000D03*
X95250000Y-103820000D03*
D24*
X70170000Y-101600000D03*
X72070000Y-101600000D03*
X70170000Y-114935000D03*
X72070000Y-114935000D03*
X70170000Y-118110000D03*
X72070000Y-118110000D03*
D25*
X50800000Y-111445000D03*
X50800000Y-113345000D03*
X53340000Y-115890000D03*
X53340000Y-117790000D03*
D24*
X70170000Y-111760000D03*
X72070000Y-111760000D03*
D25*
X95250000Y-112080000D03*
X95250000Y-113980000D03*
X66675000Y-39177000D03*
X66675000Y-37277000D03*
X69215000Y-39177000D03*
X69215000Y-37277000D03*
X64135000Y-39177000D03*
X64135000Y-37277000D03*
X61595000Y-39177000D03*
X61595000Y-37277000D03*
D24*
X98745000Y-72390000D03*
X100645000Y-72390000D03*
X100645000Y-64770000D03*
X98745000Y-64770000D03*
X100645000Y-70485000D03*
X98745000Y-70485000D03*
X100645000Y-68580000D03*
X98745000Y-68580000D03*
X100645000Y-66675000D03*
X98745000Y-66675000D03*
X55560000Y-76200000D03*
X53660000Y-76200000D03*
X55560000Y-73025000D03*
X53660000Y-73025000D03*
X55560000Y-64135000D03*
X53660000Y-64135000D03*
X55560000Y-66040000D03*
X53660000Y-66040000D03*
D26*
X115920000Y-71480000D03*
X115920000Y-65680000D03*
D27*
X115920000Y-65080000D03*
X115920000Y-72080000D03*
D28*
X115920000Y-69580000D03*
D29*
X113220000Y-66080000D03*
D30*
X113220000Y-68580000D03*
X113220000Y-67930000D03*
X113220000Y-67280000D03*
X113220000Y-69880000D03*
X113220000Y-69230000D03*
D29*
X113220000Y-71080000D03*
D28*
X115920000Y-67580000D03*
D31*
X57090000Y-92075000D03*
X57090000Y-94615000D03*
X57090000Y-97155000D03*
X66100000Y-97155000D03*
X66100000Y-94615000D03*
X66100000Y-92075000D03*
X57090000Y-102235000D03*
X57090000Y-104775000D03*
X57090000Y-107315000D03*
X66100000Y-107315000D03*
X66100000Y-104775000D03*
X66100000Y-102235000D03*
X57090000Y-112395000D03*
X57090000Y-114935000D03*
X57090000Y-117475000D03*
X66100000Y-117475000D03*
X66100000Y-114935000D03*
X66100000Y-112395000D03*
D32*
X36449000Y-64262000D03*
X38989000Y-64262000D03*
X41529000Y-64262000D03*
D33*
X44069000Y-64262000D03*
D34*
X113030000Y-93325000D03*
D35*
X113030000Y-95865000D03*
D34*
X113030000Y-83165000D03*
D35*
X113030000Y-85705000D03*
D34*
X113030000Y-103485000D03*
D35*
X113030000Y-106025000D03*
D34*
X113030000Y-113645000D03*
D35*
X113030000Y-116185000D03*
D36*
X53340000Y-92875000D03*
X53340000Y-91275000D03*
X53340000Y-103035000D03*
X53340000Y-101435000D03*
X53340000Y-113195000D03*
X53340000Y-111595000D03*
D37*
X99568000Y-77580000D03*
X99568000Y-84980000D03*
D33*
X92075000Y-72390000D03*
D32*
X89535000Y-72390000D03*
X86995000Y-72390000D03*
X84455000Y-72390000D03*
D38*
X50800000Y-96605000D03*
X50800000Y-97705000D03*
X50800000Y-106130000D03*
X50800000Y-107230000D03*
X50800000Y-116290000D03*
X50800000Y-117390000D03*
D21*
G36*
X57352320Y-83995641D02*
X57392363Y-84001581D01*
X57431630Y-84011417D01*
X57469745Y-84025055D01*
X57506339Y-84042362D01*
X57541061Y-84063174D01*
X57573575Y-84087288D01*
X57603570Y-84114473D01*
X59141527Y-85652430D01*
X59168712Y-85682425D01*
X59192826Y-85714939D01*
X59213638Y-85749661D01*
X59230945Y-85786255D01*
X59244583Y-85824370D01*
X59254419Y-85863637D01*
X59260359Y-85903680D01*
X59262345Y-85944112D01*
X59260359Y-85984544D01*
X59254419Y-86024587D01*
X59244583Y-86063854D01*
X59230945Y-86101969D01*
X59213638Y-86138563D01*
X59192826Y-86173285D01*
X59168712Y-86205799D01*
X59141527Y-86235794D01*
X58558164Y-86819157D01*
X58528169Y-86846342D01*
X58495655Y-86870456D01*
X58460933Y-86891268D01*
X58424339Y-86908575D01*
X58386224Y-86922213D01*
X58346957Y-86932049D01*
X58306914Y-86937989D01*
X58266482Y-86939975D01*
X58226050Y-86937989D01*
X58186007Y-86932049D01*
X58146740Y-86922213D01*
X58108625Y-86908575D01*
X58072031Y-86891268D01*
X58037309Y-86870456D01*
X58004795Y-86846342D01*
X57974800Y-86819157D01*
X56436843Y-85281200D01*
X56409658Y-85251205D01*
X56385544Y-85218691D01*
X56364732Y-85183969D01*
X56347425Y-85147375D01*
X56333787Y-85109260D01*
X56323951Y-85069993D01*
X56318011Y-85029950D01*
X56316025Y-84989518D01*
X56318011Y-84949086D01*
X56323951Y-84909043D01*
X56333787Y-84869776D01*
X56347425Y-84831661D01*
X56364732Y-84795067D01*
X56385544Y-84760345D01*
X56409658Y-84727831D01*
X56436843Y-84697836D01*
X57020206Y-84114473D01*
X57050201Y-84087288D01*
X57082715Y-84063174D01*
X57117437Y-84042362D01*
X57154031Y-84025055D01*
X57192146Y-84011417D01*
X57231413Y-84001581D01*
X57271456Y-83995641D01*
X57311888Y-83993655D01*
X57352320Y-83995641D01*
X57352320Y-83995641D01*
G37*
D39*
X57789185Y-85466815D03*
D21*
G36*
X63185950Y-78162011D02*
X63225993Y-78167951D01*
X63265260Y-78177787D01*
X63303375Y-78191425D01*
X63339969Y-78208732D01*
X63374691Y-78229544D01*
X63407205Y-78253658D01*
X63437200Y-78280843D01*
X64975157Y-79818800D01*
X65002342Y-79848795D01*
X65026456Y-79881309D01*
X65047268Y-79916031D01*
X65064575Y-79952625D01*
X65078213Y-79990740D01*
X65088049Y-80030007D01*
X65093989Y-80070050D01*
X65095975Y-80110482D01*
X65093989Y-80150914D01*
X65088049Y-80190957D01*
X65078213Y-80230224D01*
X65064575Y-80268339D01*
X65047268Y-80304933D01*
X65026456Y-80339655D01*
X65002342Y-80372169D01*
X64975157Y-80402164D01*
X64391794Y-80985527D01*
X64361799Y-81012712D01*
X64329285Y-81036826D01*
X64294563Y-81057638D01*
X64257969Y-81074945D01*
X64219854Y-81088583D01*
X64180587Y-81098419D01*
X64140544Y-81104359D01*
X64100112Y-81106345D01*
X64059680Y-81104359D01*
X64019637Y-81098419D01*
X63980370Y-81088583D01*
X63942255Y-81074945D01*
X63905661Y-81057638D01*
X63870939Y-81036826D01*
X63838425Y-81012712D01*
X63808430Y-80985527D01*
X62270473Y-79447570D01*
X62243288Y-79417575D01*
X62219174Y-79385061D01*
X62198362Y-79350339D01*
X62181055Y-79313745D01*
X62167417Y-79275630D01*
X62157581Y-79236363D01*
X62151641Y-79196320D01*
X62149655Y-79155888D01*
X62151641Y-79115456D01*
X62157581Y-79075413D01*
X62167417Y-79036146D01*
X62181055Y-78998031D01*
X62198362Y-78961437D01*
X62219174Y-78926715D01*
X62243288Y-78894201D01*
X62270473Y-78864206D01*
X62853836Y-78280843D01*
X62883831Y-78253658D01*
X62916345Y-78229544D01*
X62951067Y-78208732D01*
X62987661Y-78191425D01*
X63025776Y-78177787D01*
X63065043Y-78167951D01*
X63105086Y-78162011D01*
X63145518Y-78160025D01*
X63185950Y-78162011D01*
X63185950Y-78162011D01*
G37*
D39*
X63622815Y-79633185D03*
D40*
X72686000Y-76200000D03*
X71586000Y-76200000D03*
D41*
X37638056Y-34243944D03*
X35941000Y-33541000D03*
X34243944Y-34243944D03*
X33541000Y-35941000D03*
X34243944Y-37638056D03*
X35941000Y-38341000D03*
X37638056Y-37638056D03*
X38341000Y-35941000D03*
D42*
X35941000Y-35941000D03*
D41*
X128316056Y-34243944D03*
X126619000Y-33541000D03*
X124921944Y-34243944D03*
X124219000Y-35941000D03*
X124921944Y-37638056D03*
X126619000Y-38341000D03*
X128316056Y-37638056D03*
X129019000Y-35941000D03*
D42*
X126619000Y-35941000D03*
X35941000Y-126619000D03*
D41*
X38341000Y-126619000D03*
X37638056Y-128316056D03*
X35941000Y-129019000D03*
X34243944Y-128316056D03*
X33541000Y-126619000D03*
X34243944Y-124921944D03*
X35941000Y-124219000D03*
X37638056Y-124921944D03*
D42*
X126619000Y-126619000D03*
D41*
X129019000Y-126619000D03*
X128316056Y-128316056D03*
X126619000Y-129019000D03*
X124921944Y-128316056D03*
X124219000Y-126619000D03*
X124921944Y-124921944D03*
X126619000Y-124219000D03*
X128316056Y-124921944D03*
D43*
X78740000Y-85280000D03*
X78740000Y-77280000D03*
D44*
X98445000Y-74295000D03*
X100945000Y-74295000D03*
D45*
X97790000Y-94615000D03*
X97790000Y-104775000D03*
X85090000Y-114935000D03*
X53340000Y-100330000D03*
X69850000Y-64770000D03*
X69850000Y-63500000D03*
X68580000Y-63500000D03*
X35560000Y-75183994D03*
X35560000Y-88646000D03*
X49530000Y-80264000D03*
X49530000Y-82296000D03*
X49530000Y-81280000D03*
X35560000Y-87629998D03*
X35560000Y-89662000D03*
X49530000Y-89662000D03*
X49530000Y-87629998D03*
X49530000Y-88646000D03*
X49530000Y-74168000D03*
X35560000Y-74168000D03*
X35560000Y-73152000D03*
X49530000Y-75184002D03*
X49530000Y-73152000D03*
X67945000Y-75565014D03*
X105664000Y-61595000D03*
X104648000Y-61595000D03*
X103632000Y-61595000D03*
X102616000Y-61595000D03*
X101600000Y-61595000D03*
X83185000Y-40640000D03*
X81915000Y-40640000D03*
X80645000Y-40640000D03*
X79375000Y-40640000D03*
X36830000Y-69723004D03*
X68580000Y-64770000D03*
X97282000Y-74295000D03*
X75565000Y-81280000D03*
X74930000Y-81915000D03*
X74295000Y-82550000D03*
X49530000Y-91440000D03*
X47625000Y-100330000D03*
X50800000Y-109982000D03*
X45085000Y-61595000D03*
X46354994Y-70485000D03*
X46355000Y-92075000D03*
X61722000Y-61722000D03*
X95250000Y-87630000D03*
X53340000Y-119380000D03*
X73660000Y-76200000D03*
X73025000Y-74930000D03*
X90170000Y-83185000D03*
X88265000Y-81915000D03*
X88265000Y-84455000D03*
X81915000Y-83820000D03*
X80645000Y-85090000D03*
X80645000Y-83820000D03*
X81915000Y-85090000D03*
X76835000Y-85090000D03*
X76835000Y-83820000D03*
X53340000Y-109220000D03*
X73025000Y-78105000D03*
X69215000Y-40640000D03*
X66675000Y-40640000D03*
X64135000Y-40640000D03*
X61595000Y-40640000D03*
X68326000Y-77724000D03*
X95250000Y-97155000D03*
X95250000Y-107315000D03*
X95250000Y-117475000D03*
X70104008Y-81280000D03*
X69850000Y-75565000D03*
X68961000Y-81280000D03*
X70866000Y-76200000D03*
D46*
X95250000Y-94615000D02*
X97790000Y-94615000D01*
X72070000Y-91440000D02*
X77057000Y-91440000D01*
X77057000Y-91440000D02*
X77470000Y-91853000D01*
X77470000Y-91853000D02*
X77470000Y-93115000D01*
X85090000Y-94615000D02*
X81788000Y-94615000D01*
X77470000Y-93115000D02*
X80288000Y-93115000D01*
X80288000Y-93115000D02*
X81788000Y-94615000D01*
X95250000Y-91760000D02*
X98872000Y-91760000D01*
X98872000Y-91760000D02*
X99695000Y-92583000D01*
X99695000Y-92583000D02*
X99695000Y-93115000D01*
X73279000Y-94615000D02*
X74779000Y-96115000D01*
X74779000Y-96115000D02*
X77470000Y-96115000D01*
X72070000Y-94615000D02*
X73279000Y-94615000D01*
X95250000Y-104775000D02*
X97790000Y-104775000D01*
X77470000Y-103275000D02*
X80288000Y-103275000D01*
X81788000Y-104775000D02*
X85090000Y-104775000D01*
X80288000Y-103275000D02*
X81788000Y-104775000D01*
X72070000Y-101600000D02*
X77057000Y-101600000D01*
X77057000Y-101600000D02*
X77470000Y-102013000D01*
X77470000Y-102013000D02*
X77470000Y-103275000D01*
X95250000Y-101920000D02*
X98872000Y-101920000D01*
X99695000Y-102743000D02*
X99695000Y-103275000D01*
X98872000Y-101920000D02*
X99695000Y-102743000D01*
X72070000Y-104775000D02*
X73182000Y-104775000D01*
X74682000Y-106275000D02*
X77470000Y-106275000D01*
X73182000Y-104775000D02*
X74682000Y-106275000D01*
X99695000Y-113435000D02*
X99695000Y-112776000D01*
X95250000Y-112080000D02*
X98999000Y-112080000D01*
X98999000Y-112080000D02*
X99695000Y-112776000D01*
X85090000Y-114935000D02*
X94615000Y-114935000D01*
X95250000Y-114300000D02*
X94615000Y-114935000D01*
X95250000Y-113980000D02*
X95250000Y-114300000D01*
X72070000Y-111760000D02*
X77057000Y-111760000D01*
X77057000Y-111760000D02*
X77470000Y-112173000D01*
X77470000Y-112173000D02*
X77470000Y-113435000D01*
X77470000Y-113435000D02*
X80288000Y-113435000D01*
X80288000Y-113435000D02*
X81788000Y-114935000D01*
X81788000Y-114935000D02*
X85090000Y-114935000D01*
X72070000Y-114935000D02*
X73182000Y-114935000D01*
X73182000Y-114935000D02*
X74682000Y-116435000D01*
X74682000Y-116435000D02*
X77470000Y-116435000D01*
X80645000Y-85090000D02*
X81915000Y-85090000D01*
X80645000Y-83820000D02*
X81915000Y-83820000D01*
X43180000Y-114300000D02*
X43180000Y-107315000D01*
X50800000Y-107230000D02*
X43265000Y-107230000D01*
X43180000Y-107315000D02*
X43180000Y-97705000D01*
X43265000Y-107230000D02*
X43180000Y-107315000D01*
X50800000Y-97705000D02*
X43180000Y-97705000D01*
X43180000Y-97705000D02*
X38142000Y-97705000D01*
X46270000Y-117390000D02*
X43180000Y-114300000D01*
X50800000Y-117390000D02*
X46270000Y-117390000D01*
X53340000Y-97470000D02*
X53340000Y-100330000D01*
X67818000Y-64008000D02*
X67818000Y-64643000D01*
X67818000Y-63687264D02*
X67818000Y-64008000D01*
X67815460Y-64008000D02*
X67818000Y-64008000D01*
X66675000Y-63929260D02*
X67736720Y-63929260D01*
X67736720Y-63929260D02*
X67815460Y-64008000D01*
X67818000Y-64643000D02*
X67945000Y-64770000D01*
X67945000Y-64770000D02*
X69850000Y-64770000D01*
X68580000Y-63500000D02*
X68005264Y-63500000D01*
X68005264Y-63500000D02*
X67818000Y-63687264D01*
X69850000Y-63500000D02*
X68580000Y-63500000D01*
X55610000Y-68580000D02*
X57785000Y-68580000D01*
X57785000Y-68580000D02*
X59690000Y-66675000D01*
X59690000Y-66675000D02*
X63500000Y-66675000D01*
X63500000Y-66675000D02*
X64135000Y-66040000D01*
X64135000Y-66040000D02*
X64135000Y-63929260D01*
X90805000Y-76835000D02*
X90805000Y-82550000D01*
X90805000Y-82550000D02*
X90170000Y-83185000D01*
X92075000Y-75565000D02*
X90805000Y-76835000D01*
X93313600Y-75565000D02*
X92075000Y-75565000D01*
X95885000Y-74380600D02*
X94498000Y-74380600D01*
X94498000Y-74380600D02*
X93313600Y-75565000D01*
X88265000Y-84455000D02*
X85725000Y-84455000D01*
X49530000Y-88646000D02*
X77724000Y-88646000D01*
X77724000Y-88646000D02*
X78740000Y-87630000D01*
X78740000Y-87630000D02*
X78740000Y-85280000D01*
X63797385Y-75158615D02*
X66675000Y-75158615D01*
X66675000Y-73230740D02*
X66675000Y-75158615D01*
X66675000Y-75158615D02*
X67538601Y-75158615D01*
X35560000Y-89662000D02*
X35560000Y-95123000D01*
X35560000Y-74168000D02*
X35560000Y-75183994D01*
X52578000Y-78232000D02*
X51943000Y-77597000D01*
X51943000Y-77597000D02*
X51943000Y-75311000D01*
X50800000Y-74168000D02*
X49530000Y-74168000D01*
X51943000Y-75311000D02*
X50800000Y-74168000D01*
X59055000Y-78232000D02*
X52578000Y-78232000D01*
X52578000Y-78232000D02*
X52578000Y-80264000D01*
X52578000Y-80264000D02*
X51562000Y-81280000D01*
X51562000Y-81280000D02*
X49530000Y-81280000D01*
X49530000Y-81280000D02*
X49530000Y-80264000D01*
X49530000Y-81280000D02*
X49530000Y-82296000D01*
X42545000Y-81280000D02*
X49530000Y-81280000D01*
X48768000Y-88646000D02*
X49530000Y-88646000D01*
X42545000Y-82423000D02*
X48768000Y-88646000D01*
X36322000Y-88646000D02*
X35560000Y-88646000D01*
X42545000Y-82423000D02*
X36322000Y-88646000D01*
X42545000Y-81280000D02*
X42545000Y-82423000D01*
X35560000Y-88646000D02*
X35560000Y-87629998D01*
X35560000Y-88646000D02*
X35560000Y-89662000D01*
X49530000Y-87629998D02*
X49530000Y-89662000D01*
X42545000Y-80391000D02*
X36322000Y-74168000D01*
X36322000Y-74168000D02*
X35560000Y-74168000D01*
X42545000Y-80391000D02*
X48768000Y-74168000D01*
X48768000Y-74168000D02*
X49530000Y-74168000D01*
X42545000Y-81280000D02*
X42545000Y-80391000D01*
X35560000Y-73152000D02*
X35560000Y-74168000D01*
X35560000Y-73152000D02*
X35560000Y-70418268D01*
X36830000Y-69723004D02*
X36255264Y-69723004D01*
X36255264Y-69723004D02*
X35560000Y-70418268D01*
X49530000Y-74168000D02*
X49530000Y-75184002D01*
X49530000Y-74168000D02*
X49530000Y-73152000D01*
X62500000Y-76581000D02*
X62500000Y-76456000D01*
X67056000Y-76454014D02*
X67945000Y-75565014D01*
X62500000Y-76456000D02*
X63797385Y-75158615D01*
X67538601Y-75158615D02*
X67945000Y-75565014D01*
X67056000Y-79502000D02*
X67056000Y-76454014D01*
X104648000Y-64770000D02*
X105664000Y-64770000D01*
X105664000Y-61595000D02*
X105664000Y-64770000D01*
X105664000Y-64770000D02*
X110490000Y-64770000D01*
X103632000Y-64770000D02*
X104648000Y-64770000D01*
X104648000Y-61595000D02*
X104648000Y-64770000D01*
X102616000Y-64770000D02*
X103632000Y-64770000D01*
X103632000Y-61595000D02*
X103632000Y-64770000D01*
X102235000Y-64770000D02*
X102616000Y-64770000D01*
X102616000Y-61595000D02*
X102616000Y-64770000D01*
X85090000Y-94615000D02*
X95250000Y-94615000D01*
X95250000Y-93660000D02*
X95250000Y-94615000D01*
X70485000Y-96520000D02*
X70170000Y-96835000D01*
X70170000Y-96835000D02*
X70170000Y-97790000D01*
X71120000Y-96520000D02*
X70485000Y-96520000D01*
X72070000Y-95570000D02*
X71120000Y-96520000D01*
X72070000Y-94615000D02*
X72070000Y-95570000D01*
X36830000Y-67945000D02*
X36449000Y-67564000D01*
X36449000Y-67564000D02*
X36449000Y-64262000D01*
X36830000Y-69723004D02*
X36830000Y-67945000D01*
X101600000Y-64770000D02*
X101600000Y-61595000D01*
X101600000Y-64770000D02*
X102235000Y-64770000D01*
X100645000Y-64770000D02*
X101600000Y-64770000D01*
D47*
X113220000Y-67280000D02*
X112291000Y-67280000D01*
X112291000Y-67280000D02*
X112230799Y-67219799D01*
X112230799Y-67219799D02*
X112230799Y-67145799D01*
D46*
X111760000Y-66675000D02*
X112230799Y-67145799D01*
X111760000Y-66040000D02*
X111760000Y-66675000D01*
X110490000Y-64770000D02*
X111760000Y-66040000D01*
X80645000Y-40640000D02*
X79375000Y-40640000D01*
X81915000Y-40640000D02*
X80645000Y-40640000D01*
X83185000Y-40640000D02*
X81915000Y-40640000D01*
X69215000Y-40640000D02*
X79375000Y-40640000D01*
X59055000Y-78232000D02*
X60706000Y-76581000D01*
X36449000Y-64262000D02*
X36449000Y-62998000D01*
X36449000Y-62998000D02*
X36719000Y-62728000D01*
X36719000Y-62728000D02*
X36719000Y-61341000D01*
X38142000Y-97705000D02*
X35560000Y-95123000D01*
X52263000Y-97470000D02*
X52028000Y-97705000D01*
X52028000Y-97705000D02*
X50800000Y-97705000D01*
X53340000Y-97470000D02*
X52263000Y-97470000D01*
X95885000Y-74380600D02*
X97196400Y-74380600D01*
X97196400Y-74380600D02*
X97282000Y-74295000D01*
X98445000Y-74295000D02*
X97282000Y-74295000D01*
X73025000Y-73660000D02*
X72595740Y-73230740D01*
X72595740Y-73230740D02*
X66675000Y-73230740D01*
X73025000Y-74930000D02*
X73025000Y-73660000D01*
X65405000Y-73230740D02*
X66675000Y-73230740D01*
X64135000Y-73230740D02*
X65405000Y-73230740D01*
X62865000Y-73230740D02*
X64135000Y-73230740D01*
X65405000Y-63929260D02*
X66675000Y-63929260D01*
X64135000Y-63929260D02*
X65405000Y-63929260D01*
X62865000Y-63929260D02*
X64135000Y-63929260D01*
X61595000Y-63929260D02*
X62865000Y-63929260D01*
X72390000Y-62230000D02*
X71755000Y-61595000D01*
X71501000Y-66294000D02*
X72390000Y-65405000D01*
X67208398Y-68935602D02*
X69850000Y-66294000D01*
X59080398Y-68935602D02*
X67208398Y-68935602D01*
X53660000Y-72725000D02*
X55773000Y-70612000D01*
X72390000Y-65405000D02*
X72390000Y-62230000D01*
X69850000Y-66294000D02*
X71501000Y-66294000D01*
X55773000Y-70612000D02*
X57404000Y-70612000D01*
X53660000Y-73025000D02*
X53660000Y-72725000D01*
X57404000Y-70612000D02*
X59080398Y-68935602D01*
X71755000Y-61595000D02*
X66040000Y-61595000D01*
X66040000Y-61595000D02*
X64135000Y-59690000D01*
X111760000Y-33020000D02*
X111125000Y-33655000D01*
X118110000Y-33020000D02*
X111760000Y-33020000D01*
X109855000Y-38100000D02*
X77724000Y-38100000D01*
X118840000Y-33750000D02*
X118110000Y-33020000D01*
X111125000Y-36830000D02*
X109855000Y-38100000D01*
X118840000Y-35735000D02*
X118840000Y-33750000D01*
X111125000Y-33655000D02*
X111125000Y-36830000D01*
X77724000Y-38100000D02*
X76835000Y-37211000D01*
X76835000Y-37211000D02*
X76835000Y-34290000D01*
X125730000Y-44450000D02*
X126460000Y-45180000D01*
X119380000Y-44450000D02*
X125730000Y-44450000D01*
X126460000Y-45180000D02*
X126460000Y-50975000D01*
X118840000Y-43910000D02*
X119380000Y-44450000D01*
X118840000Y-41735000D02*
X118840000Y-43910000D01*
X112308000Y-60325000D02*
X118745000Y-60325000D01*
X118745000Y-60325000D02*
X125730000Y-60325000D01*
X118840000Y-60230000D02*
X118745000Y-60325000D01*
X118840000Y-56975000D02*
X118840000Y-60230000D01*
X125730000Y-60325000D02*
X126460000Y-59595000D01*
X126460000Y-59595000D02*
X126460000Y-56975000D01*
X111220000Y-56975000D02*
X111220000Y-59237000D01*
X111220000Y-59237000D02*
X112308000Y-60325000D01*
X111220000Y-50975000D02*
X111220000Y-56975000D01*
X126460000Y-50975000D02*
X126460000Y-56975000D01*
X38719000Y-62214000D02*
X38989000Y-62484000D01*
X38989000Y-62484000D02*
X38989000Y-64262000D01*
X38719000Y-61341000D02*
X38719000Y-62214000D01*
X51816000Y-67564000D02*
X40894000Y-67564000D01*
X40894000Y-67564000D02*
X38989000Y-65659000D01*
X38989000Y-65659000D02*
X38989000Y-64262000D01*
X51816000Y-67564000D02*
X51816000Y-64867000D01*
X51816000Y-72293000D02*
X51816000Y-67564000D01*
X53660000Y-73025000D02*
X52548000Y-73025000D01*
X52548000Y-73025000D02*
X51816000Y-72293000D01*
X56642000Y-75057000D02*
X58547000Y-75057000D01*
X53660000Y-74295000D02*
X55880000Y-74295000D01*
X58547000Y-75057000D02*
X59055000Y-74549000D01*
X55880000Y-74295000D02*
X56642000Y-75057000D01*
X59055000Y-74549000D02*
X59055000Y-73230740D01*
X53660000Y-74295000D02*
X53660000Y-73025000D01*
X53660000Y-76200000D02*
X53660000Y-74295000D01*
X51816000Y-64867000D02*
X52548000Y-64135000D01*
X52548000Y-64135000D02*
X53660000Y-64135000D01*
X53660000Y-64135000D02*
X53660000Y-66040000D01*
X74930000Y-81915000D02*
X75565000Y-81280000D01*
X74295000Y-82550000D02*
X74930000Y-81915000D01*
X74295000Y-84455000D02*
X74295000Y-82550000D01*
X73660000Y-85090000D02*
X74295000Y-84455000D01*
X66040000Y-85090000D02*
X73660000Y-85090000D01*
X65151000Y-84201000D02*
X66040000Y-85090000D01*
X65151000Y-82931000D02*
X65151000Y-84201000D01*
D48*
X52286000Y-92875000D02*
X52131000Y-93030000D01*
X52131000Y-93030000D02*
X50800000Y-93030000D01*
X53340000Y-92875000D02*
X52286000Y-92875000D01*
X53340000Y-91275000D02*
X49695000Y-91275000D01*
X49695000Y-91275000D02*
X49530000Y-91440000D01*
X55753000Y-92075000D02*
X54953000Y-91275000D01*
X54953000Y-91275000D02*
X53340000Y-91275000D01*
X57090000Y-92075000D02*
X55753000Y-92075000D01*
X51435000Y-100330000D02*
X47625000Y-100330000D01*
X52540000Y-101435000D02*
X51435000Y-100330000D01*
X53340000Y-101435000D02*
X52540000Y-101435000D01*
X53340000Y-111595000D02*
X51727000Y-109982000D01*
X51727000Y-109982000D02*
X50800000Y-109982000D01*
X44069000Y-64262000D02*
X44069000Y-62865000D01*
X44069000Y-62865000D02*
X40259000Y-59055000D01*
X40259000Y-59055000D02*
X40259000Y-56642000D01*
X40259000Y-56642000D02*
X41021000Y-55880000D01*
X41021000Y-55880000D02*
X52959000Y-55880000D01*
X52959000Y-55880000D02*
X53975000Y-54864000D01*
X53975000Y-54864000D02*
X53975000Y-34290000D01*
X44577000Y-66294000D02*
X44069000Y-65786000D01*
X44069000Y-65786000D02*
X44069000Y-64262000D01*
X47371000Y-66294000D02*
X44577000Y-66294000D01*
X51435000Y-62230000D02*
X47371000Y-66294000D01*
X57466230Y-62230000D02*
X51435000Y-62230000D01*
X57785000Y-63929260D02*
X57785000Y-62548770D01*
X57785000Y-62548770D02*
X57466230Y-62230000D01*
X56720740Y-63929260D02*
X56515000Y-64135000D01*
X56515000Y-64135000D02*
X55560000Y-64135000D01*
X57785000Y-63929260D02*
X56720740Y-63929260D01*
X58101230Y-61595000D02*
X45085000Y-61595000D01*
X59055000Y-63929260D02*
X59055000Y-62548770D01*
X59055000Y-62548770D02*
X58101230Y-61595000D01*
X55560000Y-66040000D02*
X57644030Y-66040000D01*
X57644030Y-66040000D02*
X59055000Y-64629030D01*
X59055000Y-64629030D02*
X59055000Y-63929260D01*
X39497000Y-56007000D02*
X39497000Y-59436000D01*
X41529000Y-64262000D02*
X41529000Y-61468000D01*
X41529000Y-61468000D02*
X39497000Y-59436000D01*
X40386000Y-55118000D02*
X39497000Y-56007000D01*
X50673000Y-55118000D02*
X40386000Y-55118000D01*
X51435000Y-54356000D02*
X50673000Y-55118000D01*
X51435000Y-34290000D02*
X51435000Y-54356000D01*
D46*
X89535000Y-72390000D02*
X88265000Y-72390000D01*
X88265000Y-72390000D02*
X86995000Y-72390000D01*
X84836000Y-59690000D02*
X88265000Y-63119000D01*
X88265000Y-63119000D02*
X88265000Y-72390000D01*
X69215000Y-59690000D02*
X84836000Y-59690000D01*
X95885000Y-72380600D02*
X92084400Y-72380600D01*
X92084400Y-72380600D02*
X92075000Y-72390000D01*
X98745000Y-72390000D02*
X95894400Y-72390000D01*
X95894400Y-72390000D02*
X95885000Y-72380600D01*
D48*
X50800000Y-94930000D02*
X50800000Y-96605000D01*
D46*
X69215000Y-94615000D02*
X70170000Y-94615000D01*
X68580000Y-93980000D02*
X69215000Y-94615000D01*
X68580000Y-93033000D02*
X68580000Y-93980000D01*
X66100000Y-92075000D02*
X67622000Y-92075000D01*
X67622000Y-92075000D02*
X68580000Y-93033000D01*
X69215000Y-104775000D02*
X70170000Y-104775000D01*
X68580000Y-104140000D02*
X69215000Y-104775000D01*
X68580000Y-103193000D02*
X68580000Y-104140000D01*
X66100000Y-102235000D02*
X67622000Y-102235000D01*
X67622000Y-102235000D02*
X68580000Y-103193000D01*
X68580000Y-113353000D02*
X68580000Y-114457000D01*
X69058000Y-114935000D02*
X70170000Y-114935000D01*
X68580000Y-114457000D02*
X69058000Y-114935000D01*
X67622000Y-112395000D02*
X68580000Y-113353000D01*
X66100000Y-112395000D02*
X67622000Y-112395000D01*
D48*
X106045000Y-46990000D02*
X102235000Y-43180000D01*
X122460000Y-49094000D02*
X120356000Y-46990000D01*
X120356000Y-46990000D02*
X106045000Y-46990000D01*
X122460000Y-50975000D02*
X122460000Y-49094000D01*
X102235000Y-43180000D02*
X66040000Y-43180000D01*
X66040000Y-43180000D02*
X65405000Y-42545000D01*
X65405000Y-42545000D02*
X65405000Y-38247000D01*
X65405000Y-38247000D02*
X66375000Y-37277000D01*
X66375000Y-37277000D02*
X66675000Y-37277000D01*
X66675000Y-37277000D02*
X66675000Y-34290000D01*
X122460000Y-50975000D02*
X122460000Y-56975000D01*
X106680000Y-45720000D02*
X102870000Y-41910000D01*
X114840000Y-45180000D02*
X114300000Y-45720000D01*
X114300000Y-45720000D02*
X106680000Y-45720000D01*
X67945000Y-38247000D02*
X68915000Y-37277000D01*
X114840000Y-41735000D02*
X114840000Y-45180000D01*
X102870000Y-41910000D02*
X68580000Y-41910000D01*
X68915000Y-37277000D02*
X69215000Y-37277000D01*
X68580000Y-41910000D02*
X67945000Y-41275000D01*
X67945000Y-41275000D02*
X67945000Y-38247000D01*
X69215000Y-37277000D02*
X69215000Y-34290000D01*
X62865000Y-43815000D02*
X63500000Y-44450000D01*
X101600000Y-44450000D02*
X105410000Y-48260000D01*
X62865000Y-38247000D02*
X62865000Y-43815000D01*
X64135000Y-37277000D02*
X63835000Y-37277000D01*
X63835000Y-37277000D02*
X62865000Y-38247000D01*
X63500000Y-44450000D02*
X101600000Y-44450000D01*
X105410000Y-48260000D02*
X114300000Y-48260000D01*
X114300000Y-48260000D02*
X114840000Y-48800000D01*
X114840000Y-48800000D02*
X114840000Y-50975000D01*
X60325000Y-45085000D02*
X60960000Y-45720000D01*
X60325000Y-38247000D02*
X60325000Y-45085000D01*
X61295000Y-37277000D02*
X60325000Y-38247000D01*
X61595000Y-37277000D02*
X61295000Y-37277000D01*
X60960000Y-45720000D02*
X100965000Y-45720000D01*
X100965000Y-45720000D02*
X106220000Y-50975000D01*
X106220000Y-50975000D02*
X107220000Y-50975000D01*
X107220000Y-50975000D02*
X107220000Y-56975000D01*
D46*
X76506000Y-80264000D02*
X72485000Y-80264000D01*
X72485000Y-80264000D02*
X71993000Y-80756000D01*
D48*
X42545000Y-70358000D02*
X46227994Y-70358000D01*
X46227994Y-70358000D02*
X46354994Y-70485000D01*
X46228000Y-92202000D02*
X46355000Y-92075000D01*
X42545000Y-92202000D02*
X46228000Y-92202000D01*
X60325000Y-63929260D02*
X60325000Y-63119000D01*
X60325000Y-63119000D02*
X61722000Y-61722000D01*
X57727465Y-67226565D02*
X60325000Y-64629030D01*
X60325000Y-64629030D02*
X60325000Y-63929260D01*
X53610000Y-68455000D02*
X54838435Y-67226565D01*
X54838435Y-67226565D02*
X57727465Y-67226565D01*
X53610000Y-68580000D02*
X53610000Y-68455000D01*
D46*
X95250000Y-85725000D02*
X95250000Y-87630000D01*
X95995000Y-84980000D02*
X95250000Y-85725000D01*
X99568000Y-84980000D02*
X95995000Y-84980000D01*
X95986601Y-97561399D02*
X96012000Y-97536000D01*
X95656399Y-97561399D02*
X95986601Y-97561399D01*
X95250000Y-97155000D02*
X95656399Y-97561399D01*
X99695000Y-96901000D02*
X99695000Y-96115000D01*
X96012000Y-97536000D02*
X99060000Y-97536000D01*
X99060000Y-97536000D02*
X99695000Y-96901000D01*
X95250000Y-107315000D02*
X95631000Y-107696000D01*
X99695000Y-106807000D02*
X99695000Y-106275000D01*
X95631000Y-107696000D02*
X98806000Y-107696000D01*
X98806000Y-107696000D02*
X99695000Y-106807000D01*
X99695000Y-116435000D02*
X99695000Y-117100000D01*
X99695000Y-117100000D02*
X99060000Y-117735000D01*
X99060000Y-117735000D02*
X95510000Y-117735000D01*
X106680000Y-85705000D02*
X113030000Y-85705000D01*
X106680000Y-83165000D02*
X113030000Y-83165000D01*
X95250000Y-103820000D02*
X95250000Y-104775000D01*
X85090000Y-104775000D02*
X95250000Y-104775000D01*
X70485000Y-106680000D02*
X70170000Y-106995000D01*
X70170000Y-106995000D02*
X70170000Y-107950000D01*
X71120000Y-106680000D02*
X70485000Y-106680000D01*
X72070000Y-105730000D02*
X71120000Y-106680000D01*
X72070000Y-104775000D02*
X72070000Y-105730000D01*
X70485000Y-116840000D02*
X70170000Y-117155000D01*
X70170000Y-117155000D02*
X70170000Y-118110000D01*
X71120000Y-116840000D02*
X70485000Y-116840000D01*
X72070000Y-115890000D02*
X71120000Y-116840000D01*
X72070000Y-114935000D02*
X72070000Y-115890000D01*
X90170000Y-83185000D02*
X88585000Y-83185000D01*
X88585000Y-83185000D02*
X88490000Y-83280000D01*
X88265000Y-81915000D02*
X88265000Y-83055000D01*
X88265000Y-83055000D02*
X88490000Y-83280000D01*
X88265000Y-84455000D02*
X88265000Y-83505000D01*
X88265000Y-83505000D02*
X88490000Y-83280000D01*
X85725000Y-84455000D02*
X85725000Y-82280000D01*
X80645000Y-85090000D02*
X78930000Y-85090000D01*
X78930000Y-85090000D02*
X78740000Y-85280000D01*
X80645000Y-83820000D02*
X80200000Y-83820000D01*
X80200000Y-83820000D02*
X78740000Y-85280000D01*
X76835000Y-85090000D02*
X78550000Y-85090000D01*
X78550000Y-85090000D02*
X78740000Y-85280000D01*
X76835000Y-83820000D02*
X77280000Y-83820000D01*
X77280000Y-83820000D02*
X78740000Y-85280000D01*
X72686000Y-76200000D02*
X73660000Y-76200000D01*
X72686000Y-76200000D02*
X72686000Y-75269000D01*
X72686000Y-75269000D02*
X73025000Y-74930000D01*
X53340000Y-117790000D02*
X53340000Y-119380000D01*
X72686000Y-76200000D02*
X71586000Y-76200000D01*
X73025000Y-77470000D02*
X72686000Y-77131000D01*
X72686000Y-77131000D02*
X72686000Y-76200000D01*
X73025000Y-78105000D02*
X73025000Y-77470000D01*
X62500000Y-76581000D02*
X60706000Y-76581000D01*
X53340000Y-107630000D02*
X53340000Y-109220000D01*
X71866000Y-78486000D02*
X72644000Y-78486000D01*
X72644000Y-78486000D02*
X73025000Y-78105000D01*
X69215000Y-39177000D02*
X69215000Y-40640000D01*
X66675000Y-39177000D02*
X66675000Y-40640000D01*
X64135000Y-39177000D02*
X64135000Y-40640000D01*
X61595000Y-39177000D02*
X61595000Y-40640000D01*
X52385000Y-117790000D02*
X51985000Y-117390000D01*
X51985000Y-117390000D02*
X50800000Y-117390000D01*
X53340000Y-117790000D02*
X52385000Y-117790000D01*
X52385000Y-107630000D02*
X51985000Y-107230000D01*
X51985000Y-107230000D02*
X50800000Y-107230000D01*
X53340000Y-107630000D02*
X52385000Y-107630000D01*
X81915000Y-34290000D02*
X79375000Y-34290000D01*
D49*
X66066000Y-80002000D02*
X66556000Y-80002000D01*
X66556000Y-80002000D02*
X67056000Y-79502000D01*
D46*
X85725000Y-82280000D02*
X79518000Y-82280000D01*
X79518000Y-82280000D02*
X78740000Y-83058000D01*
X78740000Y-83058000D02*
X78740000Y-85280000D01*
X118840000Y-41735000D02*
X118840000Y-35735000D01*
X118840000Y-50975000D02*
X118840000Y-56975000D01*
X66310000Y-82931000D02*
X60325000Y-82931000D01*
D49*
X68046000Y-78502000D02*
X68046000Y-78004000D01*
D46*
X68046000Y-78004000D02*
X68326000Y-77724000D01*
X60325000Y-82931000D02*
X57789185Y-85466815D01*
D48*
X54445000Y-101435000D02*
X55245000Y-102235000D01*
X55245000Y-102235000D02*
X57090000Y-102235000D01*
X53340000Y-101435000D02*
X54445000Y-101435000D01*
X50800000Y-101285000D02*
X51100000Y-101285000D01*
X51100000Y-101285000D02*
X52850000Y-103035000D01*
X52850000Y-103035000D02*
X53340000Y-103035000D01*
X54445000Y-111595000D02*
X55245000Y-112395000D01*
X55245000Y-112395000D02*
X57090000Y-112395000D01*
X53340000Y-111595000D02*
X54445000Y-111595000D01*
X50800000Y-111445000D02*
X51100000Y-111445000D01*
X51100000Y-111445000D02*
X52850000Y-113195000D01*
X52850000Y-113195000D02*
X53340000Y-113195000D01*
D46*
X95123000Y-81280000D02*
X94390000Y-82013000D01*
X94390000Y-82013000D02*
X94390000Y-83280000D01*
X104795000Y-81280000D02*
X95123000Y-81280000D01*
X106680000Y-83165000D02*
X104795000Y-81280000D01*
X99568000Y-77580000D02*
X95415000Y-77580000D01*
X95415000Y-77580000D02*
X94390000Y-78605000D01*
X94390000Y-78605000D02*
X94390000Y-79280000D01*
X104120000Y-85705000D02*
X103395000Y-84980000D01*
X103395000Y-84980000D02*
X99568000Y-84980000D01*
X106680000Y-85705000D02*
X104120000Y-85705000D01*
X91440000Y-96901000D02*
X94996000Y-96901000D01*
X94996000Y-96901000D02*
X95250000Y-97155000D01*
X91440000Y-107061000D02*
X94996000Y-107061000D01*
X94996000Y-107061000D02*
X95250000Y-107315000D01*
X91440000Y-117221000D02*
X94996000Y-117221000D01*
X94996000Y-117221000D02*
X95250000Y-117475000D01*
X95510000Y-117735000D02*
X95250000Y-117475000D01*
X90805000Y-119380000D02*
X91440000Y-118745000D01*
X72670000Y-118110000D02*
X73940000Y-119380000D01*
X72070000Y-118110000D02*
X72670000Y-118110000D01*
X73940000Y-119380000D02*
X90805000Y-119380000D01*
X91440000Y-118745000D02*
X91440000Y-117221000D01*
X90805000Y-109220000D02*
X91440000Y-108585000D01*
X91440000Y-108585000D02*
X91440000Y-107061000D01*
X74295000Y-109220000D02*
X90805000Y-109220000D01*
X73025000Y-107950000D02*
X74295000Y-109220000D01*
X72070000Y-107950000D02*
X73025000Y-107950000D01*
X90805000Y-99060000D02*
X91440000Y-98425000D01*
X91440000Y-98425000D02*
X91440000Y-96901000D01*
X73940000Y-99060000D02*
X90805000Y-99060000D01*
X72070000Y-97790000D02*
X72670000Y-97790000D01*
X72670000Y-97790000D02*
X73940000Y-99060000D01*
D48*
X50800000Y-103185000D02*
X50800000Y-106130000D01*
X50800000Y-113345000D02*
X50800000Y-116290000D01*
D46*
X90356500Y-90170000D02*
X69215000Y-90170000D01*
X69215000Y-90170000D02*
X64770000Y-90170000D01*
X69215000Y-91085000D02*
X69215000Y-90170000D01*
X70170000Y-91440000D02*
X69570000Y-91440000D01*
X69570000Y-91440000D02*
X69215000Y-91085000D01*
X90356500Y-90170000D02*
X91440000Y-91253500D01*
X91440000Y-91253500D02*
X91440000Y-92329000D01*
X64135000Y-96520000D02*
X64770000Y-97155000D01*
X64770000Y-97155000D02*
X66100000Y-97155000D01*
X64135000Y-90805000D02*
X64135000Y-96520000D01*
X64770000Y-90170000D02*
X64135000Y-90805000D01*
X64770000Y-100330000D02*
X69215000Y-100330000D01*
X69215000Y-100330000D02*
X90805000Y-100330000D01*
X69215000Y-101245000D02*
X69215000Y-100330000D01*
X70170000Y-101600000D02*
X69570000Y-101600000D01*
X69570000Y-101600000D02*
X69215000Y-101245000D01*
X90805000Y-100330000D02*
X91440000Y-100965000D01*
X91440000Y-100965000D02*
X91440000Y-102489000D01*
X64135000Y-100965000D02*
X64770000Y-100330000D01*
X64135000Y-106360000D02*
X64135000Y-100965000D01*
X66100000Y-107315000D02*
X65090000Y-107315000D01*
X65090000Y-107315000D02*
X64135000Y-106360000D01*
X69215000Y-110490000D02*
X90805000Y-110490000D01*
X69570000Y-111760000D02*
X69215000Y-111405000D01*
X64770000Y-110490000D02*
X69215000Y-110490000D01*
X69215000Y-111405000D02*
X69215000Y-110490000D01*
X70170000Y-111760000D02*
X69570000Y-111760000D01*
X90805000Y-110490000D02*
X91440000Y-111125000D01*
X91440000Y-111125000D02*
X91440000Y-112649000D01*
X64135000Y-111125000D02*
X64770000Y-110490000D01*
X64135000Y-116520000D02*
X64135000Y-111125000D01*
X66100000Y-117475000D02*
X65090000Y-117475000D01*
X65090000Y-117475000D02*
X64135000Y-116520000D01*
D48*
X55245000Y-94615000D02*
X54290000Y-95570000D01*
X54290000Y-95570000D02*
X53340000Y-95570000D01*
X57090000Y-94615000D02*
X55245000Y-94615000D01*
X54290000Y-105730000D02*
X55245000Y-104775000D01*
X55245000Y-104775000D02*
X57090000Y-104775000D01*
X53340000Y-105730000D02*
X54290000Y-105730000D01*
X54290000Y-115890000D02*
X55245000Y-114935000D01*
X55245000Y-114935000D02*
X57090000Y-114935000D01*
X53340000Y-115890000D02*
X54290000Y-115890000D01*
X114840000Y-35735000D02*
X114840000Y-41735000D01*
X114840000Y-50975000D02*
X114840000Y-56975000D01*
X64135000Y-34290000D02*
X64135000Y-37277000D01*
X61595000Y-34290000D02*
X61595000Y-37277000D01*
D49*
X68908000Y-78740000D02*
X68908000Y-78694000D01*
X68908000Y-78694000D02*
X69116000Y-78486000D01*
D46*
X69116000Y-78486000D02*
X69866000Y-78486000D01*
D49*
X68046000Y-79002000D02*
X68646000Y-79002000D01*
X68646000Y-79002000D02*
X68908000Y-78740000D01*
D48*
X66066000Y-77242000D02*
X65405000Y-76581000D01*
X65405000Y-76581000D02*
X64500000Y-76581000D01*
D47*
X66066000Y-78502000D02*
X66066000Y-77242000D01*
D49*
X66066000Y-80502000D02*
X64491630Y-80502000D01*
D46*
X64491630Y-80502000D02*
X63622815Y-79633185D01*
X71993000Y-80756000D02*
X71239000Y-80002000D01*
D49*
X71239000Y-80002000D02*
X68046000Y-80002000D01*
D46*
X71993000Y-82931000D02*
X71993000Y-80756000D01*
X76506000Y-80264000D02*
X78006000Y-80264000D01*
X78006000Y-80264000D02*
X78740000Y-79530000D01*
D49*
X68046000Y-79502000D02*
X68046000Y-80002000D01*
D46*
X85725000Y-80280000D02*
X79490000Y-80280000D01*
X79490000Y-80280000D02*
X78740000Y-79530000D01*
X78740000Y-79530000D02*
X78740000Y-77280000D01*
X88490000Y-79280000D02*
X85975000Y-79280000D01*
X85975000Y-79280000D02*
X85725000Y-79530000D01*
X85725000Y-79530000D02*
X85725000Y-80280000D01*
X69993000Y-82931000D02*
X69993000Y-81391008D01*
X69993000Y-81391008D02*
X70104008Y-81280000D01*
X68961000Y-81280000D02*
X70104008Y-81280000D01*
X68310000Y-81280000D02*
X68961000Y-81280000D01*
D49*
X68046000Y-80502000D02*
X68046000Y-81016000D01*
D46*
X68046000Y-81016000D02*
X68310000Y-81280000D01*
X68310000Y-81280000D02*
X68310000Y-82931000D01*
D47*
X112425000Y-69880000D02*
X111820000Y-70485000D01*
D46*
X111820000Y-70485000D02*
X111760000Y-70485000D01*
D47*
X113220000Y-69880000D02*
X112425000Y-69880000D01*
D46*
X111760000Y-70485000D02*
X111760000Y-71120000D01*
X110490000Y-72390000D02*
X111760000Y-71120000D01*
X100645000Y-72390000D02*
X110490000Y-72390000D01*
X102108000Y-72390000D02*
X100645000Y-72390000D01*
X100645000Y-72390000D02*
X100645000Y-73025000D01*
X100945000Y-74295000D02*
X100945000Y-73541000D01*
X100945000Y-73541000D02*
X100645000Y-73241000D01*
X100645000Y-73241000D02*
X100645000Y-73025000D01*
D48*
X104140000Y-69230000D02*
X102855000Y-69230000D01*
X104330000Y-69230000D02*
X104140000Y-69230000D01*
X104140000Y-69230000D02*
X113220000Y-69230000D01*
X102855000Y-69230000D02*
X101600000Y-70485000D01*
X101600000Y-70485000D02*
X100645000Y-70485000D01*
X102855000Y-67930000D02*
X113220000Y-67930000D01*
X102855000Y-67930000D02*
X101600000Y-66675000D01*
X101600000Y-66675000D02*
X100645000Y-66675000D01*
X100645000Y-68580000D02*
X113220000Y-68580000D01*
D46*
X98745000Y-64770000D02*
X98745000Y-61275000D01*
X99695000Y-60325000D02*
X98745000Y-61275000D01*
X107950000Y-60325000D02*
X99695000Y-60325000D01*
X109855000Y-62230000D02*
X107950000Y-60325000D01*
X113665000Y-62230000D02*
X115920000Y-64485000D01*
X113665000Y-62230000D02*
X109855000Y-62230000D01*
X115920000Y-64485000D02*
X115920000Y-65080000D01*
X115920000Y-71480000D02*
X115920000Y-72080000D01*
X115920000Y-69580000D02*
X115920000Y-71480000D01*
X115920000Y-67580000D02*
X115920000Y-69580000D01*
X115920000Y-65680000D02*
X115920000Y-67580000D01*
X115920000Y-65080000D02*
X115920000Y-65680000D01*
D48*
X60325000Y-73230740D02*
X60325000Y-71120000D01*
X60325000Y-71120000D02*
X60960000Y-70485000D01*
X60960000Y-70485000D02*
X71755000Y-70485000D01*
X71755000Y-70485000D02*
X73660000Y-68580000D01*
X60325000Y-75311000D02*
X59436000Y-76200000D01*
X59436000Y-76200000D02*
X55560000Y-76200000D01*
X60325000Y-73230740D02*
X60325000Y-75311000D01*
X69850000Y-69850000D02*
X59563000Y-69850000D01*
X69850000Y-69850000D02*
X71120000Y-68580000D01*
X59563000Y-69850000D02*
X57785000Y-71628000D01*
X57785000Y-71628000D02*
X57785000Y-73230740D01*
X56720740Y-73230740D02*
X56515000Y-73025000D01*
X56515000Y-73025000D02*
X55560000Y-73025000D01*
X57785000Y-73230740D02*
X56720740Y-73230740D01*
X61595000Y-73230740D02*
X61595000Y-71755000D01*
X61595000Y-71755000D02*
X62230000Y-71120000D01*
X62230000Y-71120000D02*
X73660000Y-71120000D01*
X73660000Y-71120000D02*
X76200000Y-68580000D01*
D50*
G36*
X65214500Y-80264000D02*
X65215720Y-80276388D01*
X65219334Y-80288300D01*
X65225202Y-80299279D01*
X65233099Y-80308901D01*
X65242721Y-80316798D01*
X65253700Y-80322666D01*
X65265612Y-80326280D01*
X65278000Y-80327500D01*
X65515014Y-80327500D01*
X65526502Y-80341498D01*
X65567113Y-80374826D01*
X65613445Y-80399590D01*
X65663718Y-80414841D01*
X65716000Y-80419990D01*
X66357500Y-80419990D01*
X66357500Y-80999698D01*
X66140698Y-81216500D01*
X65024000Y-81216500D01*
X65011612Y-81217720D01*
X64999700Y-81221334D01*
X64988721Y-81227202D01*
X64979099Y-81235099D01*
X64616698Y-81597500D01*
X60769500Y-81597500D01*
X60769500Y-78041500D01*
X65214500Y-78041500D01*
X65214500Y-80264000D01*
X65214500Y-80264000D01*
G37*
X65214500Y-80264000D02*
X65215720Y-80276388D01*
X65219334Y-80288300D01*
X65225202Y-80299279D01*
X65233099Y-80308901D01*
X65242721Y-80316798D01*
X65253700Y-80322666D01*
X65265612Y-80326280D01*
X65278000Y-80327500D01*
X65515014Y-80327500D01*
X65526502Y-80341498D01*
X65567113Y-80374826D01*
X65613445Y-80399590D01*
X65663718Y-80414841D01*
X65716000Y-80419990D01*
X66357500Y-80419990D01*
X66357500Y-80999698D01*
X66140698Y-81216500D01*
X65024000Y-81216500D01*
X65011612Y-81217720D01*
X64999700Y-81221334D01*
X64988721Y-81227202D01*
X64979099Y-81235099D01*
X64616698Y-81597500D01*
X60769500Y-81597500D01*
X60769500Y-78041500D01*
X65214500Y-78041500D01*
X65214500Y-80264000D01*
D47*
G36*
X70612000Y-80697606D02*
X70612000Y-83767394D01*
X70559394Y-83820000D01*
X67870606Y-83820000D01*
X67818000Y-83767394D01*
X67818000Y-80645000D01*
X70559394Y-80645000D01*
X70612000Y-80697606D01*
X70612000Y-80697606D01*
G37*
X70612000Y-80697606D02*
X70612000Y-83767394D01*
X70559394Y-83820000D01*
X67870606Y-83820000D01*
X67818000Y-83767394D01*
X67818000Y-80645000D01*
X70559394Y-80645000D01*
X70612000Y-80697606D01*
G36*
X71882000Y-73966606D02*
X71882000Y-76454000D01*
X69013606Y-76454000D01*
X68961000Y-76401394D01*
X68961000Y-73966606D01*
X69013606Y-73914000D01*
X71829394Y-73914000D01*
X71882000Y-73966606D01*
X71882000Y-73966606D01*
G37*
X71882000Y-73966606D02*
X71882000Y-76454000D01*
X69013606Y-76454000D01*
X68961000Y-76401394D01*
X68961000Y-73966606D01*
X69013606Y-73914000D01*
X71829394Y-73914000D01*
X71882000Y-73966606D01*
G36*
X68834000Y-79502000D02*
X68836440Y-79526776D01*
X68843667Y-79550601D01*
X68855403Y-79572557D01*
X68871197Y-79591803D01*
X68998197Y-79718803D01*
X69017443Y-79734597D01*
X69039399Y-79746333D01*
X69063224Y-79753560D01*
X69088000Y-79756000D01*
X72718394Y-79756000D01*
X72771000Y-79808606D01*
X72771000Y-83640394D01*
X72718394Y-83693000D01*
X71426606Y-83693000D01*
X71374000Y-83640394D01*
X71374000Y-80391000D01*
X71371560Y-80366224D01*
X71364333Y-80342399D01*
X71352597Y-80320443D01*
X71336803Y-80301197D01*
X71209803Y-80174197D01*
X71190557Y-80158403D01*
X71168601Y-80146667D01*
X71144776Y-80139440D01*
X71120000Y-80137000D01*
X68712431Y-80137000D01*
X68666711Y-80081289D01*
X68608696Y-80033678D01*
X68542508Y-79998299D01*
X68470689Y-79976513D01*
X68396000Y-79969157D01*
X67838843Y-79969157D01*
X67838843Y-79534843D01*
X68396000Y-79534843D01*
X68470689Y-79527487D01*
X68534929Y-79508000D01*
X68621154Y-79508000D01*
X68646000Y-79510447D01*
X68670846Y-79508000D01*
X68670854Y-79508000D01*
X68745193Y-79500678D01*
X68834000Y-79473739D01*
X68834000Y-79502000D01*
X68834000Y-79502000D01*
G37*
X68834000Y-79502000D02*
X68836440Y-79526776D01*
X68843667Y-79550601D01*
X68855403Y-79572557D01*
X68871197Y-79591803D01*
X68998197Y-79718803D01*
X69017443Y-79734597D01*
X69039399Y-79746333D01*
X69063224Y-79753560D01*
X69088000Y-79756000D01*
X72718394Y-79756000D01*
X72771000Y-79808606D01*
X72771000Y-83640394D01*
X72718394Y-83693000D01*
X71426606Y-83693000D01*
X71374000Y-83640394D01*
X71374000Y-80391000D01*
X71371560Y-80366224D01*
X71364333Y-80342399D01*
X71352597Y-80320443D01*
X71336803Y-80301197D01*
X71209803Y-80174197D01*
X71190557Y-80158403D01*
X71168601Y-80146667D01*
X71144776Y-80139440D01*
X71120000Y-80137000D01*
X68712431Y-80137000D01*
X68666711Y-80081289D01*
X68608696Y-80033678D01*
X68542508Y-79998299D01*
X68470689Y-79976513D01*
X68396000Y-79969157D01*
X67838843Y-79969157D01*
X67838843Y-79534843D01*
X68396000Y-79534843D01*
X68470689Y-79527487D01*
X68534929Y-79508000D01*
X68621154Y-79508000D01*
X68646000Y-79510447D01*
X68670846Y-79508000D01*
X68670854Y-79508000D01*
X68745193Y-79500678D01*
X68834000Y-79473739D01*
X68834000Y-79502000D01*
G36*
X66675000Y-87122000D02*
X56134000Y-87122000D01*
X56134000Y-82423000D01*
X66675000Y-82423000D01*
X66675000Y-87122000D01*
X66675000Y-87122000D01*
G37*
X66675000Y-87122000D02*
X56134000Y-87122000D01*
X56134000Y-82423000D01*
X66675000Y-82423000D01*
X66675000Y-87122000D01*
M02*
