G04 #@! TF.GenerationSoftware,KiCad,Pcbnew,5.0.0-rc2-dev-unknown-9e8bcbe~62~ubuntu16.04.1*
G04 #@! TF.CreationDate,2018-03-20T14:36:24+05:30*
G04 #@! TF.ProjectId,wyostat,77796F737461742E6B696361645F7063,rev?*
G04 #@! TF.SameCoordinates,Original*
G04 #@! TF.FileFunction,Copper,L2,Bot,Signal*
G04 #@! TF.FilePolarity,Positive*
%FSLAX46Y46*%
G04 Gerber Fmt 4.6, Leading zero omitted, Abs format (unit mm)*
G04 Created by KiCad (PCBNEW 5.0.0-rc2-dev-unknown-9e8bcbe~62~ubuntu16.04.1) date Tue Mar 20 14:36:24 2018*
%MOMM*%
%LPD*%
G01*
G04 APERTURE LIST*
%ADD10R,7.620000X5.080000*%
%ADD11C,1.778000*%
%ADD12C,0.508000*%
%ADD13O,1.900000X1.200000*%
%ADD14C,1.450000*%
%ADD15O,1.727200X2.032000*%
%ADD16R,1.727200X2.032000*%
%ADD17O,1.998980X1.998980*%
%ADD18R,1.998980X1.998980*%
%ADD19C,0.800000*%
%ADD20C,6.400000*%
%ADD21C,0.812800*%
%ADD22C,0.762000*%
%ADD23C,0.381000*%
%ADD24C,0.254000*%
G04 APERTURE END LIST*
D10*
X55880000Y-94488000D03*
X55880000Y-85852000D03*
X106680000Y-94488000D03*
X106680000Y-68072000D03*
X106680000Y-85852000D03*
X106680000Y-76708000D03*
X55880000Y-76708000D03*
X55880000Y-68072000D03*
D11*
X46355000Y-59690000D03*
X48895000Y-59690000D03*
X51435000Y-59690000D03*
X53975000Y-59690000D03*
X56515000Y-59690000D03*
X59055000Y-59690000D03*
X61595000Y-59690000D03*
X64135000Y-59690000D03*
X66675000Y-59690000D03*
X69215000Y-59690000D03*
X84455000Y-34290000D03*
X81915000Y-34290000D03*
X79375000Y-34290000D03*
X76835000Y-34290000D03*
X74295000Y-34290000D03*
X71755000Y-34290000D03*
X69215000Y-34290000D03*
X66675000Y-34290000D03*
X64135000Y-34290000D03*
X61595000Y-34290000D03*
X59055000Y-34290000D03*
X56515000Y-34290000D03*
X53975000Y-34290000D03*
X51435000Y-34290000D03*
X48895000Y-34290000D03*
X46355000Y-34290000D03*
D12*
G36*
X76688069Y-67693140D02*
X76731218Y-67699541D01*
X76773532Y-67710140D01*
X76814603Y-67724836D01*
X76854036Y-67743486D01*
X76891451Y-67765912D01*
X76926488Y-67791897D01*
X76958809Y-67821191D01*
X76988103Y-67853512D01*
X77014088Y-67888549D01*
X77036514Y-67925964D01*
X77055164Y-67965397D01*
X77069860Y-68006468D01*
X77080459Y-68048782D01*
X77086860Y-68091931D01*
X77089000Y-68135500D01*
X77089000Y-69024500D01*
X77086860Y-69068069D01*
X77080459Y-69111218D01*
X77069860Y-69153532D01*
X77055164Y-69194603D01*
X77036514Y-69234036D01*
X77014088Y-69271451D01*
X76988103Y-69306488D01*
X76958809Y-69338809D01*
X76926488Y-69368103D01*
X76891451Y-69394088D01*
X76854036Y-69416514D01*
X76814603Y-69435164D01*
X76773532Y-69449860D01*
X76731218Y-69460459D01*
X76688069Y-69466860D01*
X76644500Y-69469000D01*
X75755500Y-69469000D01*
X75711931Y-69466860D01*
X75668782Y-69460459D01*
X75626468Y-69449860D01*
X75585397Y-69435164D01*
X75545964Y-69416514D01*
X75508549Y-69394088D01*
X75473512Y-69368103D01*
X75441191Y-69338809D01*
X75411897Y-69306488D01*
X75385912Y-69271451D01*
X75363486Y-69234036D01*
X75344836Y-69194603D01*
X75330140Y-69153532D01*
X75319541Y-69111218D01*
X75313140Y-69068069D01*
X75311000Y-69024500D01*
X75311000Y-68135500D01*
X75313140Y-68091931D01*
X75319541Y-68048782D01*
X75330140Y-68006468D01*
X75344836Y-67965397D01*
X75363486Y-67925964D01*
X75385912Y-67888549D01*
X75411897Y-67853512D01*
X75441191Y-67821191D01*
X75473512Y-67791897D01*
X75508549Y-67765912D01*
X75545964Y-67743486D01*
X75585397Y-67724836D01*
X75626468Y-67710140D01*
X75668782Y-67699541D01*
X75711931Y-67693140D01*
X75755500Y-67691000D01*
X76644500Y-67691000D01*
X76688069Y-67693140D01*
X76688069Y-67693140D01*
G37*
D11*
X76200000Y-68580000D03*
D12*
G36*
X74148069Y-67693140D02*
X74191218Y-67699541D01*
X74233532Y-67710140D01*
X74274603Y-67724836D01*
X74314036Y-67743486D01*
X74351451Y-67765912D01*
X74386488Y-67791897D01*
X74418809Y-67821191D01*
X74448103Y-67853512D01*
X74474088Y-67888549D01*
X74496514Y-67925964D01*
X74515164Y-67965397D01*
X74529860Y-68006468D01*
X74540459Y-68048782D01*
X74546860Y-68091931D01*
X74549000Y-68135500D01*
X74549000Y-69024500D01*
X74546860Y-69068069D01*
X74540459Y-69111218D01*
X74529860Y-69153532D01*
X74515164Y-69194603D01*
X74496514Y-69234036D01*
X74474088Y-69271451D01*
X74448103Y-69306488D01*
X74418809Y-69338809D01*
X74386488Y-69368103D01*
X74351451Y-69394088D01*
X74314036Y-69416514D01*
X74274603Y-69435164D01*
X74233532Y-69449860D01*
X74191218Y-69460459D01*
X74148069Y-69466860D01*
X74104500Y-69469000D01*
X73215500Y-69469000D01*
X73171931Y-69466860D01*
X73128782Y-69460459D01*
X73086468Y-69449860D01*
X73045397Y-69435164D01*
X73005964Y-69416514D01*
X72968549Y-69394088D01*
X72933512Y-69368103D01*
X72901191Y-69338809D01*
X72871897Y-69306488D01*
X72845912Y-69271451D01*
X72823486Y-69234036D01*
X72804836Y-69194603D01*
X72790140Y-69153532D01*
X72779541Y-69111218D01*
X72773140Y-69068069D01*
X72771000Y-69024500D01*
X72771000Y-68135500D01*
X72773140Y-68091931D01*
X72779541Y-68048782D01*
X72790140Y-68006468D01*
X72804836Y-67965397D01*
X72823486Y-67925964D01*
X72845912Y-67888549D01*
X72871897Y-67853512D01*
X72901191Y-67821191D01*
X72933512Y-67791897D01*
X72968549Y-67765912D01*
X73005964Y-67743486D01*
X73045397Y-67724836D01*
X73086468Y-67710140D01*
X73128782Y-67699541D01*
X73171931Y-67693140D01*
X73215500Y-67691000D01*
X74104500Y-67691000D01*
X74148069Y-67693140D01*
X74148069Y-67693140D01*
G37*
D11*
X73660000Y-68580000D03*
D12*
G36*
X71608069Y-67693140D02*
X71651218Y-67699541D01*
X71693532Y-67710140D01*
X71734603Y-67724836D01*
X71774036Y-67743486D01*
X71811451Y-67765912D01*
X71846488Y-67791897D01*
X71878809Y-67821191D01*
X71908103Y-67853512D01*
X71934088Y-67888549D01*
X71956514Y-67925964D01*
X71975164Y-67965397D01*
X71989860Y-68006468D01*
X72000459Y-68048782D01*
X72006860Y-68091931D01*
X72009000Y-68135500D01*
X72009000Y-69024500D01*
X72006860Y-69068069D01*
X72000459Y-69111218D01*
X71989860Y-69153532D01*
X71975164Y-69194603D01*
X71956514Y-69234036D01*
X71934088Y-69271451D01*
X71908103Y-69306488D01*
X71878809Y-69338809D01*
X71846488Y-69368103D01*
X71811451Y-69394088D01*
X71774036Y-69416514D01*
X71734603Y-69435164D01*
X71693532Y-69449860D01*
X71651218Y-69460459D01*
X71608069Y-69466860D01*
X71564500Y-69469000D01*
X70675500Y-69469000D01*
X70631931Y-69466860D01*
X70588782Y-69460459D01*
X70546468Y-69449860D01*
X70505397Y-69435164D01*
X70465964Y-69416514D01*
X70428549Y-69394088D01*
X70393512Y-69368103D01*
X70361191Y-69338809D01*
X70331897Y-69306488D01*
X70305912Y-69271451D01*
X70283486Y-69234036D01*
X70264836Y-69194603D01*
X70250140Y-69153532D01*
X70239541Y-69111218D01*
X70233140Y-69068069D01*
X70231000Y-69024500D01*
X70231000Y-68135500D01*
X70233140Y-68091931D01*
X70239541Y-68048782D01*
X70250140Y-68006468D01*
X70264836Y-67965397D01*
X70283486Y-67925964D01*
X70305912Y-67888549D01*
X70331897Y-67853512D01*
X70361191Y-67821191D01*
X70393512Y-67791897D01*
X70428549Y-67765912D01*
X70465964Y-67743486D01*
X70505397Y-67724836D01*
X70546468Y-67710140D01*
X70588782Y-67699541D01*
X70631931Y-67693140D01*
X70675500Y-67691000D01*
X71564500Y-67691000D01*
X71608069Y-67693140D01*
X71608069Y-67693140D01*
G37*
D11*
X71120000Y-68580000D03*
D13*
X115920000Y-65080000D03*
X115920000Y-72080000D03*
D14*
X113220000Y-66080000D03*
X113220000Y-71080000D03*
D15*
X36449000Y-64262000D03*
X38989000Y-64262000D03*
X41529000Y-64262000D03*
D16*
X44069000Y-64262000D03*
D17*
X113030000Y-93325000D03*
D18*
X113030000Y-95865000D03*
D17*
X113030000Y-83165000D03*
D18*
X113030000Y-85705000D03*
D17*
X113030000Y-103485000D03*
D18*
X113030000Y-106025000D03*
D17*
X113030000Y-113645000D03*
D18*
X113030000Y-116185000D03*
D16*
X92075000Y-72390000D03*
D15*
X89535000Y-72390000D03*
X86995000Y-72390000D03*
X84455000Y-72390000D03*
D19*
X38527056Y-35132944D03*
X36830000Y-34430000D03*
X35132944Y-35132944D03*
X34430000Y-36830000D03*
X35132944Y-38527056D03*
X36830000Y-39230000D03*
X38527056Y-38527056D03*
X39230000Y-36830000D03*
D20*
X36830000Y-36830000D03*
D19*
X127427056Y-35132944D03*
X125730000Y-34430000D03*
X124032944Y-35132944D03*
X123330000Y-36830000D03*
X124032944Y-38527056D03*
X125730000Y-39230000D03*
X127427056Y-38527056D03*
X128130000Y-36830000D03*
D20*
X125730000Y-36830000D03*
X36830000Y-125730000D03*
D19*
X39230000Y-125730000D03*
X38527056Y-127427056D03*
X36830000Y-128130000D03*
X35132944Y-127427056D03*
X34430000Y-125730000D03*
X35132944Y-124032944D03*
X36830000Y-123330000D03*
X38527056Y-124032944D03*
D20*
X125730000Y-125730000D03*
D19*
X128130000Y-125730000D03*
X127427056Y-127427056D03*
X125730000Y-128130000D03*
X124032944Y-127427056D03*
X123330000Y-125730000D03*
X124032944Y-124032944D03*
X125730000Y-123330000D03*
X127427056Y-124032944D03*
D21*
X97790000Y-94615000D03*
X97790000Y-104775000D03*
X85090000Y-114935000D03*
X53340000Y-100330000D03*
X69850000Y-64770000D03*
X69850000Y-63500000D03*
X68580000Y-63500000D03*
X35560000Y-75183994D03*
X35560000Y-88646000D03*
X49530000Y-80264000D03*
X49530000Y-82296000D03*
X49530000Y-81280000D03*
X35560000Y-87629998D03*
X35560000Y-89662000D03*
X49530000Y-89662000D03*
X49530000Y-87629998D03*
X49530000Y-88646000D03*
X49530000Y-74168000D03*
X35560000Y-74168000D03*
X35560000Y-73152000D03*
X49530000Y-75184002D03*
X49530000Y-73152000D03*
X67945000Y-75565014D03*
X105664000Y-61595000D03*
X104648000Y-61595000D03*
X103632000Y-61595000D03*
X102616000Y-61595000D03*
X101600000Y-61595000D03*
X83185000Y-40640000D03*
X81915000Y-40640000D03*
X80645000Y-40640000D03*
X79375000Y-40640000D03*
X36830000Y-69723004D03*
X68580000Y-64770000D03*
X97282000Y-74295000D03*
X75565000Y-81280000D03*
X74930000Y-81915000D03*
X74295000Y-82550000D03*
X49530000Y-91440000D03*
X47625000Y-100330000D03*
X50800000Y-109982000D03*
X45085000Y-61595000D03*
X46354994Y-70485000D03*
X46355000Y-92075000D03*
X61722000Y-61722000D03*
X95250000Y-87630000D03*
X53340000Y-119380000D03*
X73660000Y-76200000D03*
X73025000Y-74930000D03*
X90170000Y-83185000D03*
X88265000Y-81915000D03*
X88265000Y-84455000D03*
X81915000Y-83820000D03*
X80645000Y-85090000D03*
X80645000Y-83820000D03*
X81915000Y-85090000D03*
X76835000Y-85090000D03*
X76835000Y-83820000D03*
X53340000Y-109220000D03*
X73025000Y-78105000D03*
X69215000Y-40640000D03*
X66675000Y-40640000D03*
X64135000Y-40640000D03*
X61595000Y-40640000D03*
X68326000Y-77724000D03*
X95250000Y-97155000D03*
X95250000Y-107315000D03*
X95250000Y-117475000D03*
X70104008Y-81280000D03*
X69850000Y-75565000D03*
X68961000Y-81280000D03*
X70866000Y-76200000D03*
D22*
X100330000Y-88265000D02*
X100330000Y-94615000D01*
X100330000Y-94615000D02*
X100330000Y-97155000D01*
X97790000Y-94615000D02*
X100330000Y-94615000D01*
X102235000Y-99060000D02*
X100330000Y-97155000D01*
X100330000Y-88265000D02*
X102743000Y-85852000D01*
X111596490Y-99060000D02*
X102235000Y-99060000D01*
X113030000Y-95865000D02*
X113030000Y-97626490D01*
X113030000Y-97626490D02*
X111596490Y-99060000D01*
X102743000Y-85852000D02*
X106680000Y-85852000D01*
X97790000Y-91440000D02*
X95885000Y-93345000D01*
X102362000Y-76708000D02*
X97790000Y-81280000D01*
X97790000Y-81280000D02*
X97790000Y-91440000D01*
X106680000Y-76708000D02*
X102362000Y-76708000D01*
X95885000Y-93345000D02*
X95885000Y-95250000D01*
X95885000Y-95250000D02*
X97790000Y-97155000D01*
X97790000Y-97155000D02*
X97790000Y-104775000D01*
X97790000Y-104775000D02*
X100330000Y-104775000D01*
X100330000Y-104775000D02*
X101580000Y-106025000D01*
X101580000Y-106025000D02*
X113030000Y-106025000D01*
X111760000Y-122555000D02*
X113030000Y-121285000D01*
X88265000Y-122555000D02*
X111760000Y-122555000D01*
X86995000Y-114935000D02*
X86995000Y-121285000D01*
X86995000Y-121285000D02*
X88265000Y-122555000D01*
X113030000Y-121285000D02*
X113030000Y-116185000D01*
X85090000Y-92710000D02*
X86995000Y-94615000D01*
X55880000Y-85852000D02*
X60452000Y-85852000D01*
X60452000Y-85852000D02*
X67310000Y-92710000D01*
X67310000Y-92710000D02*
X85090000Y-92710000D01*
X86995000Y-94615000D02*
X86995000Y-114935000D01*
X86995000Y-114935000D02*
X85090000Y-114935000D01*
X84455000Y-84455000D02*
X88265000Y-84455000D01*
X83820000Y-83820000D02*
X84455000Y-84455000D01*
X81915000Y-83820000D02*
X83820000Y-83820000D01*
X76835000Y-83820000D02*
X76835000Y-85090000D01*
X81915000Y-83820000D02*
X81915000Y-85090000D01*
X80645000Y-83820000D02*
X80645000Y-85090000D01*
X76835000Y-85090000D02*
X80645000Y-85090000D01*
X37084000Y-66675000D02*
X38100000Y-66675000D01*
X36449000Y-66040000D02*
X37084000Y-66675000D01*
X38100000Y-66675000D02*
X40005000Y-68580000D01*
X36449000Y-64262000D02*
X36449000Y-66040000D01*
X40005000Y-96520000D02*
X47625000Y-104140000D01*
X40005000Y-68580000D02*
X40005000Y-96520000D01*
X47625000Y-104140000D02*
X53340000Y-104140000D01*
X53340000Y-104140000D02*
X53340000Y-100330000D01*
X101600000Y-61595000D02*
X69850000Y-61595000D01*
X69850000Y-61595000D02*
X68580000Y-61595000D01*
X69850000Y-63500000D02*
X69850000Y-61595000D01*
X69850000Y-64770000D02*
X69850000Y-63500000D01*
X68580000Y-61595000D02*
X67310000Y-61595000D01*
X68580000Y-63500000D02*
X68580000Y-61595000D01*
X67310000Y-61595000D02*
X66675000Y-60960000D01*
X66675000Y-60960000D02*
X66675000Y-59690000D01*
X35560000Y-75183994D02*
X36703006Y-75183994D01*
X36703006Y-75183994D02*
X36830000Y-75057000D01*
X35560000Y-74168000D02*
X36703000Y-74168000D01*
X36703000Y-74168000D02*
X36830000Y-74041000D01*
X35560000Y-73152000D02*
X36703000Y-73152000D01*
X36703000Y-73152000D02*
X36830000Y-73025000D01*
X35560000Y-89662000D02*
X36703000Y-89662000D01*
X36703000Y-89662000D02*
X36830000Y-89535000D01*
X36830000Y-87630000D02*
X36830000Y-88646000D01*
X36134736Y-87629998D02*
X36134738Y-87630000D01*
X36830000Y-75057000D02*
X36830000Y-87630000D01*
X35560000Y-87629998D02*
X36134736Y-87629998D01*
X36134738Y-87630000D02*
X36830000Y-87630000D01*
X36830000Y-88646000D02*
X36830000Y-89535000D01*
X35560000Y-88646000D02*
X36830000Y-88646000D01*
X36830000Y-74041000D02*
X36830000Y-75057000D01*
X36830000Y-73025000D02*
X36830000Y-74041000D01*
X36830000Y-70485000D02*
X36830000Y-71882000D01*
X36830000Y-70485000D02*
X36830000Y-73025000D01*
X36830000Y-73025000D02*
X36830000Y-73913994D01*
X36830000Y-89535000D02*
X36830000Y-106680000D01*
X36830000Y-69723004D02*
X36830000Y-70485000D01*
X69850014Y-73660000D02*
X67945000Y-75565014D01*
X70485000Y-73660000D02*
X69850014Y-73660000D01*
X72390000Y-73660000D02*
X70485000Y-73660000D01*
X72390000Y-71120000D02*
X70485000Y-73025000D01*
X70485000Y-73025000D02*
X70485000Y-73660000D01*
X78105000Y-71120000D02*
X72390000Y-71120000D01*
X79375000Y-69850000D02*
X78105000Y-71120000D01*
X95885000Y-69850000D02*
X79375000Y-69850000D01*
X97282000Y-71247000D02*
X95885000Y-69850000D01*
X97282000Y-74295000D02*
X97282000Y-71247000D01*
X88265000Y-78105000D02*
X88265000Y-81915000D01*
X92075000Y-74295000D02*
X88265000Y-78105000D01*
X97282000Y-74295000D02*
X92075000Y-74295000D01*
X73025000Y-74295000D02*
X72390000Y-73660000D01*
X73025000Y-75565000D02*
X73025000Y-74295000D01*
X73025000Y-78105000D02*
X73025000Y-76835000D01*
X73025000Y-76835000D02*
X73660000Y-76200000D01*
X73025000Y-75565000D02*
X73660000Y-76200000D01*
X80645000Y-83820000D02*
X76835000Y-83820000D01*
X90170000Y-83185000D02*
X89535000Y-83185000D01*
X89535000Y-83185000D02*
X88265000Y-84455000D01*
X88265000Y-81915000D02*
X88900000Y-81915000D01*
X88900000Y-81915000D02*
X90170000Y-83185000D01*
X45085000Y-119380000D02*
X36830000Y-111125000D01*
X36830000Y-111125000D02*
X36830000Y-106680000D01*
X53340000Y-119380000D02*
X45085000Y-119380000D01*
X53340000Y-109220000D02*
X53340000Y-104140000D01*
X69215000Y-40640000D02*
X61595000Y-40640000D01*
X79375000Y-34290000D02*
X79375000Y-45339000D01*
X79375000Y-45339000D02*
X77978000Y-46736000D01*
X67564000Y-46736000D02*
X77978000Y-46736000D01*
X66675000Y-47625000D02*
X67564000Y-46736000D01*
X66675000Y-59690000D02*
X66675000Y-47625000D01*
X74295000Y-82550000D02*
X67945000Y-82550000D01*
X67945000Y-82550000D02*
X67310000Y-81915000D01*
X67310000Y-81915000D02*
X67310000Y-78740000D01*
X67310000Y-78740000D02*
X68326000Y-77724000D01*
X74295000Y-82550000D02*
X75565000Y-81280000D01*
X75565000Y-73914000D02*
X77089000Y-72390000D01*
X75565000Y-81280000D02*
X75565000Y-73914000D01*
X77089000Y-72390000D02*
X84455000Y-72390000D01*
D23*
X46167736Y-93792736D02*
X44450000Y-92075000D01*
X44450000Y-70739000D02*
X46609000Y-68580000D01*
X48447264Y-93792736D02*
X46167736Y-93792736D01*
X49530000Y-92710000D02*
X48447264Y-93792736D01*
X49530000Y-91440000D02*
X49530000Y-92710000D01*
X44450000Y-92075000D02*
X44450000Y-70739000D01*
X46609000Y-68580000D02*
X46609000Y-64516000D01*
X46609000Y-64516000D02*
X51435000Y-59690000D01*
X43180000Y-70612000D02*
X43180000Y-95885000D01*
X45720000Y-62865000D02*
X45720000Y-68072000D01*
X45720000Y-68072000D02*
X43180000Y-70612000D01*
X43180000Y-95885000D02*
X47625000Y-100330000D01*
X48895000Y-59690000D02*
X45720000Y-62865000D01*
X37465000Y-67945000D02*
X34290000Y-67945000D01*
X50800000Y-109982000D02*
X38735000Y-97917000D01*
X38735000Y-69215000D02*
X37465000Y-67945000D01*
X38735000Y-97917000D02*
X38735000Y-69215000D01*
X34290000Y-67945000D02*
X33655000Y-67310000D01*
X33655000Y-67310000D02*
X33655000Y-55880000D01*
X33655000Y-55880000D02*
X34290000Y-55245000D01*
X48895000Y-54610000D02*
X48895000Y-34290000D01*
X34290000Y-55245000D02*
X48260000Y-55245000D01*
X48260000Y-55245000D02*
X48895000Y-54610000D01*
X41529000Y-64262000D02*
X41529000Y-64109600D01*
X41529000Y-64109600D02*
X44043600Y-61595000D01*
X44043600Y-61595000D02*
X45085000Y-61595000D01*
X47498000Y-69342000D02*
X46355000Y-70485000D01*
X50673000Y-61722000D02*
X47498000Y-64897000D01*
X61722000Y-61722000D02*
X50673000Y-61722000D01*
X47498000Y-64897000D02*
X47498000Y-69342000D01*
X46355000Y-70485000D02*
X46354994Y-70485000D01*
X46355000Y-70485006D02*
X46354994Y-70485000D01*
X46355000Y-92075000D02*
X46355000Y-70485006D01*
D22*
X64770000Y-69215000D02*
X63500000Y-67945000D01*
X69850000Y-87630000D02*
X64770000Y-82550000D01*
X64770000Y-82550000D02*
X64770000Y-69215000D01*
X92075000Y-87630000D02*
X69850000Y-87630000D01*
X63500000Y-67945000D02*
X55880000Y-67945000D01*
X95250000Y-87630000D02*
X92075000Y-87630000D01*
X92075000Y-88900000D02*
X92075000Y-87630000D01*
X92075000Y-116205000D02*
X92075000Y-107315000D01*
X92075000Y-107315000D02*
X92075000Y-97155000D01*
X95250000Y-107315000D02*
X92075000Y-107315000D01*
X92075000Y-97155000D02*
X92075000Y-88900000D01*
X95250000Y-97155000D02*
X92075000Y-97155000D01*
X93345000Y-117475000D02*
X92075000Y-116205000D01*
X95250000Y-117475000D02*
X93345000Y-117475000D01*
X68580000Y-90170000D02*
X62230000Y-83820000D01*
X85725000Y-90170000D02*
X68580000Y-90170000D01*
X62230000Y-78105000D02*
X60833000Y-76708000D01*
X89535000Y-93980000D02*
X85725000Y-90170000D01*
X89535000Y-118745000D02*
X89535000Y-93980000D01*
X90551000Y-119761000D02*
X89535000Y-118745000D01*
X113030000Y-113645000D02*
X99715000Y-113645000D01*
X99715000Y-113645000D02*
X98425000Y-114935000D01*
X98425000Y-114935000D02*
X98425000Y-118745000D01*
X97409000Y-119761000D02*
X90551000Y-119761000D01*
X98425000Y-118745000D02*
X97409000Y-119761000D01*
X62230000Y-83820000D02*
X62230000Y-78105000D01*
X60833000Y-76708000D02*
X55880000Y-76708000D01*
X118745000Y-82550000D02*
X118745000Y-91440000D01*
X114915000Y-91440000D02*
X118745000Y-91440000D01*
X118745000Y-91440000D02*
X118745000Y-101600000D01*
X113030000Y-93325000D02*
X114915000Y-91440000D01*
X118745000Y-101600000D02*
X118745000Y-111125000D01*
X114915000Y-101600000D02*
X118745000Y-101600000D01*
X113030000Y-103485000D02*
X114915000Y-101600000D01*
X118110000Y-111760000D02*
X114915000Y-111760000D01*
X114915000Y-111760000D02*
X113030000Y-113645000D01*
X118745000Y-111125000D02*
X118110000Y-111760000D01*
X117475000Y-81280000D02*
X118745000Y-82550000D01*
X114915000Y-81280000D02*
X117475000Y-81280000D01*
X113030000Y-83165000D02*
X114915000Y-81280000D01*
X68961000Y-81280000D02*
X68961000Y-80010000D01*
X69850000Y-75565000D02*
X69850000Y-79121000D01*
X69850000Y-79121000D02*
X68961000Y-80010000D01*
X70866000Y-76200000D02*
X70866000Y-80518008D01*
X70866000Y-80518008D02*
X70104008Y-81280000D01*
X53340000Y-119380000D02*
X53340000Y-109220000D01*
X64770000Y-45085000D02*
X64135000Y-45720000D01*
X76200000Y-45085000D02*
X64770000Y-45085000D01*
X76835000Y-44450000D02*
X76200000Y-45085000D01*
X76835000Y-34290000D02*
X76835000Y-44450000D01*
X64135000Y-45720000D02*
X64135000Y-59690000D01*
X69850000Y-48260000D02*
X83820000Y-48260000D01*
X69215000Y-59690000D02*
X69215000Y-48895000D01*
X69215000Y-48895000D02*
X69850000Y-48260000D01*
X83820000Y-48260000D02*
X84455000Y-47625000D01*
X84455000Y-47625000D02*
X84455000Y-34290000D01*
X113220000Y-66080000D02*
X113220000Y-71080000D01*
X115920000Y-65080000D02*
X114220000Y-65080000D01*
X114220000Y-65080000D02*
X113220000Y-66080000D01*
X115920000Y-72080000D02*
X114220000Y-72080000D01*
X114220000Y-72080000D02*
X113220000Y-71080000D01*
X115920000Y-65080000D02*
X115920000Y-72080000D01*
D24*
G36*
X114606920Y-64296526D02*
X114380408Y-64724719D01*
X114376538Y-64762391D01*
X114501269Y-64953000D01*
X115793000Y-64953000D01*
X115793000Y-64933000D01*
X116047000Y-64933000D01*
X116047000Y-64953000D01*
X116067000Y-64953000D01*
X116067000Y-65207000D01*
X116047000Y-65207000D01*
X116047000Y-66315000D01*
X116397000Y-66315000D01*
X116801901Y-66190271D01*
X116801900Y-68513709D01*
X116801900Y-68513710D01*
X116801901Y-70969729D01*
X116397000Y-70845000D01*
X116047000Y-70845000D01*
X116047000Y-71953000D01*
X116067000Y-71953000D01*
X116067000Y-72207000D01*
X116047000Y-72207000D01*
X116047000Y-72227000D01*
X115793000Y-72227000D01*
X115793000Y-72207000D01*
X114501269Y-72207000D01*
X114376538Y-72397609D01*
X114380408Y-72435281D01*
X114606920Y-72863474D01*
X114648623Y-72898000D01*
X112522000Y-72898000D01*
X112522000Y-72275604D01*
X113021146Y-72452312D01*
X113561444Y-72423949D01*
X113928878Y-72271753D01*
X113993793Y-72033398D01*
X113220000Y-71259605D01*
X113205858Y-71273748D01*
X113026253Y-71094143D01*
X113040395Y-71080000D01*
X113399605Y-71080000D01*
X114173398Y-71853793D01*
X114396576Y-71793012D01*
X114501269Y-71953000D01*
X115793000Y-71953000D01*
X115793000Y-70845000D01*
X115443000Y-70845000D01*
X114980053Y-70987610D01*
X114606920Y-71296526D01*
X114543842Y-71415768D01*
X114592312Y-71278854D01*
X114563949Y-70738556D01*
X114411753Y-70371122D01*
X114173398Y-70306207D01*
X113399605Y-71080000D01*
X113040395Y-71080000D01*
X113026253Y-71065858D01*
X113205858Y-70886253D01*
X113220000Y-70900395D01*
X113993793Y-70126602D01*
X113928878Y-69888247D01*
X113418854Y-69707688D01*
X112878556Y-69736051D01*
X112522000Y-69883741D01*
X112522000Y-67275604D01*
X113021146Y-67452312D01*
X113561444Y-67423949D01*
X113928878Y-67271753D01*
X113993793Y-67033398D01*
X113220000Y-66259605D01*
X113205858Y-66273748D01*
X113026253Y-66094143D01*
X113040395Y-66080000D01*
X113399605Y-66080000D01*
X114173398Y-66853793D01*
X114411753Y-66788878D01*
X114592312Y-66278854D01*
X114566495Y-65787055D01*
X114606920Y-65863474D01*
X114980053Y-66172390D01*
X115443000Y-66315000D01*
X115793000Y-66315000D01*
X115793000Y-65207000D01*
X114501269Y-65207000D01*
X114396576Y-65366988D01*
X114173398Y-65306207D01*
X113399605Y-66080000D01*
X113040395Y-66080000D01*
X113026253Y-66065858D01*
X113205858Y-65886253D01*
X113220000Y-65900395D01*
X113993793Y-65126602D01*
X113928878Y-64888247D01*
X113418854Y-64707688D01*
X112878556Y-64736051D01*
X112522000Y-64883741D01*
X112522000Y-64262000D01*
X114648623Y-64262000D01*
X114606920Y-64296526D01*
X114606920Y-64296526D01*
G37*
X114606920Y-64296526D02*
X114380408Y-64724719D01*
X114376538Y-64762391D01*
X114501269Y-64953000D01*
X115793000Y-64953000D01*
X115793000Y-64933000D01*
X116047000Y-64933000D01*
X116047000Y-64953000D01*
X116067000Y-64953000D01*
X116067000Y-65207000D01*
X116047000Y-65207000D01*
X116047000Y-66315000D01*
X116397000Y-66315000D01*
X116801901Y-66190271D01*
X116801900Y-68513709D01*
X116801900Y-68513710D01*
X116801901Y-70969729D01*
X116397000Y-70845000D01*
X116047000Y-70845000D01*
X116047000Y-71953000D01*
X116067000Y-71953000D01*
X116067000Y-72207000D01*
X116047000Y-72207000D01*
X116047000Y-72227000D01*
X115793000Y-72227000D01*
X115793000Y-72207000D01*
X114501269Y-72207000D01*
X114376538Y-72397609D01*
X114380408Y-72435281D01*
X114606920Y-72863474D01*
X114648623Y-72898000D01*
X112522000Y-72898000D01*
X112522000Y-72275604D01*
X113021146Y-72452312D01*
X113561444Y-72423949D01*
X113928878Y-72271753D01*
X113993793Y-72033398D01*
X113220000Y-71259605D01*
X113205858Y-71273748D01*
X113026253Y-71094143D01*
X113040395Y-71080000D01*
X113399605Y-71080000D01*
X114173398Y-71853793D01*
X114396576Y-71793012D01*
X114501269Y-71953000D01*
X115793000Y-71953000D01*
X115793000Y-70845000D01*
X115443000Y-70845000D01*
X114980053Y-70987610D01*
X114606920Y-71296526D01*
X114543842Y-71415768D01*
X114592312Y-71278854D01*
X114563949Y-70738556D01*
X114411753Y-70371122D01*
X114173398Y-70306207D01*
X113399605Y-71080000D01*
X113040395Y-71080000D01*
X113026253Y-71065858D01*
X113205858Y-70886253D01*
X113220000Y-70900395D01*
X113993793Y-70126602D01*
X113928878Y-69888247D01*
X113418854Y-69707688D01*
X112878556Y-69736051D01*
X112522000Y-69883741D01*
X112522000Y-67275604D01*
X113021146Y-67452312D01*
X113561444Y-67423949D01*
X113928878Y-67271753D01*
X113993793Y-67033398D01*
X113220000Y-66259605D01*
X113205858Y-66273748D01*
X113026253Y-66094143D01*
X113040395Y-66080000D01*
X113399605Y-66080000D01*
X114173398Y-66853793D01*
X114411753Y-66788878D01*
X114592312Y-66278854D01*
X114566495Y-65787055D01*
X114606920Y-65863474D01*
X114980053Y-66172390D01*
X115443000Y-66315000D01*
X115793000Y-66315000D01*
X115793000Y-65207000D01*
X114501269Y-65207000D01*
X114396576Y-65366988D01*
X114173398Y-65306207D01*
X113399605Y-66080000D01*
X113040395Y-66080000D01*
X113026253Y-66065858D01*
X113205858Y-65886253D01*
X113220000Y-65900395D01*
X113993793Y-65126602D01*
X113928878Y-64888247D01*
X113418854Y-64707688D01*
X112878556Y-64736051D01*
X112522000Y-64883741D01*
X112522000Y-64262000D01*
X114648623Y-64262000D01*
X114606920Y-64296526D01*
G36*
X75651232Y-35261493D02*
X75819000Y-35429261D01*
X75819001Y-44029159D01*
X75779160Y-44069000D01*
X64819902Y-44069000D01*
X64770000Y-44064085D01*
X64720098Y-44069000D01*
X64570829Y-44083702D01*
X64379313Y-44141798D01*
X64202810Y-44236140D01*
X64048104Y-44363104D01*
X64016287Y-44401873D01*
X63451873Y-44966287D01*
X63413104Y-44998104D01*
X63286140Y-45152810D01*
X63191798Y-45329314D01*
X63148844Y-45470915D01*
X63133702Y-45520830D01*
X63114085Y-45720000D01*
X63119000Y-45769902D01*
X63119001Y-58550738D01*
X62951232Y-58718507D01*
X62865000Y-58847562D01*
X62778768Y-58718507D01*
X62566493Y-58506232D01*
X62316885Y-58339449D01*
X62039534Y-58224566D01*
X61745101Y-58166000D01*
X61444899Y-58166000D01*
X61150466Y-58224566D01*
X60873115Y-58339449D01*
X60623507Y-58506232D01*
X60411232Y-58718507D01*
X60325000Y-58847562D01*
X60238768Y-58718507D01*
X60026493Y-58506232D01*
X59776885Y-58339449D01*
X59499534Y-58224566D01*
X59205101Y-58166000D01*
X58904899Y-58166000D01*
X58610466Y-58224566D01*
X58333115Y-58339449D01*
X58083507Y-58506232D01*
X57871232Y-58718507D01*
X57785000Y-58847562D01*
X57698768Y-58718507D01*
X57486493Y-58506232D01*
X57236885Y-58339449D01*
X56959534Y-58224566D01*
X56665101Y-58166000D01*
X56364899Y-58166000D01*
X56070466Y-58224566D01*
X55793115Y-58339449D01*
X55543507Y-58506232D01*
X55331232Y-58718507D01*
X55245000Y-58847562D01*
X55158768Y-58718507D01*
X54946493Y-58506232D01*
X54696885Y-58339449D01*
X54419534Y-58224566D01*
X54125101Y-58166000D01*
X53824899Y-58166000D01*
X53530466Y-58224566D01*
X53253115Y-58339449D01*
X53003507Y-58506232D01*
X52791232Y-58718507D01*
X52705000Y-58847562D01*
X52618768Y-58718507D01*
X52406493Y-58506232D01*
X52156885Y-58339449D01*
X51879534Y-58224566D01*
X51585101Y-58166000D01*
X51284899Y-58166000D01*
X50990466Y-58224566D01*
X50713115Y-58339449D01*
X50463507Y-58506232D01*
X50251232Y-58718507D01*
X50165000Y-58847562D01*
X50078768Y-58718507D01*
X49866493Y-58506232D01*
X49616885Y-58339449D01*
X49339534Y-58224566D01*
X49045101Y-58166000D01*
X48744899Y-58166000D01*
X48450466Y-58224566D01*
X48173115Y-58339449D01*
X47923507Y-58506232D01*
X47711232Y-58718507D01*
X47625000Y-58847562D01*
X47538768Y-58718507D01*
X47326493Y-58506232D01*
X47076885Y-58339449D01*
X46799534Y-58224566D01*
X46505101Y-58166000D01*
X46204899Y-58166000D01*
X45910466Y-58224566D01*
X45720000Y-58303460D01*
X45720000Y-58232374D01*
X45646791Y-57864332D01*
X45503189Y-57517644D01*
X45294710Y-57205634D01*
X45029366Y-56940290D01*
X44717356Y-56731811D01*
X44370668Y-56588209D01*
X44002626Y-56515000D01*
X43627374Y-56515000D01*
X43259332Y-56588209D01*
X42912644Y-56731811D01*
X42600634Y-56940290D01*
X42335290Y-57205634D01*
X42126811Y-57517644D01*
X41983209Y-57864332D01*
X41910000Y-58232374D01*
X41910000Y-58607626D01*
X41983209Y-58975668D01*
X42126811Y-59322356D01*
X42335290Y-59634366D01*
X42600634Y-59899710D01*
X42912644Y-60108189D01*
X43259332Y-60251791D01*
X43627374Y-60325000D01*
X44002626Y-60325000D01*
X44370668Y-60251791D01*
X44717356Y-60108189D01*
X44864737Y-60009712D01*
X44889566Y-60134534D01*
X45004449Y-60411885D01*
X45099140Y-60553600D01*
X44982431Y-60553600D01*
X44781235Y-60593620D01*
X44591712Y-60672123D01*
X44445978Y-60769500D01*
X44084142Y-60769500D01*
X44043599Y-60765507D01*
X44003056Y-60769500D01*
X44003047Y-60769500D01*
X43881774Y-60781444D01*
X43726166Y-60828647D01*
X43606696Y-60892506D01*
X43582756Y-60905302D01*
X43526633Y-60951361D01*
X43457059Y-61008459D01*
X43431206Y-61039961D01*
X41834828Y-62636340D01*
X41822777Y-62632684D01*
X41529000Y-62603749D01*
X41235224Y-62632684D01*
X40952737Y-62718375D01*
X40692395Y-62857531D01*
X40464203Y-63044803D01*
X40276931Y-63272994D01*
X40259000Y-63306541D01*
X40241069Y-63272994D01*
X40053797Y-63044803D01*
X39825606Y-62857531D01*
X39565264Y-62718375D01*
X39282777Y-62632684D01*
X38989000Y-62603749D01*
X38695224Y-62632684D01*
X38412737Y-62718375D01*
X38152395Y-62857531D01*
X37924203Y-63044803D01*
X37736931Y-63272994D01*
X37715576Y-63312947D01*
X37567486Y-63110271D01*
X37351035Y-62911267D01*
X37099919Y-62758314D01*
X36823789Y-62657291D01*
X36808026Y-62654642D01*
X36576000Y-62775783D01*
X36576000Y-64135000D01*
X36596000Y-64135000D01*
X36596000Y-64389000D01*
X36576000Y-64389000D01*
X36576000Y-65748217D01*
X36808026Y-65869358D01*
X36823789Y-65866709D01*
X37099919Y-65765686D01*
X37351035Y-65612733D01*
X37567486Y-65413729D01*
X37715576Y-65211053D01*
X37736931Y-65251005D01*
X37924203Y-65479197D01*
X38152394Y-65666469D01*
X38412736Y-65805625D01*
X38695223Y-65891316D01*
X38989000Y-65920251D01*
X39282776Y-65891316D01*
X39565263Y-65805625D01*
X39825605Y-65666469D01*
X40053797Y-65479197D01*
X40241069Y-65251006D01*
X40259000Y-65217459D01*
X40276931Y-65251005D01*
X40464203Y-65479197D01*
X40692394Y-65666469D01*
X40952736Y-65805625D01*
X41235223Y-65891316D01*
X41529000Y-65920251D01*
X41822776Y-65891316D01*
X42105263Y-65805625D01*
X42365605Y-65666469D01*
X42593797Y-65479197D01*
X42600414Y-65471135D01*
X42615898Y-65522180D01*
X42674863Y-65632494D01*
X42754215Y-65729185D01*
X42850906Y-65808537D01*
X42961220Y-65867502D01*
X43080918Y-65903812D01*
X43205400Y-65916072D01*
X44894501Y-65916072D01*
X44894501Y-67730066D01*
X42624966Y-69999602D01*
X42593459Y-70025459D01*
X42543553Y-70086271D01*
X42490301Y-70151158D01*
X42455483Y-70216298D01*
X42413647Y-70294567D01*
X42366444Y-70450175D01*
X42358570Y-70530123D01*
X42350506Y-70612000D01*
X42354500Y-70652550D01*
X42354501Y-95844439D01*
X42350506Y-95885000D01*
X42366445Y-96046826D01*
X42413647Y-96202433D01*
X42490301Y-96345842D01*
X42535810Y-96401294D01*
X42593460Y-96471541D01*
X42624961Y-96497393D01*
X46589426Y-100461859D01*
X46623620Y-100633765D01*
X46702123Y-100823288D01*
X46816092Y-100993854D01*
X46961146Y-101138908D01*
X47131712Y-101252877D01*
X47321235Y-101331380D01*
X47522431Y-101371400D01*
X47727569Y-101371400D01*
X47928765Y-101331380D01*
X48118288Y-101252877D01*
X48288854Y-101138908D01*
X48433908Y-100993854D01*
X48547877Y-100823288D01*
X48626380Y-100633765D01*
X48666400Y-100432569D01*
X48666400Y-100227431D01*
X48626380Y-100026235D01*
X48547877Y-99836712D01*
X48433908Y-99666146D01*
X48288854Y-99521092D01*
X48118288Y-99407123D01*
X47928765Y-99328620D01*
X47756859Y-99294426D01*
X44005500Y-95543068D01*
X44005500Y-92797932D01*
X45555347Y-94347781D01*
X45581195Y-94379277D01*
X45612691Y-94405125D01*
X45612694Y-94405128D01*
X45706893Y-94482435D01*
X45828039Y-94547189D01*
X45850302Y-94559089D01*
X46005910Y-94606292D01*
X46127183Y-94618236D01*
X46127185Y-94618236D01*
X46167736Y-94622230D01*
X46208286Y-94618236D01*
X48406714Y-94618236D01*
X48447264Y-94622230D01*
X48487814Y-94618236D01*
X48487817Y-94618236D01*
X48609090Y-94606292D01*
X48764698Y-94559089D01*
X48908106Y-94482435D01*
X49033805Y-94379277D01*
X49059662Y-94347770D01*
X50038000Y-93369433D01*
X50038000Y-99695000D01*
X50040440Y-99719776D01*
X50047667Y-99743601D01*
X50059403Y-99765557D01*
X50075197Y-99784803D01*
X50094443Y-99800597D01*
X50116399Y-99812333D01*
X50140224Y-99819560D01*
X50165000Y-99822000D01*
X58367394Y-99822000D01*
X59563000Y-101017606D01*
X59563000Y-130136900D01*
X36859974Y-130136900D01*
X36050081Y-130064619D01*
X35294810Y-129858000D01*
X34588067Y-129520900D01*
X33952189Y-129063976D01*
X33407275Y-128501669D01*
X32970550Y-127851755D01*
X32655815Y-127134770D01*
X32471779Y-126368204D01*
X32425529Y-125738398D01*
X32426356Y-125730000D01*
X32423100Y-125696941D01*
X32423100Y-125352285D01*
X32995000Y-125352285D01*
X32995000Y-126107715D01*
X33142377Y-126848628D01*
X33431467Y-127546554D01*
X33851161Y-128174670D01*
X34385330Y-128708839D01*
X35013446Y-129128533D01*
X35711372Y-129417623D01*
X36452285Y-129565000D01*
X37207715Y-129565000D01*
X37948628Y-129417623D01*
X38646554Y-129128533D01*
X39274670Y-128708839D01*
X39808839Y-128174670D01*
X40228533Y-127546554D01*
X40517623Y-126848628D01*
X40665000Y-126107715D01*
X40665000Y-125352285D01*
X40517623Y-124611372D01*
X40228533Y-123913446D01*
X39808839Y-123285330D01*
X39274670Y-122751161D01*
X38646554Y-122331467D01*
X37948628Y-122042377D01*
X37207715Y-121895000D01*
X36452285Y-121895000D01*
X35711372Y-122042377D01*
X35013446Y-122331467D01*
X34385330Y-122751161D01*
X33851161Y-123285330D01*
X33431467Y-123913446D01*
X33142377Y-124611372D01*
X32995000Y-125352285D01*
X32423100Y-125352285D01*
X32423100Y-91478100D01*
X33053059Y-91478100D01*
X33081617Y-91475287D01*
X33085442Y-91475314D01*
X33094795Y-91474397D01*
X33218046Y-91461442D01*
X33277819Y-91449172D01*
X33337727Y-91437744D01*
X33346724Y-91435028D01*
X33346729Y-91435027D01*
X33346734Y-91435025D01*
X33465112Y-91398381D01*
X33521352Y-91374740D01*
X33577916Y-91351887D01*
X33586214Y-91347475D01*
X33695229Y-91288531D01*
X33745806Y-91254416D01*
X33796853Y-91221012D01*
X33804136Y-91215072D01*
X33899626Y-91136076D01*
X33942622Y-91092779D01*
X33986200Y-91050105D01*
X33992191Y-91042864D01*
X34070518Y-90946825D01*
X34104291Y-90895994D01*
X34138746Y-90845673D01*
X34143217Y-90837406D01*
X34201398Y-90727983D01*
X34224643Y-90671588D01*
X34248679Y-90615506D01*
X34251458Y-90606528D01*
X34287278Y-90487888D01*
X34299131Y-90428025D01*
X34311812Y-90368366D01*
X34312795Y-90359019D01*
X34324888Y-90235681D01*
X34324888Y-90235671D01*
X34328100Y-90203059D01*
X34328100Y-72356941D01*
X34325287Y-72328383D01*
X34325314Y-72324558D01*
X34324397Y-72315205D01*
X34311442Y-72191954D01*
X34299172Y-72132181D01*
X34287744Y-72072273D01*
X34285028Y-72063276D01*
X34285027Y-72063271D01*
X34285025Y-72063266D01*
X34248381Y-71944888D01*
X34224735Y-71888637D01*
X34201887Y-71832084D01*
X34197475Y-71823786D01*
X34138531Y-71714771D01*
X34104398Y-71664168D01*
X34071011Y-71613147D01*
X34065072Y-71605863D01*
X33986076Y-71510374D01*
X33942760Y-71467358D01*
X33900104Y-71423800D01*
X33892869Y-71417814D01*
X33892863Y-71417808D01*
X33892856Y-71417804D01*
X33796825Y-71339481D01*
X33745968Y-71305691D01*
X33695673Y-71271254D01*
X33687406Y-71266783D01*
X33577982Y-71208601D01*
X33521556Y-71185344D01*
X33465506Y-71161321D01*
X33456528Y-71158541D01*
X33337887Y-71122722D01*
X33278006Y-71110865D01*
X33218366Y-71098188D01*
X33209028Y-71097206D01*
X33209023Y-71097205D01*
X33209019Y-71097205D01*
X33085680Y-71085112D01*
X33085671Y-71085112D01*
X33053059Y-71081900D01*
X32423100Y-71081900D01*
X32423100Y-54737000D01*
X33630566Y-54737000D01*
X33099961Y-55267607D01*
X33068460Y-55293459D01*
X33042609Y-55324959D01*
X32965301Y-55419158D01*
X32888647Y-55562567D01*
X32841445Y-55718174D01*
X32825506Y-55880000D01*
X32829501Y-55920560D01*
X32829500Y-67269450D01*
X32825506Y-67310000D01*
X32829500Y-67350550D01*
X32829500Y-67350552D01*
X32841444Y-67471825D01*
X32883710Y-67611158D01*
X32888647Y-67627433D01*
X32965301Y-67770842D01*
X32975421Y-67783173D01*
X33068459Y-67896541D01*
X33099965Y-67922397D01*
X33677610Y-68500044D01*
X33703459Y-68531541D01*
X33734955Y-68557389D01*
X33734958Y-68557392D01*
X33829157Y-68634699D01*
X33972566Y-68711353D01*
X34128174Y-68758556D01*
X34249447Y-68770500D01*
X34249449Y-68770500D01*
X34290000Y-68774494D01*
X34330550Y-68770500D01*
X37123068Y-68770500D01*
X37909501Y-69556934D01*
X37909500Y-97876450D01*
X37905506Y-97917000D01*
X37909500Y-97957550D01*
X37909500Y-97957552D01*
X37921444Y-98078825D01*
X37954662Y-98188331D01*
X37968647Y-98234433D01*
X38045301Y-98377842D01*
X38063634Y-98400180D01*
X38148459Y-98503541D01*
X38179966Y-98529398D01*
X49764426Y-110113860D01*
X49798620Y-110285765D01*
X49877123Y-110475288D01*
X49991092Y-110645854D01*
X50136146Y-110790908D01*
X50306712Y-110904877D01*
X50496235Y-110983380D01*
X50697431Y-111023400D01*
X50902569Y-111023400D01*
X51103765Y-110983380D01*
X51293288Y-110904877D01*
X51463854Y-110790908D01*
X51608908Y-110645854D01*
X51722877Y-110475288D01*
X51801380Y-110285765D01*
X51841400Y-110084569D01*
X51841400Y-109879431D01*
X51801380Y-109678235D01*
X51722877Y-109488712D01*
X51608908Y-109318146D01*
X51463854Y-109173092D01*
X51293288Y-109059123D01*
X51103765Y-108980620D01*
X50931860Y-108946426D01*
X39560500Y-97575068D01*
X39560500Y-69255550D01*
X39564494Y-69214999D01*
X39559579Y-69165098D01*
X39548556Y-69053174D01*
X39501353Y-68897566D01*
X39427050Y-68758556D01*
X39424699Y-68754157D01*
X39347391Y-68659958D01*
X39321541Y-68628459D01*
X39290039Y-68602606D01*
X38077398Y-67389966D01*
X38051541Y-67358459D01*
X37925842Y-67255301D01*
X37782434Y-67178647D01*
X37626826Y-67131444D01*
X37505553Y-67119500D01*
X37505550Y-67119500D01*
X37465000Y-67115506D01*
X37424450Y-67119500D01*
X34631933Y-67119500D01*
X34480500Y-66968067D01*
X34480500Y-64623914D01*
X34963815Y-64623914D01*
X35033227Y-64909633D01*
X35157046Y-65176321D01*
X35330514Y-65413729D01*
X35546965Y-65612733D01*
X35798081Y-65765686D01*
X36074211Y-65866709D01*
X36089974Y-65869358D01*
X36322000Y-65748217D01*
X36322000Y-64389000D01*
X35108075Y-64389000D01*
X34963815Y-64623914D01*
X34480500Y-64623914D01*
X34480500Y-63900086D01*
X34963815Y-63900086D01*
X35108075Y-64135000D01*
X36322000Y-64135000D01*
X36322000Y-62775783D01*
X36089974Y-62654642D01*
X36074211Y-62657291D01*
X35798081Y-62758314D01*
X35546965Y-62911267D01*
X35330514Y-63110271D01*
X35157046Y-63347679D01*
X35033227Y-63614367D01*
X34963815Y-63900086D01*
X34480500Y-63900086D01*
X34480500Y-56221933D01*
X34631933Y-56070500D01*
X48219450Y-56070500D01*
X48260000Y-56074494D01*
X48300550Y-56070500D01*
X48300553Y-56070500D01*
X48421826Y-56058556D01*
X48577434Y-56011353D01*
X48720842Y-55934699D01*
X48846541Y-55831541D01*
X48872397Y-55800035D01*
X49450045Y-55222388D01*
X49481541Y-55196541D01*
X49507389Y-55165045D01*
X49507392Y-55165042D01*
X49584699Y-55070843D01*
X49661353Y-54927434D01*
X49704815Y-54784158D01*
X49708556Y-54771826D01*
X49720500Y-54650553D01*
X49720500Y-54650551D01*
X49724494Y-54610000D01*
X49720500Y-54569450D01*
X49720500Y-35571318D01*
X49866493Y-35473768D01*
X50078768Y-35261493D01*
X50165000Y-35132438D01*
X50251232Y-35261493D01*
X50463507Y-35473768D01*
X50713115Y-35640551D01*
X50990466Y-35755434D01*
X51284899Y-35814000D01*
X51585101Y-35814000D01*
X51879534Y-35755434D01*
X52156885Y-35640551D01*
X52406493Y-35473768D01*
X52618768Y-35261493D01*
X52705000Y-35132438D01*
X52791232Y-35261493D01*
X53003507Y-35473768D01*
X53253115Y-35640551D01*
X53530466Y-35755434D01*
X53824899Y-35814000D01*
X54125101Y-35814000D01*
X54419534Y-35755434D01*
X54696885Y-35640551D01*
X54946493Y-35473768D01*
X55158768Y-35261493D01*
X55245000Y-35132438D01*
X55331232Y-35261493D01*
X55543507Y-35473768D01*
X55793115Y-35640551D01*
X56070466Y-35755434D01*
X56364899Y-35814000D01*
X56665101Y-35814000D01*
X56959534Y-35755434D01*
X57236885Y-35640551D01*
X57486493Y-35473768D01*
X57698768Y-35261493D01*
X57785000Y-35132438D01*
X57871232Y-35261493D01*
X58083507Y-35473768D01*
X58333115Y-35640551D01*
X58610466Y-35755434D01*
X58904899Y-35814000D01*
X59205101Y-35814000D01*
X59499534Y-35755434D01*
X59776885Y-35640551D01*
X60026493Y-35473768D01*
X60238768Y-35261493D01*
X60325000Y-35132438D01*
X60411232Y-35261493D01*
X60623507Y-35473768D01*
X60873115Y-35640551D01*
X61150466Y-35755434D01*
X61444899Y-35814000D01*
X61745101Y-35814000D01*
X62039534Y-35755434D01*
X62316885Y-35640551D01*
X62566493Y-35473768D01*
X62778768Y-35261493D01*
X62865000Y-35132438D01*
X62951232Y-35261493D01*
X63163507Y-35473768D01*
X63413115Y-35640551D01*
X63690466Y-35755434D01*
X63984899Y-35814000D01*
X64285101Y-35814000D01*
X64579534Y-35755434D01*
X64856885Y-35640551D01*
X65106493Y-35473768D01*
X65318768Y-35261493D01*
X65405000Y-35132438D01*
X65491232Y-35261493D01*
X65703507Y-35473768D01*
X65953115Y-35640551D01*
X66230466Y-35755434D01*
X66524899Y-35814000D01*
X66825101Y-35814000D01*
X67119534Y-35755434D01*
X67396885Y-35640551D01*
X67646493Y-35473768D01*
X67858768Y-35261493D01*
X67945000Y-35132438D01*
X68031232Y-35261493D01*
X68243507Y-35473768D01*
X68493115Y-35640551D01*
X68770466Y-35755434D01*
X69064899Y-35814000D01*
X69365101Y-35814000D01*
X69659534Y-35755434D01*
X69936885Y-35640551D01*
X70186493Y-35473768D01*
X70398768Y-35261493D01*
X70485000Y-35132438D01*
X70571232Y-35261493D01*
X70783507Y-35473768D01*
X71033115Y-35640551D01*
X71310466Y-35755434D01*
X71604899Y-35814000D01*
X71905101Y-35814000D01*
X72199534Y-35755434D01*
X72476885Y-35640551D01*
X72726493Y-35473768D01*
X72938768Y-35261493D01*
X73025000Y-35132438D01*
X73111232Y-35261493D01*
X73323507Y-35473768D01*
X73573115Y-35640551D01*
X73850466Y-35755434D01*
X74144899Y-35814000D01*
X74445101Y-35814000D01*
X74739534Y-35755434D01*
X75016885Y-35640551D01*
X75266493Y-35473768D01*
X75478768Y-35261493D01*
X75565000Y-35132438D01*
X75651232Y-35261493D01*
X75651232Y-35261493D01*
G37*
X75651232Y-35261493D02*
X75819000Y-35429261D01*
X75819001Y-44029159D01*
X75779160Y-44069000D01*
X64819902Y-44069000D01*
X64770000Y-44064085D01*
X64720098Y-44069000D01*
X64570829Y-44083702D01*
X64379313Y-44141798D01*
X64202810Y-44236140D01*
X64048104Y-44363104D01*
X64016287Y-44401873D01*
X63451873Y-44966287D01*
X63413104Y-44998104D01*
X63286140Y-45152810D01*
X63191798Y-45329314D01*
X63148844Y-45470915D01*
X63133702Y-45520830D01*
X63114085Y-45720000D01*
X63119000Y-45769902D01*
X63119001Y-58550738D01*
X62951232Y-58718507D01*
X62865000Y-58847562D01*
X62778768Y-58718507D01*
X62566493Y-58506232D01*
X62316885Y-58339449D01*
X62039534Y-58224566D01*
X61745101Y-58166000D01*
X61444899Y-58166000D01*
X61150466Y-58224566D01*
X60873115Y-58339449D01*
X60623507Y-58506232D01*
X60411232Y-58718507D01*
X60325000Y-58847562D01*
X60238768Y-58718507D01*
X60026493Y-58506232D01*
X59776885Y-58339449D01*
X59499534Y-58224566D01*
X59205101Y-58166000D01*
X58904899Y-58166000D01*
X58610466Y-58224566D01*
X58333115Y-58339449D01*
X58083507Y-58506232D01*
X57871232Y-58718507D01*
X57785000Y-58847562D01*
X57698768Y-58718507D01*
X57486493Y-58506232D01*
X57236885Y-58339449D01*
X56959534Y-58224566D01*
X56665101Y-58166000D01*
X56364899Y-58166000D01*
X56070466Y-58224566D01*
X55793115Y-58339449D01*
X55543507Y-58506232D01*
X55331232Y-58718507D01*
X55245000Y-58847562D01*
X55158768Y-58718507D01*
X54946493Y-58506232D01*
X54696885Y-58339449D01*
X54419534Y-58224566D01*
X54125101Y-58166000D01*
X53824899Y-58166000D01*
X53530466Y-58224566D01*
X53253115Y-58339449D01*
X53003507Y-58506232D01*
X52791232Y-58718507D01*
X52705000Y-58847562D01*
X52618768Y-58718507D01*
X52406493Y-58506232D01*
X52156885Y-58339449D01*
X51879534Y-58224566D01*
X51585101Y-58166000D01*
X51284899Y-58166000D01*
X50990466Y-58224566D01*
X50713115Y-58339449D01*
X50463507Y-58506232D01*
X50251232Y-58718507D01*
X50165000Y-58847562D01*
X50078768Y-58718507D01*
X49866493Y-58506232D01*
X49616885Y-58339449D01*
X49339534Y-58224566D01*
X49045101Y-58166000D01*
X48744899Y-58166000D01*
X48450466Y-58224566D01*
X48173115Y-58339449D01*
X47923507Y-58506232D01*
X47711232Y-58718507D01*
X47625000Y-58847562D01*
X47538768Y-58718507D01*
X47326493Y-58506232D01*
X47076885Y-58339449D01*
X46799534Y-58224566D01*
X46505101Y-58166000D01*
X46204899Y-58166000D01*
X45910466Y-58224566D01*
X45720000Y-58303460D01*
X45720000Y-58232374D01*
X45646791Y-57864332D01*
X45503189Y-57517644D01*
X45294710Y-57205634D01*
X45029366Y-56940290D01*
X44717356Y-56731811D01*
X44370668Y-56588209D01*
X44002626Y-56515000D01*
X43627374Y-56515000D01*
X43259332Y-56588209D01*
X42912644Y-56731811D01*
X42600634Y-56940290D01*
X42335290Y-57205634D01*
X42126811Y-57517644D01*
X41983209Y-57864332D01*
X41910000Y-58232374D01*
X41910000Y-58607626D01*
X41983209Y-58975668D01*
X42126811Y-59322356D01*
X42335290Y-59634366D01*
X42600634Y-59899710D01*
X42912644Y-60108189D01*
X43259332Y-60251791D01*
X43627374Y-60325000D01*
X44002626Y-60325000D01*
X44370668Y-60251791D01*
X44717356Y-60108189D01*
X44864737Y-60009712D01*
X44889566Y-60134534D01*
X45004449Y-60411885D01*
X45099140Y-60553600D01*
X44982431Y-60553600D01*
X44781235Y-60593620D01*
X44591712Y-60672123D01*
X44445978Y-60769500D01*
X44084142Y-60769500D01*
X44043599Y-60765507D01*
X44003056Y-60769500D01*
X44003047Y-60769500D01*
X43881774Y-60781444D01*
X43726166Y-60828647D01*
X43606696Y-60892506D01*
X43582756Y-60905302D01*
X43526633Y-60951361D01*
X43457059Y-61008459D01*
X43431206Y-61039961D01*
X41834828Y-62636340D01*
X41822777Y-62632684D01*
X41529000Y-62603749D01*
X41235224Y-62632684D01*
X40952737Y-62718375D01*
X40692395Y-62857531D01*
X40464203Y-63044803D01*
X40276931Y-63272994D01*
X40259000Y-63306541D01*
X40241069Y-63272994D01*
X40053797Y-63044803D01*
X39825606Y-62857531D01*
X39565264Y-62718375D01*
X39282777Y-62632684D01*
X38989000Y-62603749D01*
X38695224Y-62632684D01*
X38412737Y-62718375D01*
X38152395Y-62857531D01*
X37924203Y-63044803D01*
X37736931Y-63272994D01*
X37715576Y-63312947D01*
X37567486Y-63110271D01*
X37351035Y-62911267D01*
X37099919Y-62758314D01*
X36823789Y-62657291D01*
X36808026Y-62654642D01*
X36576000Y-62775783D01*
X36576000Y-64135000D01*
X36596000Y-64135000D01*
X36596000Y-64389000D01*
X36576000Y-64389000D01*
X36576000Y-65748217D01*
X36808026Y-65869358D01*
X36823789Y-65866709D01*
X37099919Y-65765686D01*
X37351035Y-65612733D01*
X37567486Y-65413729D01*
X37715576Y-65211053D01*
X37736931Y-65251005D01*
X37924203Y-65479197D01*
X38152394Y-65666469D01*
X38412736Y-65805625D01*
X38695223Y-65891316D01*
X38989000Y-65920251D01*
X39282776Y-65891316D01*
X39565263Y-65805625D01*
X39825605Y-65666469D01*
X40053797Y-65479197D01*
X40241069Y-65251006D01*
X40259000Y-65217459D01*
X40276931Y-65251005D01*
X40464203Y-65479197D01*
X40692394Y-65666469D01*
X40952736Y-65805625D01*
X41235223Y-65891316D01*
X41529000Y-65920251D01*
X41822776Y-65891316D01*
X42105263Y-65805625D01*
X42365605Y-65666469D01*
X42593797Y-65479197D01*
X42600414Y-65471135D01*
X42615898Y-65522180D01*
X42674863Y-65632494D01*
X42754215Y-65729185D01*
X42850906Y-65808537D01*
X42961220Y-65867502D01*
X43080918Y-65903812D01*
X43205400Y-65916072D01*
X44894501Y-65916072D01*
X44894501Y-67730066D01*
X42624966Y-69999602D01*
X42593459Y-70025459D01*
X42543553Y-70086271D01*
X42490301Y-70151158D01*
X42455483Y-70216298D01*
X42413647Y-70294567D01*
X42366444Y-70450175D01*
X42358570Y-70530123D01*
X42350506Y-70612000D01*
X42354500Y-70652550D01*
X42354501Y-95844439D01*
X42350506Y-95885000D01*
X42366445Y-96046826D01*
X42413647Y-96202433D01*
X42490301Y-96345842D01*
X42535810Y-96401294D01*
X42593460Y-96471541D01*
X42624961Y-96497393D01*
X46589426Y-100461859D01*
X46623620Y-100633765D01*
X46702123Y-100823288D01*
X46816092Y-100993854D01*
X46961146Y-101138908D01*
X47131712Y-101252877D01*
X47321235Y-101331380D01*
X47522431Y-101371400D01*
X47727569Y-101371400D01*
X47928765Y-101331380D01*
X48118288Y-101252877D01*
X48288854Y-101138908D01*
X48433908Y-100993854D01*
X48547877Y-100823288D01*
X48626380Y-100633765D01*
X48666400Y-100432569D01*
X48666400Y-100227431D01*
X48626380Y-100026235D01*
X48547877Y-99836712D01*
X48433908Y-99666146D01*
X48288854Y-99521092D01*
X48118288Y-99407123D01*
X47928765Y-99328620D01*
X47756859Y-99294426D01*
X44005500Y-95543068D01*
X44005500Y-92797932D01*
X45555347Y-94347781D01*
X45581195Y-94379277D01*
X45612691Y-94405125D01*
X45612694Y-94405128D01*
X45706893Y-94482435D01*
X45828039Y-94547189D01*
X45850302Y-94559089D01*
X46005910Y-94606292D01*
X46127183Y-94618236D01*
X46127185Y-94618236D01*
X46167736Y-94622230D01*
X46208286Y-94618236D01*
X48406714Y-94618236D01*
X48447264Y-94622230D01*
X48487814Y-94618236D01*
X48487817Y-94618236D01*
X48609090Y-94606292D01*
X48764698Y-94559089D01*
X48908106Y-94482435D01*
X49033805Y-94379277D01*
X49059662Y-94347770D01*
X50038000Y-93369433D01*
X50038000Y-99695000D01*
X50040440Y-99719776D01*
X50047667Y-99743601D01*
X50059403Y-99765557D01*
X50075197Y-99784803D01*
X50094443Y-99800597D01*
X50116399Y-99812333D01*
X50140224Y-99819560D01*
X50165000Y-99822000D01*
X58367394Y-99822000D01*
X59563000Y-101017606D01*
X59563000Y-130136900D01*
X36859974Y-130136900D01*
X36050081Y-130064619D01*
X35294810Y-129858000D01*
X34588067Y-129520900D01*
X33952189Y-129063976D01*
X33407275Y-128501669D01*
X32970550Y-127851755D01*
X32655815Y-127134770D01*
X32471779Y-126368204D01*
X32425529Y-125738398D01*
X32426356Y-125730000D01*
X32423100Y-125696941D01*
X32423100Y-125352285D01*
X32995000Y-125352285D01*
X32995000Y-126107715D01*
X33142377Y-126848628D01*
X33431467Y-127546554D01*
X33851161Y-128174670D01*
X34385330Y-128708839D01*
X35013446Y-129128533D01*
X35711372Y-129417623D01*
X36452285Y-129565000D01*
X37207715Y-129565000D01*
X37948628Y-129417623D01*
X38646554Y-129128533D01*
X39274670Y-128708839D01*
X39808839Y-128174670D01*
X40228533Y-127546554D01*
X40517623Y-126848628D01*
X40665000Y-126107715D01*
X40665000Y-125352285D01*
X40517623Y-124611372D01*
X40228533Y-123913446D01*
X39808839Y-123285330D01*
X39274670Y-122751161D01*
X38646554Y-122331467D01*
X37948628Y-122042377D01*
X37207715Y-121895000D01*
X36452285Y-121895000D01*
X35711372Y-122042377D01*
X35013446Y-122331467D01*
X34385330Y-122751161D01*
X33851161Y-123285330D01*
X33431467Y-123913446D01*
X33142377Y-124611372D01*
X32995000Y-125352285D01*
X32423100Y-125352285D01*
X32423100Y-91478100D01*
X33053059Y-91478100D01*
X33081617Y-91475287D01*
X33085442Y-91475314D01*
X33094795Y-91474397D01*
X33218046Y-91461442D01*
X33277819Y-91449172D01*
X33337727Y-91437744D01*
X33346724Y-91435028D01*
X33346729Y-91435027D01*
X33346734Y-91435025D01*
X33465112Y-91398381D01*
X33521352Y-91374740D01*
X33577916Y-91351887D01*
X33586214Y-91347475D01*
X33695229Y-91288531D01*
X33745806Y-91254416D01*
X33796853Y-91221012D01*
X33804136Y-91215072D01*
X33899626Y-91136076D01*
X33942622Y-91092779D01*
X33986200Y-91050105D01*
X33992191Y-91042864D01*
X34070518Y-90946825D01*
X34104291Y-90895994D01*
X34138746Y-90845673D01*
X34143217Y-90837406D01*
X34201398Y-90727983D01*
X34224643Y-90671588D01*
X34248679Y-90615506D01*
X34251458Y-90606528D01*
X34287278Y-90487888D01*
X34299131Y-90428025D01*
X34311812Y-90368366D01*
X34312795Y-90359019D01*
X34324888Y-90235681D01*
X34324888Y-90235671D01*
X34328100Y-90203059D01*
X34328100Y-72356941D01*
X34325287Y-72328383D01*
X34325314Y-72324558D01*
X34324397Y-72315205D01*
X34311442Y-72191954D01*
X34299172Y-72132181D01*
X34287744Y-72072273D01*
X34285028Y-72063276D01*
X34285027Y-72063271D01*
X34285025Y-72063266D01*
X34248381Y-71944888D01*
X34224735Y-71888637D01*
X34201887Y-71832084D01*
X34197475Y-71823786D01*
X34138531Y-71714771D01*
X34104398Y-71664168D01*
X34071011Y-71613147D01*
X34065072Y-71605863D01*
X33986076Y-71510374D01*
X33942760Y-71467358D01*
X33900104Y-71423800D01*
X33892869Y-71417814D01*
X33892863Y-71417808D01*
X33892856Y-71417804D01*
X33796825Y-71339481D01*
X33745968Y-71305691D01*
X33695673Y-71271254D01*
X33687406Y-71266783D01*
X33577982Y-71208601D01*
X33521556Y-71185344D01*
X33465506Y-71161321D01*
X33456528Y-71158541D01*
X33337887Y-71122722D01*
X33278006Y-71110865D01*
X33218366Y-71098188D01*
X33209028Y-71097206D01*
X33209023Y-71097205D01*
X33209019Y-71097205D01*
X33085680Y-71085112D01*
X33085671Y-71085112D01*
X33053059Y-71081900D01*
X32423100Y-71081900D01*
X32423100Y-54737000D01*
X33630566Y-54737000D01*
X33099961Y-55267607D01*
X33068460Y-55293459D01*
X33042609Y-55324959D01*
X32965301Y-55419158D01*
X32888647Y-55562567D01*
X32841445Y-55718174D01*
X32825506Y-55880000D01*
X32829501Y-55920560D01*
X32829500Y-67269450D01*
X32825506Y-67310000D01*
X32829500Y-67350550D01*
X32829500Y-67350552D01*
X32841444Y-67471825D01*
X32883710Y-67611158D01*
X32888647Y-67627433D01*
X32965301Y-67770842D01*
X32975421Y-67783173D01*
X33068459Y-67896541D01*
X33099965Y-67922397D01*
X33677610Y-68500044D01*
X33703459Y-68531541D01*
X33734955Y-68557389D01*
X33734958Y-68557392D01*
X33829157Y-68634699D01*
X33972566Y-68711353D01*
X34128174Y-68758556D01*
X34249447Y-68770500D01*
X34249449Y-68770500D01*
X34290000Y-68774494D01*
X34330550Y-68770500D01*
X37123068Y-68770500D01*
X37909501Y-69556934D01*
X37909500Y-97876450D01*
X37905506Y-97917000D01*
X37909500Y-97957550D01*
X37909500Y-97957552D01*
X37921444Y-98078825D01*
X37954662Y-98188331D01*
X37968647Y-98234433D01*
X38045301Y-98377842D01*
X38063634Y-98400180D01*
X38148459Y-98503541D01*
X38179966Y-98529398D01*
X49764426Y-110113860D01*
X49798620Y-110285765D01*
X49877123Y-110475288D01*
X49991092Y-110645854D01*
X50136146Y-110790908D01*
X50306712Y-110904877D01*
X50496235Y-110983380D01*
X50697431Y-111023400D01*
X50902569Y-111023400D01*
X51103765Y-110983380D01*
X51293288Y-110904877D01*
X51463854Y-110790908D01*
X51608908Y-110645854D01*
X51722877Y-110475288D01*
X51801380Y-110285765D01*
X51841400Y-110084569D01*
X51841400Y-109879431D01*
X51801380Y-109678235D01*
X51722877Y-109488712D01*
X51608908Y-109318146D01*
X51463854Y-109173092D01*
X51293288Y-109059123D01*
X51103765Y-108980620D01*
X50931860Y-108946426D01*
X39560500Y-97575068D01*
X39560500Y-69255550D01*
X39564494Y-69214999D01*
X39559579Y-69165098D01*
X39548556Y-69053174D01*
X39501353Y-68897566D01*
X39427050Y-68758556D01*
X39424699Y-68754157D01*
X39347391Y-68659958D01*
X39321541Y-68628459D01*
X39290039Y-68602606D01*
X38077398Y-67389966D01*
X38051541Y-67358459D01*
X37925842Y-67255301D01*
X37782434Y-67178647D01*
X37626826Y-67131444D01*
X37505553Y-67119500D01*
X37505550Y-67119500D01*
X37465000Y-67115506D01*
X37424450Y-67119500D01*
X34631933Y-67119500D01*
X34480500Y-66968067D01*
X34480500Y-64623914D01*
X34963815Y-64623914D01*
X35033227Y-64909633D01*
X35157046Y-65176321D01*
X35330514Y-65413729D01*
X35546965Y-65612733D01*
X35798081Y-65765686D01*
X36074211Y-65866709D01*
X36089974Y-65869358D01*
X36322000Y-65748217D01*
X36322000Y-64389000D01*
X35108075Y-64389000D01*
X34963815Y-64623914D01*
X34480500Y-64623914D01*
X34480500Y-63900086D01*
X34963815Y-63900086D01*
X35108075Y-64135000D01*
X36322000Y-64135000D01*
X36322000Y-62775783D01*
X36089974Y-62654642D01*
X36074211Y-62657291D01*
X35798081Y-62758314D01*
X35546965Y-62911267D01*
X35330514Y-63110271D01*
X35157046Y-63347679D01*
X35033227Y-63614367D01*
X34963815Y-63900086D01*
X34480500Y-63900086D01*
X34480500Y-56221933D01*
X34631933Y-56070500D01*
X48219450Y-56070500D01*
X48260000Y-56074494D01*
X48300550Y-56070500D01*
X48300553Y-56070500D01*
X48421826Y-56058556D01*
X48577434Y-56011353D01*
X48720842Y-55934699D01*
X48846541Y-55831541D01*
X48872397Y-55800035D01*
X49450045Y-55222388D01*
X49481541Y-55196541D01*
X49507389Y-55165045D01*
X49507392Y-55165042D01*
X49584699Y-55070843D01*
X49661353Y-54927434D01*
X49704815Y-54784158D01*
X49708556Y-54771826D01*
X49720500Y-54650553D01*
X49720500Y-54650551D01*
X49724494Y-54610000D01*
X49720500Y-54569450D01*
X49720500Y-35571318D01*
X49866493Y-35473768D01*
X50078768Y-35261493D01*
X50165000Y-35132438D01*
X50251232Y-35261493D01*
X50463507Y-35473768D01*
X50713115Y-35640551D01*
X50990466Y-35755434D01*
X51284899Y-35814000D01*
X51585101Y-35814000D01*
X51879534Y-35755434D01*
X52156885Y-35640551D01*
X52406493Y-35473768D01*
X52618768Y-35261493D01*
X52705000Y-35132438D01*
X52791232Y-35261493D01*
X53003507Y-35473768D01*
X53253115Y-35640551D01*
X53530466Y-35755434D01*
X53824899Y-35814000D01*
X54125101Y-35814000D01*
X54419534Y-35755434D01*
X54696885Y-35640551D01*
X54946493Y-35473768D01*
X55158768Y-35261493D01*
X55245000Y-35132438D01*
X55331232Y-35261493D01*
X55543507Y-35473768D01*
X55793115Y-35640551D01*
X56070466Y-35755434D01*
X56364899Y-35814000D01*
X56665101Y-35814000D01*
X56959534Y-35755434D01*
X57236885Y-35640551D01*
X57486493Y-35473768D01*
X57698768Y-35261493D01*
X57785000Y-35132438D01*
X57871232Y-35261493D01*
X58083507Y-35473768D01*
X58333115Y-35640551D01*
X58610466Y-35755434D01*
X58904899Y-35814000D01*
X59205101Y-35814000D01*
X59499534Y-35755434D01*
X59776885Y-35640551D01*
X60026493Y-35473768D01*
X60238768Y-35261493D01*
X60325000Y-35132438D01*
X60411232Y-35261493D01*
X60623507Y-35473768D01*
X60873115Y-35640551D01*
X61150466Y-35755434D01*
X61444899Y-35814000D01*
X61745101Y-35814000D01*
X62039534Y-35755434D01*
X62316885Y-35640551D01*
X62566493Y-35473768D01*
X62778768Y-35261493D01*
X62865000Y-35132438D01*
X62951232Y-35261493D01*
X63163507Y-35473768D01*
X63413115Y-35640551D01*
X63690466Y-35755434D01*
X63984899Y-35814000D01*
X64285101Y-35814000D01*
X64579534Y-35755434D01*
X64856885Y-35640551D01*
X65106493Y-35473768D01*
X65318768Y-35261493D01*
X65405000Y-35132438D01*
X65491232Y-35261493D01*
X65703507Y-35473768D01*
X65953115Y-35640551D01*
X66230466Y-35755434D01*
X66524899Y-35814000D01*
X66825101Y-35814000D01*
X67119534Y-35755434D01*
X67396885Y-35640551D01*
X67646493Y-35473768D01*
X67858768Y-35261493D01*
X67945000Y-35132438D01*
X68031232Y-35261493D01*
X68243507Y-35473768D01*
X68493115Y-35640551D01*
X68770466Y-35755434D01*
X69064899Y-35814000D01*
X69365101Y-35814000D01*
X69659534Y-35755434D01*
X69936885Y-35640551D01*
X70186493Y-35473768D01*
X70398768Y-35261493D01*
X70485000Y-35132438D01*
X70571232Y-35261493D01*
X70783507Y-35473768D01*
X71033115Y-35640551D01*
X71310466Y-35755434D01*
X71604899Y-35814000D01*
X71905101Y-35814000D01*
X72199534Y-35755434D01*
X72476885Y-35640551D01*
X72726493Y-35473768D01*
X72938768Y-35261493D01*
X73025000Y-35132438D01*
X73111232Y-35261493D01*
X73323507Y-35473768D01*
X73573115Y-35640551D01*
X73850466Y-35755434D01*
X74144899Y-35814000D01*
X74445101Y-35814000D01*
X74739534Y-35755434D01*
X75016885Y-35640551D01*
X75266493Y-35473768D01*
X75478768Y-35261493D01*
X75565000Y-35132438D01*
X75651232Y-35261493D01*
G36*
X126509917Y-32495381D02*
X127265190Y-32702000D01*
X127971933Y-33039100D01*
X128607811Y-33496024D01*
X129152727Y-34058334D01*
X129589452Y-34708249D01*
X129904185Y-35425230D01*
X130088221Y-36191795D01*
X130134471Y-36821602D01*
X130133644Y-36830000D01*
X130136901Y-36863069D01*
X130136900Y-62197075D01*
X130122365Y-62345314D01*
X130088878Y-62456228D01*
X130034481Y-62558535D01*
X129961253Y-62648321D01*
X129871977Y-62722177D01*
X129842713Y-62738000D01*
X99060000Y-62738000D01*
X99035224Y-62740440D01*
X99011399Y-62747667D01*
X98989443Y-62759403D01*
X98970197Y-62775197D01*
X98335197Y-63410197D01*
X98319403Y-63429443D01*
X98307667Y-63451399D01*
X98300440Y-63475224D01*
X98298000Y-63500000D01*
X98298000Y-74877394D01*
X97737394Y-75438000D01*
X92075000Y-75438000D01*
X92050224Y-75440440D01*
X92026399Y-75447667D01*
X92004443Y-75459403D01*
X91985197Y-75475197D01*
X91350197Y-76110197D01*
X91334403Y-76129443D01*
X91322667Y-76151399D01*
X91315440Y-76175224D01*
X91313000Y-76200000D01*
X91313000Y-85037394D01*
X90752394Y-85598000D01*
X76252606Y-85598000D01*
X75692000Y-85037394D01*
X75692000Y-82625762D01*
X75738908Y-82578854D01*
X75811243Y-82470598D01*
X76120599Y-82161242D01*
X76228854Y-82088908D01*
X76373908Y-81943854D01*
X76487877Y-81773288D01*
X76566380Y-81583765D01*
X76606400Y-81382569D01*
X76606400Y-81177431D01*
X76581000Y-81049735D01*
X76581000Y-74334840D01*
X77509841Y-73406000D01*
X83225085Y-73406000D01*
X83390203Y-73607197D01*
X83618394Y-73794469D01*
X83878736Y-73933625D01*
X84161223Y-74019316D01*
X84455000Y-74048251D01*
X84748776Y-74019316D01*
X85031263Y-73933625D01*
X85291605Y-73794469D01*
X85519797Y-73607197D01*
X85707069Y-73379006D01*
X85725000Y-73345459D01*
X85742931Y-73379005D01*
X85930203Y-73607197D01*
X86158394Y-73794469D01*
X86418736Y-73933625D01*
X86701223Y-74019316D01*
X86995000Y-74048251D01*
X87288776Y-74019316D01*
X87571263Y-73933625D01*
X87831605Y-73794469D01*
X88059797Y-73607197D01*
X88247069Y-73379006D01*
X88265000Y-73345459D01*
X88282931Y-73379005D01*
X88470203Y-73607197D01*
X88698394Y-73794469D01*
X88958736Y-73933625D01*
X89241223Y-74019316D01*
X89535000Y-74048251D01*
X89828776Y-74019316D01*
X90111263Y-73933625D01*
X90371605Y-73794469D01*
X90599797Y-73607197D01*
X90606414Y-73599135D01*
X90621898Y-73650180D01*
X90680863Y-73760494D01*
X90760215Y-73857185D01*
X90856906Y-73936537D01*
X90967220Y-73995502D01*
X91086918Y-74031812D01*
X91211400Y-74044072D01*
X92938600Y-74044072D01*
X93063082Y-74031812D01*
X93182780Y-73995502D01*
X93293094Y-73936537D01*
X93389785Y-73857185D01*
X93469137Y-73760494D01*
X93528102Y-73650180D01*
X93564412Y-73530482D01*
X93576672Y-73406000D01*
X93576672Y-71374000D01*
X93564412Y-71249518D01*
X93528102Y-71129820D01*
X93469137Y-71019506D01*
X93389785Y-70922815D01*
X93293094Y-70843463D01*
X93182780Y-70784498D01*
X93063082Y-70748188D01*
X92938600Y-70735928D01*
X91211400Y-70735928D01*
X91086918Y-70748188D01*
X90967220Y-70784498D01*
X90856906Y-70843463D01*
X90760215Y-70922815D01*
X90680863Y-71019506D01*
X90621898Y-71129820D01*
X90606414Y-71180865D01*
X90599797Y-71172803D01*
X90371606Y-70985531D01*
X90111264Y-70846375D01*
X89828777Y-70760684D01*
X89535000Y-70731749D01*
X89241224Y-70760684D01*
X88958737Y-70846375D01*
X88698395Y-70985531D01*
X88470203Y-71172803D01*
X88282931Y-71400994D01*
X88265000Y-71434541D01*
X88247069Y-71400994D01*
X88059797Y-71172803D01*
X87831606Y-70985531D01*
X87571264Y-70846375D01*
X87288777Y-70760684D01*
X86995000Y-70731749D01*
X86701224Y-70760684D01*
X86418737Y-70846375D01*
X86158395Y-70985531D01*
X85930203Y-71172803D01*
X85742931Y-71400994D01*
X85725000Y-71434541D01*
X85707069Y-71400994D01*
X85519797Y-71172803D01*
X85291606Y-70985531D01*
X85031264Y-70846375D01*
X84748777Y-70760684D01*
X84455000Y-70731749D01*
X84161224Y-70760684D01*
X83878737Y-70846375D01*
X83618395Y-70985531D01*
X83390203Y-71172803D01*
X83225084Y-71374000D01*
X77138893Y-71374000D01*
X77088999Y-71369086D01*
X77039105Y-71374000D01*
X77039098Y-71374000D01*
X76909177Y-71386796D01*
X76889828Y-71388702D01*
X76868266Y-71395243D01*
X76698313Y-71446798D01*
X76521810Y-71541140D01*
X76367104Y-71668104D01*
X76335292Y-71706867D01*
X74881868Y-73160292D01*
X74843105Y-73192104D01*
X74716141Y-73346810D01*
X74629584Y-73508749D01*
X74621799Y-73523313D01*
X74563702Y-73714830D01*
X74544085Y-73914000D01*
X74549001Y-73963912D01*
X74549000Y-80859159D01*
X74374402Y-81033757D01*
X74266146Y-81106092D01*
X74121092Y-81251146D01*
X74048757Y-81359403D01*
X73874160Y-81534000D01*
X71882000Y-81534000D01*
X71882000Y-74930000D01*
X71872333Y-74881399D01*
X71844803Y-74840197D01*
X71803601Y-74812667D01*
X71755000Y-74803000D01*
X69215000Y-74803000D01*
X69166399Y-74812667D01*
X69125197Y-74840197D01*
X69097667Y-74881399D01*
X69088000Y-74930000D01*
X69088000Y-77013238D01*
X68989854Y-76915092D01*
X68819288Y-76801123D01*
X68629765Y-76722620D01*
X68428569Y-76682600D01*
X68223431Y-76682600D01*
X68022235Y-76722620D01*
X67832712Y-76801123D01*
X67662146Y-76915092D01*
X67517092Y-77060146D01*
X67444758Y-77168401D01*
X67437000Y-77176159D01*
X67437000Y-68135500D01*
X69592928Y-68135500D01*
X69592928Y-69024500D01*
X69613729Y-69235699D01*
X69675334Y-69438782D01*
X69775374Y-69625945D01*
X69910006Y-69789994D01*
X70074055Y-69924626D01*
X70261218Y-70024666D01*
X70464301Y-70086271D01*
X70675500Y-70107072D01*
X71564500Y-70107072D01*
X71775699Y-70086271D01*
X71978782Y-70024666D01*
X72165945Y-69924626D01*
X72329994Y-69789994D01*
X72390000Y-69716877D01*
X72450006Y-69789994D01*
X72614055Y-69924626D01*
X72801218Y-70024666D01*
X73004301Y-70086271D01*
X73215500Y-70107072D01*
X74104500Y-70107072D01*
X74315699Y-70086271D01*
X74518782Y-70024666D01*
X74705945Y-69924626D01*
X74869994Y-69789994D01*
X74930000Y-69716877D01*
X74990006Y-69789994D01*
X75154055Y-69924626D01*
X75341218Y-70024666D01*
X75544301Y-70086271D01*
X75755500Y-70107072D01*
X76644500Y-70107072D01*
X76855699Y-70086271D01*
X77058782Y-70024666D01*
X77245945Y-69924626D01*
X77409994Y-69789994D01*
X77544626Y-69625945D01*
X77644666Y-69438782D01*
X77706271Y-69235699D01*
X77727072Y-69024500D01*
X77727072Y-68135500D01*
X77706271Y-67924301D01*
X77644666Y-67721218D01*
X77544626Y-67534055D01*
X77409994Y-67370006D01*
X77245945Y-67235374D01*
X77058782Y-67135334D01*
X76855699Y-67073729D01*
X76644500Y-67052928D01*
X75755500Y-67052928D01*
X75544301Y-67073729D01*
X75341218Y-67135334D01*
X75154055Y-67235374D01*
X74990006Y-67370006D01*
X74930000Y-67443123D01*
X74869994Y-67370006D01*
X74705945Y-67235374D01*
X74518782Y-67135334D01*
X74315699Y-67073729D01*
X74104500Y-67052928D01*
X73215500Y-67052928D01*
X73004301Y-67073729D01*
X72801218Y-67135334D01*
X72614055Y-67235374D01*
X72450006Y-67370006D01*
X72390000Y-67443123D01*
X72329994Y-67370006D01*
X72165945Y-67235374D01*
X71978782Y-67135334D01*
X71775699Y-67073729D01*
X71564500Y-67052928D01*
X70675500Y-67052928D01*
X70464301Y-67073729D01*
X70261218Y-67135334D01*
X70074055Y-67235374D01*
X69910006Y-67370006D01*
X69775374Y-67534055D01*
X69675334Y-67721218D01*
X69613729Y-67924301D01*
X69592928Y-68135500D01*
X67437000Y-68135500D01*
X67437000Y-64770000D01*
X67434560Y-64745224D01*
X67427333Y-64721399D01*
X67415597Y-64699443D01*
X67399803Y-64680197D01*
X66129803Y-63410197D01*
X66110557Y-63394403D01*
X66088601Y-63382667D01*
X66064776Y-63375440D01*
X66040000Y-63373000D01*
X51435000Y-63373000D01*
X51410224Y-63375440D01*
X51386399Y-63382667D01*
X51364443Y-63394403D01*
X51345197Y-63410197D01*
X50075197Y-64680197D01*
X50059403Y-64699443D01*
X50047667Y-64721399D01*
X50040440Y-64745224D01*
X50038000Y-64770000D01*
X50038000Y-90526953D01*
X50023288Y-90517123D01*
X49833765Y-90438620D01*
X49632569Y-90398600D01*
X49427431Y-90398600D01*
X49226235Y-90438620D01*
X49036712Y-90517123D01*
X48866146Y-90631092D01*
X48721092Y-90776146D01*
X48607123Y-90946712D01*
X48528620Y-91136235D01*
X48488600Y-91337431D01*
X48488600Y-91542569D01*
X48528620Y-91743765D01*
X48607123Y-91933288D01*
X48704501Y-92079023D01*
X48704501Y-92368067D01*
X48105332Y-92967236D01*
X46894145Y-92967236D01*
X47018854Y-92883908D01*
X47163908Y-92738854D01*
X47277877Y-92568288D01*
X47356380Y-92378765D01*
X47396400Y-92177569D01*
X47396400Y-91972431D01*
X47356380Y-91771235D01*
X47277877Y-91581712D01*
X47180500Y-91435978D01*
X47180500Y-71124013D01*
X47277871Y-70978288D01*
X47356374Y-70788765D01*
X47390567Y-70616866D01*
X48053039Y-69954394D01*
X48084541Y-69928541D01*
X48152570Y-69845647D01*
X48187699Y-69802843D01*
X48264353Y-69659434D01*
X48280657Y-69605686D01*
X48311556Y-69503826D01*
X48323500Y-69382553D01*
X48323500Y-69382551D01*
X48327494Y-69342001D01*
X48323500Y-69301450D01*
X48323500Y-65238932D01*
X51014933Y-62547500D01*
X61082978Y-62547500D01*
X61228712Y-62644877D01*
X61418235Y-62723380D01*
X61619431Y-62763400D01*
X61824569Y-62763400D01*
X62025765Y-62723380D01*
X62215288Y-62644877D01*
X62385854Y-62530908D01*
X62530908Y-62385854D01*
X62644877Y-62215288D01*
X62723380Y-62025765D01*
X62763400Y-61824569D01*
X62763400Y-61619431D01*
X62723380Y-61418235D01*
X62644877Y-61228712D01*
X62530908Y-61058146D01*
X62434635Y-60961873D01*
X62566493Y-60873768D01*
X62778768Y-60661493D01*
X62865000Y-60532438D01*
X62951232Y-60661493D01*
X63163507Y-60873768D01*
X63413115Y-61040551D01*
X63690466Y-61155434D01*
X63984899Y-61214000D01*
X64285101Y-61214000D01*
X64579534Y-61155434D01*
X64856885Y-61040551D01*
X65106493Y-60873768D01*
X65234030Y-60746231D01*
X65798374Y-60746231D01*
X65880727Y-60999289D01*
X66151418Y-61129086D01*
X66442230Y-61203580D01*
X66741988Y-61219908D01*
X67039171Y-61177443D01*
X67322359Y-61077816D01*
X67469273Y-60999289D01*
X67551626Y-60746231D01*
X66675000Y-59869605D01*
X65798374Y-60746231D01*
X65234030Y-60746231D01*
X65318768Y-60661493D01*
X65424417Y-60503378D01*
X65618769Y-60566626D01*
X66495395Y-59690000D01*
X66854605Y-59690000D01*
X67731231Y-60566626D01*
X67925583Y-60503378D01*
X68031232Y-60661493D01*
X68243507Y-60873768D01*
X68493115Y-61040551D01*
X68770466Y-61155434D01*
X69064899Y-61214000D01*
X69365101Y-61214000D01*
X69659534Y-61155434D01*
X69936885Y-61040551D01*
X70186493Y-60873768D01*
X70398768Y-60661493D01*
X70565551Y-60411885D01*
X70680434Y-60134534D01*
X70739000Y-59840101D01*
X70739000Y-59539899D01*
X70680434Y-59245466D01*
X70565551Y-58968115D01*
X70398768Y-58718507D01*
X70231000Y-58550739D01*
X70231000Y-58232374D01*
X100330000Y-58232374D01*
X100330000Y-58607626D01*
X100403209Y-58975668D01*
X100546811Y-59322356D01*
X100755290Y-59634366D01*
X101020634Y-59899710D01*
X101332644Y-60108189D01*
X101679332Y-60251791D01*
X102047374Y-60325000D01*
X102422626Y-60325000D01*
X102790668Y-60251791D01*
X103137356Y-60108189D01*
X103449366Y-59899710D01*
X103714710Y-59634366D01*
X103923189Y-59322356D01*
X104066791Y-58975668D01*
X104140000Y-58607626D01*
X104140000Y-58232374D01*
X104066791Y-57864332D01*
X103923189Y-57517644D01*
X103714710Y-57205634D01*
X103449366Y-56940290D01*
X103137356Y-56731811D01*
X102790668Y-56588209D01*
X102422626Y-56515000D01*
X102047374Y-56515000D01*
X101679332Y-56588209D01*
X101332644Y-56731811D01*
X101020634Y-56940290D01*
X100755290Y-57205634D01*
X100546811Y-57517644D01*
X100403209Y-57864332D01*
X100330000Y-58232374D01*
X70231000Y-58232374D01*
X70231000Y-49315840D01*
X70270840Y-49276000D01*
X83770098Y-49276000D01*
X83820000Y-49280915D01*
X83869902Y-49276000D01*
X84019171Y-49261298D01*
X84210687Y-49203202D01*
X84387190Y-49108860D01*
X84541896Y-48981896D01*
X84573713Y-48943127D01*
X85138127Y-48378713D01*
X85176896Y-48346896D01*
X85303860Y-48192190D01*
X85398202Y-48015687D01*
X85456298Y-47824171D01*
X85471000Y-47674902D01*
X85471000Y-47674901D01*
X85475915Y-47625000D01*
X85471000Y-47575098D01*
X85471000Y-35429261D01*
X85527887Y-35372374D01*
X100330000Y-35372374D01*
X100330000Y-35747626D01*
X100403209Y-36115668D01*
X100546811Y-36462356D01*
X100755290Y-36774366D01*
X101020634Y-37039710D01*
X101332644Y-37248189D01*
X101679332Y-37391791D01*
X102047374Y-37465000D01*
X102422626Y-37465000D01*
X102790668Y-37391791D01*
X103137356Y-37248189D01*
X103449366Y-37039710D01*
X103714710Y-36774366D01*
X103923189Y-36462356D01*
X103927360Y-36452285D01*
X121895000Y-36452285D01*
X121895000Y-37207715D01*
X122042377Y-37948628D01*
X122331467Y-38646554D01*
X122751161Y-39274670D01*
X123285330Y-39808839D01*
X123913446Y-40228533D01*
X124611372Y-40517623D01*
X125352285Y-40665000D01*
X126107715Y-40665000D01*
X126848628Y-40517623D01*
X127546554Y-40228533D01*
X128174670Y-39808839D01*
X128708839Y-39274670D01*
X129128533Y-38646554D01*
X129417623Y-37948628D01*
X129565000Y-37207715D01*
X129565000Y-36452285D01*
X129417623Y-35711372D01*
X129128533Y-35013446D01*
X128708839Y-34385330D01*
X128174670Y-33851161D01*
X127546554Y-33431467D01*
X126848628Y-33142377D01*
X126107715Y-32995000D01*
X125352285Y-32995000D01*
X124611372Y-33142377D01*
X123913446Y-33431467D01*
X123285330Y-33851161D01*
X122751161Y-34385330D01*
X122331467Y-35013446D01*
X122042377Y-35711372D01*
X121895000Y-36452285D01*
X103927360Y-36452285D01*
X104066791Y-36115668D01*
X104140000Y-35747626D01*
X104140000Y-35372374D01*
X104066791Y-35004332D01*
X103923189Y-34657644D01*
X103714710Y-34345634D01*
X103449366Y-34080290D01*
X103137356Y-33871811D01*
X102790668Y-33728209D01*
X102422626Y-33655000D01*
X102047374Y-33655000D01*
X101679332Y-33728209D01*
X101332644Y-33871811D01*
X101020634Y-34080290D01*
X100755290Y-34345634D01*
X100546811Y-34657644D01*
X100403209Y-35004332D01*
X100330000Y-35372374D01*
X85527887Y-35372374D01*
X85638768Y-35261493D01*
X85805551Y-35011885D01*
X85920434Y-34734534D01*
X85979000Y-34440101D01*
X85979000Y-34139899D01*
X85920434Y-33845466D01*
X85805551Y-33568115D01*
X85638768Y-33318507D01*
X85426493Y-33106232D01*
X85176885Y-32939449D01*
X84899534Y-32824566D01*
X84605101Y-32766000D01*
X84304899Y-32766000D01*
X84010466Y-32824566D01*
X83733115Y-32939449D01*
X83483507Y-33106232D01*
X83271232Y-33318507D01*
X83165583Y-33476622D01*
X82971231Y-33413374D01*
X82094605Y-34290000D01*
X82971231Y-35166626D01*
X83165583Y-35103378D01*
X83271232Y-35261493D01*
X83439001Y-35429262D01*
X83439000Y-47204160D01*
X83399160Y-47244000D01*
X69899902Y-47244000D01*
X69850000Y-47239085D01*
X69800098Y-47244000D01*
X69650829Y-47258702D01*
X69459313Y-47316798D01*
X69282810Y-47411140D01*
X69128104Y-47538104D01*
X69096287Y-47576873D01*
X68531868Y-48141292D01*
X68493105Y-48173104D01*
X68366141Y-48327810D01*
X68295928Y-48459170D01*
X68271799Y-48504313D01*
X68213702Y-48695830D01*
X68194085Y-48895000D01*
X68199001Y-48944912D01*
X68199000Y-58550739D01*
X68031232Y-58718507D01*
X67925583Y-58876622D01*
X67731231Y-58813374D01*
X66854605Y-59690000D01*
X66495395Y-59690000D01*
X65618769Y-58813374D01*
X65424417Y-58876622D01*
X65318768Y-58718507D01*
X65234030Y-58633769D01*
X65798374Y-58633769D01*
X66675000Y-59510395D01*
X67551626Y-58633769D01*
X67469273Y-58380711D01*
X67198582Y-58250914D01*
X66907770Y-58176420D01*
X66608012Y-58160092D01*
X66310829Y-58202557D01*
X66027641Y-58302184D01*
X65880727Y-58380711D01*
X65798374Y-58633769D01*
X65234030Y-58633769D01*
X65151000Y-58550739D01*
X65151000Y-46140840D01*
X65190840Y-46101000D01*
X76150098Y-46101000D01*
X76200000Y-46105915D01*
X76249902Y-46101000D01*
X76399171Y-46086298D01*
X76590687Y-46028202D01*
X76767190Y-45933860D01*
X76921896Y-45806896D01*
X76953713Y-45768127D01*
X77518127Y-45203713D01*
X77556896Y-45171896D01*
X77683860Y-45017190D01*
X77778202Y-44840687D01*
X77836298Y-44649171D01*
X77851000Y-44499902D01*
X77855915Y-44450000D01*
X77851000Y-44400098D01*
X77851000Y-35429261D01*
X77934030Y-35346231D01*
X78498374Y-35346231D01*
X78580727Y-35599289D01*
X78851418Y-35729086D01*
X79142230Y-35803580D01*
X79441988Y-35819908D01*
X79739171Y-35777443D01*
X80022359Y-35677816D01*
X80169273Y-35599289D01*
X80251626Y-35346231D01*
X81038374Y-35346231D01*
X81120727Y-35599289D01*
X81391418Y-35729086D01*
X81682230Y-35803580D01*
X81981988Y-35819908D01*
X82279171Y-35777443D01*
X82562359Y-35677816D01*
X82709273Y-35599289D01*
X82791626Y-35346231D01*
X81915000Y-34469605D01*
X81038374Y-35346231D01*
X80251626Y-35346231D01*
X79375000Y-34469605D01*
X78498374Y-35346231D01*
X77934030Y-35346231D01*
X78018768Y-35261493D01*
X78124417Y-35103378D01*
X78318769Y-35166626D01*
X79195395Y-34290000D01*
X79554605Y-34290000D01*
X80431231Y-35166626D01*
X80645000Y-35097059D01*
X80858769Y-35166626D01*
X81735395Y-34290000D01*
X80858769Y-33413374D01*
X80645000Y-33482941D01*
X80431231Y-33413374D01*
X79554605Y-34290000D01*
X79195395Y-34290000D01*
X78318769Y-33413374D01*
X78124417Y-33476622D01*
X78018768Y-33318507D01*
X77934030Y-33233769D01*
X78498374Y-33233769D01*
X79375000Y-34110395D01*
X80251626Y-33233769D01*
X81038374Y-33233769D01*
X81915000Y-34110395D01*
X82791626Y-33233769D01*
X82709273Y-32980711D01*
X82438582Y-32850914D01*
X82147770Y-32776420D01*
X81848012Y-32760092D01*
X81550829Y-32802557D01*
X81267641Y-32902184D01*
X81120727Y-32980711D01*
X81038374Y-33233769D01*
X80251626Y-33233769D01*
X80169273Y-32980711D01*
X79898582Y-32850914D01*
X79607770Y-32776420D01*
X79308012Y-32760092D01*
X79010829Y-32802557D01*
X78727641Y-32902184D01*
X78580727Y-32980711D01*
X78498374Y-33233769D01*
X77934030Y-33233769D01*
X77806493Y-33106232D01*
X77556885Y-32939449D01*
X77279534Y-32824566D01*
X76985101Y-32766000D01*
X76684899Y-32766000D01*
X76390466Y-32824566D01*
X76113115Y-32939449D01*
X75863507Y-33106232D01*
X75651232Y-33318507D01*
X75565000Y-33447562D01*
X75478768Y-33318507D01*
X75266493Y-33106232D01*
X75016885Y-32939449D01*
X74739534Y-32824566D01*
X74445101Y-32766000D01*
X74144899Y-32766000D01*
X73850466Y-32824566D01*
X73573115Y-32939449D01*
X73323507Y-33106232D01*
X73111232Y-33318507D01*
X73025000Y-33447562D01*
X72938768Y-33318507D01*
X72726493Y-33106232D01*
X72476885Y-32939449D01*
X72199534Y-32824566D01*
X71905101Y-32766000D01*
X71604899Y-32766000D01*
X71310466Y-32824566D01*
X71033115Y-32939449D01*
X70783507Y-33106232D01*
X70571232Y-33318507D01*
X70485000Y-33447562D01*
X70398768Y-33318507D01*
X70186493Y-33106232D01*
X69936885Y-32939449D01*
X69659534Y-32824566D01*
X69365101Y-32766000D01*
X69064899Y-32766000D01*
X68770466Y-32824566D01*
X68493115Y-32939449D01*
X68243507Y-33106232D01*
X68031232Y-33318507D01*
X67945000Y-33447562D01*
X67858768Y-33318507D01*
X67646493Y-33106232D01*
X67396885Y-32939449D01*
X67119534Y-32824566D01*
X66825101Y-32766000D01*
X66524899Y-32766000D01*
X66230466Y-32824566D01*
X65953115Y-32939449D01*
X65703507Y-33106232D01*
X65491232Y-33318507D01*
X65405000Y-33447562D01*
X65318768Y-33318507D01*
X65106493Y-33106232D01*
X64856885Y-32939449D01*
X64579534Y-32824566D01*
X64285101Y-32766000D01*
X63984899Y-32766000D01*
X63690466Y-32824566D01*
X63413115Y-32939449D01*
X63163507Y-33106232D01*
X62951232Y-33318507D01*
X62865000Y-33447562D01*
X62778768Y-33318507D01*
X62566493Y-33106232D01*
X62316885Y-32939449D01*
X62039534Y-32824566D01*
X61745101Y-32766000D01*
X61444899Y-32766000D01*
X61150466Y-32824566D01*
X60873115Y-32939449D01*
X60623507Y-33106232D01*
X60411232Y-33318507D01*
X60325000Y-33447562D01*
X60238768Y-33318507D01*
X60026493Y-33106232D01*
X59776885Y-32939449D01*
X59499534Y-32824566D01*
X59205101Y-32766000D01*
X58904899Y-32766000D01*
X58610466Y-32824566D01*
X58333115Y-32939449D01*
X58083507Y-33106232D01*
X57871232Y-33318507D01*
X57785000Y-33447562D01*
X57698768Y-33318507D01*
X57486493Y-33106232D01*
X57236885Y-32939449D01*
X56959534Y-32824566D01*
X56665101Y-32766000D01*
X56364899Y-32766000D01*
X56070466Y-32824566D01*
X55793115Y-32939449D01*
X55543507Y-33106232D01*
X55331232Y-33318507D01*
X55245000Y-33447562D01*
X55158768Y-33318507D01*
X54946493Y-33106232D01*
X54696885Y-32939449D01*
X54419534Y-32824566D01*
X54125101Y-32766000D01*
X53824899Y-32766000D01*
X53530466Y-32824566D01*
X53253115Y-32939449D01*
X53003507Y-33106232D01*
X52791232Y-33318507D01*
X52705000Y-33447562D01*
X52618768Y-33318507D01*
X52406493Y-33106232D01*
X52156885Y-32939449D01*
X51879534Y-32824566D01*
X51585101Y-32766000D01*
X51284899Y-32766000D01*
X50990466Y-32824566D01*
X50713115Y-32939449D01*
X50463507Y-33106232D01*
X50251232Y-33318507D01*
X50165000Y-33447562D01*
X50078768Y-33318507D01*
X49866493Y-33106232D01*
X49616885Y-32939449D01*
X49339534Y-32824566D01*
X49045101Y-32766000D01*
X48744899Y-32766000D01*
X48450466Y-32824566D01*
X48387000Y-32850855D01*
X48387000Y-32423100D01*
X125700026Y-32423100D01*
X126509917Y-32495381D01*
X126509917Y-32495381D01*
G37*
X126509917Y-32495381D02*
X127265190Y-32702000D01*
X127971933Y-33039100D01*
X128607811Y-33496024D01*
X129152727Y-34058334D01*
X129589452Y-34708249D01*
X129904185Y-35425230D01*
X130088221Y-36191795D01*
X130134471Y-36821602D01*
X130133644Y-36830000D01*
X130136901Y-36863069D01*
X130136900Y-62197075D01*
X130122365Y-62345314D01*
X130088878Y-62456228D01*
X130034481Y-62558535D01*
X129961253Y-62648321D01*
X129871977Y-62722177D01*
X129842713Y-62738000D01*
X99060000Y-62738000D01*
X99035224Y-62740440D01*
X99011399Y-62747667D01*
X98989443Y-62759403D01*
X98970197Y-62775197D01*
X98335197Y-63410197D01*
X98319403Y-63429443D01*
X98307667Y-63451399D01*
X98300440Y-63475224D01*
X98298000Y-63500000D01*
X98298000Y-74877394D01*
X97737394Y-75438000D01*
X92075000Y-75438000D01*
X92050224Y-75440440D01*
X92026399Y-75447667D01*
X92004443Y-75459403D01*
X91985197Y-75475197D01*
X91350197Y-76110197D01*
X91334403Y-76129443D01*
X91322667Y-76151399D01*
X91315440Y-76175224D01*
X91313000Y-76200000D01*
X91313000Y-85037394D01*
X90752394Y-85598000D01*
X76252606Y-85598000D01*
X75692000Y-85037394D01*
X75692000Y-82625762D01*
X75738908Y-82578854D01*
X75811243Y-82470598D01*
X76120599Y-82161242D01*
X76228854Y-82088908D01*
X76373908Y-81943854D01*
X76487877Y-81773288D01*
X76566380Y-81583765D01*
X76606400Y-81382569D01*
X76606400Y-81177431D01*
X76581000Y-81049735D01*
X76581000Y-74334840D01*
X77509841Y-73406000D01*
X83225085Y-73406000D01*
X83390203Y-73607197D01*
X83618394Y-73794469D01*
X83878736Y-73933625D01*
X84161223Y-74019316D01*
X84455000Y-74048251D01*
X84748776Y-74019316D01*
X85031263Y-73933625D01*
X85291605Y-73794469D01*
X85519797Y-73607197D01*
X85707069Y-73379006D01*
X85725000Y-73345459D01*
X85742931Y-73379005D01*
X85930203Y-73607197D01*
X86158394Y-73794469D01*
X86418736Y-73933625D01*
X86701223Y-74019316D01*
X86995000Y-74048251D01*
X87288776Y-74019316D01*
X87571263Y-73933625D01*
X87831605Y-73794469D01*
X88059797Y-73607197D01*
X88247069Y-73379006D01*
X88265000Y-73345459D01*
X88282931Y-73379005D01*
X88470203Y-73607197D01*
X88698394Y-73794469D01*
X88958736Y-73933625D01*
X89241223Y-74019316D01*
X89535000Y-74048251D01*
X89828776Y-74019316D01*
X90111263Y-73933625D01*
X90371605Y-73794469D01*
X90599797Y-73607197D01*
X90606414Y-73599135D01*
X90621898Y-73650180D01*
X90680863Y-73760494D01*
X90760215Y-73857185D01*
X90856906Y-73936537D01*
X90967220Y-73995502D01*
X91086918Y-74031812D01*
X91211400Y-74044072D01*
X92938600Y-74044072D01*
X93063082Y-74031812D01*
X93182780Y-73995502D01*
X93293094Y-73936537D01*
X93389785Y-73857185D01*
X93469137Y-73760494D01*
X93528102Y-73650180D01*
X93564412Y-73530482D01*
X93576672Y-73406000D01*
X93576672Y-71374000D01*
X93564412Y-71249518D01*
X93528102Y-71129820D01*
X93469137Y-71019506D01*
X93389785Y-70922815D01*
X93293094Y-70843463D01*
X93182780Y-70784498D01*
X93063082Y-70748188D01*
X92938600Y-70735928D01*
X91211400Y-70735928D01*
X91086918Y-70748188D01*
X90967220Y-70784498D01*
X90856906Y-70843463D01*
X90760215Y-70922815D01*
X90680863Y-71019506D01*
X90621898Y-71129820D01*
X90606414Y-71180865D01*
X90599797Y-71172803D01*
X90371606Y-70985531D01*
X90111264Y-70846375D01*
X89828777Y-70760684D01*
X89535000Y-70731749D01*
X89241224Y-70760684D01*
X88958737Y-70846375D01*
X88698395Y-70985531D01*
X88470203Y-71172803D01*
X88282931Y-71400994D01*
X88265000Y-71434541D01*
X88247069Y-71400994D01*
X88059797Y-71172803D01*
X87831606Y-70985531D01*
X87571264Y-70846375D01*
X87288777Y-70760684D01*
X86995000Y-70731749D01*
X86701224Y-70760684D01*
X86418737Y-70846375D01*
X86158395Y-70985531D01*
X85930203Y-71172803D01*
X85742931Y-71400994D01*
X85725000Y-71434541D01*
X85707069Y-71400994D01*
X85519797Y-71172803D01*
X85291606Y-70985531D01*
X85031264Y-70846375D01*
X84748777Y-70760684D01*
X84455000Y-70731749D01*
X84161224Y-70760684D01*
X83878737Y-70846375D01*
X83618395Y-70985531D01*
X83390203Y-71172803D01*
X83225084Y-71374000D01*
X77138893Y-71374000D01*
X77088999Y-71369086D01*
X77039105Y-71374000D01*
X77039098Y-71374000D01*
X76909177Y-71386796D01*
X76889828Y-71388702D01*
X76868266Y-71395243D01*
X76698313Y-71446798D01*
X76521810Y-71541140D01*
X76367104Y-71668104D01*
X76335292Y-71706867D01*
X74881868Y-73160292D01*
X74843105Y-73192104D01*
X74716141Y-73346810D01*
X74629584Y-73508749D01*
X74621799Y-73523313D01*
X74563702Y-73714830D01*
X74544085Y-73914000D01*
X74549001Y-73963912D01*
X74549000Y-80859159D01*
X74374402Y-81033757D01*
X74266146Y-81106092D01*
X74121092Y-81251146D01*
X74048757Y-81359403D01*
X73874160Y-81534000D01*
X71882000Y-81534000D01*
X71882000Y-74930000D01*
X71872333Y-74881399D01*
X71844803Y-74840197D01*
X71803601Y-74812667D01*
X71755000Y-74803000D01*
X69215000Y-74803000D01*
X69166399Y-74812667D01*
X69125197Y-74840197D01*
X69097667Y-74881399D01*
X69088000Y-74930000D01*
X69088000Y-77013238D01*
X68989854Y-76915092D01*
X68819288Y-76801123D01*
X68629765Y-76722620D01*
X68428569Y-76682600D01*
X68223431Y-76682600D01*
X68022235Y-76722620D01*
X67832712Y-76801123D01*
X67662146Y-76915092D01*
X67517092Y-77060146D01*
X67444758Y-77168401D01*
X67437000Y-77176159D01*
X67437000Y-68135500D01*
X69592928Y-68135500D01*
X69592928Y-69024500D01*
X69613729Y-69235699D01*
X69675334Y-69438782D01*
X69775374Y-69625945D01*
X69910006Y-69789994D01*
X70074055Y-69924626D01*
X70261218Y-70024666D01*
X70464301Y-70086271D01*
X70675500Y-70107072D01*
X71564500Y-70107072D01*
X71775699Y-70086271D01*
X71978782Y-70024666D01*
X72165945Y-69924626D01*
X72329994Y-69789994D01*
X72390000Y-69716877D01*
X72450006Y-69789994D01*
X72614055Y-69924626D01*
X72801218Y-70024666D01*
X73004301Y-70086271D01*
X73215500Y-70107072D01*
X74104500Y-70107072D01*
X74315699Y-70086271D01*
X74518782Y-70024666D01*
X74705945Y-69924626D01*
X74869994Y-69789994D01*
X74930000Y-69716877D01*
X74990006Y-69789994D01*
X75154055Y-69924626D01*
X75341218Y-70024666D01*
X75544301Y-70086271D01*
X75755500Y-70107072D01*
X76644500Y-70107072D01*
X76855699Y-70086271D01*
X77058782Y-70024666D01*
X77245945Y-69924626D01*
X77409994Y-69789994D01*
X77544626Y-69625945D01*
X77644666Y-69438782D01*
X77706271Y-69235699D01*
X77727072Y-69024500D01*
X77727072Y-68135500D01*
X77706271Y-67924301D01*
X77644666Y-67721218D01*
X77544626Y-67534055D01*
X77409994Y-67370006D01*
X77245945Y-67235374D01*
X77058782Y-67135334D01*
X76855699Y-67073729D01*
X76644500Y-67052928D01*
X75755500Y-67052928D01*
X75544301Y-67073729D01*
X75341218Y-67135334D01*
X75154055Y-67235374D01*
X74990006Y-67370006D01*
X74930000Y-67443123D01*
X74869994Y-67370006D01*
X74705945Y-67235374D01*
X74518782Y-67135334D01*
X74315699Y-67073729D01*
X74104500Y-67052928D01*
X73215500Y-67052928D01*
X73004301Y-67073729D01*
X72801218Y-67135334D01*
X72614055Y-67235374D01*
X72450006Y-67370006D01*
X72390000Y-67443123D01*
X72329994Y-67370006D01*
X72165945Y-67235374D01*
X71978782Y-67135334D01*
X71775699Y-67073729D01*
X71564500Y-67052928D01*
X70675500Y-67052928D01*
X70464301Y-67073729D01*
X70261218Y-67135334D01*
X70074055Y-67235374D01*
X69910006Y-67370006D01*
X69775374Y-67534055D01*
X69675334Y-67721218D01*
X69613729Y-67924301D01*
X69592928Y-68135500D01*
X67437000Y-68135500D01*
X67437000Y-64770000D01*
X67434560Y-64745224D01*
X67427333Y-64721399D01*
X67415597Y-64699443D01*
X67399803Y-64680197D01*
X66129803Y-63410197D01*
X66110557Y-63394403D01*
X66088601Y-63382667D01*
X66064776Y-63375440D01*
X66040000Y-63373000D01*
X51435000Y-63373000D01*
X51410224Y-63375440D01*
X51386399Y-63382667D01*
X51364443Y-63394403D01*
X51345197Y-63410197D01*
X50075197Y-64680197D01*
X50059403Y-64699443D01*
X50047667Y-64721399D01*
X50040440Y-64745224D01*
X50038000Y-64770000D01*
X50038000Y-90526953D01*
X50023288Y-90517123D01*
X49833765Y-90438620D01*
X49632569Y-90398600D01*
X49427431Y-90398600D01*
X49226235Y-90438620D01*
X49036712Y-90517123D01*
X48866146Y-90631092D01*
X48721092Y-90776146D01*
X48607123Y-90946712D01*
X48528620Y-91136235D01*
X48488600Y-91337431D01*
X48488600Y-91542569D01*
X48528620Y-91743765D01*
X48607123Y-91933288D01*
X48704501Y-92079023D01*
X48704501Y-92368067D01*
X48105332Y-92967236D01*
X46894145Y-92967236D01*
X47018854Y-92883908D01*
X47163908Y-92738854D01*
X47277877Y-92568288D01*
X47356380Y-92378765D01*
X47396400Y-92177569D01*
X47396400Y-91972431D01*
X47356380Y-91771235D01*
X47277877Y-91581712D01*
X47180500Y-91435978D01*
X47180500Y-71124013D01*
X47277871Y-70978288D01*
X47356374Y-70788765D01*
X47390567Y-70616866D01*
X48053039Y-69954394D01*
X48084541Y-69928541D01*
X48152570Y-69845647D01*
X48187699Y-69802843D01*
X48264353Y-69659434D01*
X48280657Y-69605686D01*
X48311556Y-69503826D01*
X48323500Y-69382553D01*
X48323500Y-69382551D01*
X48327494Y-69342001D01*
X48323500Y-69301450D01*
X48323500Y-65238932D01*
X51014933Y-62547500D01*
X61082978Y-62547500D01*
X61228712Y-62644877D01*
X61418235Y-62723380D01*
X61619431Y-62763400D01*
X61824569Y-62763400D01*
X62025765Y-62723380D01*
X62215288Y-62644877D01*
X62385854Y-62530908D01*
X62530908Y-62385854D01*
X62644877Y-62215288D01*
X62723380Y-62025765D01*
X62763400Y-61824569D01*
X62763400Y-61619431D01*
X62723380Y-61418235D01*
X62644877Y-61228712D01*
X62530908Y-61058146D01*
X62434635Y-60961873D01*
X62566493Y-60873768D01*
X62778768Y-60661493D01*
X62865000Y-60532438D01*
X62951232Y-60661493D01*
X63163507Y-60873768D01*
X63413115Y-61040551D01*
X63690466Y-61155434D01*
X63984899Y-61214000D01*
X64285101Y-61214000D01*
X64579534Y-61155434D01*
X64856885Y-61040551D01*
X65106493Y-60873768D01*
X65234030Y-60746231D01*
X65798374Y-60746231D01*
X65880727Y-60999289D01*
X66151418Y-61129086D01*
X66442230Y-61203580D01*
X66741988Y-61219908D01*
X67039171Y-61177443D01*
X67322359Y-61077816D01*
X67469273Y-60999289D01*
X67551626Y-60746231D01*
X66675000Y-59869605D01*
X65798374Y-60746231D01*
X65234030Y-60746231D01*
X65318768Y-60661493D01*
X65424417Y-60503378D01*
X65618769Y-60566626D01*
X66495395Y-59690000D01*
X66854605Y-59690000D01*
X67731231Y-60566626D01*
X67925583Y-60503378D01*
X68031232Y-60661493D01*
X68243507Y-60873768D01*
X68493115Y-61040551D01*
X68770466Y-61155434D01*
X69064899Y-61214000D01*
X69365101Y-61214000D01*
X69659534Y-61155434D01*
X69936885Y-61040551D01*
X70186493Y-60873768D01*
X70398768Y-60661493D01*
X70565551Y-60411885D01*
X70680434Y-60134534D01*
X70739000Y-59840101D01*
X70739000Y-59539899D01*
X70680434Y-59245466D01*
X70565551Y-58968115D01*
X70398768Y-58718507D01*
X70231000Y-58550739D01*
X70231000Y-58232374D01*
X100330000Y-58232374D01*
X100330000Y-58607626D01*
X100403209Y-58975668D01*
X100546811Y-59322356D01*
X100755290Y-59634366D01*
X101020634Y-59899710D01*
X101332644Y-60108189D01*
X101679332Y-60251791D01*
X102047374Y-60325000D01*
X102422626Y-60325000D01*
X102790668Y-60251791D01*
X103137356Y-60108189D01*
X103449366Y-59899710D01*
X103714710Y-59634366D01*
X103923189Y-59322356D01*
X104066791Y-58975668D01*
X104140000Y-58607626D01*
X104140000Y-58232374D01*
X104066791Y-57864332D01*
X103923189Y-57517644D01*
X103714710Y-57205634D01*
X103449366Y-56940290D01*
X103137356Y-56731811D01*
X102790668Y-56588209D01*
X102422626Y-56515000D01*
X102047374Y-56515000D01*
X101679332Y-56588209D01*
X101332644Y-56731811D01*
X101020634Y-56940290D01*
X100755290Y-57205634D01*
X100546811Y-57517644D01*
X100403209Y-57864332D01*
X100330000Y-58232374D01*
X70231000Y-58232374D01*
X70231000Y-49315840D01*
X70270840Y-49276000D01*
X83770098Y-49276000D01*
X83820000Y-49280915D01*
X83869902Y-49276000D01*
X84019171Y-49261298D01*
X84210687Y-49203202D01*
X84387190Y-49108860D01*
X84541896Y-48981896D01*
X84573713Y-48943127D01*
X85138127Y-48378713D01*
X85176896Y-48346896D01*
X85303860Y-48192190D01*
X85398202Y-48015687D01*
X85456298Y-47824171D01*
X85471000Y-47674902D01*
X85471000Y-47674901D01*
X85475915Y-47625000D01*
X85471000Y-47575098D01*
X85471000Y-35429261D01*
X85527887Y-35372374D01*
X100330000Y-35372374D01*
X100330000Y-35747626D01*
X100403209Y-36115668D01*
X100546811Y-36462356D01*
X100755290Y-36774366D01*
X101020634Y-37039710D01*
X101332644Y-37248189D01*
X101679332Y-37391791D01*
X102047374Y-37465000D01*
X102422626Y-37465000D01*
X102790668Y-37391791D01*
X103137356Y-37248189D01*
X103449366Y-37039710D01*
X103714710Y-36774366D01*
X103923189Y-36462356D01*
X103927360Y-36452285D01*
X121895000Y-36452285D01*
X121895000Y-37207715D01*
X122042377Y-37948628D01*
X122331467Y-38646554D01*
X122751161Y-39274670D01*
X123285330Y-39808839D01*
X123913446Y-40228533D01*
X124611372Y-40517623D01*
X125352285Y-40665000D01*
X126107715Y-40665000D01*
X126848628Y-40517623D01*
X127546554Y-40228533D01*
X128174670Y-39808839D01*
X128708839Y-39274670D01*
X129128533Y-38646554D01*
X129417623Y-37948628D01*
X129565000Y-37207715D01*
X129565000Y-36452285D01*
X129417623Y-35711372D01*
X129128533Y-35013446D01*
X128708839Y-34385330D01*
X128174670Y-33851161D01*
X127546554Y-33431467D01*
X126848628Y-33142377D01*
X126107715Y-32995000D01*
X125352285Y-32995000D01*
X124611372Y-33142377D01*
X123913446Y-33431467D01*
X123285330Y-33851161D01*
X122751161Y-34385330D01*
X122331467Y-35013446D01*
X122042377Y-35711372D01*
X121895000Y-36452285D01*
X103927360Y-36452285D01*
X104066791Y-36115668D01*
X104140000Y-35747626D01*
X104140000Y-35372374D01*
X104066791Y-35004332D01*
X103923189Y-34657644D01*
X103714710Y-34345634D01*
X103449366Y-34080290D01*
X103137356Y-33871811D01*
X102790668Y-33728209D01*
X102422626Y-33655000D01*
X102047374Y-33655000D01*
X101679332Y-33728209D01*
X101332644Y-33871811D01*
X101020634Y-34080290D01*
X100755290Y-34345634D01*
X100546811Y-34657644D01*
X100403209Y-35004332D01*
X100330000Y-35372374D01*
X85527887Y-35372374D01*
X85638768Y-35261493D01*
X85805551Y-35011885D01*
X85920434Y-34734534D01*
X85979000Y-34440101D01*
X85979000Y-34139899D01*
X85920434Y-33845466D01*
X85805551Y-33568115D01*
X85638768Y-33318507D01*
X85426493Y-33106232D01*
X85176885Y-32939449D01*
X84899534Y-32824566D01*
X84605101Y-32766000D01*
X84304899Y-32766000D01*
X84010466Y-32824566D01*
X83733115Y-32939449D01*
X83483507Y-33106232D01*
X83271232Y-33318507D01*
X83165583Y-33476622D01*
X82971231Y-33413374D01*
X82094605Y-34290000D01*
X82971231Y-35166626D01*
X83165583Y-35103378D01*
X83271232Y-35261493D01*
X83439001Y-35429262D01*
X83439000Y-47204160D01*
X83399160Y-47244000D01*
X69899902Y-47244000D01*
X69850000Y-47239085D01*
X69800098Y-47244000D01*
X69650829Y-47258702D01*
X69459313Y-47316798D01*
X69282810Y-47411140D01*
X69128104Y-47538104D01*
X69096287Y-47576873D01*
X68531868Y-48141292D01*
X68493105Y-48173104D01*
X68366141Y-48327810D01*
X68295928Y-48459170D01*
X68271799Y-48504313D01*
X68213702Y-48695830D01*
X68194085Y-48895000D01*
X68199001Y-48944912D01*
X68199000Y-58550739D01*
X68031232Y-58718507D01*
X67925583Y-58876622D01*
X67731231Y-58813374D01*
X66854605Y-59690000D01*
X66495395Y-59690000D01*
X65618769Y-58813374D01*
X65424417Y-58876622D01*
X65318768Y-58718507D01*
X65234030Y-58633769D01*
X65798374Y-58633769D01*
X66675000Y-59510395D01*
X67551626Y-58633769D01*
X67469273Y-58380711D01*
X67198582Y-58250914D01*
X66907770Y-58176420D01*
X66608012Y-58160092D01*
X66310829Y-58202557D01*
X66027641Y-58302184D01*
X65880727Y-58380711D01*
X65798374Y-58633769D01*
X65234030Y-58633769D01*
X65151000Y-58550739D01*
X65151000Y-46140840D01*
X65190840Y-46101000D01*
X76150098Y-46101000D01*
X76200000Y-46105915D01*
X76249902Y-46101000D01*
X76399171Y-46086298D01*
X76590687Y-46028202D01*
X76767190Y-45933860D01*
X76921896Y-45806896D01*
X76953713Y-45768127D01*
X77518127Y-45203713D01*
X77556896Y-45171896D01*
X77683860Y-45017190D01*
X77778202Y-44840687D01*
X77836298Y-44649171D01*
X77851000Y-44499902D01*
X77855915Y-44450000D01*
X77851000Y-44400098D01*
X77851000Y-35429261D01*
X77934030Y-35346231D01*
X78498374Y-35346231D01*
X78580727Y-35599289D01*
X78851418Y-35729086D01*
X79142230Y-35803580D01*
X79441988Y-35819908D01*
X79739171Y-35777443D01*
X80022359Y-35677816D01*
X80169273Y-35599289D01*
X80251626Y-35346231D01*
X81038374Y-35346231D01*
X81120727Y-35599289D01*
X81391418Y-35729086D01*
X81682230Y-35803580D01*
X81981988Y-35819908D01*
X82279171Y-35777443D01*
X82562359Y-35677816D01*
X82709273Y-35599289D01*
X82791626Y-35346231D01*
X81915000Y-34469605D01*
X81038374Y-35346231D01*
X80251626Y-35346231D01*
X79375000Y-34469605D01*
X78498374Y-35346231D01*
X77934030Y-35346231D01*
X78018768Y-35261493D01*
X78124417Y-35103378D01*
X78318769Y-35166626D01*
X79195395Y-34290000D01*
X79554605Y-34290000D01*
X80431231Y-35166626D01*
X80645000Y-35097059D01*
X80858769Y-35166626D01*
X81735395Y-34290000D01*
X80858769Y-33413374D01*
X80645000Y-33482941D01*
X80431231Y-33413374D01*
X79554605Y-34290000D01*
X79195395Y-34290000D01*
X78318769Y-33413374D01*
X78124417Y-33476622D01*
X78018768Y-33318507D01*
X77934030Y-33233769D01*
X78498374Y-33233769D01*
X79375000Y-34110395D01*
X80251626Y-33233769D01*
X81038374Y-33233769D01*
X81915000Y-34110395D01*
X82791626Y-33233769D01*
X82709273Y-32980711D01*
X82438582Y-32850914D01*
X82147770Y-32776420D01*
X81848012Y-32760092D01*
X81550829Y-32802557D01*
X81267641Y-32902184D01*
X81120727Y-32980711D01*
X81038374Y-33233769D01*
X80251626Y-33233769D01*
X80169273Y-32980711D01*
X79898582Y-32850914D01*
X79607770Y-32776420D01*
X79308012Y-32760092D01*
X79010829Y-32802557D01*
X78727641Y-32902184D01*
X78580727Y-32980711D01*
X78498374Y-33233769D01*
X77934030Y-33233769D01*
X77806493Y-33106232D01*
X77556885Y-32939449D01*
X77279534Y-32824566D01*
X76985101Y-32766000D01*
X76684899Y-32766000D01*
X76390466Y-32824566D01*
X76113115Y-32939449D01*
X75863507Y-33106232D01*
X75651232Y-33318507D01*
X75565000Y-33447562D01*
X75478768Y-33318507D01*
X75266493Y-33106232D01*
X75016885Y-32939449D01*
X74739534Y-32824566D01*
X74445101Y-32766000D01*
X74144899Y-32766000D01*
X73850466Y-32824566D01*
X73573115Y-32939449D01*
X73323507Y-33106232D01*
X73111232Y-33318507D01*
X73025000Y-33447562D01*
X72938768Y-33318507D01*
X72726493Y-33106232D01*
X72476885Y-32939449D01*
X72199534Y-32824566D01*
X71905101Y-32766000D01*
X71604899Y-32766000D01*
X71310466Y-32824566D01*
X71033115Y-32939449D01*
X70783507Y-33106232D01*
X70571232Y-33318507D01*
X70485000Y-33447562D01*
X70398768Y-33318507D01*
X70186493Y-33106232D01*
X69936885Y-32939449D01*
X69659534Y-32824566D01*
X69365101Y-32766000D01*
X69064899Y-32766000D01*
X68770466Y-32824566D01*
X68493115Y-32939449D01*
X68243507Y-33106232D01*
X68031232Y-33318507D01*
X67945000Y-33447562D01*
X67858768Y-33318507D01*
X67646493Y-33106232D01*
X67396885Y-32939449D01*
X67119534Y-32824566D01*
X66825101Y-32766000D01*
X66524899Y-32766000D01*
X66230466Y-32824566D01*
X65953115Y-32939449D01*
X65703507Y-33106232D01*
X65491232Y-33318507D01*
X65405000Y-33447562D01*
X65318768Y-33318507D01*
X65106493Y-33106232D01*
X64856885Y-32939449D01*
X64579534Y-32824566D01*
X64285101Y-32766000D01*
X63984899Y-32766000D01*
X63690466Y-32824566D01*
X63413115Y-32939449D01*
X63163507Y-33106232D01*
X62951232Y-33318507D01*
X62865000Y-33447562D01*
X62778768Y-33318507D01*
X62566493Y-33106232D01*
X62316885Y-32939449D01*
X62039534Y-32824566D01*
X61745101Y-32766000D01*
X61444899Y-32766000D01*
X61150466Y-32824566D01*
X60873115Y-32939449D01*
X60623507Y-33106232D01*
X60411232Y-33318507D01*
X60325000Y-33447562D01*
X60238768Y-33318507D01*
X60026493Y-33106232D01*
X59776885Y-32939449D01*
X59499534Y-32824566D01*
X59205101Y-32766000D01*
X58904899Y-32766000D01*
X58610466Y-32824566D01*
X58333115Y-32939449D01*
X58083507Y-33106232D01*
X57871232Y-33318507D01*
X57785000Y-33447562D01*
X57698768Y-33318507D01*
X57486493Y-33106232D01*
X57236885Y-32939449D01*
X56959534Y-32824566D01*
X56665101Y-32766000D01*
X56364899Y-32766000D01*
X56070466Y-32824566D01*
X55793115Y-32939449D01*
X55543507Y-33106232D01*
X55331232Y-33318507D01*
X55245000Y-33447562D01*
X55158768Y-33318507D01*
X54946493Y-33106232D01*
X54696885Y-32939449D01*
X54419534Y-32824566D01*
X54125101Y-32766000D01*
X53824899Y-32766000D01*
X53530466Y-32824566D01*
X53253115Y-32939449D01*
X53003507Y-33106232D01*
X52791232Y-33318507D01*
X52705000Y-33447562D01*
X52618768Y-33318507D01*
X52406493Y-33106232D01*
X52156885Y-32939449D01*
X51879534Y-32824566D01*
X51585101Y-32766000D01*
X51284899Y-32766000D01*
X50990466Y-32824566D01*
X50713115Y-32939449D01*
X50463507Y-33106232D01*
X50251232Y-33318507D01*
X50165000Y-33447562D01*
X50078768Y-33318507D01*
X49866493Y-33106232D01*
X49616885Y-32939449D01*
X49339534Y-32824566D01*
X49045101Y-32766000D01*
X48744899Y-32766000D01*
X48450466Y-32824566D01*
X48387000Y-32850855D01*
X48387000Y-32423100D01*
X125700026Y-32423100D01*
X126509917Y-32495381D01*
M02*
